<?xml version="1.0" encoding="utf-8" standalone="no"?>
<!DOCTYPE svg PUBLIC "-//W3C//DTD SVG 1.1//EN"
  "http://www.w3.org/Graphics/SVG/1.1/DTD/svg11.dtd">
<svg xmlns:xlink="http://www.w3.org/1999/xlink" width="368.64pt" height="368.64pt" viewBox="0 0 368.64 368.64" xmlns="http://www.w3.org/2000/svg" version="1.1">
 <metadata>
  <rdf:RDF xmlns:dc="http://purl.org/dc/elements/1.1/" xmlns:cc="http://creativecommons.org/ns#" xmlns:rdf="http://www.w3.org/1999/02/22-rdf-syntax-ns#">
   <cc:Work>
    <dc:type rdf:resource="http://purl.org/dc/dcmitype/StillImage"/>
    <dc:date>2024-08-26T20:28:57.719444</dc:date>
    <dc:format>image/svg+xml</dc:format>
    <dc:creator>
     <cc:Agent>
      <dc:title>Matplotlib v3.9.2, https://matplotlib.org/</dc:title>
     </cc:Agent>
    </dc:creator>
   </cc:Work>
  </rdf:RDF>
 </metadata>
 <defs>
  <style type="text/css">*{stroke-linejoin: round; stroke-linecap: butt}</style>
 </defs>
 <g id="figure_1">
  <g id="patch_1">
   <path d="M 0 368.64 
L 368.64 368.64 
L 368.64 0 
L 0 0 
z
" style="fill: #ffffff"/>
  </g>
  <g id="axes_1">
   <g id="patch_2">
    <path d="M 0 368.64 
L 368.64 368.64 
L 368.64 0 
L 0 0 
z
"/>
   </g>
   <g id="patch_3">
    <path d="M 257.815238 202.115464 
C 258.244266 199.111995 258.114759 196.054948 257.433252 193.098525 
C 256.751744 190.142103 255.52989 187.336862 253.829321 184.824302 
L 251.78926 186.205072 
C 253.319772 188.466375 254.419441 190.991092 255.032797 193.651872 
C 255.646154 196.312653 255.76271 199.063995 255.376585 201.767117 
z
" clip-path="url(#p6913d8e3e0)" style="fill: #3cb44b; opacity: 0.5; stroke: #3cb44b; stroke-linejoin: miter"/>
   </g>
   <g id="patch_4">
    <path d="M 91.621715 161.653931 
C 89.285702 163.589889 87.327316 165.940852 85.845339 168.588234 
C 84.363362 171.235616 83.383138 174.134145 82.95411 177.137613 
L 85.392763 177.48596 
C 85.778888 174.782838 86.66109 172.174163 87.994869 169.791519 
C 89.328648 167.408875 91.091196 165.293008 93.193607 163.550646 
z
" clip-path="url(#p6913d8e3e0)" style="fill: #3cb44b; opacity: 0.5; stroke: #3cb44b; stroke-linejoin: miter"/>
   </g>
   <g id="patch_5">
    <path d="M 266.591335 214.741187 
C 269.418878 208.920363 270.664669 202.456403 270.202981 196.00165 
C 269.741293 189.546897 267.588199 183.326048 263.96099 177.966912 
L 260.907761 180.033421 
C 264.17225 184.856643 266.110035 190.455407 266.525554 196.264685 
C 266.941073 202.073962 265.819861 207.891526 263.275072 213.130268 
z
" clip-path="url(#p6913d8e3e0)" style="fill: #ffe119; opacity: 0.5; stroke: #ffe119; stroke-linejoin: miter"/>
   </g>
   <g id="patch_6">
    <path d="M 192.745413 226.16756 
C 189.118203 220.808424 184.143145 216.497558 178.322321 213.670015 
C 172.501497 210.842472 166.037537 209.596681 159.582784 210.058369 
L 159.845819 213.735797 
C 165.655096 213.320278 171.47266 214.441489 176.711402 216.986278 
C 181.950143 219.531067 186.427696 223.410846 189.692184 228.234069 
z
" clip-path="url(#p6913d8e3e0)" style="fill: #ffe119; opacity: 0.5; stroke: #ffe119; stroke-linejoin: miter"/>
   </g>
   <g id="patch_7">
    <path d="M 154.756075 142.577228 
C 151.512295 142.809245 148.386061 143.891263 145.692874 145.714086 
C 142.999686 147.536909 140.833298 150.037082 139.412341 152.962286 
L 141.0789 153.77184 
C 142.357762 151.139156 144.307511 148.889 146.73138 147.24846 
C 149.155248 145.607919 151.968859 144.634102 154.888261 144.425287 
z
" clip-path="url(#p6913d8e3e0)" style="fill: #4363d8; opacity: 0.5; stroke: #4363d8; stroke-linejoin: miter"/>
   </g>
   <g id="patch_8">
    <path d="M 177.556864 236.447585 
C 175.734041 233.754398 173.233869 231.588009 170.308664 230.167052 
C 167.38346 228.746094 164.135052 228.120033 160.891272 228.35205 
L 161.023458 230.20011 
C 163.94286 229.991294 166.866427 230.554749 169.499111 231.833611 
C 172.131795 233.112473 174.38195 235.062222 176.022491 237.486091 
z
" clip-path="url(#p6913d8e3e0)" style="fill: #4363d8; opacity: 0.5; stroke: #4363d8; stroke-linejoin: miter"/>
   </g>
   <g id="patch_9">
    <path d="M 351.883636 118.458463 
C 337.81129 97.666828 318.509746 80.942126 295.926919 69.972215 
C 273.344092 59.002304 248.266113 54.169059 223.223856 55.960251 
L 224.244341 70.227426 
C 246.782373 68.615353 269.352553 72.965273 289.677098 82.838193 
C 310.001642 92.711113 327.373031 107.763345 340.038143 126.475816 
z
" clip-path="url(#p6913d8e3e0)" style="fill: #f58231; opacity: 0.5; stroke: #f58231; stroke-linejoin: miter"/>
   </g>
   <g id="patch_10">
    <path d="M 290.87291 309.330856 
C 301.842821 286.748028 306.676066 261.67005 304.884874 236.627793 
C 303.093682 211.585535 294.740406 187.450746 280.668059 166.659111 
L 268.822566 174.676464 
C 281.487678 193.388936 289.005627 215.110246 290.6177 237.648278 
C 292.229773 260.18631 287.879852 282.75649 278.006932 303.081034 
z
" clip-path="url(#p6913d8e3e0)" style="fill: #f58231; opacity: 0.5; stroke: #f58231; stroke-linejoin: miter"/>
   </g>
   <g id="patch_11">
    <path d="M 238.014725 262.748099 
C 234.213109 263.020016 230.549254 264.288111 227.392916 266.424406 
C 224.236579 268.560702 221.697634 271.490832 220.032313 274.919087 
L 221.985472 275.86786 
C 223.484261 272.78243 225.769311 270.145314 228.610015 268.222648 
C 231.450719 266.299982 234.748188 265.158697 238.169643 264.913971 
z
" clip-path="url(#p6913d8e3e0)" style="fill: #911eb4; opacity: 0.5; stroke: #911eb4; stroke-linejoin: miter"/>
   </g>
   <g id="patch_12">
    <path d="M 181.74472 256.320375 
C 183.410041 252.89212 184.143766 249.085081 183.871849 245.283465 
C 183.599932 241.481849 182.331837 237.817994 180.195542 234.661656 
L 178.3973 235.878755 
C 180.319966 238.719459 181.461251 242.016928 181.705977 245.438383 
C 181.950703 248.859838 181.29035 252.286173 179.791561 255.371602 
z
" clip-path="url(#p6913d8e3e0)" style="fill: #911eb4; opacity: 0.5; stroke: #911eb4; stroke-linejoin: miter"/>
   </g>
   <g id="patch_13">
    <path d="M 146.928495 228.38953 
C 157.04603 220.004676 164.242711 208.618361 167.474964 195.881688 
C 170.707217 183.145016 169.810874 169.704891 164.915911 157.510236 
L 159.158384 159.82132 
C 163.563851 170.79651 164.37056 182.892622 161.461532 194.355628 
C 158.552504 205.818633 152.075491 216.066316 142.96971 223.612685 
z
" clip-path="url(#p6913d8e3e0)" style="fill: #46f0f0; opacity: 0.5; stroke: #46f0f0; stroke-linejoin: miter"/>
   </g>
   <g id="patch_14">
    <path d="M 213.653202 137.946975 
C 208.758239 125.752319 200.113276 115.422509 188.971897 108.455445 
C 177.830519 101.488381 164.758605 98.237927 151.651684 99.175423 
L 152.094309 105.363663 
C 163.890538 104.519916 175.65526 107.445325 185.682501 113.715683 
C 195.709741 119.98604 203.490208 129.282869 207.895675 140.25806 
z
" clip-path="url(#p6913d8e3e0)" style="fill: #46f0f0; opacity: 0.5; stroke: #46f0f0; stroke-linejoin: miter"/>
   </g>
   <g id="patch_15">
    <path d="M 95.774601 166.664986 
C 95.278369 167.076235 94.804424 167.513659 94.354786 167.975392 
C 93.905148 168.437125 93.480456 168.922512 93.08252 169.429483 
L 94.508332 170.548643 
C 94.866474 170.092369 95.248697 169.655521 95.653371 169.239961 
C 96.058046 168.824401 96.484596 168.43072 96.931205 168.060595 
z
" clip-path="url(#p6913d8e3e0)" style="fill: #f032e6; opacity: 0.5; stroke: #f032e6; stroke-linejoin: miter"/>
   </g>
   <g id="patch_16">
    <path d="M 225.305782 273.21522 
C 224.907846 273.722191 224.537233 274.250025 224.195522 274.796473 
C 223.85381 275.342921 223.541486 275.907205 223.259881 276.486921 
L 224.890284 277.278911 
C 225.143728 276.757166 225.424819 276.24931 225.73236 275.757507 
C 226.0399 275.265704 226.373452 274.790653 226.731594 274.33438 
z
" clip-path="url(#p6913d8e3e0)" style="fill: #f032e6; opacity: 0.5; stroke: #f032e6; stroke-linejoin: miter"/>
   </g>
   <g id="patch_17">
    <path d="M 197.92492 193.560495 
C 199.055707 185.644255 199.14392 177.613829 198.187303 169.674659 
C 197.230685 161.735489 195.237465 153.955862 192.258635 146.534803 
L 183.766836 149.943431 
C 186.447783 156.622384 188.241681 163.624048 189.102637 170.769301 
C 189.963592 177.914554 189.884201 185.141938 188.866492 192.266554 
z
" clip-path="url(#p6913d8e3e0)" style="fill: #bcf60c; opacity: 0.5; stroke: #bcf60c; stroke-linejoin: miter"/>
   </g>
   <g id="patch_18">
    <path d="M 35.362063 124.123081 
C 30.424653 130.413352 26.333045 137.323799 23.191915 144.677631 
C 20.050785 152.031462 17.88715 159.765427 16.756364 167.681667 
L 25.814791 168.975609 
C 26.8325 161.850993 28.779771 154.890424 31.606788 148.271976 
C 34.433804 141.653527 38.116252 135.434125 42.559921 129.772881 
z
" clip-path="url(#p6913d8e3e0)" style="fill: #bcf60c; opacity: 0.5; stroke: #bcf60c; stroke-linejoin: miter"/>
   </g>
   <g id="PathCollection_1">
    <defs>
     <path id="m6c745e17bb" d="M 0 1.118034 
C 0.296506 1.118034 0.580908 1.000231 0.790569 0.790569 
C 1.000231 0.580908 1.118034 0.296506 1.118034 0 
C 1.118034 -0.296506 1.000231 -0.580908 0.790569 -0.790569 
C 0.580908 -1.000231 0.296506 -1.118034 0 -1.118034 
C -0.296506 -1.118034 -0.580908 -1.000231 -0.790569 -0.790569 
C -1.000231 -0.580908 -1.118034 -0.296506 -1.118034 0 
C -1.118034 0.296506 -1.000231 0.580908 -0.790569 0.790569 
C -0.580908 1.000231 -0.296506 1.118034 0 1.118034 
z
" style="stroke: #ffffff"/>
    </defs>
    <g clip-path="url(#p6913d8e3e0)">
     <use xlink:href="#m6c745e17bb" x="217.085617" y="313.044206" style="fill: #ffffff; stroke: #ffffff"/>
    </g>
   </g>
   <g id="PathCollection_2">
    <g clip-path="url(#p6913d8e3e0)">
     <use xlink:href="#m6c745e17bb" x="107.340642" y="180.621081" style="fill: #ffffff; stroke: #ffffff"/>
    </g>
   </g>
   <g id="PathCollection_3">
    <g clip-path="url(#p6913d8e3e0)">
     <use xlink:href="#m6c745e17bb" x="162.21313" y="246.832644" style="fill: #ffffff; stroke: #ffffff"/>
    </g>
   </g>
   <g id="PathCollection_4">
    <g clip-path="url(#p6913d8e3e0)">
     <use xlink:href="#m6c745e17bb" x="233.428707" y="198.631996" style="fill: #ffffff; stroke: #ffffff"/>
    </g>
   </g>
   <g id="PathCollection_5">
    <g clip-path="url(#p6913d8e3e0)">
     <use xlink:href="#m6c745e17bb" x="77.083297" y="234.672364" style="fill: #ffffff; stroke: #ffffff"/>
    </g>
   </g>
   <g id="PathCollection_6">
    <g clip-path="url(#p6913d8e3e0)">
     <use xlink:href="#m6c745e17bb" x="156.077932" y="161.057821" style="fill: #ffffff; stroke: #ffffff"/>
    </g>
   </g>
   <g id="PathCollection_7">
    <g clip-path="url(#p6913d8e3e0)">
     <use xlink:href="#m6c745e17bb" x="239.563904" y="284.406818" style="fill: #ffffff; stroke: #ffffff"/>
    </g>
   </g>
   <g id="PathCollection_8">
    <g clip-path="url(#p6913d8e3e0)">
     <use xlink:href="#m6c745e17bb" x="318.55854" y="210.792275" style="fill: #ffffff; stroke: #ffffff"/>
    </g>
   </g>
   <g id="matplotlib.axis_1">
    <g id="xtick_1">
     <g id="line2d_1">
      <defs>
       <path id="me129a5166f" d="M 0 0 
L 0 3.5 
" style="stroke: #000000; stroke-width: 0.8"/>
      </defs>
      <g>
       <use xlink:href="#me129a5166f" x="2.368689" y="368.64" style="stroke: #000000; stroke-width: 0.8"/>
      </g>
     </g>
     <g id="text_1">
      <!-- −1.5 -->
      <g transform="translate(-9.772718 383.238437) scale(0.1 -0.1)">
       <defs>
        <path id="DejaVuSans-2212" d="M 678 2272 
L 4684 2272 
L 4684 1741 
L 678 1741 
L 678 2272 
z
" transform="scale(0.015625)"/>
        <path id="DejaVuSans-31" d="M 794 531 
L 1825 531 
L 1825 4091 
L 703 3866 
L 703 4441 
L 1819 4666 
L 2450 4666 
L 2450 531 
L 3481 531 
L 3481 0 
L 794 0 
L 794 531 
z
" transform="scale(0.015625)"/>
        <path id="DejaVuSans-2e" d="M 684 794 
L 1344 794 
L 1344 0 
L 684 0 
L 684 794 
z
" transform="scale(0.015625)"/>
        <path id="DejaVuSans-35" d="M 691 4666 
L 3169 4666 
L 3169 4134 
L 1269 4134 
L 1269 2991 
Q 1406 3038 1543 3061 
Q 1681 3084 1819 3084 
Q 2600 3084 3056 2656 
Q 3513 2228 3513 1497 
Q 3513 744 3044 326 
Q 2575 -91 1722 -91 
Q 1428 -91 1123 -41 
Q 819 9 494 109 
L 494 744 
Q 775 591 1075 516 
Q 1375 441 1709 441 
Q 2250 441 2565 725 
Q 2881 1009 2881 1497 
Q 2881 1984 2565 2268 
Q 2250 2553 1709 2553 
Q 1456 2553 1204 2497 
Q 953 2441 691 2322 
L 691 4666 
z
" transform="scale(0.015625)"/>
       </defs>
       <use xlink:href="#DejaVuSans-2212"/>
       <use xlink:href="#DejaVuSans-31" x="83.789062"/>
       <use xlink:href="#DejaVuSans-2e" x="147.412109"/>
       <use xlink:href="#DejaVuSans-35" x="179.199219"/>
      </g>
     </g>
    </g>
    <g id="xtick_2">
     <g id="line2d_2">
      <g>
       <use xlink:href="#me129a5166f" x="79.023063" y="368.64" style="stroke: #000000; stroke-width: 0.8"/>
      </g>
     </g>
     <g id="text_2">
      <!-- −1.0 -->
      <g transform="translate(66.881657 383.238437) scale(0.1 -0.1)">
       <defs>
        <path id="DejaVuSans-30" d="M 2034 4250 
Q 1547 4250 1301 3770 
Q 1056 3291 1056 2328 
Q 1056 1369 1301 889 
Q 1547 409 2034 409 
Q 2525 409 2770 889 
Q 3016 1369 3016 2328 
Q 3016 3291 2770 3770 
Q 2525 4250 2034 4250 
z
M 2034 4750 
Q 2819 4750 3233 4129 
Q 3647 3509 3647 2328 
Q 3647 1150 3233 529 
Q 2819 -91 2034 -91 
Q 1250 -91 836 529 
Q 422 1150 422 2328 
Q 422 3509 836 4129 
Q 1250 4750 2034 4750 
z
" transform="scale(0.015625)"/>
       </defs>
       <use xlink:href="#DejaVuSans-2212"/>
       <use xlink:href="#DejaVuSans-31" x="83.789062"/>
       <use xlink:href="#DejaVuSans-2e" x="147.412109"/>
       <use xlink:href="#DejaVuSans-30" x="179.199219"/>
      </g>
     </g>
    </g>
    <g id="xtick_3">
     <g id="line2d_3">
      <g>
       <use xlink:href="#me129a5166f" x="155.677438" y="368.64" style="stroke: #000000; stroke-width: 0.8"/>
      </g>
     </g>
     <g id="text_3">
      <!-- −0.5 -->
      <g transform="translate(143.536031 383.238437) scale(0.1 -0.1)">
       <use xlink:href="#DejaVuSans-2212"/>
       <use xlink:href="#DejaVuSans-30" x="83.789062"/>
       <use xlink:href="#DejaVuSans-2e" x="147.412109"/>
       <use xlink:href="#DejaVuSans-35" x="179.199219"/>
      </g>
     </g>
    </g>
    <g id="xtick_4">
     <g id="line2d_4">
      <g>
       <use xlink:href="#me129a5166f" x="232.331812" y="368.64" style="stroke: #000000; stroke-width: 0.8"/>
      </g>
     </g>
     <g id="text_4">
      <!-- 0.0 -->
      <g transform="translate(224.38025 383.238437) scale(0.1 -0.1)">
       <use xlink:href="#DejaVuSans-30"/>
       <use xlink:href="#DejaVuSans-2e" x="63.623047"/>
       <use xlink:href="#DejaVuSans-30" x="95.410156"/>
      </g>
     </g>
    </g>
    <g id="xtick_5">
     <g id="line2d_5">
      <g>
       <use xlink:href="#me129a5166f" x="308.986187" y="368.64" style="stroke: #000000; stroke-width: 0.8"/>
      </g>
     </g>
     <g id="text_5">
      <!-- 0.5 -->
      <g transform="translate(301.034624 383.238437) scale(0.1 -0.1)">
       <use xlink:href="#DejaVuSans-30"/>
       <use xlink:href="#DejaVuSans-2e" x="63.623047"/>
       <use xlink:href="#DejaVuSans-35" x="95.410156"/>
      </g>
     </g>
    </g>
   </g>
   <g id="matplotlib.axis_2">
    <g id="ytick_1">
     <g id="line2d_6">
      <defs>
       <path id="m0c19c67bdb" d="M 0 0 
L -3.5 0 
" style="stroke: #000000; stroke-width: 0.8"/>
      </defs>
      <g>
       <use xlink:href="#m0c19c67bdb" x="0" y="357.340997" style="stroke: #000000; stroke-width: 0.8"/>
      </g>
     </g>
     <g id="text_6">
      <!-- −0.5 -->
      <g transform="translate(-31.282813 361.140216) scale(0.1 -0.1)">
       <use xlink:href="#DejaVuSans-2212"/>
       <use xlink:href="#DejaVuSans-30" x="83.789062"/>
       <use xlink:href="#DejaVuSans-2e" x="147.412109"/>
       <use xlink:href="#DejaVuSans-35" x="179.199219"/>
      </g>
     </g>
    </g>
    <g id="ytick_2">
     <g id="line2d_7">
      <g>
       <use xlink:href="#m0c19c67bdb" x="0" y="280.686623" style="stroke: #000000; stroke-width: 0.8"/>
      </g>
     </g>
     <g id="text_7">
      <!-- 0.0 -->
      <g transform="translate(-22.903125 284.485842) scale(0.1 -0.1)">
       <use xlink:href="#DejaVuSans-30"/>
       <use xlink:href="#DejaVuSans-2e" x="63.623047"/>
       <use xlink:href="#DejaVuSans-30" x="95.410156"/>
      </g>
     </g>
    </g>
    <g id="ytick_3">
     <g id="line2d_8">
      <g>
       <use xlink:href="#m0c19c67bdb" x="0" y="204.032248" style="stroke: #000000; stroke-width: 0.8"/>
      </g>
     </g>
     <g id="text_8">
      <!-- 0.5 -->
      <g transform="translate(-22.903125 207.831467) scale(0.1 -0.1)">
       <use xlink:href="#DejaVuSans-30"/>
       <use xlink:href="#DejaVuSans-2e" x="63.623047"/>
       <use xlink:href="#DejaVuSans-35" x="95.410156"/>
      </g>
     </g>
    </g>
    <g id="ytick_4">
     <g id="line2d_9">
      <g>
       <use xlink:href="#m0c19c67bdb" x="0" y="127.377874" style="stroke: #000000; stroke-width: 0.8"/>
      </g>
     </g>
     <g id="text_9">
      <!-- 1.0 -->
      <g transform="translate(-22.903125 131.177093) scale(0.1 -0.1)">
       <use xlink:href="#DejaVuSans-31"/>
       <use xlink:href="#DejaVuSans-2e" x="63.623047"/>
       <use xlink:href="#DejaVuSans-30" x="95.410156"/>
      </g>
     </g>
    </g>
    <g id="ytick_5">
     <g id="line2d_10">
      <g>
       <use xlink:href="#m0c19c67bdb" x="0" y="50.723499" style="stroke: #000000; stroke-width: 0.8"/>
      </g>
     </g>
     <g id="text_10">
      <!-- 1.5 -->
      <g transform="translate(-22.903125 54.522718) scale(0.1 -0.1)">
       <use xlink:href="#DejaVuSans-31"/>
       <use xlink:href="#DejaVuSans-2e" x="63.623047"/>
       <use xlink:href="#DejaVuSans-35" x="95.410156"/>
      </g>
     </g>
    </g>
   </g>
   <g id="line2d_11">
    <path d="M 0 165.288122 
L 368.64 217.946108 
" clip-path="url(#p6913d8e3e0)" style="fill: none; stroke-dasharray: 1.48,0.64; stroke-dashoffset: 0; stroke: #ffffff; stroke-width: 0.4"/>
   </g>
   <g id="line2d_12">
    <path d="M 233.428707 198.631996 
L 162.21313 246.832644 
" clip-path="url(#p6913d8e3e0)" style="fill: none; stroke: #ffffff; stroke-opacity: 0.9; stroke-width: 0.4; stroke-linecap: square"/>
   </g>
   <g id="line2d_13">
    <path d="M 217.085617 313.044206 
L 162.21313 246.832644 
" clip-path="url(#p6913d8e3e0)" style="fill: none; stroke: #ffffff; stroke-opacity: 0.9; stroke-width: 0.4; stroke-linecap: square"/>
   </g>
   <g id="line2d_14">
    <path d="M 233.428707 198.631996 
L 162.21313 246.832644 
" clip-path="url(#p6913d8e3e0)" style="fill: none; stroke: #ffffff; stroke-opacity: 0.9; stroke-width: 0.4; stroke-linecap: square"/>
   </g>
   <g id="line2d_15">
    <path d="M 107.340642 180.621081 
L 162.21313 246.832644 
" clip-path="url(#p6913d8e3e0)" style="fill: none; stroke: #ffffff; stroke-opacity: 0.9; stroke-width: 0.4; stroke-linecap: square"/>
   </g>
   <g id="line2d_16">
    <path d="M 0 165.288122 
L 368.64 217.946108 
" clip-path="url(#p6913d8e3e0)" style="fill: none; stroke-dasharray: 0.4,0.66; stroke-dashoffset: 0; stroke: #ffffff; stroke-opacity: 0.9; stroke-width: 0.4"/>
   </g>
   <g id="line2d_17">
    <path d="M 0 356.622921 
L 368.64 107.117299 
" clip-path="url(#p6913d8e3e0)" style="fill: none; stroke-dasharray: 0.4,0.66; stroke-dashoffset: 0; stroke: #ffffff; stroke-opacity: 0.9; stroke-width: 0.4"/>
   </g>
   <g id="line2d_18">
    <path d="M 0 51.099131 
L 263.160342 368.64 
" clip-path="url(#p6913d8e3e0)" style="fill: none; stroke-dasharray: 0.4,0.66; stroke-dashoffset: 0; stroke: #ffffff; stroke-opacity: 0.9; stroke-width: 0.4"/>
   </g>
   <g id="line2d_19">
    <path d="M 0 165.288122 
L 368.64 217.946108 
" clip-path="url(#p6913d8e3e0)" style="fill: none; stroke-dasharray: 0.4,0.66; stroke-dashoffset: 0; stroke: #ffffff; stroke-opacity: 0.9; stroke-width: 0.4"/>
   </g>
   <g id="line2d_20">
    <path d="M 0 85.240874 
L 368.64 264.312693 
" clip-path="url(#p6913d8e3e0)" style="fill: none; stroke-dasharray: 0.4,0.66; stroke-dashoffset: 0; stroke: #ffffff; stroke-opacity: 0.9; stroke-width: 0.4"/>
   </g>
   <g id="line2d_21">
    <path d="M 0 356.622921 
L 368.64 107.117299 
" clip-path="url(#p6913d8e3e0)" style="fill: none; stroke-dasharray: 0.4,0.66; stroke-dashoffset: 0; stroke: #ffffff; stroke-opacity: 0.9; stroke-width: 0.4"/>
   </g>
   <g id="line2d_22">
    <path d="M 0 356.622921 
L 368.64 107.117299 
" clip-path="url(#p6913d8e3e0)" style="fill: none; stroke-dasharray: 0.4,0.66; stroke-dashoffset: 0; stroke: #ffffff; stroke-opacity: 0.9; stroke-width: 0.4"/>
   </g>
   <g id="line2d_23">
    <path d="M 144.557985 0 
L 170.925618 368.64 
" clip-path="url(#p6913d8e3e0)" style="fill: none; stroke-dasharray: 0.4,0.66; stroke-dashoffset: 0; stroke: #ffffff; stroke-opacity: 0.9; stroke-width: 0.4"/>
   </g>
   <g id="line2d_24">
    <path d="M 233.428707 198.631996 
L 156.077932 161.057821 
" clip-path="url(#p6913d8e3e0)" style="fill: none; stroke: #ffffff; stroke-opacity: 0.9; stroke-width: 0.4; stroke-linecap: square"/>
   </g>
   <g id="line2d_25">
    <path d="M 156.077932 161.057821 
L 162.21313 246.832644 
" clip-path="url(#p6913d8e3e0)" style="fill: none; stroke: #ffffff; stroke-opacity: 0.9; stroke-width: 0.4; stroke-linecap: square"/>
   </g>
   <g id="line2d_26">
    <path d="M 217.085617 313.044206 
L 162.21313 246.832644 
" clip-path="url(#p6913d8e3e0)" style="fill: none; stroke: #ffffff; stroke-opacity: 0.9; stroke-width: 0.4; stroke-linecap: square"/>
   </g>
   <g id="line2d_27">
    <path d="M 156.077932 161.057821 
L 162.21313 246.832644 
" clip-path="url(#p6913d8e3e0)" style="fill: none; stroke: #ffffff; stroke-opacity: 0.9; stroke-width: 0.4; stroke-linecap: square"/>
   </g>
   <g id="line2d_28">
    <path d="M 233.428707 198.631996 
L 156.077932 161.057821 
" clip-path="url(#p6913d8e3e0)" style="fill: none; stroke: #ffffff; stroke-opacity: 0.9; stroke-width: 0.4; stroke-linecap: square"/>
   </g>
   <g id="line2d_29">
    <path d="M 233.428707 198.631996 
L 162.21313 246.832644 
" clip-path="url(#p6913d8e3e0)" style="fill: none; stroke: #ffffff; stroke-opacity: 0.9; stroke-width: 0.4; stroke-linecap: square"/>
   </g>
   <g id="line2d_30">
    <path d="M 0 85.240874 
L 368.64 264.312693 
" clip-path="url(#p6913d8e3e0)" style="fill: none; stroke-dasharray: 0.4,0.66; stroke-dashoffset: 0; stroke: #ffffff; stroke-opacity: 0.9; stroke-width: 0.4"/>
   </g>
   <g id="line2d_31">
    <path d="M 144.557985 0 
L 170.925618 368.64 
" clip-path="url(#p6913d8e3e0)" style="fill: none; stroke-dasharray: 0.4,0.66; stroke-dashoffset: 0; stroke: #ffffff; stroke-opacity: 0.9; stroke-width: 0.4"/>
   </g>
   <g id="line2d_32">
    <path d="M 144.557985 0 
L 170.925618 368.64 
" clip-path="url(#p6913d8e3e0)" style="fill: none; stroke-dasharray: 0.4,0.66; stroke-dashoffset: 0; stroke: #ffffff; stroke-opacity: 0.9; stroke-width: 0.4"/>
   </g>
   <g id="line2d_33">
    <path d="M 0 356.622921 
L 368.64 107.117299 
" clip-path="url(#p6913d8e3e0)" style="fill: none; stroke-dasharray: 0.4,0.66; stroke-dashoffset: 0; stroke: #ffffff; stroke-opacity: 0.9; stroke-width: 0.4"/>
   </g>
   <g id="line2d_34">
    <path d="M 219.221199 0 
L 245.588832 368.64 
" clip-path="url(#p6913d8e3e0)" style="fill: none; stroke-dasharray: 0.4,0.66; stroke-dashoffset: 0; stroke: #ffffff; stroke-opacity: 0.9; stroke-width: 0.4"/>
   </g>
   <g id="line2d_35">
    <path d="M 0 356.622921 
L 368.64 107.117299 
" clip-path="url(#p6913d8e3e0)" style="fill: none; stroke-dasharray: 0.4,0.66; stroke-dashoffset: 0; stroke: #ffffff; stroke-opacity: 0.9; stroke-width: 0.4"/>
   </g>
   <g id="line2d_36">
    <path d="M 0 356.622921 
L 368.64 107.117299 
" clip-path="url(#p6913d8e3e0)" style="fill: none; stroke-dasharray: 0.4,0.66; stroke-dashoffset: 0; stroke: #ffffff; stroke-opacity: 0.9; stroke-width: 0.4"/>
   </g>
   <g id="line2d_37">
    <path d="M 0 168.035443 
L 368.64 347.107261 
" clip-path="url(#p6913d8e3e0)" style="fill: none; stroke-dasharray: 0.4,0.66; stroke-dashoffset: 0; stroke: #ffffff; stroke-opacity: 0.9; stroke-width: 0.4"/>
   </g>
   <g id="line2d_38">
    <path d="M 233.428707 198.631996 
L 239.563904 284.406818 
" clip-path="url(#p6913d8e3e0)" style="fill: none; stroke: #ffffff; stroke-opacity: 0.9; stroke-width: 0.4; stroke-linecap: square"/>
   </g>
   <g id="line2d_39">
    <path d="M 239.563904 284.406818 
L 162.21313 246.832644 
" clip-path="url(#p6913d8e3e0)" style="fill: none; stroke: #ffffff; stroke-opacity: 0.9; stroke-width: 0.4; stroke-linecap: square"/>
   </g>
   <g id="line2d_40">
    <path d="M 217.085617 313.044206 
L 162.21313 246.832644 
" clip-path="url(#p6913d8e3e0)" style="fill: none; stroke: #ffffff; stroke-opacity: 0.9; stroke-width: 0.4; stroke-linecap: square"/>
   </g>
   <g id="line2d_41">
    <path d="M 239.563904 284.406818 
L 162.21313 246.832644 
" clip-path="url(#p6913d8e3e0)" style="fill: none; stroke: #ffffff; stroke-opacity: 0.9; stroke-width: 0.4; stroke-linecap: square"/>
   </g>
   <g id="line2d_42">
    <path d="M 233.428707 198.631996 
L 239.563904 284.406818 
" clip-path="url(#p6913d8e3e0)" style="fill: none; stroke: #ffffff; stroke-opacity: 0.9; stroke-width: 0.4; stroke-linecap: square"/>
   </g>
   <g id="line2d_43">
    <path d="M 233.428707 198.631996 
L 162.21313 246.832644 
" clip-path="url(#p6913d8e3e0)" style="fill: none; stroke: #ffffff; stroke-opacity: 0.9; stroke-width: 0.4; stroke-linecap: square"/>
   </g>
   <g id="line2d_44">
    <path d="M 219.221199 0 
L 245.588832 368.64 
" clip-path="url(#p6913d8e3e0)" style="fill: none; stroke-dasharray: 0.4,0.66; stroke-dashoffset: 0; stroke: #ffffff; stroke-opacity: 0.9; stroke-width: 0.4"/>
   </g>
   <g id="line2d_45">
    <path d="M 0 168.035443 
L 368.64 347.107261 
" clip-path="url(#p6913d8e3e0)" style="fill: none; stroke-dasharray: 0.4,0.66; stroke-dashoffset: 0; stroke: #ffffff; stroke-opacity: 0.9; stroke-width: 0.4"/>
   </g>
   <g id="line2d_46">
    <path d="M 0 168.035443 
L 368.64 347.107261 
" clip-path="url(#p6913d8e3e0)" style="fill: none; stroke-dasharray: 0.4,0.66; stroke-dashoffset: 0; stroke: #ffffff; stroke-opacity: 0.9; stroke-width: 0.4"/>
   </g>
   <g id="line2d_47">
    <path d="M 0 356.622921 
L 368.64 107.117299 
" clip-path="url(#p6913d8e3e0)" style="fill: none; stroke-dasharray: 0.4,0.66; stroke-dashoffset: 0; stroke: #ffffff; stroke-opacity: 0.9; stroke-width: 0.4"/>
   </g>
   <g id="line2d_48">
    <path d="M 107.340642 180.621081 
L 162.21313 246.832644 
" clip-path="url(#p6913d8e3e0)" style="fill: none; stroke: #ffffff; stroke-opacity: 0.9; stroke-width: 0.4; stroke-linecap: square"/>
   </g>
   <g id="line2d_49">
    <path d="M 156.077932 161.057821 
L 162.21313 246.832644 
" clip-path="url(#p6913d8e3e0)" style="fill: none; stroke: #ffffff; stroke-opacity: 0.9; stroke-width: 0.4; stroke-linecap: square"/>
   </g>
   <g id="line2d_50">
    <path d="M 0 223.707862 
L 368.64 75.734918 
" clip-path="url(#p6913d8e3e0)" style="fill: none; stroke-dasharray: 0.4,0.66; stroke-dashoffset: 0; stroke: #ffffff; stroke-opacity: 0.9; stroke-width: 0.4"/>
   </g>
   <g id="line2d_51">
    <path d="M 0 51.099131 
L 263.160342 368.64 
" clip-path="url(#p6913d8e3e0)" style="fill: none; stroke-dasharray: 0.4,0.66; stroke-dashoffset: 0; stroke: #ffffff; stroke-opacity: 0.9; stroke-width: 0.4"/>
   </g>
   <g id="line2d_52">
    <path d="M 144.557985 0 
L 170.925618 368.64 
" clip-path="url(#p6913d8e3e0)" style="fill: none; stroke-dasharray: 0.4,0.66; stroke-dashoffset: 0; stroke: #ffffff; stroke-opacity: 0.9; stroke-width: 0.4"/>
   </g>
   <g id="line2d_53">
    <path d="M 0 223.707862 
L 368.64 75.734918 
" clip-path="url(#p6913d8e3e0)" style="fill: none; stroke-dasharray: 0.4,0.66; stroke-dashoffset: 0; stroke: #ffffff; stroke-opacity: 0.9; stroke-width: 0.4"/>
   </g>
   <g id="line2d_54">
    <path d="M 107.340642 180.621081 
L 162.21313 246.832644 
" clip-path="url(#p6913d8e3e0)" style="fill: none; stroke: #ffffff; stroke-opacity: 0.9; stroke-width: 0.4; stroke-linecap: square"/>
   </g>
   <g id="line2d_55">
    <path d="M 239.563904 284.406818 
L 162.21313 246.832644 
" clip-path="url(#p6913d8e3e0)" style="fill: none; stroke: #ffffff; stroke-opacity: 0.9; stroke-width: 0.4; stroke-linecap: square"/>
   </g>
   <g id="line2d_56">
    <path d="M 0 96.366408 
L 346.877166 368.64 
" clip-path="url(#p6913d8e3e0)" style="fill: none; stroke-dasharray: 0.4,0.66; stroke-dashoffset: 0; stroke: #ffffff; stroke-opacity: 0.9; stroke-width: 0.4"/>
   </g>
   <g id="line2d_57">
    <path d="M 0 51.099131 
L 263.160342 368.64 
" clip-path="url(#p6913d8e3e0)" style="fill: none; stroke-dasharray: 0.4,0.66; stroke-dashoffset: 0; stroke: #ffffff; stroke-opacity: 0.9; stroke-width: 0.4"/>
   </g>
   <g id="line2d_58">
    <path d="M 0 168.035443 
L 368.64 347.107261 
" clip-path="url(#p6913d8e3e0)" style="fill: none; stroke-dasharray: 0.4,0.66; stroke-dashoffset: 0; stroke: #ffffff; stroke-opacity: 0.9; stroke-width: 0.4"/>
   </g>
   <g id="line2d_59">
    <path d="M 0 96.366408 
L 346.877166 368.64 
" clip-path="url(#p6913d8e3e0)" style="fill: none; stroke-dasharray: 0.4,0.66; stroke-dashoffset: 0; stroke: #ffffff; stroke-opacity: 0.9; stroke-width: 0.4"/>
   </g>
   <g id="line2d_60">
    <path d="M 0 223.707862 
L 368.64 75.734918 
" clip-path="url(#p6913d8e3e0)" style="fill: none; stroke-dasharray: 0.4,0.66; stroke-dashoffset: 0; stroke: #ffffff; stroke-opacity: 0.9; stroke-width: 0.4"/>
   </g>
   <g id="line2d_61">
    <path d="M 0 165.288122 
L 368.64 217.946108 
" clip-path="url(#p6913d8e3e0)" style="fill: none; stroke-dasharray: 0.4,0.66; stroke-dashoffset: 0; stroke: #ffffff; stroke-opacity: 0.9; stroke-width: 0.4"/>
   </g>
   <g id="line2d_62">
    <path d="M 0 165.288122 
L 368.64 217.946108 
" clip-path="url(#p6913d8e3e0)" style="fill: none; stroke-dasharray: 0.4,0.66; stroke-dashoffset: 0; stroke: #ffffff; stroke-opacity: 0.9; stroke-width: 0.4"/>
   </g>
   <g id="line2d_63">
    <path d="M 0 96.366408 
L 346.877166 368.64 
" clip-path="url(#p6913d8e3e0)" style="fill: none; stroke-dasharray: 0.4,0.66; stroke-dashoffset: 0; stroke: #ffffff; stroke-opacity: 0.9; stroke-width: 0.4"/>
   </g>
   <g id="patch_19">
    <path d="M 0 368.64 
L 0 0 
" style="fill: none; stroke: #000000; stroke-width: 0.8; stroke-linejoin: miter; stroke-linecap: square"/>
   </g>
   <g id="patch_20">
    <path d="M 368.64 368.64 
L 368.64 0 
" style="fill: none; stroke: #000000; stroke-width: 0.8; stroke-linejoin: miter; stroke-linecap: square"/>
   </g>
   <g id="patch_21">
    <path d="M 0 368.64 
L 368.64 368.64 
" style="fill: none; stroke: #000000; stroke-width: 0.8; stroke-linejoin: miter; stroke-linecap: square"/>
   </g>
   <g id="patch_22">
    <path d="M 0 0 
L 368.64 0 
" style="fill: none; stroke: #000000; stroke-width: 0.8; stroke-linejoin: miter; stroke-linecap: square"/>
   </g>
   <g id="text_11">
    <!-- B -->
    <g style="fill: #00ff00" transform="translate(217.085617 313.044206) scale(0.1 -0.1)">
     <defs>
      <path id="DejaVuSans-42" d="M 1259 2228 
L 1259 519 
L 2272 519 
Q 2781 519 3026 730 
Q 3272 941 3272 1375 
Q 3272 1813 3026 2020 
Q 2781 2228 2272 2228 
L 1259 2228 
z
M 1259 4147 
L 1259 2741 
L 2194 2741 
Q 2656 2741 2882 2914 
Q 3109 3088 3109 3444 
Q 3109 3797 2882 3972 
Q 2656 4147 2194 4147 
L 1259 4147 
z
M 628 4666 
L 2241 4666 
Q 2963 4666 3353 4366 
Q 3744 4066 3744 3513 
Q 3744 3084 3544 2831 
Q 3344 2578 2956 2516 
Q 3422 2416 3680 2098 
Q 3938 1781 3938 1306 
Q 3938 681 3513 340 
Q 3088 0 2303 0 
L 628 0 
L 628 4666 
z
" transform="scale(0.015625)"/>
     </defs>
     <use xlink:href="#DejaVuSans-42"/>
    </g>
   </g>
   <g id="text_12">
    <!-- C -->
    <g style="fill: #00ff00" transform="translate(107.340642 180.621081) scale(0.1 -0.1)">
     <defs>
      <path id="DejaVuSans-43" d="M 4122 4306 
L 4122 3641 
Q 3803 3938 3442 4084 
Q 3081 4231 2675 4231 
Q 1875 4231 1450 3742 
Q 1025 3253 1025 2328 
Q 1025 1406 1450 917 
Q 1875 428 2675 428 
Q 3081 428 3442 575 
Q 3803 722 4122 1019 
L 4122 359 
Q 3791 134 3420 21 
Q 3050 -91 2638 -91 
Q 1578 -91 968 557 
Q 359 1206 359 2328 
Q 359 3453 968 4101 
Q 1578 4750 2638 4750 
Q 3056 4750 3426 4639 
Q 3797 4528 4122 4306 
z
" transform="scale(0.015625)"/>
     </defs>
     <use xlink:href="#DejaVuSans-43"/>
    </g>
   </g>
   <g id="text_13">
    <!-- O -->
    <g style="fill: #00ff00" transform="translate(162.21313 246.832644) scale(0.1 -0.1)">
     <defs>
      <path id="DejaVuSans-4f" d="M 2522 4238 
Q 1834 4238 1429 3725 
Q 1025 3213 1025 2328 
Q 1025 1447 1429 934 
Q 1834 422 2522 422 
Q 3209 422 3611 934 
Q 4013 1447 4013 2328 
Q 4013 3213 3611 3725 
Q 3209 4238 2522 4238 
z
M 2522 4750 
Q 3503 4750 4090 4092 
Q 4678 3434 4678 2328 
Q 4678 1225 4090 567 
Q 3503 -91 2522 -91 
Q 1538 -91 948 565 
Q 359 1222 359 2328 
Q 359 3434 948 4092 
Q 1538 4750 2522 4750 
z
" transform="scale(0.015625)"/>
     </defs>
     <use xlink:href="#DejaVuSans-4f"/>
    </g>
   </g>
   <g id="text_14">
    <!-- A -->
    <g style="fill: #00ff00" transform="translate(233.428707 198.631996) scale(0.1 -0.1)">
     <defs>
      <path id="DejaVuSans-41" d="M 2188 4044 
L 1331 1722 
L 3047 1722 
L 2188 4044 
z
M 1831 4666 
L 2547 4666 
L 4325 0 
L 3669 0 
L 3244 1197 
L 1141 1197 
L 716 0 
L 50 0 
L 1831 4666 
z
" transform="scale(0.015625)"/>
     </defs>
     <use xlink:href="#DejaVuSans-41"/>
    </g>
   </g>
   <g id="text_15">
    <!-- D -->
    <g style="fill: #00ff00" transform="translate(77.083297 234.672364) scale(0.1 -0.1)">
     <defs>
      <path id="DejaVuSans-44" d="M 1259 4147 
L 1259 519 
L 2022 519 
Q 2988 519 3436 956 
Q 3884 1394 3884 2338 
Q 3884 3275 3436 3711 
Q 2988 4147 2022 4147 
L 1259 4147 
z
M 628 4666 
L 1925 4666 
Q 3281 4666 3915 4102 
Q 4550 3538 4550 2338 
Q 4550 1131 3912 565 
Q 3275 0 1925 0 
L 628 0 
L 628 4666 
z
" transform="scale(0.015625)"/>
     </defs>
     <use xlink:href="#DejaVuSans-44"/>
    </g>
   </g>
   <g id="text_16">
    <!-- E -->
    <g style="fill: #00ff00" transform="translate(156.077932 161.057821) scale(0.1 -0.1)">
     <defs>
      <path id="DejaVuSans-45" d="M 628 4666 
L 3578 4666 
L 3578 4134 
L 1259 4134 
L 1259 2753 
L 3481 2753 
L 3481 2222 
L 1259 2222 
L 1259 531 
L 3634 531 
L 3634 0 
L 628 0 
L 628 4666 
z
" transform="scale(0.015625)"/>
     </defs>
     <use xlink:href="#DejaVuSans-45"/>
    </g>
   </g>
   <g id="text_17">
    <!-- F -->
    <g style="fill: #00ff00" transform="translate(239.563904 284.406818) scale(0.1 -0.1)">
     <defs>
      <path id="DejaVuSans-46" d="M 628 4666 
L 3309 4666 
L 3309 4134 
L 1259 4134 
L 1259 2759 
L 3109 2759 
L 3109 2228 
L 1259 2228 
L 1259 0 
L 628 0 
L 628 4666 
z
" transform="scale(0.015625)"/>
     </defs>
     <use xlink:href="#DejaVuSans-46"/>
    </g>
   </g>
   <g id="text_18">
    <!-- J -->
    <g style="fill: #00ff00" transform="translate(318.55854 210.792275) scale(0.1 -0.1)">
     <defs>
      <path id="DejaVuSans-4a" d="M 628 4666 
L 1259 4666 
L 1259 325 
Q 1259 -519 939 -900 
Q 619 -1281 -91 -1281 
L -331 -1281 
L -331 -750 
L -134 -750 
Q 284 -750 456 -515 
Q 628 -281 628 325 
L 628 4666 
z
" transform="scale(0.015625)"/>
     </defs>
     <use xlink:href="#DejaVuSans-4a"/>
    </g>
   </g>
  </g>
 </g>
 <defs>
  <clipPath id="p6913d8e3e0">
   <rect x="0" y="0" width="368.64" height="368.64"/>
  </clipPath>
 </defs>
</svg>
