<?xml version="1.0" encoding="utf-8" standalone="no"?>
<!DOCTYPE svg PUBLIC "-//W3C//DTD SVG 1.1//EN"
  "http://www.w3.org/Graphics/SVG/1.1/DTD/svg11.dtd">
<svg xmlns:xlink="http://www.w3.org/1999/xlink" width="368.64pt" height="368.64pt" viewBox="0 0 368.64 368.64" xmlns="http://www.w3.org/2000/svg" version="1.1">
 <metadata>
  <rdf:RDF xmlns:dc="http://purl.org/dc/elements/1.1/" xmlns:cc="http://creativecommons.org/ns#" xmlns:rdf="http://www.w3.org/1999/02/22-rdf-syntax-ns#">
   <cc:Work>
    <dc:type rdf:resource="http://purl.org/dc/dcmitype/StillImage"/>
    <dc:date>2024-08-26T21:08:38.983876</dc:date>
    <dc:format>image/svg+xml</dc:format>
    <dc:creator>
     <cc:Agent>
      <dc:title>Matplotlib v3.9.2, https://matplotlib.org/</dc:title>
     </cc:Agent>
    </dc:creator>
   </cc:Work>
  </rdf:RDF>
 </metadata>
 <defs>
  <style type="text/css">*{stroke-linejoin: round; stroke-linecap: butt}</style>
 </defs>
 <g id="figure_1">
  <g id="patch_1">
   <path d="M 0 368.64 
L 368.64 368.64 
L 368.64 0 
L 0 0 
z
" style="fill: #ffffff"/>
  </g>
  <g id="axes_1">
   <g id="patch_2">
    <path d="M 0 368.64 
L 368.64 368.64 
L 368.64 0 
L 0 0 
z
"/>
   </g>
   <g id="patch_3">
    <path d="M 259.04147 140.154917 
L 120.038593 118.409395 
L 298.922919 220.654707 
z
" clip-path="url(#p9c614e8683)" style="fill: #1f77b4"/>
   </g>
   <g id="patch_4">
    <path d="M 268.234855 134.634377 
C 267.97411 134.200157 267.68293 133.784956 267.3635 133.391892 
C 267.044071 132.998828 266.697195 132.628888 266.325478 132.284852 
L 265.597077 133.071858 
C 265.931622 133.381491 266.243811 133.714437 266.531297 134.068194 
C 266.818784 134.421952 267.080846 134.795633 267.315517 135.186431 
z
" clip-path="url(#p9c614e8683)" style="fill: #3cb44b; opacity: 0.5; stroke: #3cb44b; stroke-linejoin: miter"/>
   </g>
   <g id="patch_5">
    <path d="M 61.738742 262.129407 
C 61.609753 261.639615 61.446225 261.159576 61.249387 260.692897 
C 61.052549 260.226218 60.822895 259.774071 60.56215 259.339851 
L 59.642812 259.891905 
C 59.877482 260.282703 60.084171 260.689636 60.261325 261.109647 
C 60.438479 261.529658 60.585654 261.961692 60.701744 262.402505 
z
" clip-path="url(#p9c614e8683)" style="fill: #3cb44b; opacity: 0.5; stroke: #3cb44b; stroke-linejoin: miter"/>
   </g>
   <g id="patch_6">
    <path d="M 122.34248 222.241353 
C 118.132865 215.231058 112.90774 208.882982 106.837516 203.404161 
C 100.767293 197.925339 93.918687 193.375988 86.515058 189.904479 
L 83.000428 197.40007 
C 89.663695 200.524428 95.82744 204.618844 101.290641 209.549784 
C 106.753842 214.480723 111.456455 220.193991 115.245109 226.503257 
z
" clip-path="url(#p9c614e8683)" style="fill: #ffe119; opacity: 0.5; stroke: #ffe119; stroke-linejoin: miter"/>
   </g>
   <g id="patch_7">
    <path d="M 127.133124 298.228229 
C 130.428969 290.744747 132.597952 282.814078 133.569334 274.694871 
C 134.540717 266.575664 134.303822 258.357156 132.866376 250.307383 
L 124.716615 251.762684 
C 126.010316 259.00748 126.223522 266.404137 125.349278 273.711423 
C 124.475033 281.018709 122.522949 288.156311 119.556688 294.891445 
z
" clip-path="url(#p9c614e8683)" style="fill: #ffe119; opacity: 0.5; stroke: #ffe119; stroke-linejoin: miter"/>
   </g>
   <g id="patch_8">
    <path d="M 125.374083 107.030484 
C 123.708387 106.249451 121.891333 105.843609 120.051617 105.841702 
C 118.211902 105.839796 116.39401 106.241871 114.726699 107.01945 
L 115.257888 108.158444 
C 116.758469 107.458623 118.394571 107.096756 120.050315 107.098472 
C 121.706059 107.100187 123.341408 107.465445 124.840534 108.168375 
z
" clip-path="url(#p9c614e8683)" style="fill: #4363d8; opacity: 0.5; stroke: #4363d8; stroke-linejoin: miter"/>
   </g>
   <g id="patch_9">
    <path d="M 63.522077 261.659757 
C 63.053554 259.8807 62.200056 258.226029 61.022034 256.812941 
C 59.844012 255.399852 58.369951 254.262513 56.704255 253.48148 
L 56.170706 254.619371 
C 57.669832 255.322301 58.996487 256.345906 60.056707 257.617686 
C 61.116927 258.889466 61.885075 260.378669 62.306746 261.97982 
z
" clip-path="url(#p9c614e8683)" style="fill: #4363d8; opacity: 0.5; stroke: #4363d8; stroke-linejoin: miter"/>
   </g>
   <g id="patch_10">
    <path d="M 294.517893 145.704826 
C 295.428168 139.886114 294.893072 133.931837 292.959933 128.368656 
C 291.026794 122.805474 287.75434 117.802396 283.432023 113.801947 
L 280.992968 116.437244 
C 284.883053 120.037648 287.828261 124.540419 289.568086 129.547282 
C 291.307912 134.554145 291.789499 139.912994 290.97025 145.149835 
z
" clip-path="url(#p9c614e8683)" style="fill: #f58231; opacity: 0.5; stroke: #f58231; stroke-linejoin: miter"/>
   </g>
   <g id="patch_11">
    <path d="M 104.861669 85.866514 
C 99.524106 88.355777 94.880039 92.1204 91.340239 96.827398 
C 87.80044 101.534396 85.472445 107.040774 84.56217 112.859486 
L 88.109812 113.414477 
C 88.92906 108.177636 91.024255 103.221896 94.210075 98.985598 
C 97.395894 94.7493 101.575555 91.361139 106.379362 89.120802 
z
" clip-path="url(#p9c614e8683)" style="fill: #f58231; opacity: 0.5; stroke: #f58231; stroke-linejoin: miter"/>
   </g>
   <g id="patch_12">
    <path d="M 130.403433 120.030864 
C 130.754356 117.78768 130.367758 115.49007 129.302062 113.485248 
C 128.236366 111.480426 126.548103 109.874737 124.492401 108.910833 
L 124.04702 109.860689 
C 125.897152 110.728203 127.416589 112.173323 128.375715 113.977663 
C 129.334841 115.782003 129.682779 117.849852 129.366949 119.868717 
z
" clip-path="url(#p9c614e8683)" style="fill: #911eb4; opacity: 0.5; stroke: #911eb4; stroke-linejoin: miter"/>
   </g>
   <g id="patch_13">
    <path d="M 122.491347 108.209244 
C 120.283806 107.678413 117.962489 107.878303 115.878192 108.778707 
C 113.793896 109.679111 112.057181 111.232267 110.930501 113.203462 
L 111.84131 113.724056 
C 112.855322 111.94998 114.418365 110.55214 116.294232 109.741776 
C 118.170099 108.931413 120.259285 108.751511 122.246072 109.229259 
z
" clip-path="url(#p9c614e8683)" style="fill: #911eb4; opacity: 0.5; stroke: #911eb4; stroke-linejoin: miter"/>
   </g>
   <g id="patch_14">
    <path d="M 97.654088 70.411771 
C 92.723365 72.711297 88.176296 75.756941 84.173168 79.441341 
C 80.170039 83.125742 76.758448 87.405091 74.058656 92.12854 
L 78.65665 94.756626 
C 81.086463 90.505522 84.156894 86.654107 87.75971 83.338147 
C 91.362526 80.022186 95.454888 77.281107 99.892538 75.211534 
z
" clip-path="url(#p9c614e8683)" style="fill: #46f0f0; opacity: 0.5; stroke: #46f0f0; stroke-linejoin: miter"/>
   </g>
   <g id="patch_15">
    <path d="M 344.902856 246.935562 
C 347.602648 242.212113 349.558541 237.100727 350.701588 231.781583 
C 351.844635 226.46244 352.161245 220.998783 351.640259 215.583212 
L 346.368525 216.090361 
C 346.837413 220.964376 346.552463 225.881667 345.523721 230.668896 
C 344.494979 235.456125 342.734675 240.056373 340.304862 244.307476 
z
" clip-path="url(#p9c614e8683)" style="fill: #46f0f0; opacity: 0.5; stroke: #46f0f0; stroke-linejoin: miter"/>
   </g>
   <g id="patch_16">
    <path d="M 341.241706 216.58357 
C 341.186879 216.013652 341.120545 215.4449 341.042744 214.877663 
C 340.964943 214.310425 340.875691 213.744816 340.775044 213.181183 
L 336.589831 213.928536 
C 336.680414 214.435805 336.760741 214.944853 336.830761 215.455367 
C 336.900782 215.965881 336.960483 216.477758 337.009827 216.990683 
z
" clip-path="url(#p9c614e8683)" style="fill: #f032e6; opacity: 0.5; stroke: #f032e6; stroke-linejoin: miter"/>
   </g>
   <g id="patch_17">
    <path d="M 93.220889 257.386868 
C 93.120242 256.823235 93.008218 256.261693 92.884888 255.702585 
C 92.761558 255.143477 92.626945 254.586918 92.481133 254.033248 
L 88.369897 255.115962 
C 88.501127 255.614265 88.622278 256.115169 88.733276 256.618366 
C 88.844273 257.121563 88.945094 257.62695 89.035677 258.13422 
z
" clip-path="url(#p9c614e8683)" style="fill: #f032e6; opacity: 0.5; stroke: #f032e6; stroke-linejoin: miter"/>
   </g>
   <g id="patch_18">
    <path d="M 196.146197 281.60193 
C 207.595936 276.262151 216.812658 267.064513 222.176158 255.625866 
C 227.539658 244.187218 228.716092 231.219547 225.498655 219.002433 
L 220.284392 220.375635 
C 223.180085 231.371037 222.121294 243.041942 217.294144 253.336724 
C 212.466994 263.631506 204.171945 271.909381 193.867179 276.715183 
z
" clip-path="url(#p9c614e8683)" style="fill: #bcf60c; opacity: 0.5; stroke: #bcf60c; stroke-linejoin: miter"/>
   </g>
   <g id="patch_19">
    <path d="M 94.225523 225.756958 
C 81.941987 222.803227 69.002642 224.258505 57.682088 229.866967 
C 46.361535 235.47543 37.364409 244.887986 32.27231 256.450006 
L 37.206979 258.623314 
C 41.789868 248.217496 49.887282 239.746195 60.07578 234.698579 
C 70.264278 229.650962 81.909689 228.341213 92.964871 230.99957 
z
" clip-path="url(#p9c614e8683)" style="fill: #bcf60c; opacity: 0.5; stroke: #bcf60c; stroke-linejoin: miter"/>
   </g>
   <g id="patch_20">
    <path d="M 98.943253 280.029724 
C 120.739471 280.029724 141.645906 271.369995 157.058159 255.957742 
C 172.470413 240.545488 181.130142 219.639053 181.130142 197.842835 
C 181.130142 176.046617 172.470413 155.140182 157.058159 139.727928 
C 141.645906 124.315675 120.739471 115.655946 98.943253 115.655946 
C 77.147035 115.655946 56.2406 124.315675 40.828346 139.727928 
C 25.416093 155.140182 16.756364 176.046617 16.756364 197.842835 
C 16.756364 219.639053 25.416093 240.545488 40.828346 255.957742 
C 56.2406 271.369995 77.147035 280.029724 98.943253 280.029724 
L 98.943253 280.029724 
z
" clip-path="url(#p9c614e8683)" style="fill: none; stroke: #00ffff; stroke-width: 0.8; stroke-linejoin: miter"/>
   </g>
   <g id="patch_21">
    <path d="M 55.647699 266.744902 
C 56.139625 265.627946 56.175162 264.361605 55.746653 263.218818 
C 55.318143 262.076032 54.458755 261.145259 53.353718 260.627115 
L 53.155222 261.050443 
C 54.149756 261.516773 54.923205 262.354468 55.308864 263.382975 
C 55.694523 264.411483 55.662539 265.551191 55.219806 266.556451 
z
" clip-path="url(#p9c614e8683)" style="fill: #fabebe; opacity: 0.5; stroke: #fabebe; stroke-linejoin: miter"/>
   </g>
   <g id="patch_22">
    <path d="M 177.545591 230.658841 
C 177.003782 229.565212 176.054728 228.726057 174.902983 228.322244 
C 173.751238 227.918431 172.485954 227.981217 171.379845 228.49707 
L 171.577463 228.920808 
C 172.572961 228.456541 173.711716 228.400033 174.748287 228.763465 
C 175.784857 229.126897 176.639006 229.882136 177.126634 230.866402 
z
" clip-path="url(#p9c614e8683)" style="fill: #fabebe; opacity: 0.5; stroke: #fabebe; stroke-linejoin: miter"/>
   </g>
   <g id="patch_23">
    <path d="M 202.436087 218.327516 
C 201.561288 216.561755 200.527478 214.879336 199.347473 213.301117 
C 198.167468 211.722899 196.846166 210.255432 195.399949 208.91691 
L 193.195556 211.298664 
C 194.497151 212.503334 195.686323 213.824054 196.748328 215.244451 
C 197.810332 216.664847 198.740762 218.179025 199.52808 219.768209 
z
" clip-path="url(#p9c614e8683)" style="fill: #008080; opacity: 0.5; stroke: #008080; stroke-linejoin: miter"/>
   </g>
   <g id="patch_24">
    <path d="M 205.660079 229.626747 
C 205.471377 227.665223 205.10441 225.724956 204.563726 223.830004 
C 204.023042 221.935051 203.310886 220.093277 202.436087 218.327516 
L 199.52808 219.768209 
C 200.315399 221.357394 200.95634 223.014991 201.442955 224.720449 
C 201.929571 226.425906 202.259842 228.172146 202.429673 229.937517 
z
" clip-path="url(#p9c614e8683)" style="fill: #008080; opacity: 0.5; stroke: #008080; stroke-linejoin: miter"/>
   </g>
   <g id="PathCollection_1">
    <defs>
     <path id="m474f2feb9e" d="M 0 1.118034 
C 0.296506 1.118034 0.580908 1.000231 0.790569 0.790569 
C 1.000231 0.580908 1.118034 0.296506 1.118034 0 
C 1.118034 -0.296506 1.000231 -0.580908 0.790569 -0.790569 
C 0.580908 -1.000231 0.296506 -1.118034 0 -1.118034 
C -0.296506 -1.118034 -0.580908 -1.000231 -0.790569 -0.790569 
C -1.000231 -0.580908 -1.118034 -0.296506 -1.118034 0 
C -1.118034 0.296506 -1.000231 0.580908 -0.790569 0.790569 
C -0.580908 1.000231 -0.296506 1.118034 0 1.118034 
z
" style="stroke: #ffffff"/>
    </defs>
    <g clip-path="url(#p9c614e8683)">
     <use xlink:href="#m474f2feb9e" x="259.04147" y="140.154917" style="fill: #ffffff; stroke: #ffffff"/>
    </g>
   </g>
   <g id="PathCollection_2">
    <g clip-path="url(#p9c614e8683)">
     <use xlink:href="#m474f2feb9e" x="120.038593" y="118.409395" style="fill: #ffffff; stroke: #ffffff"/>
    </g>
   </g>
   <g id="PathCollection_3">
    <g clip-path="url(#p9c614e8683)">
     <use xlink:href="#m474f2feb9e" x="298.922919" y="220.654707" style="fill: #ffffff; stroke: #ffffff"/>
    </g>
   </g>
   <g id="PathCollection_4">
    <g clip-path="url(#p9c614e8683)">
     <use xlink:href="#m474f2feb9e" x="173.35602" y="232.734451" style="fill: #ffffff; stroke: #ffffff"/>
    </g>
   </g>
   <g id="PathCollection_5">
    <g clip-path="url(#p9c614e8683)">
     <use xlink:href="#m474f2feb9e" x="51.368765" y="264.860391" style="fill: #ffffff; stroke: #ffffff"/>
    </g>
   </g>
   <g id="PathCollection_6">
    <g clip-path="url(#p9c614e8683)">
     <use xlink:href="#m474f2feb9e" x="81.619004" y="278.183081" style="fill: #ffffff; stroke: #ffffff"/>
    </g>
   </g>
   <g id="matplotlib.axis_1">
    <g id="xtick_1">
     <g id="line2d_1">
      <defs>
       <path id="m024764b5f7" d="M 0 0 
L 0 3.5 
" style="stroke: #000000; stroke-width: 0.8"/>
      </defs>
      <g>
       <use xlink:href="#m024764b5f7" x="31.730838" y="368.64" style="stroke: #000000; stroke-width: 0.8"/>
      </g>
     </g>
     <g id="text_1">
      <!-- −3.0 -->
      <g transform="translate(19.589432 383.238437) scale(0.1 -0.1)">
       <defs>
        <path id="DejaVuSans-2212" d="M 678 2272 
L 4684 2272 
L 4684 1741 
L 678 1741 
L 678 2272 
z
" transform="scale(0.015625)"/>
        <path id="DejaVuSans-33" d="M 2597 2516 
Q 3050 2419 3304 2112 
Q 3559 1806 3559 1356 
Q 3559 666 3084 287 
Q 2609 -91 1734 -91 
Q 1441 -91 1130 -33 
Q 819 25 488 141 
L 488 750 
Q 750 597 1062 519 
Q 1375 441 1716 441 
Q 2309 441 2620 675 
Q 2931 909 2931 1356 
Q 2931 1769 2642 2001 
Q 2353 2234 1838 2234 
L 1294 2234 
L 1294 2753 
L 1863 2753 
Q 2328 2753 2575 2939 
Q 2822 3125 2822 3475 
Q 2822 3834 2567 4026 
Q 2313 4219 1838 4219 
Q 1578 4219 1281 4162 
Q 984 4106 628 3988 
L 628 4550 
Q 988 4650 1302 4700 
Q 1616 4750 1894 4750 
Q 2613 4750 3031 4423 
Q 3450 4097 3450 3541 
Q 3450 3153 3228 2886 
Q 3006 2619 2597 2516 
z
" transform="scale(0.015625)"/>
        <path id="DejaVuSans-2e" d="M 684 794 
L 1344 794 
L 1344 0 
L 684 0 
L 684 794 
z
" transform="scale(0.015625)"/>
        <path id="DejaVuSans-30" d="M 2034 4250 
Q 1547 4250 1301 3770 
Q 1056 3291 1056 2328 
Q 1056 1369 1301 889 
Q 1547 409 2034 409 
Q 2525 409 2770 889 
Q 3016 1369 3016 2328 
Q 3016 3291 2770 3770 
Q 2525 4250 2034 4250 
z
M 2034 4750 
Q 2819 4750 3233 4129 
Q 3647 3509 3647 2328 
Q 3647 1150 3233 529 
Q 2819 -91 2034 -91 
Q 1250 -91 836 529 
Q 422 1150 422 2328 
Q 422 3509 836 4129 
Q 1250 4750 2034 4750 
z
" transform="scale(0.015625)"/>
       </defs>
       <use xlink:href="#DejaVuSans-2212"/>
       <use xlink:href="#DejaVuSans-33" x="83.789062"/>
       <use xlink:href="#DejaVuSans-2e" x="147.412109"/>
       <use xlink:href="#DejaVuSans-30" x="179.199219"/>
      </g>
     </g>
    </g>
    <g id="xtick_2">
     <g id="line2d_2">
      <g>
       <use xlink:href="#m024764b5f7" x="76.096999" y="368.64" style="stroke: #000000; stroke-width: 0.8"/>
      </g>
     </g>
     <g id="text_2">
      <!-- −2.5 -->
      <g transform="translate(63.955592 383.238437) scale(0.1 -0.1)">
       <defs>
        <path id="DejaVuSans-32" d="M 1228 531 
L 3431 531 
L 3431 0 
L 469 0 
L 469 531 
Q 828 903 1448 1529 
Q 2069 2156 2228 2338 
Q 2531 2678 2651 2914 
Q 2772 3150 2772 3378 
Q 2772 3750 2511 3984 
Q 2250 4219 1831 4219 
Q 1534 4219 1204 4116 
Q 875 4013 500 3803 
L 500 4441 
Q 881 4594 1212 4672 
Q 1544 4750 1819 4750 
Q 2544 4750 2975 4387 
Q 3406 4025 3406 3419 
Q 3406 3131 3298 2873 
Q 3191 2616 2906 2266 
Q 2828 2175 2409 1742 
Q 1991 1309 1228 531 
z
" transform="scale(0.015625)"/>
        <path id="DejaVuSans-35" d="M 691 4666 
L 3169 4666 
L 3169 4134 
L 1269 4134 
L 1269 2991 
Q 1406 3038 1543 3061 
Q 1681 3084 1819 3084 
Q 2600 3084 3056 2656 
Q 3513 2228 3513 1497 
Q 3513 744 3044 326 
Q 2575 -91 1722 -91 
Q 1428 -91 1123 -41 
Q 819 9 494 109 
L 494 744 
Q 775 591 1075 516 
Q 1375 441 1709 441 
Q 2250 441 2565 725 
Q 2881 1009 2881 1497 
Q 2881 1984 2565 2268 
Q 2250 2553 1709 2553 
Q 1456 2553 1204 2497 
Q 953 2441 691 2322 
L 691 4666 
z
" transform="scale(0.015625)"/>
       </defs>
       <use xlink:href="#DejaVuSans-2212"/>
       <use xlink:href="#DejaVuSans-32" x="83.789062"/>
       <use xlink:href="#DejaVuSans-2e" x="147.412109"/>
       <use xlink:href="#DejaVuSans-35" x="179.199219"/>
      </g>
     </g>
    </g>
    <g id="xtick_3">
     <g id="line2d_3">
      <g>
       <use xlink:href="#m024764b5f7" x="120.463159" y="368.64" style="stroke: #000000; stroke-width: 0.8"/>
      </g>
     </g>
     <g id="text_3">
      <!-- −2.0 -->
      <g transform="translate(108.321753 383.238437) scale(0.1 -0.1)">
       <use xlink:href="#DejaVuSans-2212"/>
       <use xlink:href="#DejaVuSans-32" x="83.789062"/>
       <use xlink:href="#DejaVuSans-2e" x="147.412109"/>
       <use xlink:href="#DejaVuSans-30" x="179.199219"/>
      </g>
     </g>
    </g>
    <g id="xtick_4">
     <g id="line2d_4">
      <g>
       <use xlink:href="#m024764b5f7" x="164.829319" y="368.64" style="stroke: #000000; stroke-width: 0.8"/>
      </g>
     </g>
     <g id="text_4">
      <!-- −1.5 -->
      <g transform="translate(152.687913 383.238437) scale(0.1 -0.1)">
       <defs>
        <path id="DejaVuSans-31" d="M 794 531 
L 1825 531 
L 1825 4091 
L 703 3866 
L 703 4441 
L 1819 4666 
L 2450 4666 
L 2450 531 
L 3481 531 
L 3481 0 
L 794 0 
L 794 531 
z
" transform="scale(0.015625)"/>
       </defs>
       <use xlink:href="#DejaVuSans-2212"/>
       <use xlink:href="#DejaVuSans-31" x="83.789062"/>
       <use xlink:href="#DejaVuSans-2e" x="147.412109"/>
       <use xlink:href="#DejaVuSans-35" x="179.199219"/>
      </g>
     </g>
    </g>
    <g id="xtick_5">
     <g id="line2d_5">
      <g>
       <use xlink:href="#m024764b5f7" x="209.195479" y="368.64" style="stroke: #000000; stroke-width: 0.8"/>
      </g>
     </g>
     <g id="text_5">
      <!-- −1.0 -->
      <g transform="translate(197.054073 383.238437) scale(0.1 -0.1)">
       <use xlink:href="#DejaVuSans-2212"/>
       <use xlink:href="#DejaVuSans-31" x="83.789062"/>
       <use xlink:href="#DejaVuSans-2e" x="147.412109"/>
       <use xlink:href="#DejaVuSans-30" x="179.199219"/>
      </g>
     </g>
    </g>
    <g id="xtick_6">
     <g id="line2d_6">
      <g>
       <use xlink:href="#m024764b5f7" x="253.561639" y="368.64" style="stroke: #000000; stroke-width: 0.8"/>
      </g>
     </g>
     <g id="text_6">
      <!-- −0.5 -->
      <g transform="translate(241.420233 383.238437) scale(0.1 -0.1)">
       <use xlink:href="#DejaVuSans-2212"/>
       <use xlink:href="#DejaVuSans-30" x="83.789062"/>
       <use xlink:href="#DejaVuSans-2e" x="147.412109"/>
       <use xlink:href="#DejaVuSans-35" x="179.199219"/>
      </g>
     </g>
    </g>
    <g id="xtick_7">
     <g id="line2d_7">
      <g>
       <use xlink:href="#m024764b5f7" x="297.9278" y="368.64" style="stroke: #000000; stroke-width: 0.8"/>
      </g>
     </g>
     <g id="text_7">
      <!-- 0.0 -->
      <g transform="translate(289.976237 383.238437) scale(0.1 -0.1)">
       <use xlink:href="#DejaVuSans-30"/>
       <use xlink:href="#DejaVuSans-2e" x="63.623047"/>
       <use xlink:href="#DejaVuSans-30" x="95.410156"/>
      </g>
     </g>
    </g>
    <g id="xtick_8">
     <g id="line2d_8">
      <g>
       <use xlink:href="#m024764b5f7" x="342.29396" y="368.64" style="stroke: #000000; stroke-width: 0.8"/>
      </g>
     </g>
     <g id="text_8">
      <!-- 0.5 -->
      <g transform="translate(334.342397 383.238437) scale(0.1 -0.1)">
       <use xlink:href="#DejaVuSans-30"/>
       <use xlink:href="#DejaVuSans-2e" x="63.623047"/>
       <use xlink:href="#DejaVuSans-35" x="95.410156"/>
      </g>
     </g>
    </g>
   </g>
   <g id="matplotlib.axis_2">
    <g id="ytick_1">
     <g id="line2d_9">
      <defs>
       <path id="m279147bf61" d="M 0 0 
L -3.5 0 
" style="stroke: #000000; stroke-width: 0.8"/>
      </defs>
      <g>
       <use xlink:href="#m279147bf61" x="0" y="356.895716" style="stroke: #000000; stroke-width: 0.8"/>
      </g>
     </g>
     <g id="text_9">
      <!-- −2.5 -->
      <g transform="translate(-31.282813 360.694935) scale(0.1 -0.1)">
       <use xlink:href="#DejaVuSans-2212"/>
       <use xlink:href="#DejaVuSans-32" x="83.789062"/>
       <use xlink:href="#DejaVuSans-2e" x="147.412109"/>
       <use xlink:href="#DejaVuSans-35" x="179.199219"/>
      </g>
     </g>
    </g>
    <g id="ytick_2">
     <g id="line2d_10">
      <g>
       <use xlink:href="#m279147bf61" x="0" y="312.529556" style="stroke: #000000; stroke-width: 0.8"/>
      </g>
     </g>
     <g id="text_10">
      <!-- −2.0 -->
      <g transform="translate(-31.282813 316.328774) scale(0.1 -0.1)">
       <use xlink:href="#DejaVuSans-2212"/>
       <use xlink:href="#DejaVuSans-32" x="83.789062"/>
       <use xlink:href="#DejaVuSans-2e" x="147.412109"/>
       <use xlink:href="#DejaVuSans-30" x="179.199219"/>
      </g>
     </g>
    </g>
    <g id="ytick_3">
     <g id="line2d_11">
      <g>
       <use xlink:href="#m279147bf61" x="0" y="268.163395" style="stroke: #000000; stroke-width: 0.8"/>
      </g>
     </g>
     <g id="text_11">
      <!-- −1.5 -->
      <g transform="translate(-31.282813 271.962614) scale(0.1 -0.1)">
       <use xlink:href="#DejaVuSans-2212"/>
       <use xlink:href="#DejaVuSans-31" x="83.789062"/>
       <use xlink:href="#DejaVuSans-2e" x="147.412109"/>
       <use xlink:href="#DejaVuSans-35" x="179.199219"/>
      </g>
     </g>
    </g>
    <g id="ytick_4">
     <g id="line2d_12">
      <g>
       <use xlink:href="#m279147bf61" x="0" y="223.797235" style="stroke: #000000; stroke-width: 0.8"/>
      </g>
     </g>
     <g id="text_12">
      <!-- −1.0 -->
      <g transform="translate(-31.282813 227.596454) scale(0.1 -0.1)">
       <use xlink:href="#DejaVuSans-2212"/>
       <use xlink:href="#DejaVuSans-31" x="83.789062"/>
       <use xlink:href="#DejaVuSans-2e" x="147.412109"/>
       <use xlink:href="#DejaVuSans-30" x="179.199219"/>
      </g>
     </g>
    </g>
    <g id="ytick_5">
     <g id="line2d_13">
      <g>
       <use xlink:href="#m279147bf61" x="0" y="179.431075" style="stroke: #000000; stroke-width: 0.8"/>
      </g>
     </g>
     <g id="text_13">
      <!-- −0.5 -->
      <g transform="translate(-31.282813 183.230294) scale(0.1 -0.1)">
       <use xlink:href="#DejaVuSans-2212"/>
       <use xlink:href="#DejaVuSans-30" x="83.789062"/>
       <use xlink:href="#DejaVuSans-2e" x="147.412109"/>
       <use xlink:href="#DejaVuSans-35" x="179.199219"/>
      </g>
     </g>
    </g>
    <g id="ytick_6">
     <g id="line2d_14">
      <g>
       <use xlink:href="#m279147bf61" x="0" y="135.064915" style="stroke: #000000; stroke-width: 0.8"/>
      </g>
     </g>
     <g id="text_14">
      <!-- 0.0 -->
      <g transform="translate(-22.903125 138.864133) scale(0.1 -0.1)">
       <use xlink:href="#DejaVuSans-30"/>
       <use xlink:href="#DejaVuSans-2e" x="63.623047"/>
       <use xlink:href="#DejaVuSans-30" x="95.410156"/>
      </g>
     </g>
    </g>
    <g id="ytick_7">
     <g id="line2d_15">
      <g>
       <use xlink:href="#m279147bf61" x="0" y="90.698754" style="stroke: #000000; stroke-width: 0.8"/>
      </g>
     </g>
     <g id="text_15">
      <!-- 0.5 -->
      <g transform="translate(-22.903125 94.497973) scale(0.1 -0.1)">
       <use xlink:href="#DejaVuSans-30"/>
       <use xlink:href="#DejaVuSans-2e" x="63.623047"/>
       <use xlink:href="#DejaVuSans-35" x="95.410156"/>
      </g>
     </g>
    </g>
    <g id="ytick_8">
     <g id="line2d_16">
      <g>
       <use xlink:href="#m279147bf61" x="0" y="46.332594" style="stroke: #000000; stroke-width: 0.8"/>
      </g>
     </g>
     <g id="text_16">
      <!-- 1.0 -->
      <g transform="translate(-22.903125 50.131813) scale(0.1 -0.1)">
       <use xlink:href="#DejaVuSans-31"/>
       <use xlink:href="#DejaVuSans-2e" x="63.623047"/>
       <use xlink:href="#DejaVuSans-30" x="95.410156"/>
      </g>
     </g>
    </g>
    <g id="ytick_9">
     <g id="line2d_17">
      <g>
       <use xlink:href="#m279147bf61" x="0" y="1.966434" style="stroke: #000000; stroke-width: 0.8"/>
      </g>
     </g>
     <g id="text_17">
      <!-- 1.5 -->
      <g transform="translate(-22.903125 5.765653) scale(0.1 -0.1)">
       <use xlink:href="#DejaVuSans-31"/>
       <use xlink:href="#DejaVuSans-2e" x="63.623047"/>
       <use xlink:href="#DejaVuSans-35" x="95.410156"/>
      </g>
     </g>
    </g>
   </g>
   <g id="line2d_18">
    <path d="M 259.04147 140.154917 
L 173.35602 232.734451 
" clip-path="url(#p9c614e8683)" style="fill: none; stroke: #ffffff; stroke-opacity: 0.9; stroke-width: 0.4; stroke-linecap: square"/>
   </g>
   <g id="line2d_19">
    <path d="M 51.368765 264.860391 
L 173.35602 232.734451 
" clip-path="url(#p9c614e8683)" style="fill: none; stroke: #ffffff; stroke-opacity: 0.9; stroke-width: 0.4; stroke-linecap: square"/>
   </g>
   <g id="line2d_20">
    <path d="M 0 295.706843 
L 368.64 74.342047 
" clip-path="url(#p9c614e8683)" style="fill: none; stroke-dasharray: 0.4,0.66; stroke-dashoffset: 0; stroke: #ffffff; stroke-opacity: 0.9; stroke-width: 0.4"/>
   </g>
   <g id="line2d_21">
    <path d="M 47.570896 368.64 
L 368.64 21.738303 
" clip-path="url(#p9c614e8683)" style="fill: none; stroke-dasharray: 0.4,0.66; stroke-dashoffset: 0; stroke: #ffffff; stroke-opacity: 0.9; stroke-width: 0.4"/>
   </g>
   <g id="line2d_22">
    <path d="M 0 278.388607 
L 368.64 181.30546 
" clip-path="url(#p9c614e8683)" style="fill: none; stroke-dasharray: 0.4,0.66; stroke-dashoffset: 0; stroke: #ffffff; stroke-opacity: 0.9; stroke-width: 0.4"/>
   </g>
   <g id="line2d_23">
    <path d="M 0 295.706843 
L 368.64 74.342047 
" clip-path="url(#p9c614e8683)" style="fill: none; stroke-dasharray: 0.4,0.66; stroke-dashoffset: 0; stroke: #ffffff; stroke-opacity: 0.9; stroke-width: 0.4"/>
   </g>
   <g id="line2d_24">
    <path d="M 0 295.706843 
L 368.64 74.342047 
" clip-path="url(#p9c614e8683)" style="fill: none; stroke-dasharray: 0.4,0.66; stroke-dashoffset: 0; stroke: #ffffff; stroke-opacity: 0.9; stroke-width: 0.4"/>
   </g>
   <g id="line2d_25">
    <path d="M 2.707246 368.64 
L 175.559914 0 
" clip-path="url(#p9c614e8683)" style="fill: none; stroke-dasharray: 0.4,0.66; stroke-dashoffset: 0; stroke: #ffffff; stroke-opacity: 0.9; stroke-width: 0.4"/>
   </g>
   <g id="line2d_26">
    <path d="M 0 242.236764 
L 287.008713 368.64 
" clip-path="url(#p9c614e8683)" style="fill: none; stroke-dasharray: 0.4,0.66; stroke-dashoffset: 0; stroke: #ffffff; stroke-opacity: 0.9; stroke-width: 0.4"/>
   </g>
   <g id="line2d_27">
    <path d="M 0 274.033299 
L 368.64 208.205345 
" clip-path="url(#p9c614e8683)" style="fill: none; stroke-dasharray: 0.4,0.66; stroke-dashoffset: 0; stroke: #ffffff; stroke-opacity: 0.9; stroke-width: 0.4"/>
   </g>
   <g id="line2d_28">
    <path d="M 259.04147 140.154917 
L 173.35602 232.734451 
" clip-path="url(#p9c614e8683)" style="fill: none; stroke: #ffffff; stroke-opacity: 0.9; stroke-width: 0.4; stroke-linecap: square"/>
   </g>
   <g id="line2d_29">
    <path d="M 120.038593 118.409395 
L 173.35602 232.734451 
" clip-path="url(#p9c614e8683)" style="fill: none; stroke: #ffffff; stroke-opacity: 0.9; stroke-width: 0.4; stroke-linecap: square"/>
   </g>
   <g id="line2d_30">
    <path d="M 120.038593 118.409395 
L 173.35602 232.734451 
" clip-path="url(#p9c614e8683)" style="fill: none; stroke: #ffffff; stroke-opacity: 0.9; stroke-width: 0.4; stroke-linecap: square"/>
   </g>
   <g id="line2d_31">
    <path d="M 51.368765 264.860391 
L 173.35602 232.734451 
" clip-path="url(#p9c614e8683)" style="fill: none; stroke: #ffffff; stroke-opacity: 0.9; stroke-width: 0.4; stroke-linecap: square"/>
   </g>
   <g id="line2d_32">
    <path d="M 2.707246 368.64 
L 175.559914 0 
" clip-path="url(#p9c614e8683)" style="fill: none; stroke-dasharray: 0.4,0.66; stroke-dashoffset: 0; stroke: #ffffff; stroke-opacity: 0.9; stroke-width: 0.4"/>
   </g>
   <g id="line2d_33">
    <path d="M 64.816366 0 
L 236.737875 368.64 
" clip-path="url(#p9c614e8683)" style="fill: none; stroke-dasharray: 0.4,0.66; stroke-dashoffset: 0; stroke: #ffffff; stroke-opacity: 0.9; stroke-width: 0.4"/>
   </g>
   <g id="line2d_34">
    <path d="M 0 278.388607 
L 368.64 181.30546 
" clip-path="url(#p9c614e8683)" style="fill: none; stroke-dasharray: 0.4,0.66; stroke-dashoffset: 0; stroke: #ffffff; stroke-opacity: 0.9; stroke-width: 0.4"/>
   </g>
   <g id="line2d_35">
    <path d="M 2.707246 368.64 
L 175.559914 0 
" clip-path="url(#p9c614e8683)" style="fill: none; stroke-dasharray: 0.4,0.66; stroke-dashoffset: 0; stroke: #ffffff; stroke-opacity: 0.9; stroke-width: 0.4"/>
   </g>
   <g id="line2d_36">
    <path d="M 0 99.630633 
L 368.64 157.300442 
" clip-path="url(#p9c614e8683)" style="fill: none; stroke-dasharray: 0.4,0.66; stroke-dashoffset: 0; stroke: #ffffff; stroke-opacity: 0.9; stroke-width: 0.4"/>
   </g>
   <g id="line2d_37">
    <path d="M 47.570896 368.64 
L 368.64 21.738303 
" clip-path="url(#p9c614e8683)" style="fill: none; stroke-dasharray: 0.4,0.66; stroke-dashoffset: 0; stroke: #ffffff; stroke-opacity: 0.9; stroke-width: 0.4"/>
   </g>
   <g id="line2d_38">
    <path d="M 64.816366 0 
L 236.737875 368.64 
" clip-path="url(#p9c614e8683)" style="fill: none; stroke-dasharray: 0.4,0.66; stroke-dashoffset: 0; stroke: #ffffff; stroke-opacity: 0.9; stroke-width: 0.4"/>
   </g>
   <g id="line2d_39">
    <path d="M 0 99.630633 
L 368.64 157.300442 
" clip-path="url(#p9c614e8683)" style="fill: none; stroke-dasharray: 0.4,0.66; stroke-dashoffset: 0; stroke: #ffffff; stroke-opacity: 0.9; stroke-width: 0.4"/>
   </g>
   <g id="line2d_40">
    <path d="M 0 99.630633 
L 368.64 157.300442 
" clip-path="url(#p9c614e8683)" style="fill: none; stroke-dasharray: 0.4,0.66; stroke-dashoffset: 0; stroke: #ffffff; stroke-opacity: 0.9; stroke-width: 0.4"/>
   </g>
   <g id="line2d_41">
    <path d="M 2.707246 368.64 
L 175.559914 0 
" clip-path="url(#p9c614e8683)" style="fill: none; stroke-dasharray: 0.4,0.66; stroke-dashoffset: 0; stroke: #ffffff; stroke-opacity: 0.9; stroke-width: 0.4"/>
   </g>
   <g id="line2d_42">
    <path d="M 59.867501 368.64 
L 148.511619 0 
" clip-path="url(#p9c614e8683)" style="fill: none; stroke-dasharray: 0.4,0.66; stroke-dashoffset: 0; stroke: #ffffff; stroke-opacity: 0.9; stroke-width: 0.4"/>
   </g>
   <g id="line2d_43">
    <path d="M 0 49.798669 
L 368.64 260.503054 
" clip-path="url(#p9c614e8683)" style="fill: none; stroke-dasharray: 0.4,0.66; stroke-dashoffset: 0; stroke: #ffffff; stroke-opacity: 0.9; stroke-width: 0.4"/>
   </g>
   <g id="line2d_44">
    <path d="M 120.038593 118.409395 
L 173.35602 232.734451 
" clip-path="url(#p9c614e8683)" style="fill: none; stroke: #ffffff; stroke-opacity: 0.9; stroke-width: 0.4; stroke-linecap: square"/>
   </g>
   <g id="line2d_45">
    <path d="M 298.922919 220.654707 
L 173.35602 232.734451 
" clip-path="url(#p9c614e8683)" style="fill: none; stroke: #ffffff; stroke-opacity: 0.9; stroke-width: 0.4; stroke-linecap: square"/>
   </g>
   <g id="line2d_46">
    <path d="M 0 49.798669 
L 368.64 260.503054 
" clip-path="url(#p9c614e8683)" style="fill: none; stroke-dasharray: 0.4,0.66; stroke-dashoffset: 0; stroke: #ffffff; stroke-opacity: 0.9; stroke-width: 0.4"/>
   </g>
   <g id="line2d_47">
    <path d="M 64.816366 0 
L 236.737875 368.64 
" clip-path="url(#p9c614e8683)" style="fill: none; stroke-dasharray: 0.4,0.66; stroke-dashoffset: 0; stroke: #ffffff; stroke-opacity: 0.9; stroke-width: 0.4"/>
   </g>
   <g id="line2d_48">
    <path d="M 0 249.411587 
L 368.64 213.947808 
" clip-path="url(#p9c614e8683)" style="fill: none; stroke-dasharray: 0.4,0.66; stroke-dashoffset: 0; stroke: #ffffff; stroke-opacity: 0.9; stroke-width: 0.4"/>
   </g>
   <g id="line2d_49">
    <path d="M 0 49.798669 
L 368.64 260.503054 
" clip-path="url(#p9c614e8683)" style="fill: none; stroke-dasharray: 0.4,0.66; stroke-dashoffset: 0; stroke: #ffffff; stroke-opacity: 0.9; stroke-width: 0.4"/>
   </g>
   <g id="line2d_50">
    <path d="M 298.922919 220.654707 
L 173.35602 232.734451 
" clip-path="url(#p9c614e8683)" style="fill: none; stroke: #ffffff; stroke-opacity: 0.9; stroke-width: 0.4; stroke-linecap: square"/>
   </g>
   <g id="line2d_51">
    <path d="M 51.368765 264.860391 
L 173.35602 232.734451 
" clip-path="url(#p9c614e8683)" style="fill: none; stroke: #ffffff; stroke-opacity: 0.9; stroke-width: 0.4; stroke-linecap: square"/>
   </g>
   <g id="line2d_52">
    <path d="M 0 274.033299 
L 368.64 208.205345 
" clip-path="url(#p9c614e8683)" style="fill: none; stroke-dasharray: 0.4,0.66; stroke-dashoffset: 0; stroke: #ffffff; stroke-opacity: 0.9; stroke-width: 0.4"/>
   </g>
   <g id="line2d_53">
    <path d="M 0 249.411587 
L 368.64 213.947808 
" clip-path="url(#p9c614e8683)" style="fill: none; stroke-dasharray: 0.4,0.66; stroke-dashoffset: 0; stroke: #ffffff; stroke-opacity: 0.9; stroke-width: 0.4"/>
   </g>
   <g id="line2d_54">
    <path d="M 0 278.388607 
L 368.64 181.30546 
" clip-path="url(#p9c614e8683)" style="fill: none; stroke-dasharray: 0.4,0.66; stroke-dashoffset: 0; stroke: #ffffff; stroke-opacity: 0.9; stroke-width: 0.4"/>
   </g>
   <g id="line2d_55">
    <path d="M 0 274.033299 
L 368.64 208.205345 
" clip-path="url(#p9c614e8683)" style="fill: none; stroke-dasharray: 0.4,0.66; stroke-dashoffset: 0; stroke: #ffffff; stroke-opacity: 0.9; stroke-width: 0.4"/>
   </g>
   <g id="line2d_56">
    <path d="M 64.816366 0 
L 236.737875 368.64 
" clip-path="url(#p9c614e8683)" style="fill: none; stroke-dasharray: 0.4,0.66; stroke-dashoffset: 0; stroke: #ffffff; stroke-opacity: 0.9; stroke-width: 0.4"/>
   </g>
   <g id="line2d_57">
    <path d="M 0 278.388607 
L 368.64 181.30546 
" clip-path="url(#p9c614e8683)" style="fill: none; stroke-dasharray: 0.4,0.66; stroke-dashoffset: 0; stroke: #ffffff; stroke-opacity: 0.9; stroke-width: 0.4"/>
   </g>
   <g id="line2d_58">
    <path d="M 59.867501 368.64 
L 148.511619 0 
" clip-path="url(#p9c614e8683)" style="fill: none; stroke-dasharray: 0.4,0.66; stroke-dashoffset: 0; stroke: #ffffff; stroke-opacity: 0.9; stroke-width: 0.4"/>
   </g>
   <g id="line2d_59">
    <path d="M 0 242.236764 
L 287.008713 368.64 
" clip-path="url(#p9c614e8683)" style="fill: none; stroke-dasharray: 0.4,0.66; stroke-dashoffset: 0; stroke: #ffffff; stroke-opacity: 0.9; stroke-width: 0.4"/>
   </g>
   <g id="line2d_60">
    <path d="M 2.707246 368.64 
L 175.559914 0 
" clip-path="url(#p9c614e8683)" style="fill: none; stroke-dasharray: 0.4,0.66; stroke-dashoffset: 0; stroke: #ffffff; stroke-opacity: 0.9; stroke-width: 0.4"/>
   </g>
   <g id="line2d_61">
    <path d="M 0 242.236764 
L 287.008713 368.64 
" clip-path="url(#p9c614e8683)" style="fill: none; stroke-dasharray: 0.4,0.66; stroke-dashoffset: 0; stroke: #ffffff; stroke-opacity: 0.9; stroke-width: 0.4"/>
   </g>
   <g id="line2d_62">
    <path d="M 64.816366 0 
L 236.737875 368.64 
" clip-path="url(#p9c614e8683)" style="fill: none; stroke-dasharray: 0.4,0.66; stroke-dashoffset: 0; stroke: #ffffff; stroke-opacity: 0.9; stroke-width: 0.4"/>
   </g>
   <g id="line2d_63">
    <path d="M 0 318.619015 
L 368.64 135.986271 
" clip-path="url(#p9c614e8683)" style="fill: none; stroke-dasharray: 0.4,0.66; stroke-dashoffset: 0; stroke: #ffffff; stroke-opacity: 0.9; stroke-width: 0.4"/>
   </g>
   <g id="line2d_64">
    <path d="M 47.570896 368.64 
L 368.64 21.738303 
" clip-path="url(#p9c614e8683)" style="fill: none; stroke-dasharray: 0.4,0.66; stroke-dashoffset: 0; stroke: #ffffff; stroke-opacity: 0.9; stroke-width: 0.4"/>
   </g>
   <g id="line2d_65">
    <path d="M 0 318.619015 
L 368.64 135.986271 
" clip-path="url(#p9c614e8683)" style="fill: none; stroke-dasharray: 0.4,0.66; stroke-dashoffset: 0; stroke: #ffffff; stroke-opacity: 0.9; stroke-width: 0.4"/>
   </g>
   <g id="line2d_66">
    <path d="M 0 318.619015 
L 368.64 135.986271 
" clip-path="url(#p9c614e8683)" style="fill: none; stroke-dasharray: 0.4,0.66; stroke-dashoffset: 0; stroke: #ffffff; stroke-opacity: 0.9; stroke-width: 0.4"/>
   </g>
   <g id="line2d_67">
    <path d="M 0 249.411587 
L 368.64 213.947808 
" clip-path="url(#p9c614e8683)" style="fill: none; stroke-dasharray: 0.4,0.66; stroke-dashoffset: 0; stroke: #ffffff; stroke-opacity: 0.9; stroke-width: 0.4"/>
   </g>
   <g id="line2d_68">
    <path d="M 259.04147 140.154917 
L 173.35602 232.734451 
" clip-path="url(#p9c614e8683)" style="fill: none; stroke-dasharray: 1.48,0.64; stroke-dashoffset: 0; stroke: #ffffff; stroke-opacity: 0.9; stroke-width: 0.4"/>
   </g>
   <g id="line2d_69">
    <path d="M 173.35602 232.734451 
L 81.619004 278.183081 
" clip-path="url(#p9c614e8683)" style="fill: none; stroke-dasharray: 1.48,0.64; stroke-dashoffset: 0; stroke: #ffffff; stroke-opacity: 0.9; stroke-width: 0.4"/>
   </g>
   <g id="line2d_70">
    <path d="M 259.04147 140.154917 
L 81.619004 278.183081 
" clip-path="url(#p9c614e8683)" style="fill: none; stroke-dasharray: 1.48,0.64; stroke-dashoffset: 0; stroke: #ffffff; stroke-opacity: 0.9; stroke-width: 0.4"/>
   </g>
   <g id="line2d_71">
    <path d="M 298.922919 220.654707 
L 173.35602 232.734451 
" clip-path="url(#p9c614e8683)" style="fill: none; stroke-dasharray: 1.48,0.64; stroke-dashoffset: 0; stroke: #ffffff; stroke-opacity: 0.9; stroke-width: 0.4"/>
   </g>
   <g id="line2d_72">
    <path d="M 173.35602 232.734451 
L 81.619004 278.183081 
" clip-path="url(#p9c614e8683)" style="fill: none; stroke-dasharray: 1.48,0.64; stroke-dashoffset: 0; stroke: #ffffff; stroke-opacity: 0.9; stroke-width: 0.4"/>
   </g>
   <g id="line2d_73">
    <path d="M 298.922919 220.654707 
L 81.619004 278.183081 
" clip-path="url(#p9c614e8683)" style="fill: none; stroke-dasharray: 1.48,0.64; stroke-dashoffset: 0; stroke: #ffffff; stroke-opacity: 0.9; stroke-width: 0.4"/>
   </g>
   <g id="line2d_74">
    <path d="M 259.04147 140.154917 
L 81.619004 278.183081 
" clip-path="url(#p9c614e8683)" style="fill: none; stroke: #ffffff; stroke-opacity: 0.9; stroke-width: 0.4; stroke-linecap: square"/>
   </g>
   <g id="line2d_75">
    <path d="M 298.922919 220.654707 
L 81.619004 278.183081 
" clip-path="url(#p9c614e8683)" style="fill: none; stroke: #ffffff; stroke-opacity: 0.9; stroke-width: 0.4; stroke-linecap: square"/>
   </g>
   <g id="patch_25">
    <path d="M 0 368.64 
L 0 0 
" style="fill: none; stroke: #000000; stroke-width: 0.8; stroke-linejoin: miter; stroke-linecap: square"/>
   </g>
   <g id="patch_26">
    <path d="M 368.64 368.64 
L 368.64 0 
" style="fill: none; stroke: #000000; stroke-width: 0.8; stroke-linejoin: miter; stroke-linecap: square"/>
   </g>
   <g id="patch_27">
    <path d="M 0 368.64 
L 368.64 368.64 
" style="fill: none; stroke: #000000; stroke-width: 0.8; stroke-linejoin: miter; stroke-linecap: square"/>
   </g>
   <g id="patch_28">
    <path d="M 0 0 
L 368.64 0 
" style="fill: none; stroke: #000000; stroke-width: 0.8; stroke-linejoin: miter; stroke-linecap: square"/>
   </g>
   <g id="text_18">
    <!-- A -->
    <g style="fill: #00ff00" transform="translate(259.04147 140.154917) scale(0.1 -0.1)">
     <defs>
      <path id="DejaVuSans-41" d="M 2188 4044 
L 1331 1722 
L 3047 1722 
L 2188 4044 
z
M 1831 4666 
L 2547 4666 
L 4325 0 
L 3669 0 
L 3244 1197 
L 1141 1197 
L 716 0 
L 50 0 
L 1831 4666 
z
" transform="scale(0.015625)"/>
     </defs>
     <use xlink:href="#DejaVuSans-41"/>
    </g>
   </g>
   <g id="text_19">
    <!-- B -->
    <g style="fill: #00ff00" transform="translate(120.038593 118.409395) scale(0.1 -0.1)">
     <defs>
      <path id="DejaVuSans-42" d="M 1259 2228 
L 1259 519 
L 2272 519 
Q 2781 519 3026 730 
Q 3272 941 3272 1375 
Q 3272 1813 3026 2020 
Q 2781 2228 2272 2228 
L 1259 2228 
z
M 1259 4147 
L 1259 2741 
L 2194 2741 
Q 2656 2741 2882 2914 
Q 3109 3088 3109 3444 
Q 3109 3797 2882 3972 
Q 2656 4147 2194 4147 
L 1259 4147 
z
M 628 4666 
L 2241 4666 
Q 2963 4666 3353 4366 
Q 3744 4066 3744 3513 
Q 3744 3084 3544 2831 
Q 3344 2578 2956 2516 
Q 3422 2416 3680 2098 
Q 3938 1781 3938 1306 
Q 3938 681 3513 340 
Q 3088 0 2303 0 
L 628 0 
L 628 4666 
z
" transform="scale(0.015625)"/>
     </defs>
     <use xlink:href="#DejaVuSans-42"/>
    </g>
   </g>
   <g id="text_20">
    <!-- C -->
    <g style="fill: #00ff00" transform="translate(298.922919 220.654707) scale(0.1 -0.1)">
     <defs>
      <path id="DejaVuSans-43" d="M 4122 4306 
L 4122 3641 
Q 3803 3938 3442 4084 
Q 3081 4231 2675 4231 
Q 1875 4231 1450 3742 
Q 1025 3253 1025 2328 
Q 1025 1406 1450 917 
Q 1875 428 2675 428 
Q 3081 428 3442 575 
Q 3803 722 4122 1019 
L 4122 359 
Q 3791 134 3420 21 
Q 3050 -91 2638 -91 
Q 1578 -91 968 557 
Q 359 1206 359 2328 
Q 359 3453 968 4101 
Q 1578 4750 2638 4750 
Q 3056 4750 3426 4639 
Q 3797 4528 4122 4306 
z
" transform="scale(0.015625)"/>
     </defs>
     <use xlink:href="#DejaVuSans-43"/>
    </g>
   </g>
   <g id="text_21">
    <!-- O -->
    <g style="fill: #00ff00" transform="translate(173.35602 232.734451) scale(0.1 -0.1)">
     <defs>
      <path id="DejaVuSans-4f" d="M 2522 4238 
Q 1834 4238 1429 3725 
Q 1025 3213 1025 2328 
Q 1025 1447 1429 934 
Q 1834 422 2522 422 
Q 3209 422 3611 934 
Q 4013 1447 4013 2328 
Q 4013 3213 3611 3725 
Q 3209 4238 2522 4238 
z
M 2522 4750 
Q 3503 4750 4090 4092 
Q 4678 3434 4678 2328 
Q 4678 1225 4090 567 
Q 3503 -91 2522 -91 
Q 1538 -91 948 565 
Q 359 1222 359 2328 
Q 359 3434 948 4092 
Q 1538 4750 2522 4750 
z
" transform="scale(0.015625)"/>
     </defs>
     <use xlink:href="#DejaVuSans-4f"/>
    </g>
   </g>
   <g id="text_22">
    <!-- D -->
    <g style="fill: #00ff00" transform="translate(51.368765 264.860391) scale(0.1 -0.1)">
     <defs>
      <path id="DejaVuSans-44" d="M 1259 4147 
L 1259 519 
L 2022 519 
Q 2988 519 3436 956 
Q 3884 1394 3884 2338 
Q 3884 3275 3436 3711 
Q 2988 4147 2022 4147 
L 1259 4147 
z
M 628 4666 
L 1925 4666 
Q 3281 4666 3915 4102 
Q 4550 3538 4550 2338 
Q 4550 1131 3912 565 
Q 3275 0 1925 0 
L 628 0 
L 628 4666 
z
" transform="scale(0.015625)"/>
     </defs>
     <use xlink:href="#DejaVuSans-44"/>
    </g>
   </g>
   <g id="text_23">
    <!-- P -->
    <g style="fill: #00ff00" transform="translate(81.619004 278.183081) scale(0.1 -0.1)">
     <defs>
      <path id="DejaVuSans-50" d="M 1259 4147 
L 1259 2394 
L 2053 2394 
Q 2494 2394 2734 2622 
Q 2975 2850 2975 3272 
Q 2975 3691 2734 3919 
Q 2494 4147 2053 4147 
L 1259 4147 
z
M 628 4666 
L 2053 4666 
Q 2838 4666 3239 4311 
Q 3641 3956 3641 3272 
Q 3641 2581 3239 2228 
Q 2838 1875 2053 1875 
L 1259 1875 
L 1259 0 
L 628 0 
L 628 4666 
z
" transform="scale(0.015625)"/>
     </defs>
     <use xlink:href="#DejaVuSans-50"/>
    </g>
   </g>
  </g>
 </g>
 <defs>
  <clipPath id="p9c614e8683">
   <rect x="0" y="0" width="368.64" height="368.64"/>
  </clipPath>
 </defs>
</svg>
