<?xml version="1.0" encoding="utf-8" standalone="no"?>
<!DOCTYPE svg PUBLIC "-//W3C//DTD SVG 1.1//EN"
  "http://www.w3.org/Graphics/SVG/1.1/DTD/svg11.dtd">
<svg xmlns:xlink="http://www.w3.org/1999/xlink" width="368.64pt" height="368.64pt" viewBox="0 0 368.64 368.64" xmlns="http://www.w3.org/2000/svg" version="1.1">
 <metadata>
  <rdf:RDF xmlns:dc="http://purl.org/dc/elements/1.1/" xmlns:cc="http://creativecommons.org/ns#" xmlns:rdf="http://www.w3.org/1999/02/22-rdf-syntax-ns#">
   <cc:Work>
    <dc:type rdf:resource="http://purl.org/dc/dcmitype/StillImage"/>
    <dc:date>2024-08-27T12:53:43.239179</dc:date>
    <dc:format>image/svg+xml</dc:format>
    <dc:creator>
     <cc:Agent>
      <dc:title>Matplotlib v3.9.2, https://matplotlib.org/</dc:title>
     </cc:Agent>
    </dc:creator>
   </cc:Work>
  </rdf:RDF>
 </metadata>
 <defs>
  <style type="text/css">*{stroke-linejoin: round; stroke-linecap: butt}</style>
 </defs>
 <g id="figure_1">
  <g id="patch_1">
   <path d="M 0 368.64 
L 368.64 368.64 
L 368.64 0 
L 0 0 
z
" style="fill: #ffffff"/>
  </g>
  <g id="axes_1">
   <g id="patch_2">
    <path d="M 0 368.64 
L 368.64 368.64 
L 368.64 0 
L 0 0 
z
"/>
   </g>
   <g id="patch_3">
    <path d="M 227.031252 215.601983 
L 89.7863 238.893208 
L 172.128653 316.668359 
z
" clip-path="url(#p89a8a8a66e)" style="fill: #1f77b4"/>
   </g>
   <g id="patch_4">
    <path d="M 156.401455 218.048128 
C 145.59861 219.770883 135.151867 223.257004 125.479346 228.366962 
C 115.806825 233.476919 107.039314 240.141619 99.527724 248.094314 
L 106.787817 254.951718 
C 113.548248 247.794293 121.439008 241.796063 130.144277 237.197101 
C 138.849546 232.598139 148.251614 229.460631 157.974174 227.910152 
z
" clip-path="url(#p89a8a8a66e)" style="fill: #3cb44b; opacity: 0.5; stroke: #3cb44b; stroke-linejoin: miter"/>
   </g>
   <g id="patch_5">
    <path d="M 219.799571 228.914281 
C 210.187003 223.692416 199.781421 220.085294 188.999297 218.237286 
C 178.217173 216.389279 167.204299 216.325374 156.401455 218.048128 
L 157.974174 227.910152 
C 167.696735 226.359672 177.608321 226.417187 187.312233 228.080394 
C 197.016144 229.743601 206.381168 232.99001 215.03248 237.689689 
z
" clip-path="url(#p89a8a8a66e)" style="fill: #3cb44b; opacity: 0.5; stroke: #3cb44b; stroke-linejoin: miter"/>
   </g>
   <g id="patch_6">
    <path d="M 32.258543 184.556286 
C 28.065476 188.995584 24.400323 193.905354 21.336316 199.187497 
C 18.272309 204.46964 15.829991 210.088739 14.058163 215.932522 
L 21.630977 218.22859 
C 23.225622 212.969186 25.423708 207.911996 28.181314 203.158068 
C 30.938921 198.404139 34.237558 193.985346 38.011319 189.989978 
z
" clip-path="url(#p89a8a8a66e)" style="fill: #ffe119; opacity: 0.5; stroke: #ffe119; stroke-linejoin: miter"/>
   </g>
   <g id="patch_7">
    <path d="M 165.514437 261.853893 
C 167.286265 256.010111 168.375724 249.980826 168.761047 243.886509 
C 169.14637 237.792192 168.824972 231.673704 167.803276 225.653297 
L 160.001578 226.977288 
C 160.921105 232.395655 161.210363 237.902294 160.863572 243.387179 
C 160.516782 248.872064 159.536268 254.29842 157.941623 259.557825 
z
" clip-path="url(#p89a8a8a66e)" style="fill: #ffe119; opacity: 0.5; stroke: #ffe119; stroke-linejoin: miter"/>
   </g>
   <g id="patch_8">
    <path d="M 171.930709 315.427112 
C 171.794743 315.448795 171.663259 315.492672 171.541519 315.556986 
C 171.41978 315.621301 171.309431 315.705184 171.214889 315.805277 
L 171.306265 315.891586 
C 171.391353 315.801501 171.490667 315.726007 171.600233 315.668124 
C 171.709798 315.610241 171.828134 315.570752 171.950503 315.551237 
z
" clip-path="url(#p89a8a8a66e)" style="fill: #4363d8; opacity: 0.5; stroke: #4363d8; stroke-linejoin: miter"/>
   </g>
   <g id="patch_9">
    <path d="M 91.025513 238.682906 
C 91.002477 238.547163 90.957292 238.416123 90.891768 238.29503 
C 90.826243 238.173937 90.741265 238.064429 90.640235 237.970889 
L 90.554841 238.063121 
C 90.645769 238.147307 90.722249 238.245864 90.781221 238.354848 
C 90.840193 238.463831 90.880859 238.581768 90.901592 238.703936 
z
" clip-path="url(#p89a8a8a66e)" style="fill: #4363d8; opacity: 0.5; stroke: #4363d8; stroke-linejoin: miter"/>
   </g>
   <g id="patch_10">
    <path d="M 197.827164 220.558077 
C 195.818737 208.723298 191.879319 197.298536 186.16658 186.741055 
C 180.453841 176.183574 173.045029 166.63613 164.236671 158.480848 
L 156.791634 166.522084 
C 164.719156 173.861838 171.387087 182.454538 176.528552 191.95627 
C 181.670017 201.458003 185.215493 211.740289 187.023078 222.39159 
z
" clip-path="url(#p89a8a8a66e)" style="fill: #f58231; opacity: 0.5; stroke: #f58231; stroke-linejoin: miter"/>
   </g>
   <g id="patch_11">
    <path d="M 323.842147 266.950361 
C 329.466841 256.345711 333.311059 244.888565 335.220941 233.037484 
C 337.130823 221.186402 337.080544 209.101632 335.072117 197.266852 
L 324.26803 199.100365 
C 326.075615 209.751667 326.120866 220.62796 324.401972 231.293933 
C 322.683078 241.959907 319.223282 252.271338 314.161058 261.815523 
z
" clip-path="url(#p89a8a8a66e)" style="fill: #f58231; opacity: 0.5; stroke: #f58231; stroke-linejoin: miter"/>
   </g>
   <g id="patch_12">
    <path d="M 184.488814 293.915398 
C 179.471099 291.18961 173.689924 290.198742 168.05089 291.098012 
C 162.411856 291.997282 157.22563 294.737146 153.304615 298.888415 
L 155.187019 300.66641 
C 158.715932 296.930268 163.383536 294.46439 168.458667 293.655047 
C 173.533797 292.845704 178.736855 293.737484 183.252798 296.190694 
z
" clip-path="url(#p89a8a8a66e)" style="fill: #911eb4; opacity: 0.5; stroke: #911eb4; stroke-linejoin: miter"/>
   </g>
   <g id="patch_13">
    <path d="M 232.894562 190.38111 
C 227.332598 189.088073 221.496113 189.670526 216.299373 192.03723 
C 211.102633 194.403933 206.831938 198.4245 204.156276 203.469124 
L 206.443774 204.68241 
C 208.851869 200.142249 212.695495 196.523738 217.372561 194.393705 
C 222.049627 192.263672 227.302463 191.739464 232.308231 192.903197 
z
" clip-path="url(#p89a8a8a66e)" style="fill: #911eb4; opacity: 0.5; stroke: #911eb4; stroke-linejoin: miter"/>
   </g>
   <g id="patch_14">
    <path d="M 38.400509 190.357581 
C 34.655115 194.322916 31.381273 198.708493 28.644396 203.426687 
C 25.907518 208.144881 23.725955 213.164055 22.143297 218.383925 
L 28.907597 220.434853 
C 30.33199 215.736971 32.295396 211.219713 34.758586 206.973339 
C 37.221776 202.726965 40.168234 198.779945 43.539088 195.211144 
z
" clip-path="url(#p89a8a8a66e)" style="fill: #46f0f0; opacity: 0.5; stroke: #46f0f0; stroke-linejoin: miter"/>
   </g>
   <g id="patch_15">
    <path d="M 230.037371 276.13705 
C 226.909654 271.668355 223.275163 267.57668 219.206516 263.943779 
C 215.13787 260.310878 210.662349 257.16111 205.869376 254.557409 
L 202.495304 260.768504 
C 206.808979 263.111835 210.836949 265.946627 214.49873 269.216237 
C 218.160512 272.485848 221.431554 276.168356 224.246499 280.190181 
z
" clip-path="url(#p89a8a8a66e)" style="fill: #46f0f0; opacity: 0.5; stroke: #46f0f0; stroke-linejoin: miter"/>
   </g>
   <g id="patch_16">
    <path d="M 245.445012 265.352977 
C 241.485111 259.695306 236.883599 254.514968 231.732417 249.915469 
C 226.581235 245.315971 220.914922 241.328151 214.846694 238.031689 
L 210.57489 245.895356 
C 216.036295 248.862172 221.135977 252.45121 225.772041 256.590758 
C 230.408104 260.730307 234.549465 265.392611 238.113376 270.484515 
z
" clip-path="url(#p89a8a8a66e)" style="fill: #f032e6; opacity: 0.5; stroke: #f032e6; stroke-linejoin: miter"/>
   </g>
   <g id="patch_17">
    <path d="M 269.749293 136.965312 
C 263.681065 133.66885 257.251608 131.085847 250.589388 129.267915 
C 243.927167 127.449983 237.076852 126.40931 230.175317 126.166689 
L 229.86091 135.110218 
C 236.072292 135.328577 242.237576 136.265183 248.233574 137.901322 
C 254.229572 139.537461 260.016083 141.862163 265.477489 144.828979 
z
" clip-path="url(#p89a8a8a66e)" style="fill: #f032e6; opacity: 0.5; stroke: #f032e6; stroke-linejoin: miter"/>
   </g>
   <g id="patch_18">
    <path d="M 136.461154 282.979194 
C 143.28778 275.751687 148.343272 267.036358 151.22794 257.522244 
C 154.112609 248.00813 154.748376 237.952746 153.084979 228.151073 
L 146.755111 229.225286 
C 148.252169 238.046792 147.679978 247.096637 145.083776 255.65934 
C 142.487574 264.222043 137.937632 272.065839 131.793669 278.570595 
z
" clip-path="url(#p89a8a8a66e)" style="fill: #bcf60c; opacity: 0.5; stroke: #bcf60c; stroke-linejoin: miter"/>
   </g>
   <g id="patch_19">
    <path d="M 229.286916 151.43791 
C 219.351239 151.088625 209.468896 153.051847 200.421187 157.172362 
C 191.373478 161.292877 183.405295 167.459157 177.146604 175.183694 
L 182.135069 179.225523 
C 187.76789 172.273439 194.939255 166.723787 203.082193 163.015324 
C 211.225131 159.30686 220.11924 157.539961 229.06135 157.854318 
z
" clip-path="url(#p89a8a8a66e)" style="fill: #bcf60c; opacity: 0.5; stroke: #bcf60c; stroke-linejoin: miter"/>
   </g>
   <g id="patch_20">
    <path d="M 288.143654 24.651391 
C 287.101345 23.686362 285.997565 22.789926 284.83926 21.967724 
C 283.680955 21.145522 282.47056 20.399282 281.215694 19.733703 
L 279.675829 22.636924 
C 280.805209 23.235946 281.894564 23.907561 282.937039 24.647543 
C 283.979513 25.387525 284.972915 26.194318 285.910993 27.062843 
z
" clip-path="url(#p89a8a8a66e)" style="fill: #fabebe; opacity: 0.5; stroke: #fabebe; stroke-linejoin: miter"/>
   </g>
   <g id="patch_21">
    <path d="M 281.215694 19.733703 
C 279.960827 19.068123 278.664126 18.484602 277.333754 17.986812 
C 276.003381 17.489023 274.642132 17.078011 273.258575 16.756364 
L 272.514422 19.957319 
C 273.759623 20.246801 274.984747 20.616712 276.182083 21.064723 
C 277.379418 21.512733 278.546449 22.037902 279.675829 22.636924 
z
" clip-path="url(#p89a8a8a66e)" style="fill: #fabebe; opacity: 0.5; stroke: #fabebe; stroke-linejoin: miter"/>
   </g>
   <g id="patch_22">
    <path d="M 280.713765 249.638473 
C 280.760043 248.322064 280.593019 247.006797 280.219178 245.743738 
C 279.845338 244.48068 279.269582 243.28639 278.514264 242.207237 
L 277.51383 242.907459 
C 278.193615 243.878696 278.711796 244.953557 279.048253 246.09031 
C 279.384709 247.227062 279.535031 248.410802 279.493381 249.59557 
z
" clip-path="url(#p89a8a8a66e)" style="fill: #008080; opacity: 0.5; stroke: #008080; stroke-linejoin: miter"/>
   </g>
   <g id="patch_23">
    <path d="M 259.021983 241.521993 
C 258.19275 242.545441 257.534549 243.696352 257.072936 244.930041 
C 256.611323 246.163729 256.352351 247.46402 256.306073 248.780429 
L 257.526457 248.823331 
C 257.568107 247.638563 257.801183 246.468302 258.216635 245.357982 
C 258.632086 244.247662 259.224467 243.211842 259.970777 242.290739 
z
" clip-path="url(#p89a8a8a66e)" style="fill: #008080; opacity: 0.5; stroke: #008080; stroke-linejoin: miter"/>
   </g>
   <g id="PathCollection_1">
    <defs>
     <path id="m54b022740d" d="M 0 1.118034 
C 0.296506 1.118034 0.580908 1.000231 0.790569 0.790569 
C 1.000231 0.580908 1.118034 0.296506 1.118034 0 
C 1.118034 -0.296506 1.000231 -0.580908 0.790569 -0.790569 
C 0.580908 -1.000231 0.296506 -1.118034 0 -1.118034 
C -0.296506 -1.118034 -0.580908 -1.000231 -0.790569 -0.790569 
C -1.000231 -0.580908 -1.118034 -0.296506 -1.118034 0 
C -1.118034 0.296506 -1.000231 0.580908 -0.790569 0.790569 
C -0.580908 1.000231 -0.296506 1.118034 0 1.118034 
z
" style="stroke: #ffffff"/>
    </defs>
    <g clip-path="url(#p89a8a8a66e)">
     <use xlink:href="#m54b022740d" x="227.031252" y="215.601983" style="fill: #ffffff; stroke: #ffffff"/>
    </g>
   </g>
   <g id="PathCollection_2">
    <g clip-path="url(#p89a8a8a66e)">
     <use xlink:href="#m54b022740d" x="89.7863" y="238.893208" style="fill: #ffffff; stroke: #ffffff"/>
    </g>
   </g>
   <g id="PathCollection_3">
    <g clip-path="url(#p89a8a8a66e)">
     <use xlink:href="#m54b022740d" x="172.128653" y="316.668359" style="fill: #ffffff; stroke: #ffffff"/>
    </g>
   </g>
   <g id="PathCollection_4">
    <g clip-path="url(#p89a8a8a66e)">
     <use xlink:href="#m54b022740d" x="152.492741" y="193.537839" style="fill: #ffffff; stroke: #ffffff"/>
    </g>
   </g>
   <g id="PathCollection_5">
    <g clip-path="url(#p89a8a8a66e)">
     <use xlink:href="#m54b022740d" x="158.663565" y="259.776717" style="fill: #ffffff; stroke: #ffffff"/>
    </g>
   </g>
   <g id="PathCollection_6">
    <g clip-path="url(#p89a8a8a66e)">
     <use xlink:href="#m54b022740d" x="164.634199" y="158.051487" style="fill: #ffffff; stroke: #ffffff"/>
    </g>
   </g>
   <g id="PathCollection_7">
    <g clip-path="url(#p89a8a8a66e)">
     <use xlink:href="#m54b022740d" x="175.168739" y="188.09417" style="fill: #ffffff; stroke: #ffffff"/>
    </g>
   </g>
   <g id="PathCollection_8">
    <g clip-path="url(#p89a8a8a66e)">
     <use xlink:href="#m54b022740d" x="265.817043" y="48.765917" style="fill: #ffffff; stroke: #ffffff"/>
    </g>
   </g>
   <g id="PathCollection_9">
    <g clip-path="url(#p89a8a8a66e)">
     <use xlink:href="#m54b022740d" x="354.581837" y="188.966233" style="fill: #ffffff; stroke: #ffffff"/>
    </g>
   </g>
   <g id="PathCollection_10">
    <g clip-path="url(#p89a8a8a66e)">
     <use xlink:href="#m54b022740d" x="222.240321" y="351.883636" style="fill: #ffffff; stroke: #ffffff"/>
    </g>
   </g>
   <g id="PathCollection_11">
    <g clip-path="url(#p89a8a8a66e)">
     <use xlink:href="#m54b022740d" x="268.509919" y="249.209451" style="fill: #ffffff; stroke: #ffffff"/>
    </g>
   </g>
   <g id="PathCollection_12">
    <g clip-path="url(#p89a8a8a66e)">
     <use xlink:href="#m54b022740d" x="161.497394" y="245.447465" style="fill: #ffffff; stroke: #ffffff"/>
    </g>
   </g>
   <g id="matplotlib.axis_1">
    <g id="xtick_1">
     <g id="line2d_1">
      <defs>
       <path id="mbdffac260f" d="M 0 0 
L 0 3.5 
" style="stroke: #000000; stroke-width: 0.8"/>
      </defs>
      <g>
       <use xlink:href="#mbdffac260f" x="58.905413" y="368.64" style="stroke: #000000; stroke-width: 0.8"/>
      </g>
     </g>
     <g id="text_1">
      <!-- 0.0 -->
      <g transform="translate(50.953851 383.238437) scale(0.1 -0.1)">
       <defs>
        <path id="DejaVuSans-30" d="M 2034 4250 
Q 1547 4250 1301 3770 
Q 1056 3291 1056 2328 
Q 1056 1369 1301 889 
Q 1547 409 2034 409 
Q 2525 409 2770 889 
Q 3016 1369 3016 2328 
Q 3016 3291 2770 3770 
Q 2525 4250 2034 4250 
z
M 2034 4750 
Q 2819 4750 3233 4129 
Q 3647 3509 3647 2328 
Q 3647 1150 3233 529 
Q 2819 -91 2034 -91 
Q 1250 -91 836 529 
Q 422 1150 422 2328 
Q 422 3509 836 4129 
Q 1250 4750 2034 4750 
z
" transform="scale(0.015625)"/>
        <path id="DejaVuSans-2e" d="M 684 794 
L 1344 794 
L 1344 0 
L 684 0 
L 684 794 
z
" transform="scale(0.015625)"/>
       </defs>
       <use xlink:href="#DejaVuSans-30"/>
       <use xlink:href="#DejaVuSans-2e" x="63.623047"/>
       <use xlink:href="#DejaVuSans-30" x="95.410156"/>
      </g>
     </g>
    </g>
    <g id="xtick_2">
     <g id="line2d_2">
      <g>
       <use xlink:href="#mbdffac260f" x="121.590873" y="368.64" style="stroke: #000000; stroke-width: 0.8"/>
      </g>
     </g>
     <g id="text_2">
      <!-- 0.5 -->
      <g transform="translate(113.63931 383.238437) scale(0.1 -0.1)">
       <defs>
        <path id="DejaVuSans-35" d="M 691 4666 
L 3169 4666 
L 3169 4134 
L 1269 4134 
L 1269 2991 
Q 1406 3038 1543 3061 
Q 1681 3084 1819 3084 
Q 2600 3084 3056 2656 
Q 3513 2228 3513 1497 
Q 3513 744 3044 326 
Q 2575 -91 1722 -91 
Q 1428 -91 1123 -41 
Q 819 9 494 109 
L 494 744 
Q 775 591 1075 516 
Q 1375 441 1709 441 
Q 2250 441 2565 725 
Q 2881 1009 2881 1497 
Q 2881 1984 2565 2268 
Q 2250 2553 1709 2553 
Q 1456 2553 1204 2497 
Q 953 2441 691 2322 
L 691 4666 
z
" transform="scale(0.015625)"/>
       </defs>
       <use xlink:href="#DejaVuSans-30"/>
       <use xlink:href="#DejaVuSans-2e" x="63.623047"/>
       <use xlink:href="#DejaVuSans-35" x="95.410156"/>
      </g>
     </g>
    </g>
    <g id="xtick_3">
     <g id="line2d_3">
      <g>
       <use xlink:href="#mbdffac260f" x="184.276332" y="368.64" style="stroke: #000000; stroke-width: 0.8"/>
      </g>
     </g>
     <g id="text_3">
      <!-- 1.0 -->
      <g transform="translate(176.32477 383.238437) scale(0.1 -0.1)">
       <defs>
        <path id="DejaVuSans-31" d="M 794 531 
L 1825 531 
L 1825 4091 
L 703 3866 
L 703 4441 
L 1819 4666 
L 2450 4666 
L 2450 531 
L 3481 531 
L 3481 0 
L 794 0 
L 794 531 
z
" transform="scale(0.015625)"/>
       </defs>
       <use xlink:href="#DejaVuSans-31"/>
       <use xlink:href="#DejaVuSans-2e" x="63.623047"/>
       <use xlink:href="#DejaVuSans-30" x="95.410156"/>
      </g>
     </g>
    </g>
    <g id="xtick_4">
     <g id="line2d_4">
      <g>
       <use xlink:href="#mbdffac260f" x="246.961792" y="368.64" style="stroke: #000000; stroke-width: 0.8"/>
      </g>
     </g>
     <g id="text_4">
      <!-- 1.5 -->
      <g transform="translate(239.010229 383.238437) scale(0.1 -0.1)">
       <use xlink:href="#DejaVuSans-31"/>
       <use xlink:href="#DejaVuSans-2e" x="63.623047"/>
       <use xlink:href="#DejaVuSans-35" x="95.410156"/>
      </g>
     </g>
    </g>
    <g id="xtick_5">
     <g id="line2d_5">
      <g>
       <use xlink:href="#mbdffac260f" x="309.647252" y="368.64" style="stroke: #000000; stroke-width: 0.8"/>
      </g>
     </g>
     <g id="text_5">
      <!-- 2.0 -->
      <g transform="translate(301.695689 383.238437) scale(0.1 -0.1)">
       <defs>
        <path id="DejaVuSans-32" d="M 1228 531 
L 3431 531 
L 3431 0 
L 469 0 
L 469 531 
Q 828 903 1448 1529 
Q 2069 2156 2228 2338 
Q 2531 2678 2651 2914 
Q 2772 3150 2772 3378 
Q 2772 3750 2511 3984 
Q 2250 4219 1831 4219 
Q 1534 4219 1204 4116 
Q 875 4013 500 3803 
L 500 4441 
Q 881 4594 1212 4672 
Q 1544 4750 1819 4750 
Q 2544 4750 2975 4387 
Q 3406 4025 3406 3419 
Q 3406 3131 3298 2873 
Q 3191 2616 2906 2266 
Q 2828 2175 2409 1742 
Q 1991 1309 1228 531 
z
" transform="scale(0.015625)"/>
       </defs>
       <use xlink:href="#DejaVuSans-32"/>
       <use xlink:href="#DejaVuSans-2e" x="63.623047"/>
       <use xlink:href="#DejaVuSans-30" x="95.410156"/>
      </g>
     </g>
    </g>
   </g>
   <g id="matplotlib.axis_2">
    <g id="ytick_1">
     <g id="line2d_6">
      <defs>
       <path id="m1da015ec03" d="M 0 0 
L -3.5 0 
" style="stroke: #000000; stroke-width: 0.8"/>
      </defs>
      <g>
       <use xlink:href="#m1da015ec03" x="0" y="315.358059" style="stroke: #000000; stroke-width: 0.8"/>
      </g>
     </g>
     <g id="text_6">
      <!-- 0.5 -->
      <g transform="translate(-22.903125 319.157278) scale(0.1 -0.1)">
       <use xlink:href="#DejaVuSans-30"/>
       <use xlink:href="#DejaVuSans-2e" x="63.623047"/>
       <use xlink:href="#DejaVuSans-35" x="95.410156"/>
      </g>
     </g>
    </g>
    <g id="ytick_2">
     <g id="line2d_7">
      <g>
       <use xlink:href="#m1da015ec03" x="0" y="252.6726" style="stroke: #000000; stroke-width: 0.8"/>
      </g>
     </g>
     <g id="text_7">
      <!-- 1.0 -->
      <g transform="translate(-22.903125 256.471818) scale(0.1 -0.1)">
       <use xlink:href="#DejaVuSans-31"/>
       <use xlink:href="#DejaVuSans-2e" x="63.623047"/>
       <use xlink:href="#DejaVuSans-30" x="95.410156"/>
      </g>
     </g>
    </g>
    <g id="ytick_3">
     <g id="line2d_8">
      <g>
       <use xlink:href="#m1da015ec03" x="0" y="189.98714" style="stroke: #000000; stroke-width: 0.8"/>
      </g>
     </g>
     <g id="text_8">
      <!-- 1.5 -->
      <g transform="translate(-22.903125 193.786359) scale(0.1 -0.1)">
       <use xlink:href="#DejaVuSans-31"/>
       <use xlink:href="#DejaVuSans-2e" x="63.623047"/>
       <use xlink:href="#DejaVuSans-35" x="95.410156"/>
      </g>
     </g>
    </g>
    <g id="ytick_4">
     <g id="line2d_9">
      <g>
       <use xlink:href="#m1da015ec03" x="0" y="127.30168" style="stroke: #000000; stroke-width: 0.8"/>
      </g>
     </g>
     <g id="text_9">
      <!-- 2.0 -->
      <g transform="translate(-22.903125 131.100899) scale(0.1 -0.1)">
       <use xlink:href="#DejaVuSans-32"/>
       <use xlink:href="#DejaVuSans-2e" x="63.623047"/>
       <use xlink:href="#DejaVuSans-30" x="95.410156"/>
      </g>
     </g>
    </g>
    <g id="ytick_5">
     <g id="line2d_10">
      <g>
       <use xlink:href="#m1da015ec03" x="0" y="64.616221" style="stroke: #000000; stroke-width: 0.8"/>
      </g>
     </g>
     <g id="text_10">
      <!-- 2.5 -->
      <g transform="translate(-22.903125 68.415439) scale(0.1 -0.1)">
       <use xlink:href="#DejaVuSans-32"/>
       <use xlink:href="#DejaVuSans-2e" x="63.623047"/>
       <use xlink:href="#DejaVuSans-35" x="95.410156"/>
      </g>
     </g>
    </g>
    <g id="ytick_6">
     <g id="line2d_11">
      <g>
       <use xlink:href="#m1da015ec03" x="0" y="1.930761" style="stroke: #000000; stroke-width: 0.8"/>
      </g>
     </g>
     <g id="text_11">
      <!-- 3.0 -->
      <g transform="translate(-22.903125 5.72998) scale(0.1 -0.1)">
       <defs>
        <path id="DejaVuSans-33" d="M 2597 2516 
Q 3050 2419 3304 2112 
Q 3559 1806 3559 1356 
Q 3559 666 3084 287 
Q 2609 -91 1734 -91 
Q 1441 -91 1130 -33 
Q 819 25 488 141 
L 488 750 
Q 750 597 1062 519 
Q 1375 441 1716 441 
Q 2309 441 2620 675 
Q 2931 909 2931 1356 
Q 2931 1769 2642 2001 
Q 2353 2234 1838 2234 
L 1294 2234 
L 1294 2753 
L 1863 2753 
Q 2328 2753 2575 2939 
Q 2822 3125 2822 3475 
Q 2822 3834 2567 4026 
Q 2313 4219 1838 4219 
Q 1578 4219 1281 4162 
Q 984 4106 628 3988 
L 628 4550 
Q 988 4650 1302 4700 
Q 1616 4750 1894 4750 
Q 2613 4750 3031 4423 
Q 3450 4097 3450 3541 
Q 3450 3153 3228 2886 
Q 3006 2619 2597 2516 
z
" transform="scale(0.015625)"/>
       </defs>
       <use xlink:href="#DejaVuSans-33"/>
       <use xlink:href="#DejaVuSans-2e" x="63.623047"/>
       <use xlink:href="#DejaVuSans-30" x="95.410156"/>
      </g>
     </g>
    </g>
   </g>
   <g id="line2d_12">
    <path d="M 0 154.086996 
L 227.152233 368.64 
" clip-path="url(#p89a8a8a66e)" style="fill: none; stroke-dasharray: 0.4,0.66; stroke-dashoffset: 0; stroke: #ffffff; stroke-opacity: 0.9; stroke-width: 0.4"/>
   </g>
   <g id="line2d_13">
    <path d="M 121.62881 0 
L 180.416692 368.64 
" clip-path="url(#p89a8a8a66e)" style="fill: none; stroke-dasharray: 0.4,0.66; stroke-dashoffset: 0; stroke: #ffffff; stroke-opacity: 0.9; stroke-width: 0.4"/>
   </g>
   <g id="line2d_14">
    <path d="M 121.62881 0 
L 180.416692 368.64 
" clip-path="url(#p89a8a8a66e)" style="fill: none; stroke-dasharray: 0.4,0.66; stroke-dashoffset: 0; stroke: #ffffff; stroke-opacity: 0.9; stroke-width: 0.4"/>
   </g>
   <g id="line2d_15">
    <path d="M 143.895939 368.64 
L 344.153381 0 
" clip-path="url(#p89a8a8a66e)" style="fill: none; stroke-dasharray: 0.4,0.66; stroke-dashoffset: 0; stroke: #ffffff; stroke-opacity: 0.9; stroke-width: 0.4"/>
   </g>
   <g id="line2d_16">
    <path d="M 0 154.086996 
L 227.152233 368.64 
" clip-path="url(#p89a8a8a66e)" style="fill: none; stroke-dasharray: 0.4,0.66; stroke-dashoffset: 0; stroke: #ffffff; stroke-opacity: 0.9; stroke-width: 0.4"/>
   </g>
   <g id="line2d_17">
    <path d="M 0 211.670103 
L 368.64 323.441336 
" clip-path="url(#p89a8a8a66e)" style="fill: none; stroke-dasharray: 0.4,0.66; stroke-dashoffset: 0; stroke: #ffffff; stroke-opacity: 0.9; stroke-width: 0.4"/>
   </g>
   <g id="line2d_18">
    <path d="M 0 211.670103 
L 368.64 323.441336 
" clip-path="url(#p89a8a8a66e)" style="fill: none; stroke-dasharray: 0.4,0.66; stroke-dashoffset: 0; stroke: #ffffff; stroke-opacity: 0.9; stroke-width: 0.4"/>
   </g>
   <g id="line2d_19">
    <path d="M 0 254.130438 
L 368.64 191.570197 
" clip-path="url(#p89a8a8a66e)" style="fill: none; stroke-dasharray: 0.4,0.66; stroke-dashoffset: 0; stroke: #ffffff; stroke-opacity: 0.9; stroke-width: 0.4"/>
   </g>
   <g id="line2d_20">
    <path d="M 0 154.086996 
L 227.152233 368.64 
" clip-path="url(#p89a8a8a66e)" style="fill: none; stroke-dasharray: 0.4,0.66; stroke-dashoffset: 0; stroke: #ffffff; stroke-opacity: 0.9; stroke-width: 0.4"/>
   </g>
   <g id="line2d_21">
    <path d="M 121.62881 0 
L 180.416692 368.64 
" clip-path="url(#p89a8a8a66e)" style="fill: none; stroke-dasharray: 0.4,0.66; stroke-dashoffset: 0; stroke: #ffffff; stroke-opacity: 0.9; stroke-width: 0.4"/>
   </g>
   <g id="line2d_22">
    <path d="M 0 335.869597 
L 310.967324 0 
" clip-path="url(#p89a8a8a66e)" style="fill: none; stroke-dasharray: 0.4,0.66; stroke-dashoffset: 0; stroke: #ffffff; stroke-opacity: 0.9; stroke-width: 0.4"/>
   </g>
   <g id="line2d_23">
    <path d="M 0 254.130438 
L 368.64 191.570197 
" clip-path="url(#p89a8a8a66e)" style="fill: none; stroke-dasharray: 0.4,0.66; stroke-dashoffset: 0; stroke: #ffffff; stroke-opacity: 0.9; stroke-width: 0.4"/>
   </g>
   <g id="line2d_24">
    <path d="M 0 254.130438 
L 368.64 191.570197 
" clip-path="url(#p89a8a8a66e)" style="fill: none; stroke-dasharray: 0.4,0.66; stroke-dashoffset: 0; stroke: #ffffff; stroke-opacity: 0.9; stroke-width: 0.4"/>
   </g>
   <g id="line2d_25">
    <path d="M 0 335.869597 
L 310.967324 0 
" clip-path="url(#p89a8a8a66e)" style="fill: none; stroke-dasharray: 0.4,0.66; stroke-dashoffset: 0; stroke: #ffffff; stroke-opacity: 0.9; stroke-width: 0.4"/>
   </g>
   <g id="line2d_26">
    <path d="M 0 95.184889 
L 368.64 290.711086 
" clip-path="url(#p89a8a8a66e)" style="fill: none; stroke-dasharray: 0.4,0.66; stroke-dashoffset: 0; stroke: #ffffff; stroke-opacity: 0.9; stroke-width: 0.4"/>
   </g>
   <g id="line2d_27">
    <path d="M 0 254.130438 
L 368.64 191.570197 
" clip-path="url(#p89a8a8a66e)" style="fill: none; stroke-dasharray: 0.4,0.66; stroke-dashoffset: 0; stroke: #ffffff; stroke-opacity: 0.9; stroke-width: 0.4"/>
   </g>
   <g id="line2d_28">
    <path d="M 0 154.086996 
L 227.152233 368.64 
" clip-path="url(#p89a8a8a66e)" style="fill: none; stroke-dasharray: 0.4,0.66; stroke-dashoffset: 0; stroke: #ffffff; stroke-opacity: 0.9; stroke-width: 0.4"/>
   </g>
   <g id="line2d_29">
    <path d="M 143.895939 368.64 
L 344.153381 0 
" clip-path="url(#p89a8a8a66e)" style="fill: none; stroke-dasharray: 0.4,0.66; stroke-dashoffset: 0; stroke: #ffffff; stroke-opacity: 0.9; stroke-width: 0.4"/>
   </g>
   <g id="line2d_30">
    <path d="M 0 95.184889 
L 368.64 290.711086 
" clip-path="url(#p89a8a8a66e)" style="fill: none; stroke-dasharray: 0.4,0.66; stroke-dashoffset: 0; stroke: #ffffff; stroke-opacity: 0.9; stroke-width: 0.4"/>
   </g>
   <g id="line2d_31">
    <path d="M 191.45321 368.64 
L 277.154068 0 
" clip-path="url(#p89a8a8a66e)" style="fill: none; stroke-dasharray: 0.4,0.66; stroke-dashoffset: 0; stroke: #ffffff; stroke-opacity: 0.9; stroke-width: 0.4"/>
   </g>
   <g id="line2d_32">
    <path d="M 0 335.869597 
L 310.967324 0 
" clip-path="url(#p89a8a8a66e)" style="fill: none; stroke-dasharray: 1.48,0.64; stroke-dashoffset: 0; stroke: #ffffff; stroke-width: 0.4"/>
   </g>
   <g id="line2d_33">
    <path d="M 0 154.086996 
L 227.152233 368.64 
" clip-path="url(#p89a8a8a66e)" style="fill: none; stroke-dasharray: 0.4,0.66; stroke-dashoffset: 0; stroke: #ffffff; stroke-opacity: 0.9; stroke-width: 0.4"/>
   </g>
   <g id="line2d_34">
    <path d="M 0 211.670103 
L 368.64 323.441336 
" clip-path="url(#p89a8a8a66e)" style="fill: none; stroke-dasharray: 0.4,0.66; stroke-dashoffset: 0; stroke: #ffffff; stroke-opacity: 0.9; stroke-width: 0.4"/>
   </g>
   <g id="line2d_35">
    <path d="M 97.874672 368.64 
L 368.64 179.126682 
" clip-path="url(#p89a8a8a66e)" style="fill: none; stroke-dasharray: 0.4,0.66; stroke-dashoffset: 0; stroke: #ffffff; stroke-opacity: 0.9; stroke-width: 0.4"/>
   </g>
   <g id="line2d_36">
    <path d="M 143.895939 368.64 
L 344.153381 0 
" clip-path="url(#p89a8a8a66e)" style="fill: none; stroke-dasharray: 0.4,0.66; stroke-dashoffset: 0; stroke: #ffffff; stroke-opacity: 0.9; stroke-width: 0.4"/>
   </g>
   <g id="line2d_37">
    <path d="M 143.895939 368.64 
L 344.153381 0 
" clip-path="url(#p89a8a8a66e)" style="fill: none; stroke-dasharray: 0.4,0.66; stroke-dashoffset: 0; stroke: #ffffff; stroke-opacity: 0.9; stroke-width: 0.4"/>
   </g>
   <g id="line2d_38">
    <path d="M 97.874672 368.64 
L 368.64 179.126682 
" clip-path="url(#p89a8a8a66e)" style="fill: none; stroke-dasharray: 0.4,0.66; stroke-dashoffset: 0; stroke: #ffffff; stroke-opacity: 0.9; stroke-width: 0.4"/>
   </g>
   <g id="line2d_39">
    <path d="M 221.651258 368.64 
L 234.61066 0 
" clip-path="url(#p89a8a8a66e)" style="fill: none; stroke-dasharray: 0.4,0.66; stroke-dashoffset: 0; stroke: #ffffff; stroke-opacity: 0.9; stroke-width: 0.4"/>
   </g>
   <g id="line2d_40">
    <path d="M 143.895939 368.64 
L 344.153381 0 
" clip-path="url(#p89a8a8a66e)" style="fill: none; stroke-dasharray: 0.4,0.66; stroke-dashoffset: 0; stroke: #ffffff; stroke-opacity: 0.9; stroke-width: 0.4"/>
   </g>
   <g id="line2d_41">
    <path d="M 0 154.086996 
L 227.152233 368.64 
" clip-path="url(#p89a8a8a66e)" style="fill: none; stroke-dasharray: 0.4,0.66; stroke-dashoffset: 0; stroke: #ffffff; stroke-opacity: 0.9; stroke-width: 0.4"/>
   </g>
   <g id="line2d_42">
    <path d="M 0 254.130438 
L 368.64 191.570197 
" clip-path="url(#p89a8a8a66e)" style="fill: none; stroke-dasharray: 0.4,0.66; stroke-dashoffset: 0; stroke: #ffffff; stroke-opacity: 0.9; stroke-width: 0.4"/>
   </g>
   <g id="line2d_43">
    <path d="M 221.651258 368.64 
L 234.61066 0 
" clip-path="url(#p89a8a8a66e)" style="fill: none; stroke-dasharray: 0.4,0.66; stroke-dashoffset: 0; stroke: #ffffff; stroke-opacity: 0.9; stroke-width: 0.4"/>
   </g>
   <g id="line2d_44">
    <path d="M 0 31.653311 
L 368.64 330.338349 
" clip-path="url(#p89a8a8a66e)" style="fill: none; stroke-dasharray: 0.4,0.66; stroke-dashoffset: 0; stroke: #ffffff; stroke-opacity: 0.9; stroke-width: 0.4"/>
   </g>
   <g id="line2d_45">
    <path d="M 97.874672 368.64 
L 368.64 179.126682 
" clip-path="url(#p89a8a8a66e)" style="fill: none; stroke-dasharray: 1.48,0.64; stroke-dashoffset: 0; stroke: #ffffff; stroke-width: 0.4"/>
   </g>
   <g id="line2d_46">
    <path d="M 0 335.869597 
L 310.967324 0 
" clip-path="url(#p89a8a8a66e)" style="fill: none; stroke-dasharray: 0.4,0.66; stroke-dashoffset: 0; stroke: #ffffff; stroke-opacity: 0.9; stroke-width: 0.4"/>
   </g>
   <g id="line2d_47">
    <path d="M 96.156227 368.64 
L 291.682425 0 
" clip-path="url(#p89a8a8a66e)" style="fill: none; stroke-dasharray: 0.4,0.66; stroke-dashoffset: 0; stroke: #ffffff; stroke-opacity: 0.9; stroke-width: 0.4"/>
   </g>
   <g id="line2d_48">
    <path d="M 96.156227 368.64 
L 291.682425 0 
" clip-path="url(#p89a8a8a66e)" style="fill: none; stroke-dasharray: 0.4,0.66; stroke-dashoffset: 0; stroke: #ffffff; stroke-opacity: 0.9; stroke-width: 0.4"/>
   </g>
   <g id="line2d_49">
    <path d="M 191.45321 368.64 
L 277.154068 0 
" clip-path="url(#p89a8a8a66e)" style="fill: none; stroke-dasharray: 0.4,0.66; stroke-dashoffset: 0; stroke: #ffffff; stroke-opacity: 0.9; stroke-width: 0.4"/>
   </g>
   <g id="line2d_50">
    <path d="M 97.874672 368.64 
L 368.64 179.126682 
" clip-path="url(#p89a8a8a66e)" style="fill: none; stroke-dasharray: 0.4,0.66; stroke-dashoffset: 0; stroke: #ffffff; stroke-opacity: 0.9; stroke-width: 0.4"/>
   </g>
   <g id="line2d_51">
    <path d="M 0 239.770084 
L 368.64 252.729487 
" clip-path="url(#p89a8a8a66e)" style="fill: none; stroke-dasharray: 0.4,0.66; stroke-dashoffset: 0; stroke: #ffffff; stroke-opacity: 0.9; stroke-width: 0.4"/>
   </g>
   <g id="line2d_52">
    <path d="M 0 239.770084 
L 368.64 252.729487 
" clip-path="url(#p89a8a8a66e)" style="fill: none; stroke-dasharray: 0.4,0.66; stroke-dashoffset: 0; stroke: #ffffff; stroke-opacity: 0.9; stroke-width: 0.4"/>
   </g>
   <g id="line2d_53">
    <path d="M 0 31.653311 
L 368.64 330.338349 
" clip-path="url(#p89a8a8a66e)" style="fill: none; stroke-dasharray: 0.4,0.66; stroke-dashoffset: 0; stroke: #ffffff; stroke-opacity: 0.9; stroke-width: 0.4"/>
   </g>
   <g id="patch_24">
    <path d="M 0 368.64 
L 0 0 
" style="fill: none; stroke: #000000; stroke-width: 0.8; stroke-linejoin: miter; stroke-linecap: square"/>
   </g>
   <g id="patch_25">
    <path d="M 368.64 368.64 
L 368.64 0 
" style="fill: none; stroke: #000000; stroke-width: 0.8; stroke-linejoin: miter; stroke-linecap: square"/>
   </g>
   <g id="patch_26">
    <path d="M 0 368.64 
L 368.64 368.64 
" style="fill: none; stroke: #000000; stroke-width: 0.8; stroke-linejoin: miter; stroke-linecap: square"/>
   </g>
   <g id="patch_27">
    <path d="M 0 0 
L 368.64 0 
" style="fill: none; stroke: #000000; stroke-width: 0.8; stroke-linejoin: miter; stroke-linecap: square"/>
   </g>
   <g id="text_12">
    <!-- P -->
    <g style="fill: #00ff00" transform="translate(227.031252 215.601983) scale(0.1 -0.1)">
     <defs>
      <path id="DejaVuSans-50" d="M 1259 4147 
L 1259 2394 
L 2053 2394 
Q 2494 2394 2734 2622 
Q 2975 2850 2975 3272 
Q 2975 3691 2734 3919 
Q 2494 4147 2053 4147 
L 1259 4147 
z
M 628 4666 
L 2053 4666 
Q 2838 4666 3239 4311 
Q 3641 3956 3641 3272 
Q 3641 2581 3239 2228 
Q 2838 1875 2053 1875 
L 1259 1875 
L 1259 0 
L 628 0 
L 628 4666 
z
" transform="scale(0.015625)"/>
     </defs>
     <use xlink:href="#DejaVuSans-50"/>
    </g>
   </g>
   <g id="text_13">
    <!-- A -->
    <g style="fill: #00ff00" transform="translate(89.7863 238.893208) scale(0.1 -0.1)">
     <defs>
      <path id="DejaVuSans-41" d="M 2188 4044 
L 1331 1722 
L 3047 1722 
L 2188 4044 
z
M 1831 4666 
L 2547 4666 
L 4325 0 
L 3669 0 
L 3244 1197 
L 1141 1197 
L 716 0 
L 50 0 
L 1831 4666 
z
" transform="scale(0.015625)"/>
     </defs>
     <use xlink:href="#DejaVuSans-41"/>
    </g>
   </g>
   <g id="text_14">
    <!-- B -->
    <g style="fill: #00ff00" transform="translate(172.128653 316.668359) scale(0.1 -0.1)">
     <defs>
      <path id="DejaVuSans-42" d="M 1259 2228 
L 1259 519 
L 2272 519 
Q 2781 519 3026 730 
Q 3272 941 3272 1375 
Q 3272 1813 3026 2020 
Q 2781 2228 2272 2228 
L 1259 2228 
z
M 1259 4147 
L 1259 2741 
L 2194 2741 
Q 2656 2741 2882 2914 
Q 3109 3088 3109 3444 
Q 3109 3797 2882 3972 
Q 2656 4147 2194 4147 
L 1259 4147 
z
M 628 4666 
L 2241 4666 
Q 2963 4666 3353 4366 
Q 3744 4066 3744 3513 
Q 3744 3084 3544 2831 
Q 3344 2578 2956 2516 
Q 3422 2416 3680 2098 
Q 3938 1781 3938 1306 
Q 3938 681 3513 340 
Q 3088 0 2303 0 
L 628 0 
L 628 4666 
z
" transform="scale(0.015625)"/>
     </defs>
     <use xlink:href="#DejaVuSans-42"/>
    </g>
   </g>
   <g id="text_15">
    <!-- X -->
    <g style="fill: #00ff00" transform="translate(152.492741 193.537839) scale(0.1 -0.1)">
     <defs>
      <path id="DejaVuSans-58" d="M 403 4666 
L 1081 4666 
L 2241 2931 
L 3406 4666 
L 4084 4666 
L 2584 2425 
L 4184 0 
L 3506 0 
L 2194 1984 
L 872 0 
L 191 0 
L 1856 2491 
L 403 4666 
z
" transform="scale(0.015625)"/>
     </defs>
     <use xlink:href="#DejaVuSans-58"/>
    </g>
   </g>
   <g id="text_16">
    <!-- Y -->
    <g style="fill: #00ff00" transform="translate(158.663565 259.776717) scale(0.1 -0.1)">
     <defs>
      <path id="DejaVuSans-59" d="M -13 4666 
L 666 4666 
L 1959 2747 
L 3244 4666 
L 3922 4666 
L 2272 2222 
L 2272 0 
L 1638 0 
L 1638 2222 
L -13 4666 
z
" transform="scale(0.015625)"/>
     </defs>
     <use xlink:href="#DejaVuSans-59"/>
    </g>
   </g>
   <g id="text_17">
    <!-- Z -->
    <g style="fill: #00ff00" transform="translate(164.634199 158.051487) scale(0.1 -0.1)">
     <defs>
      <path id="DejaVuSans-5a" d="M 359 4666 
L 4025 4666 
L 4025 4184 
L 1075 531 
L 4097 531 
L 4097 0 
L 288 0 
L 288 481 
L 3238 4134 
L 359 4134 
L 359 4666 
z
" transform="scale(0.015625)"/>
     </defs>
     <use xlink:href="#DejaVuSans-5a"/>
    </g>
   </g>
   <g id="text_18">
    <!-- T -->
    <g style="fill: #00ff00" transform="translate(175.168739 188.09417) scale(0.1 -0.1)">
     <defs>
      <path id="DejaVuSans-54" d="M -19 4666 
L 3928 4666 
L 3928 4134 
L 2272 4134 
L 2272 0 
L 1638 0 
L 1638 4134 
L -19 4134 
L -19 4666 
z
" transform="scale(0.015625)"/>
     </defs>
     <use xlink:href="#DejaVuSans-54"/>
    </g>
   </g>
   <g id="text_19">
    <!-- D -->
    <g style="fill: #00ff00" transform="translate(265.817043 48.765917) scale(0.1 -0.1)">
     <defs>
      <path id="DejaVuSans-44" d="M 1259 4147 
L 1259 519 
L 2022 519 
Q 2988 519 3436 956 
Q 3884 1394 3884 2338 
Q 3884 3275 3436 3711 
Q 2988 4147 2022 4147 
L 1259 4147 
z
M 628 4666 
L 1925 4666 
Q 3281 4666 3915 4102 
Q 4550 3538 4550 2338 
Q 4550 1131 3912 565 
Q 3275 0 1925 0 
L 628 0 
L 628 4666 
z
" transform="scale(0.015625)"/>
     </defs>
     <use xlink:href="#DejaVuSans-44"/>
    </g>
   </g>
   <g id="text_20">
    <!-- U -->
    <g style="fill: #00ff00" transform="translate(354.581837 188.966233) scale(0.1 -0.1)">
     <defs>
      <path id="DejaVuSans-55" d="M 556 4666 
L 1191 4666 
L 1191 1831 
Q 1191 1081 1462 751 
Q 1734 422 2344 422 
Q 2950 422 3222 751 
Q 3494 1081 3494 1831 
L 3494 4666 
L 4128 4666 
L 4128 1753 
Q 4128 841 3676 375 
Q 3225 -91 2344 -91 
Q 1459 -91 1007 375 
Q 556 841 556 1753 
L 556 4666 
z
" transform="scale(0.015625)"/>
     </defs>
     <use xlink:href="#DejaVuSans-55"/>
    </g>
   </g>
   <g id="text_21">
    <!-- V -->
    <g style="fill: #00ff00" transform="translate(222.240321 351.883636) scale(0.1 -0.1)">
     <defs>
      <path id="DejaVuSans-56" d="M 1831 0 
L 50 4666 
L 709 4666 
L 2188 738 
L 3669 4666 
L 4325 4666 
L 2547 0 
L 1831 0 
z
" transform="scale(0.015625)"/>
     </defs>
     <use xlink:href="#DejaVuSans-56"/>
    </g>
   </g>
   <g id="text_22">
    <!-- C -->
    <g style="fill: #00ff00" transform="translate(268.509919 249.209451) scale(0.1 -0.1)">
     <defs>
      <path id="DejaVuSans-43" d="M 4122 4306 
L 4122 3641 
Q 3803 3938 3442 4084 
Q 3081 4231 2675 4231 
Q 1875 4231 1450 3742 
Q 1025 3253 1025 2328 
Q 1025 1406 1450 917 
Q 1875 428 2675 428 
Q 3081 428 3442 575 
Q 3803 722 4122 1019 
L 4122 359 
Q 3791 134 3420 21 
Q 3050 -91 2638 -91 
Q 1578 -91 968 557 
Q 359 1206 359 2328 
Q 359 3453 968 4101 
Q 1578 4750 2638 4750 
Q 3056 4750 3426 4639 
Q 3797 4528 4122 4306 
z
" transform="scale(0.015625)"/>
     </defs>
     <use xlink:href="#DejaVuSans-43"/>
    </g>
   </g>
   <g id="text_23">
    <!-- O -->
    <g style="fill: #00ff00" transform="translate(161.497394 245.447465) scale(0.1 -0.1)">
     <defs>
      <path id="DejaVuSans-4f" d="M 2522 4238 
Q 1834 4238 1429 3725 
Q 1025 3213 1025 2328 
Q 1025 1447 1429 934 
Q 1834 422 2522 422 
Q 3209 422 3611 934 
Q 4013 1447 4013 2328 
Q 4013 3213 3611 3725 
Q 3209 4238 2522 4238 
z
M 2522 4750 
Q 3503 4750 4090 4092 
Q 4678 3434 4678 2328 
Q 4678 1225 4090 567 
Q 3503 -91 2522 -91 
Q 1538 -91 948 565 
Q 359 1222 359 2328 
Q 359 3434 948 4092 
Q 1538 4750 2522 4750 
z
" transform="scale(0.015625)"/>
     </defs>
     <use xlink:href="#DejaVuSans-4f"/>
    </g>
   </g>
  </g>
 </g>
 <defs>
  <clipPath id="p89a8a8a66e">
   <rect x="0" y="0" width="368.64" height="368.64"/>
  </clipPath>
 </defs>
</svg>
