<?xml version="1.0" encoding="utf-8" standalone="no"?>
<!DOCTYPE svg PUBLIC "-//W3C//DTD SVG 1.1//EN"
  "http://www.w3.org/Graphics/SVG/1.1/DTD/svg11.dtd">
<svg xmlns:xlink="http://www.w3.org/1999/xlink" width="368.64pt" height="368.64pt" viewBox="0 0 368.64 368.64" xmlns="http://www.w3.org/2000/svg" version="1.1">
 <metadata>
  <rdf:RDF xmlns:dc="http://purl.org/dc/elements/1.1/" xmlns:cc="http://creativecommons.org/ns#" xmlns:rdf="http://www.w3.org/1999/02/22-rdf-syntax-ns#">
   <cc:Work>
    <dc:type rdf:resource="http://purl.org/dc/dcmitype/StillImage"/>
    <dc:date>2024-08-26T20:25:22.600501</dc:date>
    <dc:format>image/svg+xml</dc:format>
    <dc:creator>
     <cc:Agent>
      <dc:title>Matplotlib v3.9.2, https://matplotlib.org/</dc:title>
     </cc:Agent>
    </dc:creator>
   </cc:Work>
  </rdf:RDF>
 </metadata>
 <defs>
  <style type="text/css">*{stroke-linejoin: round; stroke-linecap: butt}</style>
 </defs>
 <g id="figure_1">
  <g id="patch_1">
   <path d="M 0 368.64 
L 368.64 368.64 
L 368.64 0 
L 0 0 
z
" style="fill: #ffffff"/>
  </g>
  <g id="axes_1">
   <g id="patch_2">
    <path d="M 0 368.64 
L 368.64 368.64 
L 368.64 0 
L 0 0 
z
"/>
   </g>
   <g id="patch_3">
    <path d="M 258.120241 201.341451 
C 258.547878 198.34772 258.418791 195.300586 257.739493 192.353749 
C 257.060196 189.406912 255.842303 186.610766 254.147248 184.106354 
L 252.113801 185.482646 
C 253.639351 187.736618 254.735454 190.253148 255.346822 192.905302 
C 255.95819 195.557455 256.074368 198.299876 255.689495 200.994234 
z
" clip-path="url(#p388df4194c)" style="fill: #3cb44b; opacity: 0.5; stroke: #3cb44b; stroke-linejoin: miter"/>
   </g>
   <g id="patch_4">
    <path d="M 92.465576 161.011109 
C 90.137138 162.94079 88.185101 165.28413 86.707929 167.922929 
C 85.230757 170.561727 84.253711 173.450857 83.826075 176.444588 
L 86.256821 176.791805 
C 86.641694 174.097448 87.521035 171.497231 88.85049 169.122312 
C 90.179945 166.747393 91.936778 164.638387 94.032372 162.901674 
z
" clip-path="url(#p388df4194c)" style="fill: #3cb44b; opacity: 0.5; stroke: #3cb44b; stroke-linejoin: miter"/>
   </g>
   <g id="patch_5">
    <path d="M 266.867883 213.926237 
C 269.686258 208.124286 270.928009 201.681285 270.467819 195.247461 
C 270.007628 188.813636 267.861515 182.612958 264.246066 177.271198 
L 261.202737 179.331006 
C 264.456642 184.13859 266.388143 189.7192 266.802315 195.509642 
C 267.216486 201.300084 266.098911 207.098786 263.562373 212.320541 
z
" clip-path="url(#p388df4194c)" style="fill: #ffe119; opacity: 0.5; stroke: #ffe119; stroke-linejoin: miter"/>
   </g>
   <g id="patch_6">
    <path d="M 193.261395 225.315562 
C 189.645946 219.973802 184.687019 215.676914 178.885068 212.858538 
C 173.083117 210.040163 166.640116 208.798412 160.206292 209.258603 
L 160.468473 212.924107 
C 166.258915 212.509935 172.057617 213.627511 177.279372 216.164049 
C 182.501128 218.700586 186.964162 222.567786 190.218067 227.37537 
z
" clip-path="url(#p388df4194c)" style="fill: #ffe119; opacity: 0.5; stroke: #ffe119; stroke-linejoin: miter"/>
   </g>
   <g id="patch_7">
    <path d="M 251.808568 193.720932 
C 250.971065 190.087791 249.052641 186.792053 246.307026 184.269609 
C 243.56141 181.747166 240.11523 180.114351 236.424275 179.587121 
L 236.163125 181.415336 
C 239.484985 181.889844 242.586547 183.359377 245.057601 185.629576 
C 247.528655 187.899775 249.255236 190.865939 250.008989 194.135766 
z
" clip-path="url(#p388df4194c)" style="fill: #4363d8; opacity: 0.5; stroke: #4363d8; stroke-linejoin: miter"/>
   </g>
   <g id="patch_8">
    <path d="M 220.134175 293.628366 
C 216.44322 293.101135 212.677714 293.703804 209.335682 295.356664 
C 205.99365 297.009524 203.229225 299.636346 201.408027 302.889708 
L 203.019492 303.791789 
C 204.65857 300.863764 207.146553 298.499624 210.154382 297.01205 
C 213.162211 295.524476 216.551166 294.982074 219.873026 295.456582 
z
" clip-path="url(#p388df4194c)" style="fill: #4363d8; opacity: 0.5; stroke: #4363d8; stroke-linejoin: miter"/>
   </g>
   <g id="patch_9">
    <path d="M 351.883636 117.955696 
C 340.736799 101.486448 326.266443 87.530182 309.404919 76.986126 
C 292.543394 66.442071 273.660789 59.541652 253.973743 56.729477 
L 251.957647 70.843457 
C 269.675988 73.374415 286.670333 79.584791 301.845705 89.074442 
C 317.021077 98.564092 330.044397 111.124731 340.076551 125.947054 
z
" clip-path="url(#p388df4194c)" style="fill: #f58231; opacity: 0.5; stroke: #f58231; stroke-linejoin: miter"/>
   </g>
   <g id="patch_10">
    <path d="M 237.683644 170.770722 
C 217.996597 167.958547 197.937214 169.296339 178.797955 174.697902 
C 159.658695 180.099465 141.859641 189.446241 126.547617 202.136001 
L 135.645123 213.113454 
C 149.425945 201.692669 165.445094 193.28057 182.670427 188.419164 
C 199.89576 183.557758 217.949205 182.353745 235.667547 184.884702 
z
" clip-path="url(#p388df4194c)" style="fill: #f58231; opacity: 0.5; stroke: #f58231; stroke-linejoin: miter"/>
   </g>
   <g id="patch_11">
    <path d="M 254.903322 193.007536 
C 254.604564 191.711507 254.186979 190.445771 253.655868 189.226399 
C 253.124756 188.007027 252.482377 186.839202 251.736886 185.737753 
L 249.944475 186.950905 
C 250.615417 187.942209 251.193559 188.993252 251.671559 190.090687 
C 252.149559 191.188122 252.525386 192.327284 252.794267 193.493711 
z
" clip-path="url(#p388df4194c)" style="fill: #911eb4; opacity: 0.5; stroke: #911eb4; stroke-linejoin: miter"/>
   </g>
   <g id="patch_12">
    <path d="M 99.400455 236.853387 
C 99.58853 235.536734 99.654843 234.205543 99.598549 232.876717 
C 99.542256 231.547891 99.363596 230.227078 99.064839 228.931049 
L 96.955785 229.417223 
C 97.224666 230.583649 97.38546 231.772381 97.436124 232.968324 
C 97.486788 234.164268 97.427107 235.36234 97.257839 236.547327 
z
" clip-path="url(#p388df4194c)" style="fill: #911eb4; opacity: 0.5; stroke: #911eb4; stroke-linejoin: miter"/>
   </g>
   <g id="patch_13">
    <path d="M 178.063185 264.296956 
C 175.137297 266.721771 172.441137 269.411129 170.008939 272.330883 
C 167.576742 275.250636 165.418845 278.388375 163.562648 281.704258 
L 168.958651 284.724885 
C 170.629228 281.74059 172.571335 278.916625 174.760313 276.288847 
C 176.949291 273.661068 179.375835 271.240646 182.009134 269.058313 
z
" clip-path="url(#p388df4194c)" style="fill: #46f0f0; opacity: 0.5; stroke: #46f0f0; stroke-linejoin: miter"/>
   </g>
   <g id="patch_14">
    <path d="M 24.014264 203.586526 
C 22.158067 206.902409 20.611461 210.382342 19.394082 213.982138 
C 18.176703 217.581935 17.293726 221.286294 16.756364 225.04818 
L 22.878157 225.922641 
C 23.361783 222.536944 24.156462 219.20302 25.252103 215.963203 
C 26.347744 212.723387 27.73969 209.591447 29.410267 206.607152 
z
" clip-path="url(#p388df4194c)" style="fill: #46f0f0; opacity: 0.5; stroke: #46f0f0; stroke-linejoin: miter"/>
   </g>
   <g id="patch_15">
    <path d="M 336.552107 212.544967 
C 336.709103 211.445889 336.764457 210.334675 336.717466 209.225436 
C 336.670476 208.116197 336.521339 207.013646 336.271951 205.931784 
L 334.511415 206.337619 
C 334.735864 207.311295 334.870087 208.30359 334.912379 209.301905 
C 334.954671 210.300221 334.904852 211.300313 334.763555 212.289483 
z
" clip-path="url(#p388df4194c)" style="fill: #f032e6; opacity: 0.5; stroke: #f032e6; stroke-linejoin: miter"/>
   </g>
   <g id="patch_16">
    <path d="M 180.433468 241.855297 
C 180.18408 240.773435 179.8355 239.71686 179.392154 238.698987 
C 178.948808 237.681114 178.412581 236.706271 177.790281 235.786835 
L 176.294064 236.799515 
C 176.854134 237.627008 177.336738 238.504367 177.735749 239.420453 
C 178.134761 240.336538 178.448483 241.287455 178.672932 242.261131 
z
" clip-path="url(#p388df4194c)" style="fill: #f032e6; opacity: 0.5; stroke: #f032e6; stroke-linejoin: miter"/>
   </g>
   <g id="patch_17">
    <path d="M 74.672873 120.564936 
C 73.642206 122.686683 72.694237 124.847614 71.831104 127.042856 
C 70.967972 129.238097 70.190325 131.465997 69.499919 133.721529 
L 78.221207 136.391069 
C 78.842573 134.36109 79.542455 132.355981 80.319274 130.380263 
C 81.096094 128.404546 81.949266 126.459707 82.876866 124.550135 
z
" clip-path="url(#p388df4194c)" style="fill: #bcf60c; opacity: 0.5; stroke: #bcf60c; stroke-linejoin: miter"/>
   </g>
   <g id="patch_18">
    <path d="M 231.453706 183.294726 
C 230.7633 185.550258 230.160654 187.831724 229.647127 190.133978 
C 229.1336 192.436232 228.709578 194.757542 228.376019 197.092669 
L 237.405077 198.382415 
C 237.70528 196.2808 238.086899 194.191622 238.549073 192.119593 
C 239.011247 190.047565 239.553629 187.994245 240.174995 185.964267 
z
" clip-path="url(#p388df4194c)" style="fill: #bcf60c; opacity: 0.5; stroke: #bcf60c; stroke-linejoin: miter"/>
   </g>
   <g id="patch_19">
    <path d="M 151.489216 87.38712 
C 138.670761 88.303983 126.316815 92.579799 115.674139 99.783053 
C 105.031463 106.986307 96.470539 116.866246 90.855338 128.425785 
L 97.441085 131.6249 
C 102.494766 121.221315 110.199597 112.32937 119.778005 105.846441 
C 129.356414 99.363512 140.474966 95.515278 152.011575 94.690101 
z
" clip-path="url(#p388df4194c)" style="fill: #fabebe; opacity: 0.5; stroke: #fabebe; stroke-linejoin: miter"/>
   </g>
   <g id="patch_20">
    <path d="M 223.461987 204.874977 
C 216.258733 194.232301 206.378794 185.671377 194.819255 180.056176 
C 183.259716 174.440975 170.422976 171.966968 157.604521 172.883831 
L 158.12688 180.186812 
C 169.663489 179.361635 181.216555 181.588242 191.62014 186.641923 
C 202.023725 191.695604 210.91567 199.400435 217.398599 208.978843 
z
" clip-path="url(#p388df4194c)" style="fill: #fabebe; opacity: 0.5; stroke: #fabebe; stroke-linejoin: miter"/>
   </g>
   <g id="patch_21">
    <path d="M 310.714459 145.82012 
C 301.578604 132.322061 289.047921 121.46428 274.387009 114.342545 
C 259.726096 107.220811 243.445316 104.083038 227.187727 105.245891 
L 227.850232 114.50823 
C 242.482063 113.461662 257.134765 116.285657 270.329586 122.695219 
C 283.524407 129.10478 294.802021 138.876783 303.024291 151.025036 
z
" clip-path="url(#p388df4194c)" style="fill: #008080; opacity: 0.5; stroke: #008080; stroke-linejoin: miter"/>
   </g>
   <g id="patch_22">
    <path d="M 246.354841 286.487871 
C 253.476575 271.826959 256.614348 255.546179 255.451495 239.288589 
C 254.288642 223.030999 248.865643 207.362544 239.729788 193.864485 
L 232.03962 199.0694 
C 240.26189 211.217654 245.142589 225.319264 246.189157 239.951094 
C 247.235724 254.582925 244.411729 269.235627 238.002168 282.430448 
z
" clip-path="url(#p388df4194c)" style="fill: #008080; opacity: 0.5; stroke: #008080; stroke-linejoin: miter"/>
   </g>
   <g id="patch_23">
    <path d="M 239.353615 275.334459 
C 237.943892 275.435292 236.585254 275.905529 235.414815 276.697715 
C 234.244375 277.4899 233.302879 278.576456 232.685341 279.847729 
L 233.409616 280.199555 
C 233.965399 279.05541 234.812746 278.077509 235.866141 277.364542 
C 236.919537 276.651575 238.142311 276.228362 239.411062 276.137612 
z
" clip-path="url(#p388df4194c)" style="fill: #e6beff; opacity: 0.5; stroke: #e6beff; stroke-linejoin: miter"/>
   </g>
   <g id="patch_24">
    <path d="M 170.070851 249.431901 
C 170.688389 248.160629 170.96047 246.748895 170.859638 245.339173 
C 170.758805 243.92945 170.288567 242.570812 169.496382 241.400372 
L 168.829555 241.851699 
C 169.542521 242.905095 169.965735 244.127869 170.056485 245.39662 
C 170.147234 246.66537 169.902361 247.93593 169.346577 249.080075 
z
" clip-path="url(#p388df4194c)" style="fill: #e6beff; opacity: 0.5; stroke: #e6beff; stroke-linejoin: miter"/>
   </g>
   <g id="patch_25">
    <path d="M 143.79662 222.949409 
C 152.911095 215.395836 159.394291 205.138369 162.306097 193.66442 
C 165.217902 182.190471 164.410423 170.082811 160.00075 159.097142 
L 154.814029 161.179104 
C 158.782734 171.066206 159.509465 181.9631 156.888841 192.289654 
C 154.268216 202.616209 148.433339 211.847928 140.230312 218.646145 
z
" clip-path="url(#p388df4194c)" style="fill: #9a6324; opacity: 0.5; stroke: #9a6324; stroke-linejoin: miter"/>
   </g>
   <g id="patch_26">
    <path d="M 208.580017 139.597313 
C 204.170345 128.611644 196.38245 119.305939 186.345636 113.029595 
C 176.308822 106.753252 164.532868 103.82505 152.725377 104.669602 
L 153.12412 110.244335 
C 163.750862 109.484238 174.34922 112.11962 183.382353 117.768329 
C 192.415485 123.417039 199.424591 131.792173 203.393296 141.679275 
z
" clip-path="url(#p388df4194c)" style="fill: #9a6324; opacity: 0.5; stroke: #9a6324; stroke-linejoin: miter"/>
   </g>
   <g id="patch_27">
    <path d="M 150.35484 71.527659 
C 142.586728 72.083287 134.924859 73.654818 127.565246 76.202049 
C 120.205633 78.74928 113.211578 82.250301 106.762009 86.615545 
L 111.757089 93.995683 
C 117.5617 90.066964 123.85635 86.916045 130.480002 84.623537 
C 137.103653 82.33103 143.999336 80.916651 150.990637 80.416586 
z
" clip-path="url(#p388df4194c)" style="fill: #fffac8; opacity: 0.5; stroke: #fffac8; stroke-linejoin: miter"/>
   </g>
   <g id="patch_28">
    <path d="M 189.97729 209.564601 
C 183.527721 213.929845 177.678113 219.121767 172.578117 225.00754 
C 167.478121 230.893313 163.171602 237.422313 159.768734 244.42751 
L 167.784669 248.321358 
C 170.84725 242.016681 174.723117 236.14058 179.313114 230.843384 
C 183.90311 225.546189 189.167758 220.87346 194.972369 216.94474 
z
" clip-path="url(#p388df4194c)" style="fill: #fffac8; opacity: 0.5; stroke: #fffac8; stroke-linejoin: miter"/>
   </g>
   <g id="patch_29">
    <path d="M 273.106946 196.044563 
C 277.146989 182.845893 278.912735 169.055674 278.328514 155.264898 
C 277.744292 141.474121 274.818568 127.882648 269.676727 115.072953 
L 258.380335 119.607351 
C 263.007992 131.136077 265.641143 143.368402 266.166943 155.780101 
C 266.692742 168.1918 265.10357 180.602997 261.467531 192.4818 
z
" clip-path="url(#p388df4194c)" style="fill: #800000; opacity: 0.5; stroke: #800000; stroke-linejoin: miter"/>
   </g>
   <g id="patch_30">
    <path d="M 88.484596 59.611 
C 77.053572 67.347829 67.021371 76.97295 58.817933 88.07387 
C 50.614495 99.17479 44.358705 111.590631 40.318662 124.7893 
L 51.958076 128.352063 
C 55.594115 116.473261 61.224326 105.299004 68.60742 95.308176 
C 75.990515 85.317348 85.019495 76.654739 95.307416 69.691593 
z
" clip-path="url(#p388df4194c)" style="fill: #800000; opacity: 0.5; stroke: #800000; stroke-linejoin: miter"/>
   </g>
   <g id="PathCollection_1">
    <defs>
     <path id="m6ac4ab924b" d="M 0 1.118034 
C 0.296506 1.118034 0.580908 1.000231 0.790569 0.790569 
C 1.000231 0.580908 1.118034 0.296506 1.118034 0 
C 1.118034 -0.296506 1.000231 -0.580908 0.790569 -0.790569 
C 0.580908 -1.000231 0.296506 -1.118034 0 -1.118034 
C -0.296506 -1.118034 -0.580908 -1.000231 -0.790569 -0.790569 
C -1.000231 -0.580908 -1.118034 -0.296506 -1.118034 0 
C -1.118034 0.296506 -1.000231 0.580908 -0.790569 0.790569 
C -0.580908 1.000231 -0.296506 1.118034 0 1.118034 
z
" style="stroke: #ffffff"/>
    </defs>
    <g clip-path="url(#p388df4194c)">
     <use xlink:href="#m6ac4ab924b" x="217.52268" y="311.910523" style="fill: #ffffff; stroke: #ffffff"/>
    </g>
   </g>
   <g id="PathCollection_2">
    <g clip-path="url(#p388df4194c)">
     <use xlink:href="#m6ac4ab924b" x="108.133537" y="179.916761" style="fill: #ffffff; stroke: #ffffff"/>
    </g>
   </g>
   <g id="PathCollection_3">
    <g clip-path="url(#p388df4194c)">
     <use xlink:href="#m6ac4ab924b" x="162.828109" y="245.913642" style="fill: #ffffff; stroke: #ffffff"/>
    </g>
   </g>
   <g id="PathCollection_4">
    <g clip-path="url(#p388df4194c)">
     <use xlink:href="#m6ac4ab924b" x="233.812779" y="197.869278" style="fill: #ffffff; stroke: #ffffff"/>
    </g>
   </g>
   <g id="PathCollection_5">
    <g clip-path="url(#p388df4194c)">
     <use xlink:href="#m6ac4ab924b" x="77.974297" y="233.79279" style="fill: #ffffff; stroke: #ffffff"/>
    </g>
   </g>
   <g id="PathCollection_6">
    <g clip-path="url(#p388df4194c)">
     <use xlink:href="#m6ac4ab924b" x="156.712804" y="160.416931" style="fill: #ffffff; stroke: #ffffff"/>
    </g>
   </g>
   <g id="PathCollection_7">
    <g clip-path="url(#p388df4194c)">
     <use xlink:href="#m6ac4ab924b" x="239.928084" y="283.365988" style="fill: #ffffff; stroke: #ffffff"/>
    </g>
   </g>
   <g id="PathCollection_8">
    <g clip-path="url(#p388df4194c)">
     <use xlink:href="#m6ac4ab924b" x="318.666591" y="209.990129" style="fill: #ffffff; stroke: #ffffff"/>
    </g>
   </g>
   <g id="matplotlib.axis_1">
    <g id="xtick_1">
     <g id="line2d_1">
      <defs>
       <path id="m6bd9567457" d="M 0 0 
L 0 3.5 
" style="stroke: #000000; stroke-width: 0.8"/>
      </defs>
      <g>
       <use xlink:href="#m6bd9567457" x="3.50194" y="368.64" style="stroke: #000000; stroke-width: 0.8"/>
      </g>
     </g>
     <g id="text_1">
      <!-- −1.5 -->
      <g transform="translate(-8.639466 383.238437) scale(0.1 -0.1)">
       <defs>
        <path id="DejaVuSans-2212" d="M 678 2272 
L 4684 2272 
L 4684 1741 
L 678 1741 
L 678 2272 
z
" transform="scale(0.015625)"/>
        <path id="DejaVuSans-31" d="M 794 531 
L 1825 531 
L 1825 4091 
L 703 3866 
L 703 4441 
L 1819 4666 
L 2450 4666 
L 2450 531 
L 3481 531 
L 3481 0 
L 794 0 
L 794 531 
z
" transform="scale(0.015625)"/>
        <path id="DejaVuSans-2e" d="M 684 794 
L 1344 794 
L 1344 0 
L 684 0 
L 684 794 
z
" transform="scale(0.015625)"/>
        <path id="DejaVuSans-35" d="M 691 4666 
L 3169 4666 
L 3169 4134 
L 1269 4134 
L 1269 2991 
Q 1406 3038 1543 3061 
Q 1681 3084 1819 3084 
Q 2600 3084 3056 2656 
Q 3513 2228 3513 1497 
Q 3513 744 3044 326 
Q 2575 -91 1722 -91 
Q 1428 -91 1123 -41 
Q 819 9 494 109 
L 494 744 
Q 775 591 1075 516 
Q 1375 441 1709 441 
Q 2250 441 2565 725 
Q 2881 1009 2881 1497 
Q 2881 1984 2565 2268 
Q 2250 2553 1709 2553 
Q 1456 2553 1204 2497 
Q 953 2441 691 2322 
L 691 4666 
z
" transform="scale(0.015625)"/>
       </defs>
       <use xlink:href="#DejaVuSans-2212"/>
       <use xlink:href="#DejaVuSans-31" x="83.789062"/>
       <use xlink:href="#DejaVuSans-2e" x="147.412109"/>
       <use xlink:href="#DejaVuSans-35" x="179.199219"/>
      </g>
     </g>
    </g>
    <g id="xtick_2">
     <g id="line2d_2">
      <g>
       <use xlink:href="#m6bd9567457" x="79.907774" y="368.64" style="stroke: #000000; stroke-width: 0.8"/>
      </g>
     </g>
     <g id="text_2">
      <!-- −1.0 -->
      <g transform="translate(67.766367 383.238437) scale(0.1 -0.1)">
       <defs>
        <path id="DejaVuSans-30" d="M 2034 4250 
Q 1547 4250 1301 3770 
Q 1056 3291 1056 2328 
Q 1056 1369 1301 889 
Q 1547 409 2034 409 
Q 2525 409 2770 889 
Q 3016 1369 3016 2328 
Q 3016 3291 2770 3770 
Q 2525 4250 2034 4250 
z
M 2034 4750 
Q 2819 4750 3233 4129 
Q 3647 3509 3647 2328 
Q 3647 1150 3233 529 
Q 2819 -91 2034 -91 
Q 1250 -91 836 529 
Q 422 1150 422 2328 
Q 422 3509 836 4129 
Q 1250 4750 2034 4750 
z
" transform="scale(0.015625)"/>
       </defs>
       <use xlink:href="#DejaVuSans-2212"/>
       <use xlink:href="#DejaVuSans-31" x="83.789062"/>
       <use xlink:href="#DejaVuSans-2e" x="147.412109"/>
       <use xlink:href="#DejaVuSans-30" x="179.199219"/>
      </g>
     </g>
    </g>
    <g id="xtick_3">
     <g id="line2d_3">
      <g>
       <use xlink:href="#m6bd9567457" x="156.313608" y="368.64" style="stroke: #000000; stroke-width: 0.8"/>
      </g>
     </g>
     <g id="text_3">
      <!-- −0.5 -->
      <g transform="translate(144.172201 383.238437) scale(0.1 -0.1)">
       <use xlink:href="#DejaVuSans-2212"/>
       <use xlink:href="#DejaVuSans-30" x="83.789062"/>
       <use xlink:href="#DejaVuSans-2e" x="147.412109"/>
       <use xlink:href="#DejaVuSans-35" x="179.199219"/>
      </g>
     </g>
    </g>
    <g id="xtick_4">
     <g id="line2d_4">
      <g>
       <use xlink:href="#m6bd9567457" x="232.719441" y="368.64" style="stroke: #000000; stroke-width: 0.8"/>
      </g>
     </g>
     <g id="text_4">
      <!-- 0.0 -->
      <g transform="translate(224.767879 383.238437) scale(0.1 -0.1)">
       <use xlink:href="#DejaVuSans-30"/>
       <use xlink:href="#DejaVuSans-2e" x="63.623047"/>
       <use xlink:href="#DejaVuSans-30" x="95.410156"/>
      </g>
     </g>
    </g>
    <g id="xtick_5">
     <g id="line2d_5">
      <g>
       <use xlink:href="#m6bd9567457" x="309.125275" y="368.64" style="stroke: #000000; stroke-width: 0.8"/>
      </g>
     </g>
     <g id="text_5">
      <!-- 0.5 -->
      <g transform="translate(301.173713 383.238437) scale(0.1 -0.1)">
       <use xlink:href="#DejaVuSans-30"/>
       <use xlink:href="#DejaVuSans-2e" x="63.623047"/>
       <use xlink:href="#DejaVuSans-35" x="95.410156"/>
      </g>
     </g>
    </g>
   </g>
   <g id="matplotlib.axis_2">
    <g id="ytick_1">
     <g id="line2d_6">
      <defs>
       <path id="mbe26f39dfc" d="M 0 0 
L -3.5 0 
" style="stroke: #000000; stroke-width: 0.8"/>
      </defs>
      <g>
       <use xlink:href="#mbe26f39dfc" x="0" y="356.063688" style="stroke: #000000; stroke-width: 0.8"/>
      </g>
     </g>
     <g id="text_6">
      <!-- −0.5 -->
      <g transform="translate(-31.282813 359.862907) scale(0.1 -0.1)">
       <use xlink:href="#DejaVuSans-2212"/>
       <use xlink:href="#DejaVuSans-30" x="83.789062"/>
       <use xlink:href="#DejaVuSans-2e" x="147.412109"/>
       <use xlink:href="#DejaVuSans-35" x="179.199219"/>
      </g>
     </g>
    </g>
    <g id="ytick_2">
     <g id="line2d_7">
      <g>
       <use xlink:href="#mbe26f39dfc" x="0" y="279.657855" style="stroke: #000000; stroke-width: 0.8"/>
      </g>
     </g>
     <g id="text_7">
      <!-- 0.0 -->
      <g transform="translate(-22.903125 283.457073) scale(0.1 -0.1)">
       <use xlink:href="#DejaVuSans-30"/>
       <use xlink:href="#DejaVuSans-2e" x="63.623047"/>
       <use xlink:href="#DejaVuSans-30" x="95.410156"/>
      </g>
     </g>
    </g>
    <g id="ytick_3">
     <g id="line2d_8">
      <g>
       <use xlink:href="#mbe26f39dfc" x="0" y="203.252021" style="stroke: #000000; stroke-width: 0.8"/>
      </g>
     </g>
     <g id="text_8">
      <!-- 0.5 -->
      <g transform="translate(-22.903125 207.05124) scale(0.1 -0.1)">
       <use xlink:href="#DejaVuSans-30"/>
       <use xlink:href="#DejaVuSans-2e" x="63.623047"/>
       <use xlink:href="#DejaVuSans-35" x="95.410156"/>
      </g>
     </g>
    </g>
    <g id="ytick_4">
     <g id="line2d_9">
      <g>
       <use xlink:href="#mbe26f39dfc" x="0" y="126.846187" style="stroke: #000000; stroke-width: 0.8"/>
      </g>
     </g>
     <g id="text_9">
      <!-- 1.0 -->
      <g transform="translate(-22.903125 130.645406) scale(0.1 -0.1)">
       <use xlink:href="#DejaVuSans-31"/>
       <use xlink:href="#DejaVuSans-2e" x="63.623047"/>
       <use xlink:href="#DejaVuSans-30" x="95.410156"/>
      </g>
     </g>
    </g>
    <g id="ytick_5">
     <g id="line2d_10">
      <g>
       <use xlink:href="#mbe26f39dfc" x="0" y="50.440353" style="stroke: #000000; stroke-width: 0.8"/>
      </g>
     </g>
     <g id="text_10">
      <!-- 1.5 -->
      <g transform="translate(-22.903125 54.239572) scale(0.1 -0.1)">
       <use xlink:href="#DejaVuSans-31"/>
       <use xlink:href="#DejaVuSans-2e" x="63.623047"/>
       <use xlink:href="#DejaVuSans-35" x="95.410156"/>
      </g>
     </g>
    </g>
   </g>
   <g id="line2d_11">
    <path d="M 0 164.470542 
L 368.64 217.128527 
" clip-path="url(#p388df4194c)" style="fill: none; stroke-dasharray: 1.48,0.64; stroke-dashoffset: 0; stroke: #ffffff; stroke-width: 0.4"/>
   </g>
   <g id="line2d_12">
    <path d="M 233.812779 197.869278 
L 162.828109 245.913642 
" clip-path="url(#p388df4194c)" style="fill: none; stroke: #ffffff; stroke-opacity: 0.9; stroke-width: 0.4; stroke-linecap: square"/>
   </g>
   <g id="line2d_13">
    <path d="M 217.52268 311.910523 
L 162.828109 245.913642 
" clip-path="url(#p388df4194c)" style="fill: none; stroke: #ffffff; stroke-opacity: 0.9; stroke-width: 0.4; stroke-linecap: square"/>
   </g>
   <g id="line2d_14">
    <path d="M 233.812779 197.869278 
L 162.828109 245.913642 
" clip-path="url(#p388df4194c)" style="fill: none; stroke: #ffffff; stroke-opacity: 0.9; stroke-width: 0.4; stroke-linecap: square"/>
   </g>
   <g id="line2d_15">
    <path d="M 108.133537 179.916761 
L 162.828109 245.913642 
" clip-path="url(#p388df4194c)" style="fill: none; stroke: #ffffff; stroke-opacity: 0.9; stroke-width: 0.4; stroke-linecap: square"/>
   </g>
   <g id="line2d_16">
    <path d="M 0 164.470542 
L 368.64 217.128527 
" clip-path="url(#p388df4194c)" style="fill: none; stroke-dasharray: 0.4,0.66; stroke-dashoffset: 0; stroke: #ffffff; stroke-opacity: 0.9; stroke-width: 0.4"/>
   </g>
   <g id="line2d_17">
    <path d="M 0 356.120154 
L 368.64 106.614532 
" clip-path="url(#p388df4194c)" style="fill: none; stroke-dasharray: 0.4,0.66; stroke-dashoffset: 0; stroke: #ffffff; stroke-opacity: 0.9; stroke-width: 0.4"/>
   </g>
   <g id="line2d_18">
    <path d="M 0 49.438069 
L 264.536939 368.64 
" clip-path="url(#p388df4194c)" style="fill: none; stroke-dasharray: 0.4,0.66; stroke-dashoffset: 0; stroke: #ffffff; stroke-opacity: 0.9; stroke-width: 0.4"/>
   </g>
   <g id="line2d_19">
    <path d="M 0 164.470542 
L 368.64 217.128527 
" clip-path="url(#p388df4194c)" style="fill: none; stroke-dasharray: 0.4,0.66; stroke-dashoffset: 0; stroke: #ffffff; stroke-opacity: 0.9; stroke-width: 0.4"/>
   </g>
   <g id="line2d_20">
    <path d="M 0 84.291587 
L 368.64 263.363406 
" clip-path="url(#p388df4194c)" style="fill: none; stroke-dasharray: 0.4,0.66; stroke-dashoffset: 0; stroke: #ffffff; stroke-opacity: 0.9; stroke-width: 0.4"/>
   </g>
   <g id="line2d_21">
    <path d="M 0 356.120154 
L 368.64 106.614532 
" clip-path="url(#p388df4194c)" style="fill: none; stroke-dasharray: 0.4,0.66; stroke-dashoffset: 0; stroke: #ffffff; stroke-opacity: 0.9; stroke-width: 0.4"/>
   </g>
   <g id="line2d_22">
    <path d="M 0 356.120154 
L 368.64 106.614532 
" clip-path="url(#p388df4194c)" style="fill: none; stroke-dasharray: 0.4,0.66; stroke-dashoffset: 0; stroke: #ffffff; stroke-opacity: 0.9; stroke-width: 0.4"/>
   </g>
   <g id="line2d_23">
    <path d="M 145.238697 0 
L 171.60633 368.64 
" clip-path="url(#p388df4194c)" style="fill: none; stroke-dasharray: 0.4,0.66; stroke-dashoffset: 0; stroke: #ffffff; stroke-opacity: 0.9; stroke-width: 0.4"/>
   </g>
   <g id="line2d_24">
    <path d="M 233.812779 197.869278 
L 156.712804 160.416931 
" clip-path="url(#p388df4194c)" style="fill: none; stroke: #ffffff; stroke-opacity: 0.9; stroke-width: 0.4; stroke-linecap: square"/>
   </g>
   <g id="line2d_25">
    <path d="M 156.712804 160.416931 
L 162.828109 245.913642 
" clip-path="url(#p388df4194c)" style="fill: none; stroke: #ffffff; stroke-opacity: 0.9; stroke-width: 0.4; stroke-linecap: square"/>
   </g>
   <g id="line2d_26">
    <path d="M 0 49.438069 
L 264.536939 368.64 
" clip-path="url(#p388df4194c)" style="fill: none; stroke-dasharray: 1.48,0.64; stroke-dashoffset: 0; stroke: #ffffff; stroke-width: 0.4"/>
   </g>
   <g id="line2d_27">
    <path d="M 209.419219 368.64 
L 262.077204 0 
" clip-path="url(#p388df4194c)" style="fill: none; stroke-dasharray: 0.4,0.66; stroke-dashoffset: 0; stroke: #ffffff; stroke-opacity: 0.9; stroke-width: 0.4"/>
   </g>
   <g id="line2d_28">
    <path d="M 0 251.767238 
L 368.64 166.789231 
" clip-path="url(#p388df4194c)" style="fill: none; stroke-dasharray: 0.4,0.66; stroke-dashoffset: 0; stroke: #ffffff; stroke-opacity: 0.9; stroke-width: 0.4"/>
   </g>
   <g id="line2d_29">
    <path d="M 0 190.143591 
L 318.863394 368.64 
" clip-path="url(#p388df4194c)" style="fill: none; stroke-dasharray: 0.4,0.66; stroke-dashoffset: 0; stroke: #ffffff; stroke-opacity: 0.9; stroke-width: 0.4"/>
   </g>
   <g id="line2d_30">
    <path d="M 209.419219 368.64 
L 262.077204 0 
" clip-path="url(#p388df4194c)" style="fill: none; stroke-dasharray: 0.4,0.66; stroke-dashoffset: 0; stroke: #ffffff; stroke-opacity: 0.9; stroke-width: 0.4"/>
   </g>
   <g id="line2d_31">
    <path d="M 209.419219 368.64 
L 262.077204 0 
" clip-path="url(#p388df4194c)" style="fill: none; stroke-dasharray: 0.4,0.66; stroke-dashoffset: 0; stroke: #ffffff; stroke-opacity: 0.9; stroke-width: 0.4"/>
   </g>
   <g id="line2d_32">
    <path d="M 0 356.120154 
L 368.64 106.614532 
" clip-path="url(#p388df4194c)" style="fill: none; stroke-dasharray: 0.4,0.66; stroke-dashoffset: 0; stroke: #ffffff; stroke-opacity: 0.9; stroke-width: 0.4"/>
   </g>
   <g id="line2d_33">
    <path d="M 0 49.438069 
L 264.536939 368.64 
" clip-path="url(#p388df4194c)" style="fill: none; stroke-dasharray: 0.4,0.66; stroke-dashoffset: 0; stroke: #ffffff; stroke-opacity: 0.9; stroke-width: 0.4"/>
   </g>
   <g id="line2d_34">
    <path d="M 209.419219 368.64 
L 262.077204 0 
" clip-path="url(#p388df4194c)" style="fill: none; stroke-dasharray: 0.4,0.66; stroke-dashoffset: 0; stroke: #ffffff; stroke-opacity: 0.9; stroke-width: 0.4"/>
   </g>
   <g id="line2d_35">
    <path d="M 217.52268 311.910523 
L 162.828109 245.913642 
" clip-path="url(#p388df4194c)" style="fill: none; stroke: #ffffff; stroke-opacity: 0.9; stroke-width: 0.4; stroke-linecap: square"/>
   </g>
   <g id="line2d_36">
    <path d="M 77.974297 233.79279 
L 162.828109 245.913642 
" clip-path="url(#p388df4194c)" style="fill: none; stroke: #ffffff; stroke-opacity: 0.9; stroke-width: 0.4; stroke-linecap: square"/>
   </g>
   <g id="line2d_37">
    <path d="M 233.812779 197.869278 
L 162.828109 245.913642 
" clip-path="url(#p388df4194c)" style="fill: none; stroke: #ffffff; stroke-opacity: 0.9; stroke-width: 0.4; stroke-linecap: square"/>
   </g>
   <g id="line2d_38">
    <path d="M 77.974297 233.79279 
L 162.828109 245.913642 
" clip-path="url(#p388df4194c)" style="fill: none; stroke: #ffffff; stroke-opacity: 0.9; stroke-width: 0.4; stroke-linecap: square"/>
   </g>
   <g id="line2d_39">
    <path d="M 0 251.767238 
L 368.64 166.789231 
" clip-path="url(#p388df4194c)" style="fill: none; stroke-dasharray: 0.4,0.66; stroke-dashoffset: 0; stroke: #ffffff; stroke-opacity: 0.9; stroke-width: 0.4"/>
   </g>
   <g id="line2d_40">
    <path d="M 0 356.120154 
L 368.64 106.614532 
" clip-path="url(#p388df4194c)" style="fill: none; stroke-dasharray: 0.4,0.66; stroke-dashoffset: 0; stroke: #ffffff; stroke-opacity: 0.9; stroke-width: 0.4"/>
   </g>
   <g id="line2d_41">
    <path d="M 0 222.654636 
L 368.64 275.312621 
" clip-path="url(#p388df4194c)" style="fill: none; stroke-dasharray: 0.4,0.66; stroke-dashoffset: 0; stroke: #ffffff; stroke-opacity: 0.9; stroke-width: 0.4"/>
   </g>
   <g id="line2d_42">
    <path d="M 0 251.767238 
L 368.64 166.789231 
" clip-path="url(#p388df4194c)" style="fill: none; stroke-dasharray: 0.4,0.66; stroke-dashoffset: 0; stroke: #ffffff; stroke-opacity: 0.9; stroke-width: 0.4"/>
   </g>
   <g id="line2d_43">
    <path d="M 0 190.143591 
L 318.863394 368.64 
" clip-path="url(#p388df4194c)" style="fill: none; stroke-dasharray: 0.4,0.66; stroke-dashoffset: 0; stroke: #ffffff; stroke-opacity: 0.9; stroke-width: 0.4"/>
   </g>
   <g id="line2d_44">
    <path d="M 0 49.438069 
L 264.536939 368.64 
" clip-path="url(#p388df4194c)" style="fill: none; stroke-dasharray: 0.4,0.66; stroke-dashoffset: 0; stroke: #ffffff; stroke-opacity: 0.9; stroke-width: 0.4"/>
   </g>
   <g id="line2d_45">
    <path d="M 0 222.654636 
L 368.64 275.312621 
" clip-path="url(#p388df4194c)" style="fill: none; stroke-dasharray: 0.4,0.66; stroke-dashoffset: 0; stroke: #ffffff; stroke-opacity: 0.9; stroke-width: 0.4"/>
   </g>
   <g id="line2d_46">
    <path d="M 0 190.143591 
L 318.863394 368.64 
" clip-path="url(#p388df4194c)" style="fill: none; stroke-dasharray: 0.4,0.66; stroke-dashoffset: 0; stroke: #ffffff; stroke-opacity: 0.9; stroke-width: 0.4"/>
   </g>
   <g id="line2d_47">
    <path d="M 233.812779 197.869278 
L 77.974297 233.79279 
" clip-path="url(#p388df4194c)" style="fill: none; stroke-dasharray: 1.48,0.64; stroke-dashoffset: 0; stroke: #ffffff; stroke-opacity: 0.9; stroke-width: 0.4"/>
   </g>
   <g id="line2d_48">
    <path d="M 318.666591 209.990129 
L 162.828109 245.913642 
" clip-path="url(#p388df4194c)" style="fill: none; stroke-dasharray: 1.48,0.64; stroke-dashoffset: 0; stroke: #ffffff; stroke-opacity: 0.9; stroke-width: 0.4"/>
   </g>
   <g id="line2d_49">
    <path d="M 182.896386 214.310978 
L 130.950225 226.285483 
" clip-path="url(#p388df4194c)" style="fill: none; stroke: #f032e6; stroke-opacity: 0.9; stroke-width: 0.4; stroke-linecap: square"/>
   </g>
   <g id="line2d_50">
    <path d="M 267.750198 226.43183 
L 215.804037 238.406334 
" clip-path="url(#p388df4194c)" style="fill: none; stroke: #f032e6; stroke-opacity: 0.9; stroke-width: 0.4; stroke-linecap: square"/>
   </g>
   <g id="line2d_51">
    <path d="M 0 164.470542 
L 368.64 217.128527 
" clip-path="url(#p388df4194c)" style="fill: none; stroke-dasharray: 0.4,0.66; stroke-dashoffset: 0; stroke: #ffffff; stroke-opacity: 0.9; stroke-width: 0.4"/>
   </g>
   <g id="line2d_52">
    <path d="M 0 283.448386 
L 368.64 198.470379 
" clip-path="url(#p388df4194c)" style="fill: none; stroke-dasharray: 0.4,0.66; stroke-dashoffset: 0; stroke: #ffffff; stroke-opacity: 0.9; stroke-width: 0.4"/>
   </g>
   <g id="line2d_53">
    <path d="M 0 283.448386 
L 368.64 198.470379 
" clip-path="url(#p388df4194c)" style="fill: none; stroke-dasharray: 0.4,0.66; stroke-dashoffset: 0; stroke: #ffffff; stroke-opacity: 0.9; stroke-width: 0.4"/>
   </g>
   <g id="line2d_54">
    <path d="M 0 356.120154 
L 368.64 106.614532 
" clip-path="url(#p388df4194c)" style="fill: none; stroke-dasharray: 0.4,0.66; stroke-dashoffset: 0; stroke: #ffffff; stroke-opacity: 0.9; stroke-width: 0.4"/>
   </g>
   <g id="line2d_55">
    <path d="M 233.812779 197.869278 
L 318.666591 209.990129 
" clip-path="url(#p388df4194c)" style="fill: none; stroke: #ffffff; stroke-opacity: 0.9; stroke-width: 0.4; stroke-linecap: square"/>
   </g>
   <g id="line2d_56">
    <path d="M 233.812779 197.869278 
L 162.828109 245.913642 
" clip-path="url(#p388df4194c)" style="fill: none; stroke: #ffffff; stroke-opacity: 0.9; stroke-width: 0.4; stroke-linecap: square"/>
   </g>
   <g id="line2d_57">
    <path d="M 217.52268 311.910523 
L 162.828109 245.913642 
" clip-path="url(#p388df4194c)" style="fill: none; stroke: #ffffff; stroke-opacity: 0.9; stroke-width: 0.4; stroke-linecap: square"/>
   </g>
   <g id="line2d_58">
    <path d="M 156.712804 160.416931 
L 162.828109 245.913642 
" clip-path="url(#p388df4194c)" style="fill: none; stroke: #ffffff; stroke-opacity: 0.9; stroke-width: 0.4; stroke-linecap: square"/>
   </g>
   <g id="line2d_59">
    <path d="M 233.812779 197.869278 
L 156.712804 160.416931 
" clip-path="url(#p388df4194c)" style="fill: none; stroke: #ffffff; stroke-opacity: 0.9; stroke-width: 0.4; stroke-linecap: square"/>
   </g>
   <g id="line2d_60">
    <path d="M 233.812779 197.869278 
L 318.666591 209.990129 
" clip-path="url(#p388df4194c)" style="fill: none; stroke: #ffffff; stroke-opacity: 0.9; stroke-width: 0.4; stroke-linecap: square"/>
   </g>
   <g id="line2d_61">
    <path d="M 0 84.291587 
L 368.64 263.363406 
" clip-path="url(#p388df4194c)" style="fill: none; stroke-dasharray: 0.4,0.66; stroke-dashoffset: 0; stroke: #ffffff; stroke-opacity: 0.9; stroke-width: 0.4"/>
   </g>
   <g id="line2d_62">
    <path d="M 0 112.447971 
L 368.64 225.286725 
" clip-path="url(#p388df4194c)" style="fill: none; stroke-dasharray: 0.4,0.66; stroke-dashoffset: 0; stroke: #ffffff; stroke-opacity: 0.9; stroke-width: 0.4"/>
   </g>
   <g id="line2d_63">
    <path d="M 0 112.447971 
L 368.64 225.286725 
" clip-path="url(#p388df4194c)" style="fill: none; stroke-dasharray: 0.4,0.66; stroke-dashoffset: 0; stroke: #ffffff; stroke-opacity: 0.9; stroke-width: 0.4"/>
   </g>
   <g id="line2d_64">
    <path d="M 0 164.470542 
L 368.64 217.128527 
" clip-path="url(#p388df4194c)" style="fill: none; stroke-dasharray: 0.4,0.66; stroke-dashoffset: 0; stroke: #ffffff; stroke-opacity: 0.9; stroke-width: 0.4"/>
   </g>
   <g id="line2d_65">
    <path d="M 233.812779 197.869278 
L 156.712804 160.416931 
" clip-path="url(#p388df4194c)" style="fill: none; stroke: #ffffff; stroke-opacity: 0.9; stroke-width: 0.4; stroke-linecap: square"/>
   </g>
   <g id="line2d_66">
    <path d="M 233.812779 197.869278 
L 162.828109 245.913642 
" clip-path="url(#p388df4194c)" style="fill: none; stroke: #ffffff; stroke-opacity: 0.9; stroke-width: 0.4; stroke-linecap: square"/>
   </g>
   <g id="line2d_67">
    <path d="M 0 84.291587 
L 368.64 263.363406 
" clip-path="url(#p388df4194c)" style="fill: none; stroke-dasharray: 0.4,0.66; stroke-dashoffset: 0; stroke: #ffffff; stroke-opacity: 0.9; stroke-width: 0.4"/>
   </g>
   <g id="line2d_68">
    <path d="M 145.238697 0 
L 171.60633 368.64 
" clip-path="url(#p388df4194c)" style="fill: none; stroke-dasharray: 0.4,0.66; stroke-dashoffset: 0; stroke: #ffffff; stroke-opacity: 0.9; stroke-width: 0.4"/>
   </g>
   <g id="line2d_69">
    <path d="M 145.238697 0 
L 171.60633 368.64 
" clip-path="url(#p388df4194c)" style="fill: none; stroke-dasharray: 0.4,0.66; stroke-dashoffset: 0; stroke: #ffffff; stroke-opacity: 0.9; stroke-width: 0.4"/>
   </g>
   <g id="line2d_70">
    <path d="M 0 356.120154 
L 368.64 106.614532 
" clip-path="url(#p388df4194c)" style="fill: none; stroke-dasharray: 0.4,0.66; stroke-dashoffset: 0; stroke: #ffffff; stroke-opacity: 0.9; stroke-width: 0.4"/>
   </g>
   <g id="line2d_71">
    <path d="M 219.659827 0 
L 246.02746 368.64 
" clip-path="url(#p388df4194c)" style="fill: none; stroke-dasharray: 0.4,0.66; stroke-dashoffset: 0; stroke: #ffffff; stroke-opacity: 0.9; stroke-width: 0.4"/>
   </g>
   <g id="line2d_72">
    <path d="M 0 356.120154 
L 368.64 106.614532 
" clip-path="url(#p388df4194c)" style="fill: none; stroke-dasharray: 0.4,0.66; stroke-dashoffset: 0; stroke: #ffffff; stroke-opacity: 0.9; stroke-width: 0.4"/>
   </g>
   <g id="line2d_73">
    <path d="M 0 356.120154 
L 368.64 106.614532 
" clip-path="url(#p388df4194c)" style="fill: none; stroke-dasharray: 0.4,0.66; stroke-dashoffset: 0; stroke: #ffffff; stroke-opacity: 0.9; stroke-width: 0.4"/>
   </g>
   <g id="line2d_74">
    <path d="M 0 166.817707 
L 368.64 345.889526 
" clip-path="url(#p388df4194c)" style="fill: none; stroke-dasharray: 0.4,0.66; stroke-dashoffset: 0; stroke: #ffffff; stroke-opacity: 0.9; stroke-width: 0.4"/>
   </g>
   <g id="line2d_75">
    <path d="M 233.812779 197.869278 
L 239.928084 283.365988 
" clip-path="url(#p388df4194c)" style="fill: none; stroke: #ffffff; stroke-opacity: 0.9; stroke-width: 0.4; stroke-linecap: square"/>
   </g>
   <g id="line2d_76">
    <path d="M 239.928084 283.365988 
L 162.828109 245.913642 
" clip-path="url(#p388df4194c)" style="fill: none; stroke: #ffffff; stroke-opacity: 0.9; stroke-width: 0.4; stroke-linecap: square"/>
   </g>
   <g id="line2d_77">
    <path d="M 217.52268 311.910523 
L 162.828109 245.913642 
" clip-path="url(#p388df4194c)" style="fill: none; stroke: #ffffff; stroke-opacity: 0.9; stroke-width: 0.4; stroke-linecap: square"/>
   </g>
   <g id="line2d_78">
    <path d="M 239.928084 283.365988 
L 162.828109 245.913642 
" clip-path="url(#p388df4194c)" style="fill: none; stroke: #ffffff; stroke-opacity: 0.9; stroke-width: 0.4; stroke-linecap: square"/>
   </g>
   <g id="line2d_79">
    <path d="M 233.812779 197.869278 
L 239.928084 283.365988 
" clip-path="url(#p388df4194c)" style="fill: none; stroke: #ffffff; stroke-opacity: 0.9; stroke-width: 0.4; stroke-linecap: square"/>
   </g>
   <g id="line2d_80">
    <path d="M 233.812779 197.869278 
L 162.828109 245.913642 
" clip-path="url(#p388df4194c)" style="fill: none; stroke: #ffffff; stroke-opacity: 0.9; stroke-width: 0.4; stroke-linecap: square"/>
   </g>
   <g id="line2d_81">
    <path d="M 219.659827 0 
L 246.02746 368.64 
" clip-path="url(#p388df4194c)" style="fill: none; stroke-dasharray: 0.4,0.66; stroke-dashoffset: 0; stroke: #ffffff; stroke-opacity: 0.9; stroke-width: 0.4"/>
   </g>
   <g id="line2d_82">
    <path d="M 0 166.817707 
L 368.64 345.889526 
" clip-path="url(#p388df4194c)" style="fill: none; stroke-dasharray: 0.4,0.66; stroke-dashoffset: 0; stroke: #ffffff; stroke-opacity: 0.9; stroke-width: 0.4"/>
   </g>
   <g id="line2d_83">
    <path d="M 0 166.817707 
L 368.64 345.889526 
" clip-path="url(#p388df4194c)" style="fill: none; stroke-dasharray: 0.4,0.66; stroke-dashoffset: 0; stroke: #ffffff; stroke-opacity: 0.9; stroke-width: 0.4"/>
   </g>
   <g id="line2d_84">
    <path d="M 0 356.120154 
L 368.64 106.614532 
" clip-path="url(#p388df4194c)" style="fill: none; stroke-dasharray: 0.4,0.66; stroke-dashoffset: 0; stroke: #ffffff; stroke-opacity: 0.9; stroke-width: 0.4"/>
   </g>
   <g id="line2d_85">
    <path d="M 108.133537 179.916761 
L 162.828109 245.913642 
" clip-path="url(#p388df4194c)" style="fill: none; stroke: #ffffff; stroke-opacity: 0.9; stroke-width: 0.4; stroke-linecap: square"/>
   </g>
   <g id="line2d_86">
    <path d="M 156.712804 160.416931 
L 162.828109 245.913642 
" clip-path="url(#p388df4194c)" style="fill: none; stroke: #ffffff; stroke-opacity: 0.9; stroke-width: 0.4; stroke-linecap: square"/>
   </g>
   <g id="line2d_87">
    <path d="M 0 223.321812 
L 368.64 75.348867 
" clip-path="url(#p388df4194c)" style="fill: none; stroke-dasharray: 0.4,0.66; stroke-dashoffset: 0; stroke: #ffffff; stroke-opacity: 0.9; stroke-width: 0.4"/>
   </g>
   <g id="line2d_88">
    <path d="M 0 49.438069 
L 264.536939 368.64 
" clip-path="url(#p388df4194c)" style="fill: none; stroke-dasharray: 0.4,0.66; stroke-dashoffset: 0; stroke: #ffffff; stroke-opacity: 0.9; stroke-width: 0.4"/>
   </g>
   <g id="line2d_89">
    <path d="M 145.238697 0 
L 171.60633 368.64 
" clip-path="url(#p388df4194c)" style="fill: none; stroke-dasharray: 0.4,0.66; stroke-dashoffset: 0; stroke: #ffffff; stroke-opacity: 0.9; stroke-width: 0.4"/>
   </g>
   <g id="line2d_90">
    <path d="M 0 223.321812 
L 368.64 75.348867 
" clip-path="url(#p388df4194c)" style="fill: none; stroke-dasharray: 0.4,0.66; stroke-dashoffset: 0; stroke: #ffffff; stroke-opacity: 0.9; stroke-width: 0.4"/>
   </g>
   <g id="line2d_91">
    <path d="M 156.712804 160.416931 
L 162.828109 245.913642 
" clip-path="url(#p388df4194c)" style="fill: none; stroke: #ffffff; stroke-opacity: 0.9; stroke-width: 0.4; stroke-linecap: square"/>
   </g>
   <g id="line2d_92">
    <path d="M 239.928084 283.365988 
L 162.828109 245.913642 
" clip-path="url(#p388df4194c)" style="fill: none; stroke: #ffffff; stroke-opacity: 0.9; stroke-width: 0.4; stroke-linecap: square"/>
   </g>
   <g id="line2d_93">
    <path d="M 48.138242 0 
L 297.643865 368.64 
" clip-path="url(#p388df4194c)" style="fill: none; stroke-dasharray: 0.4,0.66; stroke-dashoffset: 0; stroke: #ffffff; stroke-opacity: 0.9; stroke-width: 0.4"/>
   </g>
   <g id="line2d_94">
    <path d="M 145.238697 0 
L 171.60633 368.64 
" clip-path="url(#p388df4194c)" style="fill: none; stroke-dasharray: 0.4,0.66; stroke-dashoffset: 0; stroke: #ffffff; stroke-opacity: 0.9; stroke-width: 0.4"/>
   </g>
   <g id="line2d_95">
    <path d="M 0 166.817707 
L 368.64 345.889526 
" clip-path="url(#p388df4194c)" style="fill: none; stroke-dasharray: 0.4,0.66; stroke-dashoffset: 0; stroke: #ffffff; stroke-opacity: 0.9; stroke-width: 0.4"/>
   </g>
   <g id="line2d_96">
    <path d="M 48.138242 0 
L 297.643865 368.64 
" clip-path="url(#p388df4194c)" style="fill: none; stroke-dasharray: 0.4,0.66; stroke-dashoffset: 0; stroke: #ffffff; stroke-opacity: 0.9; stroke-width: 0.4"/>
   </g>
   <g id="line2d_97">
    <path d="M 0 223.321812 
L 368.64 75.348867 
" clip-path="url(#p388df4194c)" style="fill: none; stroke-dasharray: 0.4,0.66; stroke-dashoffset: 0; stroke: #ffffff; stroke-opacity: 0.9; stroke-width: 0.4"/>
   </g>
   <g id="line2d_98">
    <path d="M 0 112.447971 
L 368.64 225.286725 
" clip-path="url(#p388df4194c)" style="fill: none; stroke-dasharray: 0.4,0.66; stroke-dashoffset: 0; stroke: #ffffff; stroke-opacity: 0.9; stroke-width: 0.4"/>
   </g>
   <g id="line2d_99">
    <path d="M 0 112.447971 
L 368.64 225.286725 
" clip-path="url(#p388df4194c)" style="fill: none; stroke-dasharray: 0.4,0.66; stroke-dashoffset: 0; stroke: #ffffff; stroke-opacity: 0.9; stroke-width: 0.4"/>
   </g>
   <g id="line2d_100">
    <path d="M 48.138242 0 
L 297.643865 368.64 
" clip-path="url(#p388df4194c)" style="fill: none; stroke-dasharray: 0.4,0.66; stroke-dashoffset: 0; stroke: #ffffff; stroke-opacity: 0.9; stroke-width: 0.4"/>
   </g>
   <g id="patch_31">
    <path d="M 0 368.64 
L 0 0 
" style="fill: none; stroke: #000000; stroke-width: 0.8; stroke-linejoin: miter; stroke-linecap: square"/>
   </g>
   <g id="patch_32">
    <path d="M 368.64 368.64 
L 368.64 0 
" style="fill: none; stroke: #000000; stroke-width: 0.8; stroke-linejoin: miter; stroke-linecap: square"/>
   </g>
   <g id="patch_33">
    <path d="M -0 368.64 
L 368.64 368.64 
" style="fill: none; stroke: #000000; stroke-width: 0.8; stroke-linejoin: miter; stroke-linecap: square"/>
   </g>
   <g id="patch_34">
    <path d="M -0 0 
L 368.64 0 
" style="fill: none; stroke: #000000; stroke-width: 0.8; stroke-linejoin: miter; stroke-linecap: square"/>
   </g>
   <g id="text_11">
    <!-- B -->
    <g style="fill: #00ff00" transform="translate(217.52268 311.910523) scale(0.1 -0.1)">
     <defs>
      <path id="DejaVuSans-42" d="M 1259 2228 
L 1259 519 
L 2272 519 
Q 2781 519 3026 730 
Q 3272 941 3272 1375 
Q 3272 1813 3026 2020 
Q 2781 2228 2272 2228 
L 1259 2228 
z
M 1259 4147 
L 1259 2741 
L 2194 2741 
Q 2656 2741 2882 2914 
Q 3109 3088 3109 3444 
Q 3109 3797 2882 3972 
Q 2656 4147 2194 4147 
L 1259 4147 
z
M 628 4666 
L 2241 4666 
Q 2963 4666 3353 4366 
Q 3744 4066 3744 3513 
Q 3744 3084 3544 2831 
Q 3344 2578 2956 2516 
Q 3422 2416 3680 2098 
Q 3938 1781 3938 1306 
Q 3938 681 3513 340 
Q 3088 0 2303 0 
L 628 0 
L 628 4666 
z
" transform="scale(0.015625)"/>
     </defs>
     <use xlink:href="#DejaVuSans-42"/>
    </g>
   </g>
   <g id="text_12">
    <!-- C -->
    <g style="fill: #00ff00" transform="translate(108.133537 179.916761) scale(0.1 -0.1)">
     <defs>
      <path id="DejaVuSans-43" d="M 4122 4306 
L 4122 3641 
Q 3803 3938 3442 4084 
Q 3081 4231 2675 4231 
Q 1875 4231 1450 3742 
Q 1025 3253 1025 2328 
Q 1025 1406 1450 917 
Q 1875 428 2675 428 
Q 3081 428 3442 575 
Q 3803 722 4122 1019 
L 4122 359 
Q 3791 134 3420 21 
Q 3050 -91 2638 -91 
Q 1578 -91 968 557 
Q 359 1206 359 2328 
Q 359 3453 968 4101 
Q 1578 4750 2638 4750 
Q 3056 4750 3426 4639 
Q 3797 4528 4122 4306 
z
" transform="scale(0.015625)"/>
     </defs>
     <use xlink:href="#DejaVuSans-43"/>
    </g>
   </g>
   <g id="text_13">
    <!-- O -->
    <g style="fill: #00ff00" transform="translate(162.828109 245.913642) scale(0.1 -0.1)">
     <defs>
      <path id="DejaVuSans-4f" d="M 2522 4238 
Q 1834 4238 1429 3725 
Q 1025 3213 1025 2328 
Q 1025 1447 1429 934 
Q 1834 422 2522 422 
Q 3209 422 3611 934 
Q 4013 1447 4013 2328 
Q 4013 3213 3611 3725 
Q 3209 4238 2522 4238 
z
M 2522 4750 
Q 3503 4750 4090 4092 
Q 4678 3434 4678 2328 
Q 4678 1225 4090 567 
Q 3503 -91 2522 -91 
Q 1538 -91 948 565 
Q 359 1222 359 2328 
Q 359 3434 948 4092 
Q 1538 4750 2522 4750 
z
" transform="scale(0.015625)"/>
     </defs>
     <use xlink:href="#DejaVuSans-4f"/>
    </g>
   </g>
   <g id="text_14">
    <!-- A -->
    <g style="fill: #00ff00" transform="translate(233.812779 197.869278) scale(0.1 -0.1)">
     <defs>
      <path id="DejaVuSans-41" d="M 2188 4044 
L 1331 1722 
L 3047 1722 
L 2188 4044 
z
M 1831 4666 
L 2547 4666 
L 4325 0 
L 3669 0 
L 3244 1197 
L 1141 1197 
L 716 0 
L 50 0 
L 1831 4666 
z
" transform="scale(0.015625)"/>
     </defs>
     <use xlink:href="#DejaVuSans-41"/>
    </g>
   </g>
   <g id="text_15">
    <!-- D -->
    <g style="fill: #00ff00" transform="translate(77.974297 233.79279) scale(0.1 -0.1)">
     <defs>
      <path id="DejaVuSans-44" d="M 1259 4147 
L 1259 519 
L 2022 519 
Q 2988 519 3436 956 
Q 3884 1394 3884 2338 
Q 3884 3275 3436 3711 
Q 2988 4147 2022 4147 
L 1259 4147 
z
M 628 4666 
L 1925 4666 
Q 3281 4666 3915 4102 
Q 4550 3538 4550 2338 
Q 4550 1131 3912 565 
Q 3275 0 1925 0 
L 628 0 
L 628 4666 
z
" transform="scale(0.015625)"/>
     </defs>
     <use xlink:href="#DejaVuSans-44"/>
    </g>
   </g>
   <g id="text_16">
    <!-- E -->
    <g style="fill: #00ff00" transform="translate(156.712804 160.416931) scale(0.1 -0.1)">
     <defs>
      <path id="DejaVuSans-45" d="M 628 4666 
L 3578 4666 
L 3578 4134 
L 1259 4134 
L 1259 2753 
L 3481 2753 
L 3481 2222 
L 1259 2222 
L 1259 531 
L 3634 531 
L 3634 0 
L 628 0 
L 628 4666 
z
" transform="scale(0.015625)"/>
     </defs>
     <use xlink:href="#DejaVuSans-45"/>
    </g>
   </g>
   <g id="text_17">
    <!-- F -->
    <g style="fill: #00ff00" transform="translate(239.928084 283.365988) scale(0.1 -0.1)">
     <defs>
      <path id="DejaVuSans-46" d="M 628 4666 
L 3309 4666 
L 3309 4134 
L 1259 4134 
L 1259 2759 
L 3109 2759 
L 3109 2228 
L 1259 2228 
L 1259 0 
L 628 0 
L 628 4666 
z
" transform="scale(0.015625)"/>
     </defs>
     <use xlink:href="#DejaVuSans-46"/>
    </g>
   </g>
   <g id="text_18">
    <!-- J -->
    <g style="fill: #00ff00" transform="translate(318.666591 209.990129) scale(0.1 -0.1)">
     <defs>
      <path id="DejaVuSans-4a" d="M 628 4666 
L 1259 4666 
L 1259 325 
Q 1259 -519 939 -900 
Q 619 -1281 -91 -1281 
L -331 -1281 
L -331 -750 
L -134 -750 
Q 284 -750 456 -515 
Q 628 -281 628 325 
L 628 4666 
z
" transform="scale(0.015625)"/>
     </defs>
     <use xlink:href="#DejaVuSans-4a"/>
    </g>
   </g>
  </g>
 </g>
 <defs>
  <clipPath id="p388df4194c">
   <rect x="0" y="0" width="368.64" height="368.64"/>
  </clipPath>
 </defs>
</svg>
