<?xml version="1.0" encoding="utf-8" standalone="no"?>
<!DOCTYPE svg PUBLIC "-//W3C//DTD SVG 1.1//EN"
  "http://www.w3.org/Graphics/SVG/1.1/DTD/svg11.dtd">
<svg xmlns:xlink="http://www.w3.org/1999/xlink" width="368.64pt" height="368.64pt" viewBox="0 0 368.64 368.64" xmlns="http://www.w3.org/2000/svg" version="1.1">
 <metadata>
  <rdf:RDF xmlns:dc="http://purl.org/dc/elements/1.1/" xmlns:cc="http://creativecommons.org/ns#" xmlns:rdf="http://www.w3.org/1999/02/22-rdf-syntax-ns#">
   <cc:Work>
    <dc:type rdf:resource="http://purl.org/dc/dcmitype/StillImage"/>
    <dc:date>2024-08-27T08:53:20.183628</dc:date>
    <dc:format>image/svg+xml</dc:format>
    <dc:creator>
     <cc:Agent>
      <dc:title>Matplotlib v3.9.2, https://matplotlib.org/</dc:title>
     </cc:Agent>
    </dc:creator>
   </cc:Work>
  </rdf:RDF>
 </metadata>
 <defs>
  <style type="text/css">*{stroke-linejoin: round; stroke-linecap: butt}</style>
 </defs>
 <g id="figure_1">
  <g id="patch_1">
   <path d="M 0 368.64 
L 368.64 368.64 
L 368.64 0 
L 0 0 
z
" style="fill: #ffffff"/>
  </g>
  <g id="axes_1">
   <g id="patch_2">
    <path d="M 0 368.64 
L 368.64 368.64 
L 368.64 0 
L 0 0 
z
"/>
   </g>
   <g id="patch_3">
    <path d="M 299.056264 117.034831 
L 184.843467 60.980941 
L 226.98661 345.485016 
z
" clip-path="url(#p708ae904ff)" style="fill: #1f77b4"/>
   </g>
   <g id="patch_4">
    <path d="M 246.489897 91.236064 
C 244.541524 95.205979 243.04913 99.383865 242.041283 103.689749 
C 241.033436 107.995632 240.516608 112.401862 240.500693 116.824094 
L 246.35625 116.845167 
C 246.370574 112.865159 246.835719 108.899552 247.742781 105.024257 
C 248.649843 101.148962 249.992998 97.388864 251.746534 93.81594 
z
" clip-path="url(#p708ae904ff)" style="fill: #3cb44b; opacity: 0.5; stroke: #3cb44b; stroke-linejoin: miter"/>
   </g>
   <g id="patch_5">
    <path d="M 244.603525 289.64199 
C 240.38615 288.311526 236.031598 287.46309 231.623223 287.112924 
C 227.214847 286.762758 222.780959 286.91311 218.406431 287.561102 
L 219.264449 293.353493 
C 223.201524 292.7703 227.192024 292.634984 231.159561 292.950133 
C 235.127099 293.265283 239.046196 294.028875 242.841834 295.226292 
z
" clip-path="url(#p708ae904ff)" style="fill: #3cb44b; opacity: 0.5; stroke: #3cb44b; stroke-linejoin: miter"/>
   </g>
   <g id="patch_6">
    <path d="M 182.294985 43.776403 
C 179.507332 44.189334 176.861359 45.27367 174.585615 46.935751 
C 172.309871 48.597832 170.47182 50.788386 169.230226 53.318202 
L 170.79155 54.084476 
C 171.908985 51.807641 173.563231 49.836143 175.6114 48.34027 
C 177.65957 46.844397 180.040945 45.868495 182.549834 45.496857 
z
" clip-path="url(#p708ae904ff)" style="fill: #ffe119; opacity: 0.5; stroke: #ffe119; stroke-linejoin: miter"/>
   </g>
   <g id="patch_7">
    <path d="M 315.68342 111.933011 
C 314.856771 109.23891 313.387587 106.785657 311.40277 104.78515 
C 309.417952 102.784644 306.976342 101.296191 304.288833 100.448357 
L 303.765576 102.107005 
C 306.184334 102.870055 308.381784 104.209663 310.168119 106.010118 
C 311.954455 107.810574 313.27672 110.018502 314.020704 112.443193 
z
" clip-path="url(#p708ae904ff)" style="fill: #ffe119; opacity: 0.5; stroke: #ffe119; stroke-linejoin: miter"/>
   </g>
   <g id="patch_8">
    <path d="M 189.276003 90.904546 
C 183.118233 91.816687 177.48738 94.90816 173.412452 99.614018 
C 169.337523 104.319875 167.082842 110.334867 167.060439 116.559788 
L 169.663411 116.569156 
C 169.683573 110.966727 171.712786 105.553235 175.380222 101.317963 
C 179.047658 97.082691 184.115425 94.300365 189.657418 93.479438 
z
" clip-path="url(#p708ae904ff)" style="fill: #4363d8; opacity: 0.5; stroke: #4363d8; stroke-linejoin: miter"/>
   </g>
   <g id="patch_9">
    <path d="M 222.635877 140.483402 
C 220.809856 134.532285 216.908274 129.429212 211.644121 126.106737 
C 206.379968 122.784263 200.094709 121.457905 193.936939 122.370046 
L 194.318353 124.944938 
C 199.860347 124.124011 205.51708 125.317734 210.254818 128.30796 
C 214.992555 131.298187 218.503979 135.890954 220.147398 141.246959 
z
" clip-path="url(#p708ae904ff)" style="fill: #4363d8; opacity: 0.5; stroke: #4363d8; stroke-linejoin: miter"/>
   </g>
   <g id="patch_10">
    <path d="M 182.9267 48.041044 
C 180.830047 48.351618 178.839955 49.16717 177.128319 50.417256 
C 175.416684 51.667343 174.034247 53.314904 173.100417 55.217632 
L 174.274722 55.793963 
C 175.115169 54.081508 176.359362 52.598703 177.899834 51.473625 
C 179.440306 50.348547 181.231389 49.61455 183.118377 49.335033 
z
" clip-path="url(#p708ae904ff)" style="fill: #f58231; opacity: 0.5; stroke: #f58231; stroke-linejoin: miter"/>
   </g>
   <g id="patch_11">
    <path d="M 311.5619 113.197644 
C 310.94016 111.171354 309.835156 109.32621 308.342333 107.821587 
C 306.849509 106.316964 305.013122 105.197467 302.99179 104.559793 
L 302.598237 105.807297 
C 304.417436 106.381203 306.070185 107.38875 307.413726 108.742911 
C 308.757267 110.097072 309.75177 111.757702 310.311336 113.581363 
z
" clip-path="url(#p708ae904ff)" style="fill: #f58231; opacity: 0.5; stroke: #f58231; stroke-linejoin: miter"/>
   </g>
   <g id="patch_12">
    <path d="M 178.292549 16.756364 
C 154.402482 20.295162 132.55668 32.289034 116.747335 50.54617 
C 100.937991 68.803305 92.190592 92.139437 92.103676 116.290024 
L 102.202323 116.326368 
C 102.280548 94.59084 110.153207 73.588321 124.381617 57.156899 
C 138.610027 40.725477 158.271249 29.930992 179.772309 26.746074 
z
" clip-path="url(#p708ae904ff)" style="fill: #911eb4; opacity: 0.5; stroke: #911eb4; stroke-linejoin: miter"/>
   </g>
   <g id="patch_13">
    <path d="M 294.295656 118.495559 
C 287.211314 95.40724 272.074495 75.60904 251.651362 62.718964 
C 231.22823 49.828889 206.843552 44.683065 182.953485 48.221864 
L 184.433245 58.211574 
C 205.934305 55.026656 227.880515 59.657896 246.261335 71.258964 
C 264.642154 82.860032 278.265292 100.678413 284.641199 121.4579 
z
" clip-path="url(#p708ae904ff)" style="fill: #911eb4; opacity: 0.5; stroke: #911eb4; stroke-linejoin: miter"/>
   </g>
   <g id="patch_14">
    <path d="M 102.454598 116.327276 
C 102.459372 115.000599 102.291915 113.678897 101.956426 112.395331 
C 101.620938 111.111765 101.120249 109.877161 100.46692 108.722494 
L 99.132632 109.477455 
C 99.720628 110.516655 100.171248 111.627799 100.473187 112.783008 
C 100.775127 113.938218 100.925839 115.12775 100.921542 116.321759 
z
" clip-path="url(#p708ae904ff)" style="fill: #46f0f0; opacity: 0.5; stroke: #46f0f0; stroke-linejoin: miter"/>
   </g>
   <g id="patch_15">
    <path d="M 224.740215 330.319832 
C 223.427849 330.51423 222.146252 330.878163 220.927579 331.4025 
C 219.708905 331.926837 218.563434 332.607155 217.519903 333.426385 
L 218.466574 334.632248 
C 219.405751 333.894941 220.436676 333.282655 221.533482 332.810752 
C 222.630288 332.338849 223.783726 332.011309 224.964854 331.83635 
z
" clip-path="url(#p708ae904ff)" style="fill: #46f0f0; opacity: 0.5; stroke: #46f0f0; stroke-linejoin: miter"/>
   </g>
   <g id="patch_16">
    <path d="M 224.165151 80.279421 
C 227.304042 73.883764 228.835671 66.817827 228.626756 59.696491 
C 228.417841 52.575155 226.474622 45.611159 222.966199 39.41051 
L 219.153926 41.567553 
C 222.311506 47.148137 224.060403 53.415734 224.248427 59.824936 
C 224.436451 66.234138 223.057984 72.593481 220.232983 78.349573 
z
" clip-path="url(#p708ae904ff)" style="fill: #f032e6; opacity: 0.5; stroke: #f032e6; stroke-linejoin: miter"/>
   </g>
   <g id="patch_17">
    <path d="M 240.164747 303.712263 
C 233.370424 301.568844 226.154647 301.115081 219.145333 302.390462 
C 212.13602 303.665843 205.542563 306.632267 199.938727 311.031595 
L 202.643515 314.476937 
C 207.686968 310.517542 213.621079 307.84776 219.929461 306.699917 
C 226.237843 305.552075 232.732043 305.960461 238.846933 307.889538 
z
" clip-path="url(#p708ae904ff)" style="fill: #f032e6; opacity: 0.5; stroke: #f032e6; stroke-linejoin: miter"/>
   </g>
   <g id="patch_18">
    <path d="M 184.32 351.883636 
C 222.894273 351.883636 259.893837 336.557915 287.169967 309.281785 
C 314.446097 282.005655 329.771819 245.006091 329.771819 206.431818 
C 329.771819 167.857544 314.446097 130.857981 287.169967 103.58185 
C 259.893837 76.30572 222.894273 60.979999 184.32 60.979999 
C 145.745727 60.979999 108.746163 76.30572 81.470033 103.58185 
C 54.193903 130.857981 38.868181 167.857544 38.868181 206.431818 
C 38.868181 245.006091 54.193903 282.005655 81.470033 309.281785 
C 108.746163 336.557915 145.745727 351.883636 184.32 351.883636 
L 184.32 351.883636 
z
" clip-path="url(#p708ae904ff)" style="fill: none; stroke: #00ffff; stroke-width: 0.8; stroke-linejoin: miter"/>
   </g>
   <g id="PathCollection_1">
    <defs>
     <path id="m9a2e988f5b" d="M 0 1.118034 
C 0.296506 1.118034 0.580908 1.000231 0.790569 0.790569 
C 1.000231 0.580908 1.118034 0.296506 1.118034 0 
C 1.118034 -0.296506 1.000231 -0.580908 0.790569 -0.790569 
C 0.580908 -1.000231 0.296506 -1.118034 0 -1.118034 
C -0.296506 -1.118034 -0.580908 -1.000231 -0.790569 -0.790569 
C -1.000231 -0.580908 -1.118034 -0.296506 -1.118034 0 
C -1.118034 0.296506 -1.000231 0.580908 -0.790569 0.790569 
C -0.580908 1.000231 -0.296506 1.118034 0 1.118034 
z
" style="stroke: #ffffff"/>
    </defs>
    <g clip-path="url(#p708ae904ff)">
     <use xlink:href="#m9a2e988f5b" x="299.056264" y="117.034831" style="fill: #ffffff; stroke: #ffffff"/>
    </g>
   </g>
   <g id="PathCollection_2">
    <g clip-path="url(#p708ae904ff)">
     <use xlink:href="#m9a2e988f5b" x="184.843467" y="60.980941" style="fill: #ffffff; stroke: #ffffff"/>
    </g>
   </g>
   <g id="PathCollection_3">
    <g clip-path="url(#p708ae904ff)">
     <use xlink:href="#m9a2e988f5b" x="226.98661" y="345.485016" style="fill: #ffffff; stroke: #ffffff"/>
    </g>
   </g>
   <g id="PathCollection_4">
    <g clip-path="url(#p708ae904ff)">
     <use xlink:href="#m9a2e988f5b" x="193.090151" y="116.653467" style="fill: #ffffff; stroke: #ffffff"/>
    </g>
   </g>
   <g id="PathCollection_5">
    <g clip-path="url(#p708ae904ff)">
     <use xlink:href="#m9a2e988f5b" x="197.751086" y="148.118967" style="fill: #ffffff; stroke: #ffffff"/>
    </g>
   </g>
   <g id="PathCollection_6">
    <g clip-path="url(#p708ae904ff)">
     <use xlink:href="#m9a2e988f5b" x="87.124038" y="116.272103" style="fill: #ffffff; stroke: #ffffff"/>
    </g>
   </g>
   <g id="PathCollection_7">
    <g clip-path="url(#p708ae904ff)">
     <use xlink:href="#m9a2e988f5b" x="96.445908" y="179.203103" style="fill: #ffffff; stroke: #ffffff"/>
    </g>
   </g>
   <g id="PathCollection_8">
    <g clip-path="url(#p708ae904ff)">
     <use xlink:href="#m9a2e988f5b" x="59.369847" y="131.975852" style="fill: #ffffff; stroke: #ffffff"/>
    </g>
   </g>
   <g id="PathCollection_9">
    <g clip-path="url(#p708ae904ff)">
     <use xlink:href="#m9a2e988f5b" x="184.32" y="206.431818" style="fill: #ffffff; stroke: #ffffff"/>
    </g>
   </g>
   <g id="matplotlib.axis_1">
    <g id="xtick_1">
     <g id="line2d_1">
      <defs>
       <path id="md0b6566b09" d="M 0 0 
L 0 3.5 
" style="stroke: #000000; stroke-width: 0.8"/>
      </defs>
      <g>
       <use xlink:href="#md0b6566b09" x="43.327818" y="368.64" style="stroke: #000000; stroke-width: 0.8"/>
      </g>
     </g>
     <g id="text_1">
      <!-- −2.0 -->
      <g transform="translate(31.186412 383.238437) scale(0.1 -0.1)">
       <defs>
        <path id="DejaVuSans-2212" d="M 678 2272 
L 4684 2272 
L 4684 1741 
L 678 1741 
L 678 2272 
z
" transform="scale(0.015625)"/>
        <path id="DejaVuSans-32" d="M 1228 531 
L 3431 531 
L 3431 0 
L 469 0 
L 469 531 
Q 828 903 1448 1529 
Q 2069 2156 2228 2338 
Q 2531 2678 2651 2914 
Q 2772 3150 2772 3378 
Q 2772 3750 2511 3984 
Q 2250 4219 1831 4219 
Q 1534 4219 1204 4116 
Q 875 4013 500 3803 
L 500 4441 
Q 881 4594 1212 4672 
Q 1544 4750 1819 4750 
Q 2544 4750 2975 4387 
Q 3406 4025 3406 3419 
Q 3406 3131 3298 2873 
Q 3191 2616 2906 2266 
Q 2828 2175 2409 1742 
Q 1991 1309 1228 531 
z
" transform="scale(0.015625)"/>
        <path id="DejaVuSans-2e" d="M 684 794 
L 1344 794 
L 1344 0 
L 684 0 
L 684 794 
z
" transform="scale(0.015625)"/>
        <path id="DejaVuSans-30" d="M 2034 4250 
Q 1547 4250 1301 3770 
Q 1056 3291 1056 2328 
Q 1056 1369 1301 889 
Q 1547 409 2034 409 
Q 2525 409 2770 889 
Q 3016 1369 3016 2328 
Q 3016 3291 2770 3770 
Q 2525 4250 2034 4250 
z
M 2034 4750 
Q 2819 4750 3233 4129 
Q 3647 3509 3647 2328 
Q 3647 1150 3233 529 
Q 2819 -91 2034 -91 
Q 1250 -91 836 529 
Q 422 1150 422 2328 
Q 422 3509 836 4129 
Q 1250 4750 2034 4750 
z
" transform="scale(0.015625)"/>
       </defs>
       <use xlink:href="#DejaVuSans-2212"/>
       <use xlink:href="#DejaVuSans-32" x="83.789062"/>
       <use xlink:href="#DejaVuSans-2e" x="147.412109"/>
       <use xlink:href="#DejaVuSans-30" x="179.199219"/>
      </g>
     </g>
    </g>
    <g id="xtick_2">
     <g id="line2d_2">
      <g>
       <use xlink:href="#md0b6566b09" x="97.447706" y="368.64" style="stroke: #000000; stroke-width: 0.8"/>
      </g>
     </g>
     <g id="text_2">
      <!-- −1.5 -->
      <g transform="translate(85.3063 383.238437) scale(0.1 -0.1)">
       <defs>
        <path id="DejaVuSans-31" d="M 794 531 
L 1825 531 
L 1825 4091 
L 703 3866 
L 703 4441 
L 1819 4666 
L 2450 4666 
L 2450 531 
L 3481 531 
L 3481 0 
L 794 0 
L 794 531 
z
" transform="scale(0.015625)"/>
        <path id="DejaVuSans-35" d="M 691 4666 
L 3169 4666 
L 3169 4134 
L 1269 4134 
L 1269 2991 
Q 1406 3038 1543 3061 
Q 1681 3084 1819 3084 
Q 2600 3084 3056 2656 
Q 3513 2228 3513 1497 
Q 3513 744 3044 326 
Q 2575 -91 1722 -91 
Q 1428 -91 1123 -41 
Q 819 9 494 109 
L 494 744 
Q 775 591 1075 516 
Q 1375 441 1709 441 
Q 2250 441 2565 725 
Q 2881 1009 2881 1497 
Q 2881 1984 2565 2268 
Q 2250 2553 1709 2553 
Q 1456 2553 1204 2497 
Q 953 2441 691 2322 
L 691 4666 
z
" transform="scale(0.015625)"/>
       </defs>
       <use xlink:href="#DejaVuSans-2212"/>
       <use xlink:href="#DejaVuSans-31" x="83.789062"/>
       <use xlink:href="#DejaVuSans-2e" x="147.412109"/>
       <use xlink:href="#DejaVuSans-35" x="179.199219"/>
      </g>
     </g>
    </g>
    <g id="xtick_3">
     <g id="line2d_3">
      <g>
       <use xlink:href="#md0b6566b09" x="151.567594" y="368.64" style="stroke: #000000; stroke-width: 0.8"/>
      </g>
     </g>
     <g id="text_3">
      <!-- −1.0 -->
      <g transform="translate(139.426187 383.238437) scale(0.1 -0.1)">
       <use xlink:href="#DejaVuSans-2212"/>
       <use xlink:href="#DejaVuSans-31" x="83.789062"/>
       <use xlink:href="#DejaVuSans-2e" x="147.412109"/>
       <use xlink:href="#DejaVuSans-30" x="179.199219"/>
      </g>
     </g>
    </g>
    <g id="xtick_4">
     <g id="line2d_4">
      <g>
       <use xlink:href="#md0b6566b09" x="205.687481" y="368.64" style="stroke: #000000; stroke-width: 0.8"/>
      </g>
     </g>
     <g id="text_4">
      <!-- −0.5 -->
      <g transform="translate(193.546075 383.238437) scale(0.1 -0.1)">
       <use xlink:href="#DejaVuSans-2212"/>
       <use xlink:href="#DejaVuSans-30" x="83.789062"/>
       <use xlink:href="#DejaVuSans-2e" x="147.412109"/>
       <use xlink:href="#DejaVuSans-35" x="179.199219"/>
      </g>
     </g>
    </g>
    <g id="xtick_5">
     <g id="line2d_5">
      <g>
       <use xlink:href="#md0b6566b09" x="259.807369" y="368.64" style="stroke: #000000; stroke-width: 0.8"/>
      </g>
     </g>
     <g id="text_5">
      <!-- 0.0 -->
      <g transform="translate(251.855806 383.238437) scale(0.1 -0.1)">
       <use xlink:href="#DejaVuSans-30"/>
       <use xlink:href="#DejaVuSans-2e" x="63.623047"/>
       <use xlink:href="#DejaVuSans-30" x="95.410156"/>
      </g>
     </g>
    </g>
    <g id="xtick_6">
     <g id="line2d_6">
      <g>
       <use xlink:href="#md0b6566b09" x="313.927257" y="368.64" style="stroke: #000000; stroke-width: 0.8"/>
      </g>
     </g>
     <g id="text_6">
      <!-- 0.5 -->
      <g transform="translate(305.975694 383.238437) scale(0.1 -0.1)">
       <use xlink:href="#DejaVuSans-30"/>
       <use xlink:href="#DejaVuSans-2e" x="63.623047"/>
       <use xlink:href="#DejaVuSans-35" x="95.410156"/>
      </g>
     </g>
    </g>
    <g id="xtick_7">
     <g id="line2d_7">
      <g>
       <use xlink:href="#md0b6566b09" x="368.047144" y="368.64" style="stroke: #000000; stroke-width: 0.8"/>
      </g>
     </g>
     <g id="text_7">
      <!-- 1.0 -->
      <g transform="translate(360.095582 383.238437) scale(0.1 -0.1)">
       <use xlink:href="#DejaVuSans-31"/>
       <use xlink:href="#DejaVuSans-2e" x="63.623047"/>
       <use xlink:href="#DejaVuSans-30" x="95.410156"/>
      </g>
     </g>
    </g>
   </g>
   <g id="matplotlib.axis_2">
    <g id="ytick_1">
     <g id="line2d_8">
      <defs>
       <path id="md5975bc0df" d="M 0 0 
L -3.5 0 
" style="stroke: #000000; stroke-width: 0.8"/>
      </defs>
      <g>
       <use xlink:href="#md5975bc0df" x="0" y="356.852838" style="stroke: #000000; stroke-width: 0.8"/>
      </g>
     </g>
     <g id="text_8">
      <!-- −2.5 -->
      <g transform="translate(-31.282813 360.652057) scale(0.1 -0.1)">
       <use xlink:href="#DejaVuSans-2212"/>
       <use xlink:href="#DejaVuSans-32" x="83.789062"/>
       <use xlink:href="#DejaVuSans-2e" x="147.412109"/>
       <use xlink:href="#DejaVuSans-35" x="179.199219"/>
      </g>
     </g>
    </g>
    <g id="ytick_2">
     <g id="line2d_9">
      <g>
       <use xlink:href="#md5975bc0df" x="0" y="302.73295" style="stroke: #000000; stroke-width: 0.8"/>
      </g>
     </g>
     <g id="text_9">
      <!-- −2.0 -->
      <g transform="translate(-31.282813 306.532169) scale(0.1 -0.1)">
       <use xlink:href="#DejaVuSans-2212"/>
       <use xlink:href="#DejaVuSans-32" x="83.789062"/>
       <use xlink:href="#DejaVuSans-2e" x="147.412109"/>
       <use xlink:href="#DejaVuSans-30" x="179.199219"/>
      </g>
     </g>
    </g>
    <g id="ytick_3">
     <g id="line2d_10">
      <g>
       <use xlink:href="#md5975bc0df" x="0" y="248.613063" style="stroke: #000000; stroke-width: 0.8"/>
      </g>
     </g>
     <g id="text_10">
      <!-- −1.5 -->
      <g transform="translate(-31.282813 252.412281) scale(0.1 -0.1)">
       <use xlink:href="#DejaVuSans-2212"/>
       <use xlink:href="#DejaVuSans-31" x="83.789062"/>
       <use xlink:href="#DejaVuSans-2e" x="147.412109"/>
       <use xlink:href="#DejaVuSans-35" x="179.199219"/>
      </g>
     </g>
    </g>
    <g id="ytick_4">
     <g id="line2d_11">
      <g>
       <use xlink:href="#md5975bc0df" x="0" y="194.493175" style="stroke: #000000; stroke-width: 0.8"/>
      </g>
     </g>
     <g id="text_11">
      <!-- −1.0 -->
      <g transform="translate(-31.282813 198.292394) scale(0.1 -0.1)">
       <use xlink:href="#DejaVuSans-2212"/>
       <use xlink:href="#DejaVuSans-31" x="83.789062"/>
       <use xlink:href="#DejaVuSans-2e" x="147.412109"/>
       <use xlink:href="#DejaVuSans-30" x="179.199219"/>
      </g>
     </g>
    </g>
    <g id="ytick_5">
     <g id="line2d_12">
      <g>
       <use xlink:href="#md5975bc0df" x="0" y="140.373287" style="stroke: #000000; stroke-width: 0.8"/>
      </g>
     </g>
     <g id="text_12">
      <!-- −0.5 -->
      <g transform="translate(-31.282813 144.172506) scale(0.1 -0.1)">
       <use xlink:href="#DejaVuSans-2212"/>
       <use xlink:href="#DejaVuSans-30" x="83.789062"/>
       <use xlink:href="#DejaVuSans-2e" x="147.412109"/>
       <use xlink:href="#DejaVuSans-35" x="179.199219"/>
      </g>
     </g>
    </g>
    <g id="ytick_6">
     <g id="line2d_13">
      <g>
       <use xlink:href="#md5975bc0df" x="0" y="86.253399" style="stroke: #000000; stroke-width: 0.8"/>
      </g>
     </g>
     <g id="text_13">
      <!-- 0.0 -->
      <g transform="translate(-22.903125 90.052618) scale(0.1 -0.1)">
       <use xlink:href="#DejaVuSans-30"/>
       <use xlink:href="#DejaVuSans-2e" x="63.623047"/>
       <use xlink:href="#DejaVuSans-30" x="95.410156"/>
      </g>
     </g>
    </g>
    <g id="ytick_7">
     <g id="line2d_14">
      <g>
       <use xlink:href="#md5975bc0df" x="0" y="32.133512" style="stroke: #000000; stroke-width: 0.8"/>
      </g>
     </g>
     <g id="text_14">
      <!-- 0.5 -->
      <g transform="translate(-22.903125 35.93273) scale(0.1 -0.1)">
       <use xlink:href="#DejaVuSans-30"/>
       <use xlink:href="#DejaVuSans-2e" x="63.623047"/>
       <use xlink:href="#DejaVuSans-35" x="95.410156"/>
      </g>
     </g>
    </g>
   </g>
   <g id="line2d_15">
    <path d="M 299.056264 117.034831 
L 184.32 206.431818 
" clip-path="url(#p708ae904ff)" style="fill: none; stroke: #ffffff; stroke-opacity: 0.9; stroke-width: 0.4; stroke-linecap: square"/>
   </g>
   <g id="line2d_16">
    <path d="M 184.843467 60.980941 
L 184.32 206.431818 
" clip-path="url(#p708ae904ff)" style="fill: none; stroke: #ffffff; stroke-opacity: 0.9; stroke-width: 0.4; stroke-linecap: square"/>
   </g>
   <g id="line2d_17">
    <path d="M 184.843467 60.980941 
L 184.32 206.431818 
" clip-path="url(#p708ae904ff)" style="fill: none; stroke: #ffffff; stroke-opacity: 0.9; stroke-width: 0.4; stroke-linecap: square"/>
   </g>
   <g id="line2d_18">
    <path d="M 226.98661 345.485016 
L 184.32 206.431818 
" clip-path="url(#p708ae904ff)" style="fill: none; stroke: #ffffff; stroke-opacity: 0.9; stroke-width: 0.4; stroke-linecap: square"/>
   </g>
   <g id="line2d_19">
    <path d="M 299.056264 117.034831 
L 184.32 206.431818 
" clip-path="url(#p708ae904ff)" style="fill: none; stroke: #ffffff; stroke-opacity: 0.9; stroke-width: 0.4; stroke-linecap: square"/>
   </g>
   <g id="line2d_20">
    <path d="M 226.98661 345.485016 
L 184.32 206.431818 
" clip-path="url(#p708ae904ff)" style="fill: none; stroke: #ffffff; stroke-opacity: 0.9; stroke-width: 0.4; stroke-linecap: square"/>
   </g>
   <g id="line2d_21">
    <path d="M 0 115.95855 
L 368.64 117.285257 
" clip-path="url(#p708ae904ff)" style="fill: none; stroke-dasharray: 1.48,0.64; stroke-dashoffset: 0; stroke: #ffffff; stroke-width: 0.4"/>
   </g>
   <g id="line2d_22">
    <path d="M 175.810455 -0 
L 230.416522 368.64 
" clip-path="url(#p708ae904ff)" style="fill: none; stroke-dasharray: 1.48,0.64; stroke-dashoffset: 0; stroke: #ffffff; stroke-width: 0.4"/>
   </g>
   <g id="line2d_23">
    <path d="M 175.810455 -0 
L 230.416522 368.64 
" clip-path="url(#p708ae904ff)" style="fill: none; stroke-dasharray: 1.48,0.64; stroke-dashoffset: 0; stroke: #ffffff; stroke-width: 0.4"/>
   </g>
   <g id="line2d_24">
    <path d="M 0 165.568228 
L 292.618789 -0 
" clip-path="url(#p708ae904ff)" style="fill: none; stroke-dasharray: 1.48,0.64; stroke-dashoffset: 0; stroke: #ffffff; stroke-width: 0.4"/>
   </g>
   <g id="line2d_25">
    <path d="M 0 56.35092 
L 245.164581 368.64 
" clip-path="url(#p708ae904ff)" style="fill: none; stroke-dasharray: 1.48,0.64; stroke-dashoffset: 0; stroke: #ffffff; stroke-width: 0.4"/>
   </g>
   <g id="line2d_26">
    <path d="M 60.591539 -0 
L 368.64 151.185461 
" clip-path="url(#p708ae904ff)" style="fill: none; stroke-dasharray: 0.4,0.66; stroke-dashoffset: 0; stroke: #ffffff; stroke-opacity: 0.9; stroke-width: 0.4"/>
   </g>
   <g id="line2d_27">
    <path d="M 0 115.95855 
L 368.64 117.285257 
" clip-path="url(#p708ae904ff)" style="fill: none; stroke-dasharray: 0.4,0.66; stroke-dashoffset: 0; stroke: #ffffff; stroke-opacity: 0.9; stroke-width: 0.4"/>
   </g>
   <g id="line2d_28">
    <path d="M 219.681859 368.64 
L 335.977485 0 
" clip-path="url(#p708ae904ff)" style="fill: none; stroke-dasharray: 0.4,0.66; stroke-dashoffset: 0; stroke: #ffffff; stroke-opacity: 0.9; stroke-width: 0.4"/>
   </g>
   <g id="line2d_29">
    <path d="M 175.810455 -0 
L 230.416522 368.64 
" clip-path="url(#p708ae904ff)" style="fill: none; stroke-dasharray: 0.4,0.66; stroke-dashoffset: 0; stroke: #ffffff; stroke-opacity: 0.9; stroke-width: 0.4"/>
   </g>
   <g id="line2d_30">
    <path d="M 0 208.796237 
L 368.64 95.683994 
" clip-path="url(#p708ae904ff)" style="fill: none; stroke-dasharray: 1.48,0.64; stroke-dashoffset: 0; stroke: #ffffff; stroke-width: 0.4"/>
   </g>
   <g id="line2d_31">
    <path d="M 60.591539 -0 
L 368.64 151.185461 
" clip-path="url(#p708ae904ff)" style="fill: none; stroke-dasharray: 0.4,0.66; stroke-dashoffset: 0; stroke: #ffffff; stroke-opacity: 0.9; stroke-width: 0.4"/>
   </g>
   <g id="line2d_32">
    <path d="M 175.810455 -0 
L 230.416522 368.64 
" clip-path="url(#p708ae904ff)" style="fill: none; stroke-dasharray: 0.4,0.66; stroke-dashoffset: 0; stroke: #ffffff; stroke-opacity: 0.9; stroke-width: 0.4"/>
   </g>
   <g id="line2d_33">
    <path d="M 219.681859 368.64 
L 335.977485 0 
" clip-path="url(#p708ae904ff)" style="fill: none; stroke-dasharray: 0.4,0.66; stroke-dashoffset: 0; stroke: #ffffff; stroke-opacity: 0.9; stroke-width: 0.4"/>
   </g>
   <g id="line2d_34">
    <path d="M 0 208.796237 
L 368.64 95.683994 
" clip-path="url(#p708ae904ff)" style="fill: none; stroke-dasharray: 0.4,0.66; stroke-dashoffset: 0; stroke: #ffffff; stroke-opacity: 0.9; stroke-width: 0.4"/>
   </g>
   <g id="line2d_35">
    <path d="M 175.810455 -0 
L 230.416522 368.64 
" clip-path="url(#p708ae904ff)" style="fill: none; stroke-dasharray: 0.4,0.66; stroke-dashoffset: 0; stroke: #ffffff; stroke-opacity: 0.9; stroke-width: 0.4"/>
   </g>
   <g id="line2d_36">
    <path d="M 0 115.95855 
L 368.64 117.285257 
" clip-path="url(#p708ae904ff)" style="fill: none; stroke-dasharray: 0.4,0.66; stroke-dashoffset: 0; stroke: #ffffff; stroke-opacity: 0.9; stroke-width: 0.4"/>
   </g>
   <g id="line2d_37">
    <path d="M 0 208.796237 
L 368.64 95.683994 
" clip-path="url(#p708ae904ff)" style="fill: none; stroke-dasharray: 0.4,0.66; stroke-dashoffset: 0; stroke: #ffffff; stroke-opacity: 0.9; stroke-width: 0.4"/>
   </g>
   <g id="line2d_38">
    <path d="M 175.810455 -0 
L 230.416522 368.64 
" clip-path="url(#p708ae904ff)" style="fill: none; stroke-dasharray: 0.4,0.66; stroke-dashoffset: 0; stroke: #ffffff; stroke-opacity: 0.9; stroke-width: 0.4"/>
   </g>
   <g id="line2d_39">
    <path d="M 299.056264 117.034831 
L 193.090151 116.653467 
" clip-path="url(#p708ae904ff)" style="fill: none; stroke: #ffffff; stroke-opacity: 0.9; stroke-width: 0.4; stroke-linecap: square"/>
   </g>
   <g id="line2d_40">
    <path d="M 87.124038 116.272103 
L 193.090151 116.653467 
" clip-path="url(#p708ae904ff)" style="fill: none; stroke: #ffffff; stroke-opacity: 0.9; stroke-width: 0.4; stroke-linecap: square"/>
   </g>
   <g id="line2d_41">
    <path d="M 299.056264 117.034831 
L 197.751086 148.118967 
" clip-path="url(#p708ae904ff)" style="fill: none; stroke: #ffffff; stroke-opacity: 0.9; stroke-width: 0.4; stroke-linecap: square"/>
   </g>
   <g id="line2d_42">
    <path d="M 96.445908 179.203103 
L 197.751086 148.118967 
" clip-path="url(#p708ae904ff)" style="fill: none; stroke: #ffffff; stroke-opacity: 0.9; stroke-width: 0.4; stroke-linecap: square"/>
   </g>
   <g id="line2d_43">
    <path d="M 60.591539 -0 
L 368.64 151.185461 
" clip-path="url(#p708ae904ff)" style="fill: none; stroke-dasharray: 0.4,0.66; stroke-dashoffset: 0; stroke: #ffffff; stroke-opacity: 0.9; stroke-width: 0.4"/>
   </g>
   <g id="line2d_44">
    <path d="M 175.810455 -0 
L 230.416522 368.64 
" clip-path="url(#p708ae904ff)" style="fill: none; stroke-dasharray: 0.4,0.66; stroke-dashoffset: 0; stroke: #ffffff; stroke-opacity: 0.9; stroke-width: 0.4"/>
   </g>
   <g id="line2d_45">
    <path d="M 219.681859 368.64 
L 335.977485 0 
" clip-path="url(#p708ae904ff)" style="fill: none; stroke-dasharray: 0.4,0.66; stroke-dashoffset: 0; stroke: #ffffff; stroke-opacity: 0.9; stroke-width: 0.4"/>
   </g>
   <g id="line2d_46">
    <path d="M 0 208.796237 
L 368.64 95.683994 
" clip-path="url(#p708ae904ff)" style="fill: none; stroke-dasharray: 0.4,0.66; stroke-dashoffset: 0; stroke: #ffffff; stroke-opacity: 0.9; stroke-width: 0.4"/>
   </g>
   <g id="line2d_47">
    <path d="M 0 115.95855 
L 368.64 117.285257 
" clip-path="url(#p708ae904ff)" style="fill: none; stroke-dasharray: 0.4,0.66; stroke-dashoffset: 0; stroke: #ffffff; stroke-opacity: 0.9; stroke-width: 0.4"/>
   </g>
   <g id="line2d_48">
    <path d="M 175.810455 -0 
L 230.416522 368.64 
" clip-path="url(#p708ae904ff)" style="fill: none; stroke-dasharray: 0.4,0.66; stroke-dashoffset: 0; stroke: #ffffff; stroke-opacity: 0.9; stroke-width: 0.4"/>
   </g>
   <g id="line2d_49">
    <path d="M 175.810455 -0 
L 230.416522 368.64 
" clip-path="url(#p708ae904ff)" style="fill: none; stroke-dasharray: 0.4,0.66; stroke-dashoffset: 0; stroke: #ffffff; stroke-opacity: 0.9; stroke-width: 0.4"/>
   </g>
   <g id="line2d_50">
    <path d="M 0 208.796237 
L 368.64 95.683994 
" clip-path="url(#p708ae904ff)" style="fill: none; stroke-dasharray: 0.4,0.66; stroke-dashoffset: 0; stroke: #ffffff; stroke-opacity: 0.9; stroke-width: 0.4"/>
   </g>
   <g id="line2d_51">
    <path d="M 299.056264 117.034831 
L 184.843467 60.980941 
" clip-path="url(#p708ae904ff)" style="fill: none; stroke-dasharray: 1.48,0.64; stroke-dashoffset: 0; stroke: #ffffff; stroke-opacity: 0.9; stroke-width: 0.4"/>
   </g>
   <g id="line2d_52">
    <path d="M 184.843467 60.980941 
L 193.090151 116.653467 
" clip-path="url(#p708ae904ff)" style="fill: none; stroke-dasharray: 1.48,0.64; stroke-dashoffset: 0; stroke: #ffffff; stroke-opacity: 0.9; stroke-width: 0.4"/>
   </g>
   <g id="line2d_53">
    <path d="M 299.056264 117.034831 
L 193.090151 116.653467 
" clip-path="url(#p708ae904ff)" style="fill: none; stroke-dasharray: 1.48,0.64; stroke-dashoffset: 0; stroke: #ffffff; stroke-opacity: 0.9; stroke-width: 0.4"/>
   </g>
   <g id="line2d_54">
    <path d="M 226.98661 345.485016 
L 299.056264 117.034831 
" clip-path="url(#p708ae904ff)" style="fill: none; stroke-dasharray: 1.48,0.64; stroke-dashoffset: 0; stroke: #ffffff; stroke-opacity: 0.9; stroke-width: 0.4"/>
   </g>
   <g id="line2d_55">
    <path d="M 299.056264 117.034831 
L 197.751086 148.118967 
" clip-path="url(#p708ae904ff)" style="fill: none; stroke-dasharray: 1.48,0.64; stroke-dashoffset: 0; stroke: #ffffff; stroke-opacity: 0.9; stroke-width: 0.4"/>
   </g>
   <g id="line2d_56">
    <path d="M 226.98661 345.485016 
L 197.751086 148.118967 
" clip-path="url(#p708ae904ff)" style="fill: none; stroke-dasharray: 1.48,0.64; stroke-dashoffset: 0; stroke: #ffffff; stroke-opacity: 0.9; stroke-width: 0.4"/>
   </g>
   <g id="line2d_57">
    <path d="M 184.843467 60.980941 
L 87.124038 116.272103 
" clip-path="url(#p708ae904ff)" style="fill: none; stroke-dasharray: 1.48,0.64; stroke-dashoffset: 0; stroke: #ffffff; stroke-opacity: 0.9; stroke-width: 0.4"/>
   </g>
   <g id="line2d_58">
    <path d="M 87.124038 116.272103 
L 193.090151 116.653467 
" clip-path="url(#p708ae904ff)" style="fill: none; stroke-dasharray: 1.48,0.64; stroke-dashoffset: 0; stroke: #ffffff; stroke-opacity: 0.9; stroke-width: 0.4"/>
   </g>
   <g id="line2d_59">
    <path d="M 184.843467 60.980941 
L 193.090151 116.653467 
" clip-path="url(#p708ae904ff)" style="fill: none; stroke-dasharray: 1.48,0.64; stroke-dashoffset: 0; stroke: #ffffff; stroke-opacity: 0.9; stroke-width: 0.4"/>
   </g>
   <g id="line2d_60">
    <path d="M 96.445908 179.203103 
L 226.98661 345.485016 
" clip-path="url(#p708ae904ff)" style="fill: none; stroke-dasharray: 1.48,0.64; stroke-dashoffset: 0; stroke: #ffffff; stroke-opacity: 0.9; stroke-width: 0.4"/>
   </g>
   <g id="line2d_61">
    <path d="M 226.98661 345.485016 
L 197.751086 148.118967 
" clip-path="url(#p708ae904ff)" style="fill: none; stroke-dasharray: 1.48,0.64; stroke-dashoffset: 0; stroke: #ffffff; stroke-opacity: 0.9; stroke-width: 0.4"/>
   </g>
   <g id="line2d_62">
    <path d="M 96.445908 179.203103 
L 197.751086 148.118967 
" clip-path="url(#p708ae904ff)" style="fill: none; stroke-dasharray: 1.48,0.64; stroke-dashoffset: 0; stroke: #ffffff; stroke-opacity: 0.9; stroke-width: 0.4"/>
   </g>
   <g id="line2d_63">
    <path d="M 0 165.568228 
L 292.618789 -0 
" clip-path="url(#p708ae904ff)" style="fill: none; stroke-dasharray: 0.4,0.66; stroke-dashoffset: 0; stroke: #ffffff; stroke-opacity: 0.9; stroke-width: 0.4"/>
   </g>
   <g id="line2d_64">
    <path d="M 0 115.95855 
L 368.64 117.285257 
" clip-path="url(#p708ae904ff)" style="fill: none; stroke-dasharray: 0.4,0.66; stroke-dashoffset: 0; stroke: #ffffff; stroke-opacity: 0.9; stroke-width: 0.4"/>
   </g>
   <g id="line2d_65">
    <path d="M 0 56.35092 
L 245.164581 368.64 
" clip-path="url(#p708ae904ff)" style="fill: none; stroke-dasharray: 0.4,0.66; stroke-dashoffset: 0; stroke: #ffffff; stroke-opacity: 0.9; stroke-width: 0.4"/>
   </g>
   <g id="line2d_66">
    <path d="M 175.810455 -0 
L 230.416522 368.64 
" clip-path="url(#p708ae904ff)" style="fill: none; stroke-dasharray: 0.4,0.66; stroke-dashoffset: 0; stroke: #ffffff; stroke-opacity: 0.9; stroke-width: 0.4"/>
   </g>
   <g id="line2d_67">
    <path d="M 60.591539 -0 
L 368.64 151.185461 
" clip-path="url(#p708ae904ff)" style="fill: none; stroke-dasharray: 0.4,0.66; stroke-dashoffset: 0; stroke: #ffffff; stroke-opacity: 0.9; stroke-width: 0.4"/>
   </g>
   <g id="line2d_68">
    <path d="M 0 165.568228 
L 292.618789 -0 
" clip-path="url(#p708ae904ff)" style="fill: none; stroke-dasharray: 0.4,0.66; stroke-dashoffset: 0; stroke: #ffffff; stroke-opacity: 0.9; stroke-width: 0.4"/>
   </g>
   <g id="line2d_69">
    <path d="M 219.681859 368.64 
L 335.977485 0 
" clip-path="url(#p708ae904ff)" style="fill: none; stroke-dasharray: 0.4,0.66; stroke-dashoffset: 0; stroke: #ffffff; stroke-opacity: 0.9; stroke-width: 0.4"/>
   </g>
   <g id="line2d_70">
    <path d="M 0 56.35092 
L 245.164581 368.64 
" clip-path="url(#p708ae904ff)" style="fill: none; stroke-dasharray: 0.4,0.66; stroke-dashoffset: 0; stroke: #ffffff; stroke-opacity: 0.9; stroke-width: 0.4"/>
   </g>
   <g id="line2d_71">
    <path d="M 226.98661 345.485016 
L 184.32 206.431818 
" clip-path="url(#p708ae904ff)" style="fill: none; stroke: #ffffff; stroke-opacity: 0.9; stroke-width: 0.4; stroke-linecap: square"/>
   </g>
   <g id="line2d_72">
    <path d="M 184.32 206.431818 
L 59.369847 131.975852 
" clip-path="url(#p708ae904ff)" style="fill: none; stroke: #ffffff; stroke-opacity: 0.9; stroke-width: 0.4; stroke-linecap: square"/>
   </g>
   <g id="line2d_73">
    <path d="M 299.056264 117.034831 
L 184.32 206.431818 
" clip-path="url(#p708ae904ff)" style="fill: none; stroke: #ffffff; stroke-opacity: 0.9; stroke-width: 0.4; stroke-linecap: square"/>
   </g>
   <g id="line2d_74">
    <path d="M 184.32 206.431818 
L 59.369847 131.975852 
" clip-path="url(#p708ae904ff)" style="fill: none; stroke: #ffffff; stroke-opacity: 0.9; stroke-width: 0.4; stroke-linecap: square"/>
   </g>
   <g id="patch_19">
    <path d="M 0 368.64 
L 0 -0 
" style="fill: none; stroke: #000000; stroke-width: 0.8; stroke-linejoin: miter; stroke-linecap: square"/>
   </g>
   <g id="patch_20">
    <path d="M 368.64 368.64 
L 368.64 -0 
" style="fill: none; stroke: #000000; stroke-width: 0.8; stroke-linejoin: miter; stroke-linecap: square"/>
   </g>
   <g id="patch_21">
    <path d="M -0 368.64 
L 368.64 368.64 
" style="fill: none; stroke: #000000; stroke-width: 0.8; stroke-linejoin: miter; stroke-linecap: square"/>
   </g>
   <g id="patch_22">
    <path d="M -0 0 
L 368.64 0 
" style="fill: none; stroke: #000000; stroke-width: 0.8; stroke-linejoin: miter; stroke-linecap: square"/>
   </g>
   <g id="text_15">
    <!-- A -->
    <g style="fill: #00ff00" transform="translate(299.056264 117.034831) scale(0.1 -0.1)">
     <defs>
      <path id="DejaVuSans-41" d="M 2188 4044 
L 1331 1722 
L 3047 1722 
L 2188 4044 
z
M 1831 4666 
L 2547 4666 
L 4325 0 
L 3669 0 
L 3244 1197 
L 1141 1197 
L 716 0 
L 50 0 
L 1831 4666 
z
" transform="scale(0.015625)"/>
     </defs>
     <use xlink:href="#DejaVuSans-41"/>
    </g>
   </g>
   <g id="text_16">
    <!-- B -->
    <g style="fill: #00ff00" transform="translate(184.843467 60.980941) scale(0.1 -0.1)">
     <defs>
      <path id="DejaVuSans-42" d="M 1259 2228 
L 1259 519 
L 2272 519 
Q 2781 519 3026 730 
Q 3272 941 3272 1375 
Q 3272 1813 3026 2020 
Q 2781 2228 2272 2228 
L 1259 2228 
z
M 1259 4147 
L 1259 2741 
L 2194 2741 
Q 2656 2741 2882 2914 
Q 3109 3088 3109 3444 
Q 3109 3797 2882 3972 
Q 2656 4147 2194 4147 
L 1259 4147 
z
M 628 4666 
L 2241 4666 
Q 2963 4666 3353 4366 
Q 3744 4066 3744 3513 
Q 3744 3084 3544 2831 
Q 3344 2578 2956 2516 
Q 3422 2416 3680 2098 
Q 3938 1781 3938 1306 
Q 3938 681 3513 340 
Q 3088 0 2303 0 
L 628 0 
L 628 4666 
z
" transform="scale(0.015625)"/>
     </defs>
     <use xlink:href="#DejaVuSans-42"/>
    </g>
   </g>
   <g id="text_17">
    <!-- C -->
    <g style="fill: #00ff00" transform="translate(226.98661 345.485016) scale(0.1 -0.1)">
     <defs>
      <path id="DejaVuSans-43" d="M 4122 4306 
L 4122 3641 
Q 3803 3938 3442 4084 
Q 3081 4231 2675 4231 
Q 1875 4231 1450 3742 
Q 1025 3253 1025 2328 
Q 1025 1406 1450 917 
Q 1875 428 2675 428 
Q 3081 428 3442 575 
Q 3803 722 4122 1019 
L 4122 359 
Q 3791 134 3420 21 
Q 3050 -91 2638 -91 
Q 1578 -91 968 557 
Q 359 1206 359 2328 
Q 359 3453 968 4101 
Q 1578 4750 2638 4750 
Q 3056 4750 3426 4639 
Q 3797 4528 4122 4306 
z
" transform="scale(0.015625)"/>
     </defs>
     <use xlink:href="#DejaVuSans-43"/>
    </g>
   </g>
   <g id="text_18">
    <!-- P -->
    <g style="fill: #00ff00" transform="translate(193.090151 116.653467) scale(0.1 -0.1)">
     <defs>
      <path id="DejaVuSans-50" d="M 1259 4147 
L 1259 2394 
L 2053 2394 
Q 2494 2394 2734 2622 
Q 2975 2850 2975 3272 
Q 2975 3691 2734 3919 
Q 2494 4147 2053 4147 
L 1259 4147 
z
M 628 4666 
L 2053 4666 
Q 2838 4666 3239 4311 
Q 3641 3956 3641 3272 
Q 3641 2581 3239 2228 
Q 2838 1875 2053 1875 
L 1259 1875 
L 1259 0 
L 628 0 
L 628 4666 
z
" transform="scale(0.015625)"/>
     </defs>
     <use xlink:href="#DejaVuSans-50"/>
    </g>
   </g>
   <g id="text_19">
    <!-- Q -->
    <g style="fill: #00ff00" transform="translate(197.751086 148.118967) scale(0.1 -0.1)">
     <defs>
      <path id="DejaVuSans-51" d="M 2522 4238 
Q 1834 4238 1429 3725 
Q 1025 3213 1025 2328 
Q 1025 1447 1429 934 
Q 1834 422 2522 422 
Q 3209 422 3611 934 
Q 4013 1447 4013 2328 
Q 4013 3213 3611 3725 
Q 3209 4238 2522 4238 
z
M 3406 84 
L 4238 -825 
L 3475 -825 
L 2784 -78 
Q 2681 -84 2626 -87 
Q 2572 -91 2522 -91 
Q 1538 -91 948 567 
Q 359 1225 359 2328 
Q 359 3434 948 4092 
Q 1538 4750 2522 4750 
Q 3503 4750 4090 4092 
Q 4678 3434 4678 2328 
Q 4678 1516 4351 937 
Q 4025 359 3406 84 
z
" transform="scale(0.015625)"/>
     </defs>
     <use xlink:href="#DejaVuSans-51"/>
    </g>
   </g>
   <g id="text_20">
    <!-- M -->
    <g style="fill: #00ff00" transform="translate(87.124038 116.272103) scale(0.1 -0.1)">
     <defs>
      <path id="DejaVuSans-4d" d="M 628 4666 
L 1569 4666 
L 2759 1491 
L 3956 4666 
L 4897 4666 
L 4897 0 
L 4281 0 
L 4281 4097 
L 3078 897 
L 2444 897 
L 1241 4097 
L 1241 0 
L 628 0 
L 628 4666 
z
" transform="scale(0.015625)"/>
     </defs>
     <use xlink:href="#DejaVuSans-4d"/>
    </g>
   </g>
   <g id="text_21">
    <!-- N -->
    <g style="fill: #00ff00" transform="translate(96.445908 179.203103) scale(0.1 -0.1)">
     <defs>
      <path id="DejaVuSans-4e" d="M 628 4666 
L 1478 4666 
L 3547 763 
L 3547 4666 
L 4159 4666 
L 4159 0 
L 3309 0 
L 1241 3903 
L 1241 0 
L 628 0 
L 628 4666 
z
" transform="scale(0.015625)"/>
     </defs>
     <use xlink:href="#DejaVuSans-4e"/>
    </g>
   </g>
   <g id="text_22">
    <!-- X -->
    <g style="fill: #00ff00" transform="translate(59.369847 131.975852) scale(0.1 -0.1)">
     <defs>
      <path id="DejaVuSans-58" d="M 403 4666 
L 1081 4666 
L 2241 2931 
L 3406 4666 
L 4084 4666 
L 2584 2425 
L 4184 0 
L 3506 0 
L 2194 1984 
L 872 0 
L 191 0 
L 1856 2491 
L 403 4666 
z
" transform="scale(0.015625)"/>
     </defs>
     <use xlink:href="#DejaVuSans-58"/>
    </g>
   </g>
   <g id="text_23">
    <!-- O -->
    <g style="fill: #00ff00" transform="translate(184.32 206.431818) scale(0.1 -0.1)">
     <defs>
      <path id="DejaVuSans-4f" d="M 2522 4238 
Q 1834 4238 1429 3725 
Q 1025 3213 1025 2328 
Q 1025 1447 1429 934 
Q 1834 422 2522 422 
Q 3209 422 3611 934 
Q 4013 1447 4013 2328 
Q 4013 3213 3611 3725 
Q 3209 4238 2522 4238 
z
M 2522 4750 
Q 3503 4750 4090 4092 
Q 4678 3434 4678 2328 
Q 4678 1225 4090 567 
Q 3503 -91 2522 -91 
Q 1538 -91 948 565 
Q 359 1222 359 2328 
Q 359 3434 948 4092 
Q 1538 4750 2522 4750 
z
" transform="scale(0.015625)"/>
     </defs>
     <use xlink:href="#DejaVuSans-4f"/>
    </g>
   </g>
  </g>
 </g>
 <defs>
  <clipPath id="p708ae904ff">
   <rect x="0" y="0" width="368.64" height="368.64"/>
  </clipPath>
 </defs>
</svg>
