<?xml version="1.0" encoding="utf-8" standalone="no"?>
<!DOCTYPE svg PUBLIC "-//W3C//DTD SVG 1.1//EN"
  "http://www.w3.org/Graphics/SVG/1.1/DTD/svg11.dtd">
<svg xmlns:xlink="http://www.w3.org/1999/xlink" width="368.64pt" height="368.64pt" viewBox="0 0 368.64 368.64" xmlns="http://www.w3.org/2000/svg" version="1.1">
 <metadata>
  <rdf:RDF xmlns:dc="http://purl.org/dc/elements/1.1/" xmlns:cc="http://creativecommons.org/ns#" xmlns:rdf="http://www.w3.org/1999/02/22-rdf-syntax-ns#">
   <cc:Work>
    <dc:type rdf:resource="http://purl.org/dc/dcmitype/StillImage"/>
    <dc:date>2024-08-26T18:19:15.400675</dc:date>
    <dc:format>image/svg+xml</dc:format>
    <dc:creator>
     <cc:Agent>
      <dc:title>Matplotlib v3.9.2, https://matplotlib.org/</dc:title>
     </cc:Agent>
    </dc:creator>
   </cc:Work>
  </rdf:RDF>
 </metadata>
 <defs>
  <style type="text/css">*{stroke-linejoin: round; stroke-linecap: butt}</style>
 </defs>
 <g id="figure_1">
  <g id="patch_1">
   <path d="M 0 368.64 
L 368.64 368.64 
L 368.64 0 
L 0 0 
z
" style="fill: #ffffff"/>
  </g>
  <g id="axes_1">
   <g id="patch_2">
    <path d="M 0 368.64 
L 368.64 368.64 
L 368.64 0 
L 0 0 
z
"/>
   </g>
   <g id="patch_3">
    <path d="M 233.087058 92.044593 
L 103.181521 28.288948 
L 151.115096 351.883636 
z
" clip-path="url(#p4b6dbb1639)" style="fill: #1f77b4"/>
   </g>
   <g id="patch_4">
    <path d="M 115.211965 109.505246 
L 151.746863 104.093389 
L 146.335005 67.558491 
L 109.800107 72.970348 
L 115.211965 109.505246 
z
" clip-path="url(#p4b6dbb1639)" style="fill: none; stroke: #ffff00; stroke-linejoin: miter"/>
   </g>
   <g id="patch_5">
    <path d="M 239.621335 71.331899 
L 250.733018 36.109499 
L 215.510618 24.997815 
L 204.398935 60.220215 
L 239.621335 71.331899 
z
" clip-path="url(#p4b6dbb1639)" style="fill: none; stroke: #ffff00; stroke-linejoin: miter"/>
   </g>
   <g id="patch_6">
    <path d="M 269.797649 110.061589 
L 286.06995 76.905907 
L 252.914268 60.633607 
L 236.641968 93.789288 
L 269.797649 110.061589 
z
" clip-path="url(#p4b6dbb1639)" style="fill: none; stroke: #ffff00; stroke-linejoin: miter"/>
   </g>
   <g id="patch_7">
    <path d="M 285.61694 117.825454 
C 289.329532 110.260848 291.36467 101.98279 291.582764 93.559071 
C 291.800857 85.135352 290.196803 76.763074 286.880624 69.01649 
L 281.501267 71.319301 
C 284.485829 78.291226 285.929478 85.826276 285.733193 93.407623 
C 285.536909 100.98897 283.705285 108.439223 280.363952 115.247368 
z
" clip-path="url(#p4b6dbb1639)" style="fill: #3cb44b; opacity: 0.5; stroke: #3cb44b; stroke-linejoin: miter"/>
   </g>
   <g id="patch_8">
    <path d="M 286.880624 69.01649 
C 283.564444 61.269907 278.613732 54.330275 272.368057 48.673585 
C 266.122382 43.016895 258.727882 38.775503 250.691746 36.240326 
L 248.931277 41.820753 
C 256.1638 44.102412 262.81885 47.919665 268.439957 53.010686 
C 274.061065 58.101707 278.516706 64.347376 281.501267 71.319301 
z
" clip-path="url(#p4b6dbb1639)" style="fill: #3cb44b; opacity: 0.5; stroke: #3cb44b; stroke-linejoin: miter"/>
   </g>
   <g id="patch_9">
    <path d="M 177.921292 266.911945 
C 174.715239 265.900525 171.454511 265.071365 168.154754 264.428445 
C 164.854997 263.785524 161.521495 263.329873 158.170244 263.063676 
L 157.464729 271.945672 
C 160.480855 272.185249 163.481007 272.595336 166.450788 273.173964 
C 169.42057 273.752593 172.355225 274.498836 175.240672 275.409114 
z
" clip-path="url(#p4b6dbb1639)" style="fill: #ffe119; opacity: 0.5; stroke: #ffe119; stroke-linejoin: miter"/>
   </g>
   <g id="patch_10">
    <path d="M 158.170244 263.063676 
C 154.818993 262.79748 151.45536 262.721164 148.095484 262.835097 
C 144.735608 262.949029 141.384872 263.253027 138.059351 263.745631 
L 139.364926 272.559432 
C 142.357894 272.116088 145.373557 271.84249 148.397445 271.739951 
C 151.421334 271.637412 154.448603 271.706095 157.464729 271.945672 
z
" clip-path="url(#p4b6dbb1639)" style="fill: #ffe119; opacity: 0.5; stroke: #ffe119; stroke-linejoin: miter"/>
   </g>
   <g id="patch_11">
    <path d="M 96.305456 18.874145 
C 95.545472 19.429196 94.855483 20.074233 94.250568 20.795159 
C 93.645653 21.516085 93.130249 22.307612 92.715619 23.152443 
L 93.762209 23.666094 
C 94.135376 22.905746 94.59924 22.193372 95.143663 21.544538 
C 95.688087 20.895704 96.309077 20.315171 96.993062 19.815625 
z
" clip-path="url(#p4b6dbb1639)" style="fill: #4363d8; opacity: 0.5; stroke: #4363d8; stroke-linejoin: miter"/>
   </g>
   <g id="patch_12">
    <path d="M 101.473218 16.756364 
C 100.542282 16.894262 99.631459 17.144375 98.760651 17.501237 
C 97.889843 17.8581 97.065439 18.319093 96.305456 18.874145 
L 96.993062 19.815625 
C 97.677048 19.316079 98.41901 18.901185 99.202738 18.580008 
C 99.986465 18.258832 100.806206 18.03373 101.644048 17.909622 
z
" clip-path="url(#p4b6dbb1639)" style="fill: #4363d8; opacity: 0.5; stroke: #4363d8; stroke-linejoin: miter"/>
   </g>
   <g id="patch_13">
    <path d="M 117.788369 126.898292 
L 154.323267 121.486435 
L 148.91141 84.951537 
L 112.376512 90.363394 
L 117.788369 126.898292 
z
" clip-path="url(#p4b6dbb1639)" style="fill: none; stroke: #ffff00; stroke-linejoin: miter"/>
   </g>
   <g id="patch_14">
    <path d="M 219.541891 134.980778 
L 230.653574 99.758378 
L 195.431174 88.646695 
L 184.319491 123.869095 
L 219.541891 134.980778 
z
" clip-path="url(#p4b6dbb1639)" style="fill: none; stroke: #ffff00; stroke-linejoin: miter"/>
   </g>
   <g id="patch_15">
    <path d="M 192.670207 72.208623 
L 208.942508 39.052941 
L 175.786826 22.780641 
L 159.514526 55.936322 
L 192.670207 72.208623 
z
" clip-path="url(#p4b6dbb1639)" style="fill: none; stroke: #ffff00; stroke-linejoin: miter"/>
   </g>
   <g id="patch_16">
    <path d="M 115.211965 109.505246 
L 151.746863 104.093389 
L 146.335005 67.558491 
L 109.800107 72.970348 
L 115.211965 109.505246 
z
" clip-path="url(#p4b6dbb1639)" style="fill: none; stroke: #ffff00; stroke-linejoin: miter"/>
   </g>
   <g id="patch_17">
    <path d="M 239.621335 71.331899 
L 250.733018 36.109499 
L 215.510618 24.997815 
L 204.398935 60.220215 
L 239.621335 71.331899 
z
" clip-path="url(#p4b6dbb1639)" style="fill: none; stroke: #ffff00; stroke-linejoin: miter"/>
   </g>
   <g id="patch_18">
    <path d="M 269.797649 110.061589 
L 286.06995 76.905907 
L 252.914268 60.633607 
L 236.641968 93.789288 
L 269.797649 110.061589 
z
" clip-path="url(#p4b6dbb1639)" style="fill: none; stroke: #ffff00; stroke-linejoin: miter"/>
   </g>
   <g id="patch_19">
    <path d="M 113.855216 126.585874 
L 116.779711 89.768292 
L 79.962129 86.843798 
L 77.037635 123.661379 
L 113.855216 126.585874 
z
" clip-path="url(#p4b6dbb1639)" style="fill: none; stroke: #ffff00; stroke-linejoin: miter"/>
   </g>
   <g id="patch_20">
    <path d="M 234.47138 136.166658 
L 237.395874 99.349076 
L 200.578293 96.424582 
L 197.653798 133.242163 
L 234.47138 136.166658 
z
" clip-path="url(#p4b6dbb1639)" style="fill: none; stroke: #ffff00; stroke-linejoin: miter"/>
   </g>
   <g id="patch_21">
    <path d="M 199.624512 88.453853 
L 233.577802 73.919031 
L 219.042981 39.965741 
L 185.08969 54.500562 
L 199.624512 88.453853 
z
" clip-path="url(#p4b6dbb1639)" style="fill: none; stroke: #ffff00; stroke-linejoin: miter"/>
   </g>
   <g id="patch_22">
    <path d="M 218.309813 132.102648 
L 252.263103 117.567827 
L 237.728282 83.614537 
L 203.774991 98.149358 
L 218.309813 132.102648 
z
" clip-path="url(#p4b6dbb1639)" style="fill: none; stroke: #ffff00; stroke-linejoin: miter"/>
   </g>
   <g id="PathCollection_1">
    <defs>
     <path id="m776e943d79" d="M 0 1.118034 
C 0.296506 1.118034 0.580908 1.000231 0.790569 0.790569 
C 1.000231 0.580908 1.118034 0.296506 1.118034 0 
C 1.118034 -0.296506 1.000231 -0.580908 0.790569 -0.790569 
C 0.580908 -1.000231 0.296506 -1.118034 0 -1.118034 
C -0.296506 -1.118034 -0.580908 -1.000231 -0.790569 -0.790569 
C -1.000231 -0.580908 -1.118034 -0.296506 -1.118034 0 
C -1.118034 0.296506 -1.000231 0.580908 -0.790569 0.790569 
C -0.580908 1.000231 -0.296506 1.118034 0 1.118034 
z
" style="stroke: #ffffff"/>
    </defs>
    <g clip-path="url(#p4b6dbb1639)">
     <use xlink:href="#m776e943d79" x="233.087058" y="92.044593" style="fill: #ffffff; stroke: #ffffff"/>
    </g>
   </g>
   <g id="PathCollection_2">
    <g clip-path="url(#p4b6dbb1639)">
     <use xlink:href="#m776e943d79" x="103.181521" y="28.288948" style="fill: #ffffff; stroke: #ffffff"/>
    </g>
   </g>
   <g id="PathCollection_3">
    <g clip-path="url(#p4b6dbb1639)">
     <use xlink:href="#m776e943d79" x="151.115096" y="351.883636" style="fill: #ffffff; stroke: #ffffff"/>
    </g>
   </g>
   <g id="PathCollection_4">
    <g clip-path="url(#p4b6dbb1639)">
     <use xlink:href="#m776e943d79" x="282.211414" y="84.767879" style="fill: #ffffff; stroke: #ffffff"/>
    </g>
   </g>
   <g id="PathCollection_5">
    <g clip-path="url(#p4b6dbb1639)">
     <use xlink:href="#m776e943d79" x="169.595706" y="119.224152" style="fill: #ffffff; stroke: #ffffff"/>
    </g>
   </g>
   <g id="PathCollection_6">
    <g clip-path="url(#p4b6dbb1639)">
     <use xlink:href="#m776e943d79" x="117.788369" y="126.898292" style="fill: #ffffff; stroke: #ffffff"/>
    </g>
   </g>
   <g id="PathCollection_7">
    <g clip-path="url(#p4b6dbb1639)">
     <use xlink:href="#m776e943d79" x="219.541891" y="134.980778" style="fill: #ffffff; stroke: #ffffff"/>
    </g>
   </g>
   <g id="PathCollection_8">
    <g clip-path="url(#p4b6dbb1639)">
     <use xlink:href="#m776e943d79" x="192.670207" y="72.208623" style="fill: #ffffff; stroke: #ffffff"/>
    </g>
   </g>
   <g id="PathCollection_9">
    <g clip-path="url(#p4b6dbb1639)">
     <use xlink:href="#m776e943d79" x="115.211965" y="109.505246" style="fill: #ffffff; stroke: #ffffff"/>
    </g>
   </g>
   <g id="PathCollection_10">
    <g clip-path="url(#p4b6dbb1639)">
     <use xlink:href="#m776e943d79" x="239.621335" y="71.331899" style="fill: #ffffff; stroke: #ffffff"/>
    </g>
   </g>
   <g id="PathCollection_11">
    <g clip-path="url(#p4b6dbb1639)">
     <use xlink:href="#m776e943d79" x="269.797649" y="110.061589" style="fill: #ffffff; stroke: #ffffff"/>
    </g>
   </g>
   <g id="PathCollection_12">
    <g clip-path="url(#p4b6dbb1639)">
     <use xlink:href="#m776e943d79" x="112.498468" y="143.666501" style="fill: #ffffff; stroke: #ffffff"/>
    </g>
   </g>
   <g id="PathCollection_13">
    <g clip-path="url(#p4b6dbb1639)">
     <use xlink:href="#m776e943d79" x="229.321425" y="201.001417" style="fill: #ffffff; stroke: #ffffff"/>
    </g>
   </g>
   <g id="PathCollection_14">
    <g clip-path="url(#p4b6dbb1639)">
     <use xlink:href="#m776e943d79" x="159.627689" y="105.575807" style="fill: #ffffff; stroke: #ffffff"/>
    </g>
   </g>
   <g id="PathCollection_15">
    <g clip-path="url(#p4b6dbb1639)">
     <use xlink:href="#m776e943d79" x="166.821976" y="154.143708" style="fill: #ffffff; stroke: #ffffff"/>
    </g>
   </g>
   <g id="PathCollection_16">
    <g clip-path="url(#p4b6dbb1639)">
     <use xlink:href="#m776e943d79" x="169.407222" y="171.596445" style="fill: #ffffff; stroke: #ffffff"/>
    </g>
   </g>
   <g id="matplotlib.axis_1">
    <g id="xtick_1">
     <g id="line2d_1">
      <defs>
       <path id="m6fdc8544e2" d="M 0 0 
L 0 3.5 
" style="stroke: #000000; stroke-width: 0.8"/>
      </defs>
      <g>
       <use xlink:href="#m6fdc8544e2" x="3.777659" y="368.64" style="stroke: #000000; stroke-width: 0.8"/>
      </g>
     </g>
     <g id="text_1">
      <!-- −1.5 -->
      <g transform="translate(-8.363748 383.238437) scale(0.1 -0.1)">
       <defs>
        <path id="DejaVuSans-2212" d="M 678 2272 
L 4684 2272 
L 4684 1741 
L 678 1741 
L 678 2272 
z
" transform="scale(0.015625)"/>
        <path id="DejaVuSans-31" d="M 794 531 
L 1825 531 
L 1825 4091 
L 703 3866 
L 703 4441 
L 1819 4666 
L 2450 4666 
L 2450 531 
L 3481 531 
L 3481 0 
L 794 0 
L 794 531 
z
" transform="scale(0.015625)"/>
        <path id="DejaVuSans-2e" d="M 684 794 
L 1344 794 
L 1344 0 
L 684 0 
L 684 794 
z
" transform="scale(0.015625)"/>
        <path id="DejaVuSans-35" d="M 691 4666 
L 3169 4666 
L 3169 4134 
L 1269 4134 
L 1269 2991 
Q 1406 3038 1543 3061 
Q 1681 3084 1819 3084 
Q 2600 3084 3056 2656 
Q 3513 2228 3513 1497 
Q 3513 744 3044 326 
Q 2575 -91 1722 -91 
Q 1428 -91 1123 -41 
Q 819 9 494 109 
L 494 744 
Q 775 591 1075 516 
Q 1375 441 1709 441 
Q 2250 441 2565 725 
Q 2881 1009 2881 1497 
Q 2881 1984 2565 2268 
Q 2250 2553 1709 2553 
Q 1456 2553 1204 2497 
Q 953 2441 691 2322 
L 691 4666 
z
" transform="scale(0.015625)"/>
       </defs>
       <use xlink:href="#DejaVuSans-2212"/>
       <use xlink:href="#DejaVuSans-31" x="83.789062"/>
       <use xlink:href="#DejaVuSans-2e" x="147.412109"/>
       <use xlink:href="#DejaVuSans-35" x="179.199219"/>
      </g>
     </g>
    </g>
    <g id="xtick_2">
     <g id="line2d_2">
      <g>
       <use xlink:href="#m6fdc8544e2" x="65.333572" y="368.64" style="stroke: #000000; stroke-width: 0.8"/>
      </g>
     </g>
     <g id="text_2">
      <!-- −1.0 -->
      <g transform="translate(53.192166 383.238437) scale(0.1 -0.1)">
       <defs>
        <path id="DejaVuSans-30" d="M 2034 4250 
Q 1547 4250 1301 3770 
Q 1056 3291 1056 2328 
Q 1056 1369 1301 889 
Q 1547 409 2034 409 
Q 2525 409 2770 889 
Q 3016 1369 3016 2328 
Q 3016 3291 2770 3770 
Q 2525 4250 2034 4250 
z
M 2034 4750 
Q 2819 4750 3233 4129 
Q 3647 3509 3647 2328 
Q 3647 1150 3233 529 
Q 2819 -91 2034 -91 
Q 1250 -91 836 529 
Q 422 1150 422 2328 
Q 422 3509 836 4129 
Q 1250 4750 2034 4750 
z
" transform="scale(0.015625)"/>
       </defs>
       <use xlink:href="#DejaVuSans-2212"/>
       <use xlink:href="#DejaVuSans-31" x="83.789062"/>
       <use xlink:href="#DejaVuSans-2e" x="147.412109"/>
       <use xlink:href="#DejaVuSans-30" x="179.199219"/>
      </g>
     </g>
    </g>
    <g id="xtick_3">
     <g id="line2d_3">
      <g>
       <use xlink:href="#m6fdc8544e2" x="126.889485" y="368.64" style="stroke: #000000; stroke-width: 0.8"/>
      </g>
     </g>
     <g id="text_3">
      <!-- −0.5 -->
      <g transform="translate(114.748079 383.238437) scale(0.1 -0.1)">
       <use xlink:href="#DejaVuSans-2212"/>
       <use xlink:href="#DejaVuSans-30" x="83.789062"/>
       <use xlink:href="#DejaVuSans-2e" x="147.412109"/>
       <use xlink:href="#DejaVuSans-35" x="179.199219"/>
      </g>
     </g>
    </g>
    <g id="xtick_4">
     <g id="line2d_4">
      <g>
       <use xlink:href="#m6fdc8544e2" x="188.445399" y="368.64" style="stroke: #000000; stroke-width: 0.8"/>
      </g>
     </g>
     <g id="text_4">
      <!-- 0.0 -->
      <g transform="translate(180.493836 383.238437) scale(0.1 -0.1)">
       <use xlink:href="#DejaVuSans-30"/>
       <use xlink:href="#DejaVuSans-2e" x="63.623047"/>
       <use xlink:href="#DejaVuSans-30" x="95.410156"/>
      </g>
     </g>
    </g>
    <g id="xtick_5">
     <g id="line2d_5">
      <g>
       <use xlink:href="#m6fdc8544e2" x="250.001312" y="368.64" style="stroke: #000000; stroke-width: 0.8"/>
      </g>
     </g>
     <g id="text_5">
      <!-- 0.5 -->
      <g transform="translate(242.04975 383.238437) scale(0.1 -0.1)">
       <use xlink:href="#DejaVuSans-30"/>
       <use xlink:href="#DejaVuSans-2e" x="63.623047"/>
       <use xlink:href="#DejaVuSans-35" x="95.410156"/>
      </g>
     </g>
    </g>
    <g id="xtick_6">
     <g id="line2d_6">
      <g>
       <use xlink:href="#m6fdc8544e2" x="311.557226" y="368.64" style="stroke: #000000; stroke-width: 0.8"/>
      </g>
     </g>
     <g id="text_6">
      <!-- 1.0 -->
      <g transform="translate(303.605663 383.238437) scale(0.1 -0.1)">
       <use xlink:href="#DejaVuSans-31"/>
       <use xlink:href="#DejaVuSans-2e" x="63.623047"/>
       <use xlink:href="#DejaVuSans-30" x="95.410156"/>
      </g>
     </g>
    </g>
   </g>
   <g id="matplotlib.axis_2">
    <g id="ytick_1">
     <g id="line2d_7">
      <defs>
       <path id="m68460cbadc" d="M 0 0 
L -3.5 0 
" style="stroke: #000000; stroke-width: 0.8"/>
      </defs>
      <g>
       <use xlink:href="#m68460cbadc" x="0" y="364.813387" style="stroke: #000000; stroke-width: 0.8"/>
      </g>
     </g>
     <g id="text_7">
      <!-- −2.5 -->
      <g transform="translate(-31.282813 368.612606) scale(0.1 -0.1)">
       <defs>
        <path id="DejaVuSans-32" d="M 1228 531 
L 3431 531 
L 3431 0 
L 469 0 
L 469 531 
Q 828 903 1448 1529 
Q 2069 2156 2228 2338 
Q 2531 2678 2651 2914 
Q 2772 3150 2772 3378 
Q 2772 3750 2511 3984 
Q 2250 4219 1831 4219 
Q 1534 4219 1204 4116 
Q 875 4013 500 3803 
L 500 4441 
Q 881 4594 1212 4672 
Q 1544 4750 1819 4750 
Q 2544 4750 2975 4387 
Q 3406 4025 3406 3419 
Q 3406 3131 3298 2873 
Q 3191 2616 2906 2266 
Q 2828 2175 2409 1742 
Q 1991 1309 1228 531 
z
" transform="scale(0.015625)"/>
       </defs>
       <use xlink:href="#DejaVuSans-2212"/>
       <use xlink:href="#DejaVuSans-32" x="83.789062"/>
       <use xlink:href="#DejaVuSans-2e" x="147.412109"/>
       <use xlink:href="#DejaVuSans-35" x="179.199219"/>
      </g>
     </g>
    </g>
    <g id="ytick_2">
     <g id="line2d_8">
      <g>
       <use xlink:href="#m68460cbadc" x="0" y="303.257474" style="stroke: #000000; stroke-width: 0.8"/>
      </g>
     </g>
     <g id="text_8">
      <!-- −2.0 -->
      <g transform="translate(-31.282813 307.056693) scale(0.1 -0.1)">
       <use xlink:href="#DejaVuSans-2212"/>
       <use xlink:href="#DejaVuSans-32" x="83.789062"/>
       <use xlink:href="#DejaVuSans-2e" x="147.412109"/>
       <use xlink:href="#DejaVuSans-30" x="179.199219"/>
      </g>
     </g>
    </g>
    <g id="ytick_3">
     <g id="line2d_9">
      <g>
       <use xlink:href="#m68460cbadc" x="0" y="241.70156" style="stroke: #000000; stroke-width: 0.8"/>
      </g>
     </g>
     <g id="text_9">
      <!-- −1.5 -->
      <g transform="translate(-31.282813 245.500779) scale(0.1 -0.1)">
       <use xlink:href="#DejaVuSans-2212"/>
       <use xlink:href="#DejaVuSans-31" x="83.789062"/>
       <use xlink:href="#DejaVuSans-2e" x="147.412109"/>
       <use xlink:href="#DejaVuSans-35" x="179.199219"/>
      </g>
     </g>
    </g>
    <g id="ytick_4">
     <g id="line2d_10">
      <g>
       <use xlink:href="#m68460cbadc" x="0" y="180.145647" style="stroke: #000000; stroke-width: 0.8"/>
      </g>
     </g>
     <g id="text_10">
      <!-- −1.0 -->
      <g transform="translate(-31.282813 183.944866) scale(0.1 -0.1)">
       <use xlink:href="#DejaVuSans-2212"/>
       <use xlink:href="#DejaVuSans-31" x="83.789062"/>
       <use xlink:href="#DejaVuSans-2e" x="147.412109"/>
       <use xlink:href="#DejaVuSans-30" x="179.199219"/>
      </g>
     </g>
    </g>
    <g id="ytick_5">
     <g id="line2d_11">
      <g>
       <use xlink:href="#m68460cbadc" x="0" y="118.589734" style="stroke: #000000; stroke-width: 0.8"/>
      </g>
     </g>
     <g id="text_11">
      <!-- −0.5 -->
      <g transform="translate(-31.282813 122.388952) scale(0.1 -0.1)">
       <use xlink:href="#DejaVuSans-2212"/>
       <use xlink:href="#DejaVuSans-30" x="83.789062"/>
       <use xlink:href="#DejaVuSans-2e" x="147.412109"/>
       <use xlink:href="#DejaVuSans-35" x="179.199219"/>
      </g>
     </g>
    </g>
    <g id="ytick_6">
     <g id="line2d_12">
      <g>
       <use xlink:href="#m68460cbadc" x="0" y="57.03382" style="stroke: #000000; stroke-width: 0.8"/>
      </g>
     </g>
     <g id="text_12">
      <!-- 0.0 -->
      <g transform="translate(-22.903125 60.833039) scale(0.1 -0.1)">
       <use xlink:href="#DejaVuSans-30"/>
       <use xlink:href="#DejaVuSans-2e" x="63.623047"/>
       <use xlink:href="#DejaVuSans-30" x="95.410156"/>
      </g>
     </g>
    </g>
   </g>
   <g id="line2d_13">
    <path d="M 0 126.571414 
L 368.64 71.965348 
" clip-path="url(#p4b6dbb1639)" style="fill: none; stroke: #ffffff; stroke-opacity: 0.9; stroke-width: 0.4; stroke-linecap: square"/>
   </g>
   <g id="line2d_14">
    <path d="M 98.991124 0 
L 153.59719 368.64 
" clip-path="url(#p4b6dbb1639)" style="fill: none; stroke: #ffffff; stroke-opacity: 0.9; stroke-width: 0.4; stroke-linecap: square"/>
   </g>
   <g id="line2d_15">
    <path d="M 145.828931 368.64 
L 262.124557 0 
" clip-path="url(#p4b6dbb1639)" style="fill: none; stroke: #ffffff; stroke-opacity: 0.9; stroke-width: 0.4; stroke-linecap: square"/>
   </g>
   <g id="line2d_16">
    <path d="M 13.509725 0 
L 368.64 112.033685 
" clip-path="url(#p4b6dbb1639)" style="fill: none; stroke: #ffffff; stroke-opacity: 0.9; stroke-width: 0.4; stroke-linecap: square"/>
   </g>
   <g id="line2d_17">
    <path d="M 45.541278 0 
L 368.64 158.571899 
" clip-path="url(#p4b6dbb1639)" style="fill: none; stroke: #ffffff; stroke-opacity: 0.9; stroke-width: 0.4; stroke-linecap: square"/>
   </g>
   <g id="line2d_18">
    <path d="M 142.89133 368.64 
L 323.81419 0 
" clip-path="url(#p4b6dbb1639)" style="fill: none; stroke: #ffffff; stroke-opacity: 0.9; stroke-width: 0.4; stroke-linecap: square"/>
   </g>
   <g id="line2d_19">
    <path d="M 45.541278 0 
L 368.64 158.571899 
" clip-path="url(#p4b6dbb1639)" style="fill: none; stroke-dasharray: 0.4,0.66; stroke-dashoffset: 0; stroke: #ffffff; stroke-opacity: 0.9; stroke-width: 0.4"/>
   </g>
   <g id="line2d_20">
    <path d="M 0 191.825165 
L 368.64 34.016704 
" clip-path="url(#p4b6dbb1639)" style="fill: none; stroke-dasharray: 0.4,0.66; stroke-dashoffset: 0; stroke: #ffffff; stroke-opacity: 0.9; stroke-width: 0.4"/>
   </g>
   <g id="line2d_21">
    <path d="M 0 191.825165 
L 368.64 34.016704 
" clip-path="url(#p4b6dbb1639)" style="fill: none; stroke-dasharray: 0.4,0.66; stroke-dashoffset: 0; stroke: #ffffff; stroke-opacity: 0.9; stroke-width: 0.4"/>
   </g>
   <g id="line2d_22">
    <path d="M 145.828931 368.64 
L 262.124557 0 
" clip-path="url(#p4b6dbb1639)" style="fill: none; stroke-dasharray: 0.4,0.66; stroke-dashoffset: 0; stroke: #ffffff; stroke-opacity: 0.9; stroke-width: 0.4"/>
   </g>
   <g id="line2d_23">
    <path d="M 145.828931 368.64 
L 262.124557 0 
" clip-path="url(#p4b6dbb1639)" style="fill: none; stroke-dasharray: 0.4,0.66; stroke-dashoffset: 0; stroke: #ffffff; stroke-opacity: 0.9; stroke-width: 0.4"/>
   </g>
   <g id="line2d_24">
    <path d="M 149.784105 368.64 
L 179.06592 0 
" clip-path="url(#p4b6dbb1639)" style="fill: none; stroke-dasharray: 0.4,0.66; stroke-dashoffset: 0; stroke: #ffffff; stroke-opacity: 0.9; stroke-width: 0.4"/>
   </g>
   <g id="line2d_25">
    <path d="M 149.784105 368.64 
L 179.06592 0 
" clip-path="url(#p4b6dbb1639)" style="fill: none; stroke-dasharray: 0.4,0.66; stroke-dashoffset: 0; stroke: #ffffff; stroke-opacity: 0.9; stroke-width: 0.4"/>
   </g>
   <g id="line2d_26">
    <path d="M 98.991124 0 
L 153.59719 368.64 
" clip-path="url(#p4b6dbb1639)" style="fill: none; stroke-dasharray: 0.4,0.66; stroke-dashoffset: 0; stroke: #ffffff; stroke-opacity: 0.9; stroke-width: 0.4"/>
   </g>
   <g id="line2d_27">
    <path d="M 45.541278 0 
L 368.64 158.571899 
" clip-path="url(#p4b6dbb1639)" style="fill: none; stroke-dasharray: 0.4,0.66; stroke-dashoffset: 0; stroke: #ffffff; stroke-opacity: 0.9; stroke-width: 0.4"/>
   </g>
   <g id="line2d_28">
    <path d="M 82.520795 0 
L 351.755634 368.64 
" clip-path="url(#p4b6dbb1639)" style="fill: none; stroke-dasharray: 0.4,0.66; stroke-dashoffset: 0; stroke: #ffffff; stroke-opacity: 0.9; stroke-width: 0.4"/>
   </g>
   <g id="line2d_29">
    <path d="M 82.520795 0 
L 351.755634 368.64 
" clip-path="url(#p4b6dbb1639)" style="fill: none; stroke-dasharray: 0.4,0.66; stroke-dashoffset: 0; stroke: #ffffff; stroke-opacity: 0.9; stroke-width: 0.4"/>
   </g>
   <g id="line2d_30">
    <path d="M 98.991124 0 
L 153.59719 368.64 
" clip-path="url(#p4b6dbb1639)" style="fill: none; stroke-dasharray: 0.4,0.66; stroke-dashoffset: 0; stroke: #ffffff; stroke-opacity: 0.9; stroke-width: 0.4"/>
   </g>
   <g id="line2d_31">
    <path d="M 98.991124 0 
L 153.59719 368.64 
" clip-path="url(#p4b6dbb1639)" style="fill: none; stroke-dasharray: 1.48,0.64; stroke-dashoffset: 0; stroke: #ffffff; stroke-width: 0.4"/>
   </g>
   <g id="line2d_32">
    <path d="M 98.991124 0 
L 153.59719 368.64 
" clip-path="url(#p4b6dbb1639)" style="fill: none; stroke: #ffffff; stroke-opacity: 0.9; stroke-width: 0.4; stroke-linecap: square"/>
   </g>
   <g id="line2d_33">
    <path d="M 0 144.346099 
L 368.64 89.740032 
" clip-path="url(#p4b6dbb1639)" style="fill: none; stroke: #ffffff; stroke-opacity: 0.9; stroke-width: 0.4; stroke-linecap: square"/>
   </g>
   <g id="line2d_34">
    <path d="M 145.828931 368.64 
L 262.124557 0 
" clip-path="url(#p4b6dbb1639)" style="fill: none; stroke-dasharray: 1.48,0.64; stroke-dashoffset: 0; stroke: #ffffff; stroke-width: 0.4"/>
   </g>
   <g id="line2d_35">
    <path d="M 145.828931 368.64 
L 262.124557 0 
" clip-path="url(#p4b6dbb1639)" style="fill: none; stroke: #ffffff; stroke-opacity: 0.9; stroke-width: 0.4; stroke-linecap: square"/>
   </g>
   <g id="line2d_36">
    <path d="M 0 65.721443 
L 368.64 182.017068 
" clip-path="url(#p4b6dbb1639)" style="fill: none; stroke: #ffffff; stroke-opacity: 0.9; stroke-width: 0.4; stroke-linecap: square"/>
   </g>
   <g id="line2d_37">
    <path d="M 45.541278 0 
L 368.64 158.571899 
" clip-path="url(#p4b6dbb1639)" style="fill: none; stroke-dasharray: 1.48,0.64; stroke-dashoffset: 0; stroke: #ffffff; stroke-width: 0.4"/>
   </g>
   <g id="line2d_38">
    <path d="M 45.541278 0 
L 368.64 158.571899 
" clip-path="url(#p4b6dbb1639)" style="fill: none; stroke: #ffffff; stroke-opacity: 0.9; stroke-width: 0.4; stroke-linecap: square"/>
   </g>
   <g id="line2d_39">
    <path d="M 47.186232 368.64 
L 228.109092 0 
" clip-path="url(#p4b6dbb1639)" style="fill: none; stroke: #ffffff; stroke-opacity: 0.9; stroke-width: 0.4; stroke-linecap: square"/>
   </g>
   <g id="line2d_40">
    <path d="M 169.595706 119.224152 
L 117.788369 126.898292 
" clip-path="url(#p4b6dbb1639)" style="fill: none; stroke: #ffffff; stroke-opacity: 0.9; stroke-width: 0.4; stroke-linecap: square"/>
   </g>
   <g id="line2d_41">
    <path d="M 169.595706 119.224152 
L 219.541891 134.980778 
" clip-path="url(#p4b6dbb1639)" style="fill: none; stroke: #ffffff; stroke-opacity: 0.9; stroke-width: 0.4; stroke-linecap: square"/>
   </g>
   <g id="line2d_42">
    <path d="M 169.595706 119.224152 
L 219.541891 134.980778 
" clip-path="url(#p4b6dbb1639)" style="fill: none; stroke: #ffffff; stroke-opacity: 0.9; stroke-width: 0.4; stroke-linecap: square"/>
   </g>
   <g id="line2d_43">
    <path d="M 169.595706 119.224152 
L 192.670207 72.208623 
" clip-path="url(#p4b6dbb1639)" style="fill: none; stroke: #ffffff; stroke-opacity: 0.9; stroke-width: 0.4; stroke-linecap: square"/>
   </g>
   <g id="line2d_44">
    <path d="M 0 126.571414 
L 368.64 71.965348 
" clip-path="url(#p4b6dbb1639)" style="fill: none; stroke: #ffffff; stroke-opacity: 0.9; stroke-width: 0.4; stroke-linecap: square"/>
   </g>
   <g id="line2d_45">
    <path d="M 98.991124 0 
L 153.59719 368.64 
" clip-path="url(#p4b6dbb1639)" style="fill: none; stroke: #ffffff; stroke-opacity: 0.9; stroke-width: 0.4; stroke-linecap: square"/>
   </g>
   <g id="line2d_46">
    <path d="M 98.991124 0 
L 153.59719 368.64 
" clip-path="url(#p4b6dbb1639)" style="fill: none; stroke-dasharray: 1.48,0.64; stroke-dashoffset: 0; stroke: #ffffff; stroke-width: 0.4"/>
   </g>
   <g id="line2d_47">
    <path d="M 145.828931 368.64 
L 262.124557 0 
" clip-path="url(#p4b6dbb1639)" style="fill: none; stroke: #ffffff; stroke-opacity: 0.9; stroke-width: 0.4; stroke-linecap: square"/>
   </g>
   <g id="line2d_48">
    <path d="M 13.509725 0 
L 368.64 112.033685 
" clip-path="url(#p4b6dbb1639)" style="fill: none; stroke: #ffffff; stroke-opacity: 0.9; stroke-width: 0.4; stroke-linecap: square"/>
   </g>
   <g id="line2d_49">
    <path d="M 145.828931 368.64 
L 262.124557 0 
" clip-path="url(#p4b6dbb1639)" style="fill: none; stroke-dasharray: 1.48,0.64; stroke-dashoffset: 0; stroke: #ffffff; stroke-width: 0.4"/>
   </g>
   <g id="line2d_50">
    <path d="M 45.541278 0 
L 368.64 158.571899 
" clip-path="url(#p4b6dbb1639)" style="fill: none; stroke: #ffffff; stroke-opacity: 0.9; stroke-width: 0.4; stroke-linecap: square"/>
   </g>
   <g id="line2d_51">
    <path d="M 142.89133 368.64 
L 323.81419 0 
" clip-path="url(#p4b6dbb1639)" style="fill: none; stroke: #ffffff; stroke-opacity: 0.9; stroke-width: 0.4; stroke-linecap: square"/>
   </g>
   <g id="line2d_52">
    <path d="M 45.541278 0 
L 368.64 158.571899 
" clip-path="url(#p4b6dbb1639)" style="fill: none; stroke-dasharray: 1.48,0.64; stroke-dashoffset: 0; stroke: #ffffff; stroke-width: 0.4"/>
   </g>
   <g id="line2d_53">
    <path d="M 115.211965 109.505246 
L 117.788369 126.898292 
" clip-path="url(#p4b6dbb1639)" style="fill: none; stroke: #ffffff; stroke-opacity: 0.9; stroke-width: 0.4; stroke-linecap: square"/>
   </g>
   <g id="line2d_54">
    <path d="M 117.788369 126.898292 
L 112.498468 143.666501 
" clip-path="url(#p4b6dbb1639)" style="fill: none; stroke: #ffffff; stroke-opacity: 0.9; stroke-width: 0.4; stroke-linecap: square"/>
   </g>
   <g id="line2d_55">
    <path d="M 115.211965 109.505246 
L 219.541891 134.980778 
" clip-path="url(#p4b6dbb1639)" style="fill: none; stroke: #ffffff; stroke-opacity: 0.9; stroke-width: 0.4; stroke-linecap: square"/>
   </g>
   <g id="line2d_56">
    <path d="M 219.541891 134.980778 
L 112.498468 143.666501 
" clip-path="url(#p4b6dbb1639)" style="fill: none; stroke: #ffffff; stroke-opacity: 0.9; stroke-width: 0.4; stroke-linecap: square"/>
   </g>
   <g id="line2d_57">
    <path d="M 94.628371 368.64 
L 123.910186 0 
" clip-path="url(#p4b6dbb1639)" style="fill: none; stroke: #ffffff; stroke-opacity: 0.9; stroke-width: 0.4; stroke-linecap: square"/>
   </g>
   <g id="line2d_58">
    <path d="M 0 117.542125 
L 368.64 146.823941 
" clip-path="url(#p4b6dbb1639)" style="fill: none; stroke: #ffffff; stroke-opacity: 0.9; stroke-width: 0.4; stroke-linecap: square"/>
   </g>
   <g id="line2d_59">
    <path d="M 239.621335 71.331899 
L 117.788369 126.898292 
" clip-path="url(#p4b6dbb1639)" style="fill: none; stroke: #ffffff; stroke-opacity: 0.9; stroke-width: 0.4; stroke-linecap: square"/>
   </g>
   <g id="line2d_60">
    <path d="M 117.788369 126.898292 
L 229.321425 201.001417 
" clip-path="url(#p4b6dbb1639)" style="fill: none; stroke: #ffffff; stroke-opacity: 0.9; stroke-width: 0.4; stroke-linecap: square"/>
   </g>
   <g id="line2d_61">
    <path d="M 239.621335 71.331899 
L 219.541891 134.980778 
" clip-path="url(#p4b6dbb1639)" style="fill: none; stroke: #ffffff; stroke-opacity: 0.9; stroke-width: 0.4; stroke-linecap: square"/>
   </g>
   <g id="line2d_62">
    <path d="M 219.541891 134.980778 
L 229.321425 201.001417 
" clip-path="url(#p4b6dbb1639)" style="fill: none; stroke: #ffffff; stroke-opacity: 0.9; stroke-width: 0.4; stroke-linecap: square"/>
   </g>
   <g id="line2d_63">
    <path d="M 216.005555 368.64 
L 245.287371 0 
" clip-path="url(#p4b6dbb1639)" style="fill: none; stroke: #ffffff; stroke-opacity: 0.9; stroke-width: 0.4; stroke-linecap: square"/>
   </g>
   <g id="line2d_64">
    <path d="M 0 117.542125 
L 368.64 146.823941 
" clip-path="url(#p4b6dbb1639)" style="fill: none; stroke: #ffffff; stroke-opacity: 0.9; stroke-width: 0.4; stroke-linecap: square"/>
   </g>
   <g id="line2d_65">
    <path d="M 239.621335 71.331899 
L 219.541891 134.980778 
" clip-path="url(#p4b6dbb1639)" style="fill: none; stroke: #ffffff; stroke-opacity: 0.9; stroke-width: 0.4; stroke-linecap: square"/>
   </g>
   <g id="line2d_66">
    <path d="M 219.541891 134.980778 
L 159.627689 105.575807 
" clip-path="url(#p4b6dbb1639)" style="fill: none; stroke: #ffffff; stroke-opacity: 0.9; stroke-width: 0.4; stroke-linecap: square"/>
   </g>
   <g id="line2d_67">
    <path d="M 239.621335 71.331899 
L 192.670207 72.208623 
" clip-path="url(#p4b6dbb1639)" style="fill: none; stroke: #ffffff; stroke-opacity: 0.9; stroke-width: 0.4; stroke-linecap: square"/>
   </g>
   <g id="line2d_68">
    <path d="M 192.670207 72.208623 
L 159.627689 105.575807 
" clip-path="url(#p4b6dbb1639)" style="fill: none; stroke: #ffffff; stroke-opacity: 0.9; stroke-width: 0.4; stroke-linecap: square"/>
   </g>
   <g id="line2d_69">
    <path d="M 0 173.909683 
L 368.64 16.101221 
" clip-path="url(#p4b6dbb1639)" style="fill: none; stroke: #ffffff; stroke-opacity: 0.9; stroke-width: 0.4; stroke-linecap: square"/>
   </g>
   <g id="line2d_70">
    <path d="M 161.758934 0 
L 319.567396 368.64 
" clip-path="url(#p4b6dbb1639)" style="fill: none; stroke: #ffffff; stroke-opacity: 0.9; stroke-width: 0.4; stroke-linecap: square"/>
   </g>
   <g id="line2d_71">
    <path d="M 269.797649 110.061589 
L 219.541891 134.980778 
" clip-path="url(#p4b6dbb1639)" style="fill: none; stroke: #ffffff; stroke-opacity: 0.9; stroke-width: 0.4; stroke-linecap: square"/>
   </g>
   <g id="line2d_72">
    <path d="M 219.541891 134.980778 
L 166.821976 154.143708 
" clip-path="url(#p4b6dbb1639)" style="fill: none; stroke: #ffffff; stroke-opacity: 0.9; stroke-width: 0.4; stroke-linecap: square"/>
   </g>
   <g id="line2d_73">
    <path d="M 269.797649 110.061589 
L 192.670207 72.208623 
" clip-path="url(#p4b6dbb1639)" style="fill: none; stroke: #ffffff; stroke-opacity: 0.9; stroke-width: 0.4; stroke-linecap: square"/>
   </g>
   <g id="line2d_74">
    <path d="M 192.670207 72.208623 
L 166.821976 154.143708 
" clip-path="url(#p4b6dbb1639)" style="fill: none; stroke: #ffffff; stroke-opacity: 0.9; stroke-width: 0.4; stroke-linecap: square"/>
   </g>
   <g id="line2d_75">
    <path d="M 0 225.557335 
L 368.64 67.748873 
" clip-path="url(#p4b6dbb1639)" style="fill: none; stroke: #ffffff; stroke-opacity: 0.9; stroke-width: 0.4; stroke-linecap: square"/>
   </g>
   <g id="line2d_76">
    <path d="M 161.758934 0 
L 319.567396 368.64 
" clip-path="url(#p4b6dbb1639)" style="fill: none; stroke: #ffffff; stroke-opacity: 0.9; stroke-width: 0.4; stroke-linecap: square"/>
   </g>
   <g id="line2d_77">
    <path d="M 0 88.453978 
L 368.64 269.376838 
" clip-path="url(#p4b6dbb1639)" style="fill: none; stroke-dasharray: 1.48,0.64; stroke-dashoffset: 0; stroke: #ffffff; stroke-width: 0.4"/>
   </g>
   <g id="line2d_78">
    <path d="M 143.98891 0 
L 198.594976 368.64 
" clip-path="url(#p4b6dbb1639)" style="fill: none; stroke-dasharray: 1.48,0.64; stroke-dashoffset: 0; stroke: #ffffff; stroke-width: 0.4"/>
   </g>
   <g id="patch_23">
    <path d="M 0 368.64 
L 0 0 
" style="fill: none; stroke: #000000; stroke-width: 0.8; stroke-linejoin: miter; stroke-linecap: square"/>
   </g>
   <g id="patch_24">
    <path d="M 368.64 368.64 
L 368.64 0 
" style="fill: none; stroke: #000000; stroke-width: 0.8; stroke-linejoin: miter; stroke-linecap: square"/>
   </g>
   <g id="patch_25">
    <path d="M 0 368.64 
L 368.64 368.64 
" style="fill: none; stroke: #000000; stroke-width: 0.8; stroke-linejoin: miter; stroke-linecap: square"/>
   </g>
   <g id="patch_26">
    <path d="M 0 0 
L 368.64 0 
" style="fill: none; stroke: #000000; stroke-width: 0.8; stroke-linejoin: miter; stroke-linecap: square"/>
   </g>
   <g id="text_13">
    <!-- A -->
    <g style="fill: #00ff00" transform="translate(233.087058 92.044593) scale(0.1 -0.1)">
     <defs>
      <path id="DejaVuSans-41" d="M 2188 4044 
L 1331 1722 
L 3047 1722 
L 2188 4044 
z
M 1831 4666 
L 2547 4666 
L 4325 0 
L 3669 0 
L 3244 1197 
L 1141 1197 
L 716 0 
L 50 0 
L 1831 4666 
z
" transform="scale(0.015625)"/>
     </defs>
     <use xlink:href="#DejaVuSans-41"/>
    </g>
   </g>
   <g id="text_14">
    <!-- B -->
    <g style="fill: #00ff00" transform="translate(103.181521 28.288948) scale(0.1 -0.1)">
     <defs>
      <path id="DejaVuSans-42" d="M 1259 2228 
L 1259 519 
L 2272 519 
Q 2781 519 3026 730 
Q 3272 941 3272 1375 
Q 3272 1813 3026 2020 
Q 2781 2228 2272 2228 
L 1259 2228 
z
M 1259 4147 
L 1259 2741 
L 2194 2741 
Q 2656 2741 2882 2914 
Q 3109 3088 3109 3444 
Q 3109 3797 2882 3972 
Q 2656 4147 2194 4147 
L 1259 4147 
z
M 628 4666 
L 2241 4666 
Q 2963 4666 3353 4366 
Q 3744 4066 3744 3513 
Q 3744 3084 3544 2831 
Q 3344 2578 2956 2516 
Q 3422 2416 3680 2098 
Q 3938 1781 3938 1306 
Q 3938 681 3513 340 
Q 3088 0 2303 0 
L 628 0 
L 628 4666 
z
" transform="scale(0.015625)"/>
     </defs>
     <use xlink:href="#DejaVuSans-42"/>
    </g>
   </g>
   <g id="text_15">
    <!-- C -->
    <g style="fill: #00ff00" transform="translate(151.115096 351.883636) scale(0.1 -0.1)">
     <defs>
      <path id="DejaVuSans-43" d="M 4122 4306 
L 4122 3641 
Q 3803 3938 3442 4084 
Q 3081 4231 2675 4231 
Q 1875 4231 1450 3742 
Q 1025 3253 1025 2328 
Q 1025 1406 1450 917 
Q 1875 428 2675 428 
Q 3081 428 3442 575 
Q 3803 722 4122 1019 
L 4122 359 
Q 3791 134 3420 21 
Q 3050 -91 2638 -91 
Q 1578 -91 968 557 
Q 359 1206 359 2328 
Q 359 3453 968 4101 
Q 1578 4750 2638 4750 
Q 3056 4750 3426 4639 
Q 3797 4528 4122 4306 
z
" transform="scale(0.015625)"/>
     </defs>
     <use xlink:href="#DejaVuSans-43"/>
    </g>
   </g>
   <g id="text_16">
    <!-- H -->
    <g style="fill: #00ff00" transform="translate(282.211414 84.767879) scale(0.1 -0.1)">
     <defs>
      <path id="DejaVuSans-48" d="M 628 4666 
L 1259 4666 
L 1259 2753 
L 3553 2753 
L 3553 4666 
L 4184 4666 
L 4184 0 
L 3553 0 
L 3553 2222 
L 1259 2222 
L 1259 0 
L 628 0 
L 628 4666 
z
" transform="scale(0.015625)"/>
     </defs>
     <use xlink:href="#DejaVuSans-48"/>
    </g>
   </g>
   <g id="text_17">
    <!-- I -->
    <g style="fill: #00ff00" transform="translate(169.595706 119.224152) scale(0.1 -0.1)">
     <defs>
      <path id="DejaVuSans-49" d="M 628 4666 
L 1259 4666 
L 1259 0 
L 628 0 
L 628 4666 
z
" transform="scale(0.015625)"/>
     </defs>
     <use xlink:href="#DejaVuSans-49"/>
    </g>
   </g>
   <g id="text_18">
    <!-- T₁ -->
    <g style="fill: #00ff00" transform="translate(117.788369 126.898292) scale(0.1 -0.1)">
     <defs>
      <path id="DejaVuSans-54" d="M -19 4666 
L 3928 4666 
L 3928 4134 
L 2272 4134 
L 2272 0 
L 1638 0 
L 1638 4134 
L -19 4134 
L -19 4666 
z
" transform="scale(0.015625)"/>
      <path id="DejaVuSans-2081" d="M 488 319 
L 1125 319 
L 1125 2229 
L 428 2101 
L 428 2463 
L 1147 2585 
L 1575 2585 
L 1575 319 
L 2216 319 
L 2216 -24 
L 488 -24 
L 488 319 
z
" transform="scale(0.015625)"/>
     </defs>
     <use xlink:href="#DejaVuSans-54"/>
     <use xlink:href="#DejaVuSans-2081" x="61.083984"/>
    </g>
   </g>
   <g id="text_19">
    <!-- T₂ -->
    <g style="fill: #00ff00" transform="translate(219.541891 134.980778) scale(0.1 -0.1)">
     <defs>
      <path id="DejaVuSans-2082" d="M 838 332 
L 2163 332 
L 2163 -24 
L 294 -24 
L 294 319 
Q 400 416 597 591 
Q 1672 1544 1672 1838 
Q 1672 2044 1509 2170 
Q 1347 2297 1081 2297 
Q 919 2297 728 2242 
Q 538 2188 313 2079 
L 313 2463 
Q 553 2551 761 2594 
Q 969 2638 1147 2638 
Q 1600 2638 1872 2432 
Q 2144 2226 2144 1888 
Q 2144 1454 1109 566 
Q 934 416 838 332 
z
" transform="scale(0.015625)"/>
     </defs>
     <use xlink:href="#DejaVuSans-54"/>
     <use xlink:href="#DejaVuSans-2082" x="61.083984"/>
    </g>
   </g>
   <g id="text_20">
    <!-- T₃ -->
    <g style="fill: #00ff00" transform="translate(192.670207 72.208623) scale(0.1 -0.1)">
     <defs>
      <path id="DejaVuSans-2083" d="M 1638 1388 
Q 1925 1332 2083 1161 
Q 2241 991 2241 735 
Q 2241 347 1944 138 
Q 1647 -71 1094 -71 
Q 916 -71 720 -38 
Q 525 -6 306 57 
L 306 435 
Q 469 351 655 310 
Q 841 269 1050 269 
Q 1391 269 1578 392 
Q 1766 516 1766 735 
Q 1766 966 1592 1085 
Q 1419 1204 1081 1204 
L 813 1204 
L 813 1541 
L 1106 1541 
Q 1400 1541 1551 1639 
Q 1703 1738 1703 1926 
Q 1703 2107 1547 2202 
Q 1391 2297 1094 2297 
Q 969 2297 809 2269 
Q 650 2241 397 2169 
L 397 2529 
Q 625 2582 825 2610 
Q 1025 2638 1197 2638 
Q 1647 2638 1911 2453 
Q 2175 2269 2175 1960 
Q 2175 1744 2034 1594 
Q 1894 1444 1638 1388 
z
" transform="scale(0.015625)"/>
     </defs>
     <use xlink:href="#DejaVuSans-54"/>
     <use xlink:href="#DejaVuSans-2083" x="61.083984"/>
    </g>
   </g>
   <g id="text_21">
    <!-- H₁ -->
    <g style="fill: #00ff00" transform="translate(115.211965 109.505246) scale(0.1 -0.1)">
     <use xlink:href="#DejaVuSans-48"/>
     <use xlink:href="#DejaVuSans-2081" x="75.195312"/>
    </g>
   </g>
   <g id="text_22">
    <!-- H₂ -->
    <g style="fill: #00ff00" transform="translate(239.621335 71.331899) scale(0.1 -0.1)">
     <use xlink:href="#DejaVuSans-48"/>
     <use xlink:href="#DejaVuSans-2082" x="75.195312"/>
    </g>
   </g>
   <g id="text_23">
    <!-- H₃ -->
    <g style="fill: #00ff00" transform="translate(269.797649 110.061589) scale(0.1 -0.1)">
     <use xlink:href="#DejaVuSans-48"/>
     <use xlink:href="#DejaVuSans-2083" x="75.195312"/>
    </g>
   </g>
   <g id="text_24">
    <!-- X₁ -->
    <g style="fill: #00ff00" transform="translate(112.498468 143.666501) scale(0.1 -0.1)">
     <defs>
      <path id="DejaVuSans-58" d="M 403 4666 
L 1081 4666 
L 2241 2931 
L 3406 4666 
L 4084 4666 
L 2584 2425 
L 4184 0 
L 3506 0 
L 2194 1984 
L 872 0 
L 191 0 
L 1856 2491 
L 403 4666 
z
" transform="scale(0.015625)"/>
     </defs>
     <use xlink:href="#DejaVuSans-58"/>
     <use xlink:href="#DejaVuSans-2081" x="68.505859"/>
    </g>
   </g>
   <g id="text_25">
    <!-- X₂ -->
    <g style="fill: #00ff00" transform="translate(229.321425 201.001417) scale(0.1 -0.1)">
     <use xlink:href="#DejaVuSans-58"/>
     <use xlink:href="#DejaVuSans-2082" x="68.505859"/>
    </g>
   </g>
   <g id="text_26">
    <!-- Y₂ -->
    <g style="fill: #00ff00" transform="translate(159.627689 105.575807) scale(0.1 -0.1)">
     <defs>
      <path id="DejaVuSans-59" d="M -13 4666 
L 666 4666 
L 1959 2747 
L 3244 4666 
L 3922 4666 
L 2272 2222 
L 2272 0 
L 1638 0 
L 1638 2222 
L -13 4666 
z
" transform="scale(0.015625)"/>
     </defs>
     <use xlink:href="#DejaVuSans-59"/>
     <use xlink:href="#DejaVuSans-2082" x="61.083984"/>
    </g>
   </g>
   <g id="text_27">
    <!-- Y₃ -->
    <g style="fill: #00ff00" transform="translate(166.821976 154.143708) scale(0.1 -0.1)">
     <use xlink:href="#DejaVuSans-59"/>
     <use xlink:href="#DejaVuSans-2083" x="61.083984"/>
    </g>
   </g>
   <g id="text_28">
    <!-- Z -->
    <g style="fill: #00ff00" transform="translate(169.407222 171.596445) scale(0.1 -0.1)">
     <defs>
      <path id="DejaVuSans-5a" d="M 359 4666 
L 4025 4666 
L 4025 4184 
L 1075 531 
L 4097 531 
L 4097 0 
L 288 0 
L 288 481 
L 3238 4134 
L 359 4134 
L 359 4666 
z
" transform="scale(0.015625)"/>
     </defs>
     <use xlink:href="#DejaVuSans-5a"/>
    </g>
   </g>
  </g>
 </g>
 <defs>
  <clipPath id="p4b6dbb1639">
   <rect x="0" y="0" width="368.64" height="368.64"/>
  </clipPath>
 </defs>
</svg>
