<?xml version="1.0" encoding="utf-8" standalone="no"?>
<!DOCTYPE svg PUBLIC "-//W3C//DTD SVG 1.1//EN"
  "http://www.w3.org/Graphics/SVG/1.1/DTD/svg11.dtd">
<svg xmlns:xlink="http://www.w3.org/1999/xlink" width="368.64pt" height="368.64pt" viewBox="0 0 368.64 368.64" xmlns="http://www.w3.org/2000/svg" version="1.1">
 <metadata>
  <rdf:RDF xmlns:dc="http://purl.org/dc/elements/1.1/" xmlns:cc="http://creativecommons.org/ns#" xmlns:rdf="http://www.w3.org/1999/02/22-rdf-syntax-ns#">
   <cc:Work>
    <dc:type rdf:resource="http://purl.org/dc/dcmitype/StillImage"/>
    <dc:date>2024-08-27T08:53:19.857933</dc:date>
    <dc:format>image/svg+xml</dc:format>
    <dc:creator>
     <cc:Agent>
      <dc:title>Matplotlib v3.9.2, https://matplotlib.org/</dc:title>
     </cc:Agent>
    </dc:creator>
   </cc:Work>
  </rdf:RDF>
 </metadata>
 <defs>
  <style type="text/css">*{stroke-linejoin: round; stroke-linecap: butt}</style>
 </defs>
 <g id="figure_1">
  <g id="patch_1">
   <path d="M 0 368.64 
L 368.64 368.64 
L 368.64 0 
L 0 0 
z
" style="fill: #ffffff"/>
  </g>
  <g id="axes_1">
   <g id="patch_2">
    <path d="M 0 368.64 
L 368.64 368.64 
L 368.64 0 
L 0 0 
z
"/>
   </g>
   <g id="patch_3">
    <path d="M 252.962525 151.812438 
L 155.662941 104.059294 
L 191.565313 346.432556 
z
" clip-path="url(#pdbcc6b1a84)" style="fill: #1f77b4"/>
   </g>
   <g id="patch_4">
    <path d="M 245.123537 147.965183 
C 244.832984 148.557199 244.61043 149.180228 244.460135 149.822346 
C 244.309839 150.464463 244.232767 151.121544 244.230393 151.781012 
L 245.103607 151.784155 
C 245.105743 151.190634 245.175108 150.59926 245.310374 150.021355 
C 245.44564 149.443449 245.645939 148.882723 245.907436 148.349909 
z
" clip-path="url(#pdbcc6b1a84)" style="fill: #3cb44b; opacity: 0.5; stroke: #3cb44b; stroke-linejoin: miter"/>
   </g>
   <g id="patch_5">
    <path d="M 194.192445 338.104934 
C 193.563526 337.906528 192.914151 337.780005 192.25675 337.727786 
C 191.599349 337.675567 190.938143 337.697989 190.285789 337.794621 
L 190.413741 338.658414 
C 191.00086 338.571445 191.595945 338.551266 192.187606 338.598263 
C 192.779267 338.64526 193.363705 338.759131 193.929731 338.937697 
z
" clip-path="url(#pdbcc6b1a84)" style="fill: #3cb44b; opacity: 0.5; stroke: #3cb44b; stroke-linejoin: miter"/>
   </g>
   <g id="patch_6">
    <path d="M 150.785781 71.134085 
C 145.450905 71.924332 140.387171 73.999482 136.031962 77.180292 
C 131.676754 80.361102 128.159182 84.553277 125.783078 89.394715 
L 128.771064 90.861173 
C 130.909557 86.503879 134.075372 82.730921 137.99506 79.868192 
C 141.914748 77.005463 146.472108 75.137828 151.273497 74.426606 
z
" clip-path="url(#pdbcc6b1a84)" style="fill: #ffe119; opacity: 0.5; stroke: #ffe119; stroke-linejoin: miter"/>
   </g>
   <g id="patch_7">
    <path d="M 284.782768 142.048823 
C 283.200768 136.892984 280.389116 132.198066 276.590669 128.369595 
C 272.792221 124.541123 268.119585 121.692594 262.976362 120.070051 
L 261.974978 123.24429 
C 266.603879 124.704579 270.809252 127.268255 274.227854 130.713879 
C 277.646457 134.159504 280.176944 138.38493 281.600744 143.025185 
z
" clip-path="url(#pdbcc6b1a84)" style="fill: #ffe119; opacity: 0.5; stroke: #ffe119; stroke-linejoin: miter"/>
   </g>
   <g id="patch_8">
    <path d="M 152.393709 81.989043 
C 135.773368 84.450989 120.575223 92.795136 109.576648 105.496642 
C 98.578072 118.198148 92.492499 134.433116 92.432032 151.234701 
L 99.45767 151.259986 
C 99.512091 136.138559 104.989106 121.527088 114.887824 110.095733 
C 124.786542 98.664377 138.464872 91.154645 153.423179 88.938894 
z
" clip-path="url(#pdbcc6b1a84)" style="fill: #4363d8; opacity: 0.5; stroke: #4363d8; stroke-linejoin: miter"/>
   </g>
   <g id="patch_9">
    <path d="M 233.825279 157.684446 
C 228.896696 141.621881 218.365997 127.848255 204.157605 118.880618 
C 189.949213 109.912981 172.98477 106.333027 156.364429 108.794972 
L 157.3939 115.744822 
C 172.352207 113.529072 187.620205 116.75103 200.407758 124.821904 
C 213.19531 132.892777 222.67294 145.289041 227.108664 159.745349 
z
" clip-path="url(#pdbcc6b1a84)" style="fill: #4363d8; opacity: 0.5; stroke: #4363d8; stroke-linejoin: miter"/>
   </g>
   <g id="patch_10">
    <path d="M 142.730894 16.756364 
C 128.585188 18.851745 115.158431 24.354114 103.610365 32.7882 
C 92.062299 41.222287 82.735271 52.338059 76.434906 65.17539 
L 84.35771 69.06378 
C 90.028038 57.510183 98.422363 47.505987 108.815622 39.915309 
C 119.208882 32.324632 131.292963 27.3725 144.024099 25.486657 
z
" clip-path="url(#pdbcc6b1a84)" style="fill: #f58231; opacity: 0.5; stroke: #f58231; stroke-linejoin: miter"/>
   </g>
   <g id="patch_11">
    <path d="M 337.335581 125.923697 
C 333.140824 112.252718 325.685579 99.803896 315.613796 89.652501 
C 305.542012 79.501107 293.152271 71.948082 279.514742 67.645822 
L 276.85952 76.062484 
C 289.133296 79.934517 300.284063 86.73224 309.348669 95.868495 
C 318.413274 105.00475 325.122994 116.20869 328.898275 128.512571 
z
" clip-path="url(#pdbcc6b1a84)" style="fill: #f58231; opacity: 0.5; stroke: #f58231; stroke-linejoin: miter"/>
   </g>
   <g id="patch_12">
    <path d="M 156.988288 113.006577 
C 147.785689 114.369744 139.370553 118.989856 133.280697 126.022616 
C 127.190841 133.055375 123.82129 142.044595 123.78781 151.347548 
L 127.67787 151.361548 
C 127.708003 142.988891 130.740599 134.898593 136.221469 128.569109 
C 141.702339 122.239625 149.275961 118.081524 157.5583 116.854674 
z
" clip-path="url(#pdbcc6b1a84)" style="fill: #911eb4; opacity: 0.5; stroke: #911eb4; stroke-linejoin: miter"/>
   </g>
   <g id="patch_13">
    <path d="M 203.848689 166.88236 
C 201.119758 157.988599 195.288963 150.362212 187.421848 145.396877 
C 179.554733 140.431541 170.161607 138.449339 160.959008 139.812506 
L 161.52902 143.660603 
C 169.81136 142.433753 178.265173 144.217735 185.345577 148.686537 
C 192.42598 153.155339 197.673695 160.019087 200.129734 168.023472 
z
" clip-path="url(#pdbcc6b1a84)" style="fill: #911eb4; opacity: 0.5; stroke: #911eb4; stroke-linejoin: miter"/>
   </g>
   <g id="patch_14">
    <path d="M 112.317021 151.306266 
C 112.329449 147.853162 111.893586 144.413007 111.02037 141.072113 
C 110.147154 137.731219 108.843949 134.517763 107.143451 131.51237 
L 103.670536 133.477399 
C 105.200984 136.182253 106.373869 139.074363 107.159763 142.081168 
C 107.945658 145.087972 108.337934 148.184112 108.326749 151.291905 
z
" clip-path="url(#pdbcc6b1a84)" style="fill: #46f0f0; opacity: 0.5; stroke: #46f0f0; stroke-linejoin: miter"/>
   </g>
   <g id="patch_15">
    <path d="M 185.718346 306.96028 
C 182.302492 307.466265 178.966723 308.413519 175.794733 309.778274 
C 172.622743 311.143029 169.641284 312.913776 166.92516 315.046087 
L 169.389175 318.184734 
C 171.833687 316.265654 174.517 314.671982 177.371791 313.443702 
C 180.226582 312.215423 183.228774 311.362894 186.303043 310.907508 
z
" clip-path="url(#pdbcc6b1a84)" style="fill: #46f0f0; opacity: 0.5; stroke: #46f0f0; stroke-linejoin: miter"/>
   </g>
   <g id="patch_16">
    <path d="M 209.96212 130.708499 
C 214.296603 121.876757 216.411624 112.11943 216.123134 102.285602 
C 215.834644 92.451774 213.15126 82.835214 208.306491 74.272761 
L 203.042136 77.251414 
C 207.402428 84.957622 209.817473 93.612526 210.077115 102.462971 
C 210.336756 111.313416 208.433237 120.095011 204.532202 128.043578 
z
" clip-path="url(#pdbcc6b1a84)" style="fill: #f032e6; opacity: 0.5; stroke: #f032e6; stroke-linejoin: miter"/>
   </g>
   <g id="patch_17">
    <path d="M 209.762957 288.748705 
C 200.3807 285.788865 190.416457 285.162266 180.737321 286.923435 
C 171.058184 288.684603 161.953302 292.780928 154.214984 298.855945 
L 157.950016 303.613606 
C 164.914503 298.146091 173.108897 294.459399 181.82012 292.874347 
C 190.531343 291.289295 199.499161 291.853234 207.943192 294.51709 
z
" clip-path="url(#pdbcc6b1a84)" style="fill: #f032e6; opacity: 0.5; stroke: #f032e6; stroke-linejoin: miter"/>
   </g>
   <g id="patch_18">
    <path d="M 155.216992 351.883636 
C 188.07899 351.883636 219.59947 338.827426 242.836412 315.590484 
C 266.073354 292.353542 279.129564 260.833062 279.129564 227.971064 
C 279.129564 195.109066 266.073354 163.588586 242.836412 140.351644 
C 219.59947 117.114702 188.07899 104.058492 155.216992 104.058492 
C 122.354993 104.058492 90.834513 117.114702 67.597571 140.351644 
C 44.360629 163.588586 31.304419 195.109066 31.304419 227.971064 
C 31.304419 260.833062 44.360629 292.353542 67.597571 315.590484 
C 90.834513 338.827426 122.354993 351.883636 155.216992 351.883636 
L 155.216992 351.883636 
z
" clip-path="url(#pdbcc6b1a84)" style="fill: none; stroke: #00ffff; stroke-width: 0.8; stroke-linejoin: miter"/>
   </g>
   <g id="PathCollection_1">
    <defs>
     <path id="m674459c5bf" d="M 0 1.118034 
C 0.296506 1.118034 0.580908 1.000231 0.790569 0.790569 
C 1.000231 0.580908 1.118034 0.296506 1.118034 0 
C 1.118034 -0.296506 1.000231 -0.580908 0.790569 -0.790569 
C 0.580908 -1.000231 0.296506 -1.118034 0 -1.118034 
C -0.296506 -1.118034 -0.580908 -1.000231 -0.790569 -0.790569 
C -1.000231 -0.580908 -1.118034 -0.296506 -1.118034 0 
C -1.118034 0.296506 -1.000231 0.580908 -0.790569 0.790569 
C -0.580908 1.000231 -0.296506 1.118034 0 1.118034 
z
" style="stroke: #ffffff"/>
    </defs>
    <g clip-path="url(#pdbcc6b1a84)">
     <use xlink:href="#m674459c5bf" x="252.962525" y="151.812438" style="fill: #ffffff; stroke: #ffffff"/>
    </g>
   </g>
   <g id="PathCollection_2">
    <g clip-path="url(#pdbcc6b1a84)">
     <use xlink:href="#m674459c5bf" x="155.662941" y="104.059294" style="fill: #ffffff; stroke: #ffffff"/>
    </g>
   </g>
   <g id="PathCollection_3">
    <g clip-path="url(#pdbcc6b1a84)">
     <use xlink:href="#m674459c5bf" x="191.565313" y="346.432556" style="fill: #ffffff; stroke: #ffffff"/>
    </g>
   </g>
   <g id="PathCollection_4">
    <g clip-path="url(#pdbcc6b1a84)">
     <use xlink:href="#m674459c5bf" x="162.688414" y="151.487548" style="fill: #ffffff; stroke: #ffffff"/>
    </g>
   </g>
   <g id="PathCollection_5">
    <g clip-path="url(#pdbcc6b1a84)">
     <use xlink:href="#m674459c5bf" x="166.659134" y="178.293477" style="fill: #ffffff; stroke: #ffffff"/>
    </g>
   </g>
   <g id="PathCollection_6">
    <g clip-path="url(#pdbcc6b1a84)">
     <use xlink:href="#m674459c5bf" x="72.414302" y="151.162659" style="fill: #ffffff; stroke: #ffffff"/>
    </g>
   </g>
   <g id="PathCollection_7">
    <g clip-path="url(#pdbcc6b1a84)">
     <use xlink:href="#m674459c5bf" x="80.355743" y="204.774516" style="fill: #ffffff; stroke: #ffffff"/>
    </g>
   </g>
   <g id="PathCollection_8">
    <g clip-path="url(#pdbcc6b1a84)">
     <use xlink:href="#m674459c5bf" x="48.770094" y="164.540917" style="fill: #ffffff; stroke: #ffffff"/>
    </g>
   </g>
   <g id="PathCollection_9">
    <g clip-path="url(#pdbcc6b1a84)">
     <use xlink:href="#m674459c5bf" x="155.216992" y="227.971064" style="fill: #ffffff; stroke: #ffffff"/>
    </g>
   </g>
   <g id="matplotlib.axis_1">
    <g id="xtick_1">
     <g id="line2d_1">
      <defs>
       <path id="m546bb9c3db" d="M 0 0 
L 0 3.5 
" style="stroke: #000000; stroke-width: 0.8"/>
      </defs>
      <g>
       <use xlink:href="#m546bb9c3db" x="35.10365" y="368.64" style="stroke: #000000; stroke-width: 0.8"/>
      </g>
     </g>
     <g id="text_1">
      <!-- −2.0 -->
      <g transform="translate(22.962244 383.238437) scale(0.1 -0.1)">
       <defs>
        <path id="DejaVuSans-2212" d="M 678 2272 
L 4684 2272 
L 4684 1741 
L 678 1741 
L 678 2272 
z
" transform="scale(0.015625)"/>
        <path id="DejaVuSans-32" d="M 1228 531 
L 3431 531 
L 3431 0 
L 469 0 
L 469 531 
Q 828 903 1448 1529 
Q 2069 2156 2228 2338 
Q 2531 2678 2651 2914 
Q 2772 3150 2772 3378 
Q 2772 3750 2511 3984 
Q 2250 4219 1831 4219 
Q 1534 4219 1204 4116 
Q 875 4013 500 3803 
L 500 4441 
Q 881 4594 1212 4672 
Q 1544 4750 1819 4750 
Q 2544 4750 2975 4387 
Q 3406 4025 3406 3419 
Q 3406 3131 3298 2873 
Q 3191 2616 2906 2266 
Q 2828 2175 2409 1742 
Q 1991 1309 1228 531 
z
" transform="scale(0.015625)"/>
        <path id="DejaVuSans-2e" d="M 684 794 
L 1344 794 
L 1344 0 
L 684 0 
L 684 794 
z
" transform="scale(0.015625)"/>
        <path id="DejaVuSans-30" d="M 2034 4250 
Q 1547 4250 1301 3770 
Q 1056 3291 1056 2328 
Q 1056 1369 1301 889 
Q 1547 409 2034 409 
Q 2525 409 2770 889 
Q 3016 1369 3016 2328 
Q 3016 3291 2770 3770 
Q 2525 4250 2034 4250 
z
M 2034 4750 
Q 2819 4750 3233 4129 
Q 3647 3509 3647 2328 
Q 3647 1150 3233 529 
Q 2819 -91 2034 -91 
Q 1250 -91 836 529 
Q 422 1150 422 2328 
Q 422 3509 836 4129 
Q 1250 4750 2034 4750 
z
" transform="scale(0.015625)"/>
       </defs>
       <use xlink:href="#DejaVuSans-2212"/>
       <use xlink:href="#DejaVuSans-32" x="83.789062"/>
       <use xlink:href="#DejaVuSans-2e" x="147.412109"/>
       <use xlink:href="#DejaVuSans-30" x="179.199219"/>
      </g>
     </g>
    </g>
    <g id="xtick_2">
     <g id="line2d_2">
      <g>
       <use xlink:href="#m546bb9c3db" x="81.209189" y="368.64" style="stroke: #000000; stroke-width: 0.8"/>
      </g>
     </g>
     <g id="text_2">
      <!-- −1.5 -->
      <g transform="translate(69.067783 383.238437) scale(0.1 -0.1)">
       <defs>
        <path id="DejaVuSans-31" d="M 794 531 
L 1825 531 
L 1825 4091 
L 703 3866 
L 703 4441 
L 1819 4666 
L 2450 4666 
L 2450 531 
L 3481 531 
L 3481 0 
L 794 0 
L 794 531 
z
" transform="scale(0.015625)"/>
        <path id="DejaVuSans-35" d="M 691 4666 
L 3169 4666 
L 3169 4134 
L 1269 4134 
L 1269 2991 
Q 1406 3038 1543 3061 
Q 1681 3084 1819 3084 
Q 2600 3084 3056 2656 
Q 3513 2228 3513 1497 
Q 3513 744 3044 326 
Q 2575 -91 1722 -91 
Q 1428 -91 1123 -41 
Q 819 9 494 109 
L 494 744 
Q 775 591 1075 516 
Q 1375 441 1709 441 
Q 2250 441 2565 725 
Q 2881 1009 2881 1497 
Q 2881 1984 2565 2268 
Q 2250 2553 1709 2553 
Q 1456 2553 1204 2497 
Q 953 2441 691 2322 
L 691 4666 
z
" transform="scale(0.015625)"/>
       </defs>
       <use xlink:href="#DejaVuSans-2212"/>
       <use xlink:href="#DejaVuSans-31" x="83.789062"/>
       <use xlink:href="#DejaVuSans-2e" x="147.412109"/>
       <use xlink:href="#DejaVuSans-35" x="179.199219"/>
      </g>
     </g>
    </g>
    <g id="xtick_3">
     <g id="line2d_3">
      <g>
       <use xlink:href="#m546bb9c3db" x="127.314728" y="368.64" style="stroke: #000000; stroke-width: 0.8"/>
      </g>
     </g>
     <g id="text_3">
      <!-- −1.0 -->
      <g transform="translate(115.173322 383.238437) scale(0.1 -0.1)">
       <use xlink:href="#DejaVuSans-2212"/>
       <use xlink:href="#DejaVuSans-31" x="83.789062"/>
       <use xlink:href="#DejaVuSans-2e" x="147.412109"/>
       <use xlink:href="#DejaVuSans-30" x="179.199219"/>
      </g>
     </g>
    </g>
    <g id="xtick_4">
     <g id="line2d_4">
      <g>
       <use xlink:href="#m546bb9c3db" x="173.420267" y="368.64" style="stroke: #000000; stroke-width: 0.8"/>
      </g>
     </g>
     <g id="text_4">
      <!-- −0.5 -->
      <g transform="translate(161.278861 383.238437) scale(0.1 -0.1)">
       <use xlink:href="#DejaVuSans-2212"/>
       <use xlink:href="#DejaVuSans-30" x="83.789062"/>
       <use xlink:href="#DejaVuSans-2e" x="147.412109"/>
       <use xlink:href="#DejaVuSans-35" x="179.199219"/>
      </g>
     </g>
    </g>
    <g id="xtick_5">
     <g id="line2d_5">
      <g>
       <use xlink:href="#m546bb9c3db" x="219.525806" y="368.64" style="stroke: #000000; stroke-width: 0.8"/>
      </g>
     </g>
     <g id="text_5">
      <!-- 0.0 -->
      <g transform="translate(211.574244 383.238437) scale(0.1 -0.1)">
       <use xlink:href="#DejaVuSans-30"/>
       <use xlink:href="#DejaVuSans-2e" x="63.623047"/>
       <use xlink:href="#DejaVuSans-30" x="95.410156"/>
      </g>
     </g>
    </g>
    <g id="xtick_6">
     <g id="line2d_6">
      <g>
       <use xlink:href="#m546bb9c3db" x="265.631345" y="368.64" style="stroke: #000000; stroke-width: 0.8"/>
      </g>
     </g>
     <g id="text_6">
      <!-- 0.5 -->
      <g transform="translate(257.679783 383.238437) scale(0.1 -0.1)">
       <use xlink:href="#DejaVuSans-30"/>
       <use xlink:href="#DejaVuSans-2e" x="63.623047"/>
       <use xlink:href="#DejaVuSans-35" x="95.410156"/>
      </g>
     </g>
    </g>
    <g id="xtick_7">
     <g id="line2d_7">
      <g>
       <use xlink:href="#m546bb9c3db" x="311.736884" y="368.64" style="stroke: #000000; stroke-width: 0.8"/>
      </g>
     </g>
     <g id="text_7">
      <!-- 1.0 -->
      <g transform="translate(303.785322 383.238437) scale(0.1 -0.1)">
       <use xlink:href="#DejaVuSans-31"/>
       <use xlink:href="#DejaVuSans-2e" x="63.623047"/>
       <use xlink:href="#DejaVuSans-30" x="95.410156"/>
      </g>
     </g>
    </g>
    <g id="xtick_8">
     <g id="line2d_8">
      <g>
       <use xlink:href="#m546bb9c3db" x="357.842423" y="368.64" style="stroke: #000000; stroke-width: 0.8"/>
      </g>
     </g>
     <g id="text_8">
      <!-- 1.5 -->
      <g transform="translate(349.890861 383.238437) scale(0.1 -0.1)">
       <use xlink:href="#DejaVuSans-31"/>
       <use xlink:href="#DejaVuSans-2e" x="63.623047"/>
       <use xlink:href="#DejaVuSans-35" x="95.410156"/>
      </g>
     </g>
    </g>
   </g>
   <g id="matplotlib.axis_2">
    <g id="ytick_1">
     <g id="line2d_9">
      <defs>
       <path id="m30501253f7" d="M 0 0 
L -3.5 0 
" style="stroke: #000000; stroke-width: 0.8"/>
      </defs>
      <g>
       <use xlink:href="#m30501253f7" x="0" y="356.116973" style="stroke: #000000; stroke-width: 0.8"/>
      </g>
     </g>
     <g id="text_9">
      <!-- −2.5 -->
      <g transform="translate(-31.282813 359.916192) scale(0.1 -0.1)">
       <use xlink:href="#DejaVuSans-2212"/>
       <use xlink:href="#DejaVuSans-32" x="83.789062"/>
       <use xlink:href="#DejaVuSans-2e" x="147.412109"/>
       <use xlink:href="#DejaVuSans-35" x="179.199219"/>
      </g>
     </g>
    </g>
    <g id="ytick_2">
     <g id="line2d_10">
      <g>
       <use xlink:href="#m30501253f7" x="0" y="310.011434" style="stroke: #000000; stroke-width: 0.8"/>
      </g>
     </g>
     <g id="text_10">
      <!-- −2.0 -->
      <g transform="translate(-31.282813 313.810653) scale(0.1 -0.1)">
       <use xlink:href="#DejaVuSans-2212"/>
       <use xlink:href="#DejaVuSans-32" x="83.789062"/>
       <use xlink:href="#DejaVuSans-2e" x="147.412109"/>
       <use xlink:href="#DejaVuSans-30" x="179.199219"/>
      </g>
     </g>
    </g>
    <g id="ytick_3">
     <g id="line2d_11">
      <g>
       <use xlink:href="#m30501253f7" x="0" y="263.905895" style="stroke: #000000; stroke-width: 0.8"/>
      </g>
     </g>
     <g id="text_11">
      <!-- −1.5 -->
      <g transform="translate(-31.282813 267.705114) scale(0.1 -0.1)">
       <use xlink:href="#DejaVuSans-2212"/>
       <use xlink:href="#DejaVuSans-31" x="83.789062"/>
       <use xlink:href="#DejaVuSans-2e" x="147.412109"/>
       <use xlink:href="#DejaVuSans-35" x="179.199219"/>
      </g>
     </g>
    </g>
    <g id="ytick_4">
     <g id="line2d_12">
      <g>
       <use xlink:href="#m30501253f7" x="0" y="217.800356" style="stroke: #000000; stroke-width: 0.8"/>
      </g>
     </g>
     <g id="text_12">
      <!-- −1.0 -->
      <g transform="translate(-31.282813 221.599575) scale(0.1 -0.1)">
       <use xlink:href="#DejaVuSans-2212"/>
       <use xlink:href="#DejaVuSans-31" x="83.789062"/>
       <use xlink:href="#DejaVuSans-2e" x="147.412109"/>
       <use xlink:href="#DejaVuSans-30" x="179.199219"/>
      </g>
     </g>
    </g>
    <g id="ytick_5">
     <g id="line2d_13">
      <g>
       <use xlink:href="#m30501253f7" x="0" y="171.694817" style="stroke: #000000; stroke-width: 0.8"/>
      </g>
     </g>
     <g id="text_13">
      <!-- −0.5 -->
      <g transform="translate(-31.282813 175.494036) scale(0.1 -0.1)">
       <use xlink:href="#DejaVuSans-2212"/>
       <use xlink:href="#DejaVuSans-30" x="83.789062"/>
       <use xlink:href="#DejaVuSans-2e" x="147.412109"/>
       <use xlink:href="#DejaVuSans-35" x="179.199219"/>
      </g>
     </g>
    </g>
    <g id="ytick_6">
     <g id="line2d_14">
      <g>
       <use xlink:href="#m30501253f7" x="0" y="125.589278" style="stroke: #000000; stroke-width: 0.8"/>
      </g>
     </g>
     <g id="text_14">
      <!-- 0.0 -->
      <g transform="translate(-22.903125 129.388497) scale(0.1 -0.1)">
       <use xlink:href="#DejaVuSans-30"/>
       <use xlink:href="#DejaVuSans-2e" x="63.623047"/>
       <use xlink:href="#DejaVuSans-30" x="95.410156"/>
      </g>
     </g>
    </g>
    <g id="ytick_7">
     <g id="line2d_15">
      <g>
       <use xlink:href="#m30501253f7" x="0" y="79.483739" style="stroke: #000000; stroke-width: 0.8"/>
      </g>
     </g>
     <g id="text_15">
      <!-- 0.5 -->
      <g transform="translate(-22.903125 83.282958) scale(0.1 -0.1)">
       <use xlink:href="#DejaVuSans-30"/>
       <use xlink:href="#DejaVuSans-2e" x="63.623047"/>
       <use xlink:href="#DejaVuSans-35" x="95.410156"/>
      </g>
     </g>
    </g>
    <g id="ytick_8">
     <g id="line2d_16">
      <g>
       <use xlink:href="#m30501253f7" x="0" y="33.3782" style="stroke: #000000; stroke-width: 0.8"/>
      </g>
     </g>
     <g id="text_16">
      <!-- 1.0 -->
      <g transform="translate(-22.903125 37.177419) scale(0.1 -0.1)">
       <use xlink:href="#DejaVuSans-31"/>
       <use xlink:href="#DejaVuSans-2e" x="63.623047"/>
       <use xlink:href="#DejaVuSans-30" x="95.410156"/>
      </g>
     </g>
    </g>
   </g>
   <g id="line2d_17">
    <path d="M 252.962525 151.812438 
L 155.216992 227.971064 
" clip-path="url(#pdbcc6b1a84)" style="fill: none; stroke: #ffffff; stroke-opacity: 0.9; stroke-width: 0.4; stroke-linecap: square"/>
   </g>
   <g id="line2d_18">
    <path d="M 155.662941 104.059294 
L 155.216992 227.971064 
" clip-path="url(#pdbcc6b1a84)" style="fill: none; stroke: #ffffff; stroke-opacity: 0.9; stroke-width: 0.4; stroke-linecap: square"/>
   </g>
   <g id="line2d_19">
    <path d="M 155.662941 104.059294 
L 155.216992 227.971064 
" clip-path="url(#pdbcc6b1a84)" style="fill: none; stroke: #ffffff; stroke-opacity: 0.9; stroke-width: 0.4; stroke-linecap: square"/>
   </g>
   <g id="line2d_20">
    <path d="M 191.565313 346.432556 
L 155.216992 227.971064 
" clip-path="url(#pdbcc6b1a84)" style="fill: none; stroke: #ffffff; stroke-opacity: 0.9; stroke-width: 0.4; stroke-linecap: square"/>
   </g>
   <g id="line2d_21">
    <path d="M 252.962525 151.812438 
L 155.216992 227.971064 
" clip-path="url(#pdbcc6b1a84)" style="fill: none; stroke: #ffffff; stroke-opacity: 0.9; stroke-width: 0.4; stroke-linecap: square"/>
   </g>
   <g id="line2d_22">
    <path d="M 191.565313 346.432556 
L 155.216992 227.971064 
" clip-path="url(#pdbcc6b1a84)" style="fill: none; stroke: #ffffff; stroke-opacity: 0.9; stroke-width: 0.4; stroke-linecap: square"/>
   </g>
   <g id="line2d_23">
    <path d="M 0 150.902045 
L 368.64 152.228753 
" clip-path="url(#pdbcc6b1a84)" style="fill: none; stroke-dasharray: 1.48,0.64; stroke-dashoffset: 0; stroke: #ffffff; stroke-width: 0.4"/>
   </g>
   <g id="line2d_24">
    <path d="M 140.2488 0 
L 194.854866 368.64 
" clip-path="url(#pdbcc6b1a84)" style="fill: none; stroke-dasharray: 1.48,0.64; stroke-dashoffset: 0; stroke: #ffffff; stroke-width: 0.4"/>
   </g>
   <g id="line2d_25">
    <path d="M 140.2488 0 
L 194.854866 368.64 
" clip-path="url(#pdbcc6b1a84)" style="fill: none; stroke-dasharray: 1.48,0.64; stroke-dashoffset: 0; stroke: #ffffff; stroke-width: 0.4"/>
   </g>
   <g id="line2d_26">
    <path d="M 0 192.135789 
L 339.573253 -0 
" clip-path="url(#pdbcc6b1a84)" style="fill: none; stroke-dasharray: 1.48,0.64; stroke-dashoffset: 0; stroke: #ffffff; stroke-width: 0.4"/>
   </g>
   <g id="line2d_27">
    <path d="M 0 102.417883 
L 208.999411 368.64 
" clip-path="url(#pdbcc6b1a84)" style="fill: none; stroke-dasharray: 1.48,0.64; stroke-dashoffset: 0; stroke: #ffffff; stroke-width: 0.4"/>
   </g>
   <g id="line2d_28">
    <path d="M 0 27.66231 
L 368.64 208.585169 
" clip-path="url(#pdbcc6b1a84)" style="fill: none; stroke-dasharray: 0.4,0.66; stroke-dashoffset: 0; stroke: #ffffff; stroke-opacity: 0.9; stroke-width: 0.4"/>
   </g>
   <g id="line2d_29">
    <path d="M 0 150.902045 
L 368.64 152.228753 
" clip-path="url(#pdbcc6b1a84)" style="fill: none; stroke-dasharray: 0.4,0.66; stroke-dashoffset: 0; stroke: #ffffff; stroke-opacity: 0.9; stroke-width: 0.4"/>
   </g>
   <g id="line2d_30">
    <path d="M 184.559484 368.64 
L 300.85511 0 
" clip-path="url(#pdbcc6b1a84)" style="fill: none; stroke-dasharray: 0.4,0.66; stroke-dashoffset: 0; stroke: #ffffff; stroke-opacity: 0.9; stroke-width: 0.4"/>
   </g>
   <g id="line2d_31">
    <path d="M 140.2488 0 
L 194.854866 368.64 
" clip-path="url(#pdbcc6b1a84)" style="fill: none; stroke-dasharray: 0.4,0.66; stroke-dashoffset: 0; stroke: #ffffff; stroke-opacity: 0.9; stroke-width: 0.4"/>
   </g>
   <g id="line2d_32">
    <path d="M 0 229.430598 
L 368.64 116.318356 
" clip-path="url(#pdbcc6b1a84)" style="fill: none; stroke-dasharray: 1.48,0.64; stroke-dashoffset: 0; stroke: #ffffff; stroke-width: 0.4"/>
   </g>
   <g id="line2d_33">
    <path d="M 0 27.66231 
L 368.64 208.585169 
" clip-path="url(#pdbcc6b1a84)" style="fill: none; stroke-dasharray: 0.4,0.66; stroke-dashoffset: 0; stroke: #ffffff; stroke-opacity: 0.9; stroke-width: 0.4"/>
   </g>
   <g id="line2d_34">
    <path d="M 140.2488 0 
L 194.854866 368.64 
" clip-path="url(#pdbcc6b1a84)" style="fill: none; stroke-dasharray: 0.4,0.66; stroke-dashoffset: 0; stroke: #ffffff; stroke-opacity: 0.9; stroke-width: 0.4"/>
   </g>
   <g id="line2d_35">
    <path d="M 184.559484 368.64 
L 300.85511 0 
" clip-path="url(#pdbcc6b1a84)" style="fill: none; stroke-dasharray: 0.4,0.66; stroke-dashoffset: 0; stroke: #ffffff; stroke-opacity: 0.9; stroke-width: 0.4"/>
   </g>
   <g id="line2d_36">
    <path d="M 0 229.430598 
L 368.64 116.318356 
" clip-path="url(#pdbcc6b1a84)" style="fill: none; stroke-dasharray: 0.4,0.66; stroke-dashoffset: 0; stroke: #ffffff; stroke-opacity: 0.9; stroke-width: 0.4"/>
   </g>
   <g id="line2d_37">
    <path d="M 140.2488 0 
L 194.854866 368.64 
" clip-path="url(#pdbcc6b1a84)" style="fill: none; stroke-dasharray: 0.4,0.66; stroke-dashoffset: 0; stroke: #ffffff; stroke-opacity: 0.9; stroke-width: 0.4"/>
   </g>
   <g id="line2d_38">
    <path d="M 0 150.902045 
L 368.64 152.228753 
" clip-path="url(#pdbcc6b1a84)" style="fill: none; stroke-dasharray: 0.4,0.66; stroke-dashoffset: 0; stroke: #ffffff; stroke-opacity: 0.9; stroke-width: 0.4"/>
   </g>
   <g id="line2d_39">
    <path d="M 0 229.430598 
L 368.64 116.318356 
" clip-path="url(#pdbcc6b1a84)" style="fill: none; stroke-dasharray: 0.4,0.66; stroke-dashoffset: 0; stroke: #ffffff; stroke-opacity: 0.9; stroke-width: 0.4"/>
   </g>
   <g id="line2d_40">
    <path d="M 140.2488 0 
L 194.854866 368.64 
" clip-path="url(#pdbcc6b1a84)" style="fill: none; stroke-dasharray: 0.4,0.66; stroke-dashoffset: 0; stroke: #ffffff; stroke-opacity: 0.9; stroke-width: 0.4"/>
   </g>
   <g id="line2d_41">
    <path d="M 252.962525 151.812438 
L 162.688414 151.487548 
" clip-path="url(#pdbcc6b1a84)" style="fill: none; stroke: #ffffff; stroke-opacity: 0.9; stroke-width: 0.4; stroke-linecap: square"/>
   </g>
   <g id="line2d_42">
    <path d="M 72.414302 151.162659 
L 162.688414 151.487548 
" clip-path="url(#pdbcc6b1a84)" style="fill: none; stroke: #ffffff; stroke-opacity: 0.9; stroke-width: 0.4; stroke-linecap: square"/>
   </g>
   <g id="line2d_43">
    <path d="M 252.962525 151.812438 
L 166.659134 178.293477 
" clip-path="url(#pdbcc6b1a84)" style="fill: none; stroke: #ffffff; stroke-opacity: 0.9; stroke-width: 0.4; stroke-linecap: square"/>
   </g>
   <g id="line2d_44">
    <path d="M 80.355743 204.774516 
L 166.659134 178.293477 
" clip-path="url(#pdbcc6b1a84)" style="fill: none; stroke: #ffffff; stroke-opacity: 0.9; stroke-width: 0.4; stroke-linecap: square"/>
   </g>
   <g id="line2d_45">
    <path d="M 0 27.66231 
L 368.64 208.585169 
" clip-path="url(#pdbcc6b1a84)" style="fill: none; stroke-dasharray: 0.4,0.66; stroke-dashoffset: 0; stroke: #ffffff; stroke-opacity: 0.9; stroke-width: 0.4"/>
   </g>
   <g id="line2d_46">
    <path d="M 140.2488 0 
L 194.854866 368.64 
" clip-path="url(#pdbcc6b1a84)" style="fill: none; stroke-dasharray: 0.4,0.66; stroke-dashoffset: 0; stroke: #ffffff; stroke-opacity: 0.9; stroke-width: 0.4"/>
   </g>
   <g id="line2d_47">
    <path d="M 184.559484 368.64 
L 300.85511 0 
" clip-path="url(#pdbcc6b1a84)" style="fill: none; stroke-dasharray: 0.4,0.66; stroke-dashoffset: 0; stroke: #ffffff; stroke-opacity: 0.9; stroke-width: 0.4"/>
   </g>
   <g id="line2d_48">
    <path d="M 0 229.430598 
L 368.64 116.318356 
" clip-path="url(#pdbcc6b1a84)" style="fill: none; stroke-dasharray: 0.4,0.66; stroke-dashoffset: 0; stroke: #ffffff; stroke-opacity: 0.9; stroke-width: 0.4"/>
   </g>
   <g id="line2d_49">
    <path d="M 0 150.902045 
L 368.64 152.228753 
" clip-path="url(#pdbcc6b1a84)" style="fill: none; stroke-dasharray: 0.4,0.66; stroke-dashoffset: 0; stroke: #ffffff; stroke-opacity: 0.9; stroke-width: 0.4"/>
   </g>
   <g id="line2d_50">
    <path d="M 140.2488 0 
L 194.854866 368.64 
" clip-path="url(#pdbcc6b1a84)" style="fill: none; stroke-dasharray: 0.4,0.66; stroke-dashoffset: 0; stroke: #ffffff; stroke-opacity: 0.9; stroke-width: 0.4"/>
   </g>
   <g id="line2d_51">
    <path d="M 140.2488 0 
L 194.854866 368.64 
" clip-path="url(#pdbcc6b1a84)" style="fill: none; stroke-dasharray: 0.4,0.66; stroke-dashoffset: 0; stroke: #ffffff; stroke-opacity: 0.9; stroke-width: 0.4"/>
   </g>
   <g id="line2d_52">
    <path d="M 0 229.430598 
L 368.64 116.318356 
" clip-path="url(#pdbcc6b1a84)" style="fill: none; stroke-dasharray: 0.4,0.66; stroke-dashoffset: 0; stroke: #ffffff; stroke-opacity: 0.9; stroke-width: 0.4"/>
   </g>
   <g id="line2d_53">
    <path d="M 252.962525 151.812438 
L 155.662941 104.059294 
" clip-path="url(#pdbcc6b1a84)" style="fill: none; stroke-dasharray: 1.48,0.64; stroke-dashoffset: 0; stroke: #ffffff; stroke-opacity: 0.9; stroke-width: 0.4"/>
   </g>
   <g id="line2d_54">
    <path d="M 155.662941 104.059294 
L 162.688414 151.487548 
" clip-path="url(#pdbcc6b1a84)" style="fill: none; stroke-dasharray: 1.48,0.64; stroke-dashoffset: 0; stroke: #ffffff; stroke-opacity: 0.9; stroke-width: 0.4"/>
   </g>
   <g id="line2d_55">
    <path d="M 252.962525 151.812438 
L 162.688414 151.487548 
" clip-path="url(#pdbcc6b1a84)" style="fill: none; stroke-dasharray: 1.48,0.64; stroke-dashoffset: 0; stroke: #ffffff; stroke-opacity: 0.9; stroke-width: 0.4"/>
   </g>
   <g id="line2d_56">
    <path d="M 191.565313 346.432556 
L 252.962525 151.812438 
" clip-path="url(#pdbcc6b1a84)" style="fill: none; stroke-dasharray: 1.48,0.64; stroke-dashoffset: 0; stroke: #ffffff; stroke-opacity: 0.9; stroke-width: 0.4"/>
   </g>
   <g id="line2d_57">
    <path d="M 252.962525 151.812438 
L 166.659134 178.293477 
" clip-path="url(#pdbcc6b1a84)" style="fill: none; stroke-dasharray: 1.48,0.64; stroke-dashoffset: 0; stroke: #ffffff; stroke-opacity: 0.9; stroke-width: 0.4"/>
   </g>
   <g id="line2d_58">
    <path d="M 191.565313 346.432556 
L 166.659134 178.293477 
" clip-path="url(#pdbcc6b1a84)" style="fill: none; stroke-dasharray: 1.48,0.64; stroke-dashoffset: 0; stroke: #ffffff; stroke-opacity: 0.9; stroke-width: 0.4"/>
   </g>
   <g id="line2d_59">
    <path d="M 155.662941 104.059294 
L 72.414302 151.162659 
" clip-path="url(#pdbcc6b1a84)" style="fill: none; stroke-dasharray: 1.48,0.64; stroke-dashoffset: 0; stroke: #ffffff; stroke-opacity: 0.9; stroke-width: 0.4"/>
   </g>
   <g id="line2d_60">
    <path d="M 72.414302 151.162659 
L 162.688414 151.487548 
" clip-path="url(#pdbcc6b1a84)" style="fill: none; stroke-dasharray: 1.48,0.64; stroke-dashoffset: 0; stroke: #ffffff; stroke-opacity: 0.9; stroke-width: 0.4"/>
   </g>
   <g id="line2d_61">
    <path d="M 155.662941 104.059294 
L 162.688414 151.487548 
" clip-path="url(#pdbcc6b1a84)" style="fill: none; stroke-dasharray: 1.48,0.64; stroke-dashoffset: 0; stroke: #ffffff; stroke-opacity: 0.9; stroke-width: 0.4"/>
   </g>
   <g id="line2d_62">
    <path d="M 80.355743 204.774516 
L 191.565313 346.432556 
" clip-path="url(#pdbcc6b1a84)" style="fill: none; stroke-dasharray: 1.48,0.64; stroke-dashoffset: 0; stroke: #ffffff; stroke-opacity: 0.9; stroke-width: 0.4"/>
   </g>
   <g id="line2d_63">
    <path d="M 191.565313 346.432556 
L 166.659134 178.293477 
" clip-path="url(#pdbcc6b1a84)" style="fill: none; stroke-dasharray: 1.48,0.64; stroke-dashoffset: 0; stroke: #ffffff; stroke-opacity: 0.9; stroke-width: 0.4"/>
   </g>
   <g id="line2d_64">
    <path d="M 80.355743 204.774516 
L 166.659134 178.293477 
" clip-path="url(#pdbcc6b1a84)" style="fill: none; stroke-dasharray: 1.48,0.64; stroke-dashoffset: 0; stroke: #ffffff; stroke-opacity: 0.9; stroke-width: 0.4"/>
   </g>
   <g id="line2d_65">
    <path d="M 0 192.135789 
L 339.573253 -0 
" clip-path="url(#pdbcc6b1a84)" style="fill: none; stroke-dasharray: 0.4,0.66; stroke-dashoffset: 0; stroke: #ffffff; stroke-opacity: 0.9; stroke-width: 0.4"/>
   </g>
   <g id="line2d_66">
    <path d="M 0 150.902045 
L 368.64 152.228753 
" clip-path="url(#pdbcc6b1a84)" style="fill: none; stroke-dasharray: 0.4,0.66; stroke-dashoffset: 0; stroke: #ffffff; stroke-opacity: 0.9; stroke-width: 0.4"/>
   </g>
   <g id="line2d_67">
    <path d="M 0 102.417883 
L 208.999411 368.64 
" clip-path="url(#pdbcc6b1a84)" style="fill: none; stroke-dasharray: 0.4,0.66; stroke-dashoffset: 0; stroke: #ffffff; stroke-opacity: 0.9; stroke-width: 0.4"/>
   </g>
   <g id="line2d_68">
    <path d="M 140.2488 0 
L 194.854866 368.64 
" clip-path="url(#pdbcc6b1a84)" style="fill: none; stroke-dasharray: 0.4,0.66; stroke-dashoffset: 0; stroke: #ffffff; stroke-opacity: 0.9; stroke-width: 0.4"/>
   </g>
   <g id="line2d_69">
    <path d="M 0 27.66231 
L 368.64 208.585169 
" clip-path="url(#pdbcc6b1a84)" style="fill: none; stroke-dasharray: 0.4,0.66; stroke-dashoffset: 0; stroke: #ffffff; stroke-opacity: 0.9; stroke-width: 0.4"/>
   </g>
   <g id="line2d_70">
    <path d="M 0 192.135789 
L 339.573253 -0 
" clip-path="url(#pdbcc6b1a84)" style="fill: none; stroke-dasharray: 0.4,0.66; stroke-dashoffset: 0; stroke: #ffffff; stroke-opacity: 0.9; stroke-width: 0.4"/>
   </g>
   <g id="line2d_71">
    <path d="M 184.559484 368.64 
L 300.85511 0 
" clip-path="url(#pdbcc6b1a84)" style="fill: none; stroke-dasharray: 0.4,0.66; stroke-dashoffset: 0; stroke: #ffffff; stroke-opacity: 0.9; stroke-width: 0.4"/>
   </g>
   <g id="line2d_72">
    <path d="M 0 102.417883 
L 208.999411 368.64 
" clip-path="url(#pdbcc6b1a84)" style="fill: none; stroke-dasharray: 0.4,0.66; stroke-dashoffset: 0; stroke: #ffffff; stroke-opacity: 0.9; stroke-width: 0.4"/>
   </g>
   <g id="line2d_73">
    <path d="M 191.565313 346.432556 
L 155.216992 227.971064 
" clip-path="url(#pdbcc6b1a84)" style="fill: none; stroke: #ffffff; stroke-opacity: 0.9; stroke-width: 0.4; stroke-linecap: square"/>
   </g>
   <g id="line2d_74">
    <path d="M 155.216992 227.971064 
L 48.770094 164.540917 
" clip-path="url(#pdbcc6b1a84)" style="fill: none; stroke: #ffffff; stroke-opacity: 0.9; stroke-width: 0.4; stroke-linecap: square"/>
   </g>
   <g id="line2d_75">
    <path d="M 252.962525 151.812438 
L 155.216992 227.971064 
" clip-path="url(#pdbcc6b1a84)" style="fill: none; stroke: #ffffff; stroke-opacity: 0.9; stroke-width: 0.4; stroke-linecap: square"/>
   </g>
   <g id="line2d_76">
    <path d="M 155.216992 227.971064 
L 48.770094 164.540917 
" clip-path="url(#pdbcc6b1a84)" style="fill: none; stroke: #ffffff; stroke-opacity: 0.9; stroke-width: 0.4; stroke-linecap: square"/>
   </g>
   <g id="patch_19">
    <path d="M 0 368.64 
L 0 -0 
" style="fill: none; stroke: #000000; stroke-width: 0.8; stroke-linejoin: miter; stroke-linecap: square"/>
   </g>
   <g id="patch_20">
    <path d="M 368.64 368.64 
L 368.64 -0 
" style="fill: none; stroke: #000000; stroke-width: 0.8; stroke-linejoin: miter; stroke-linecap: square"/>
   </g>
   <g id="patch_21">
    <path d="M 0 368.64 
L 368.64 368.64 
" style="fill: none; stroke: #000000; stroke-width: 0.8; stroke-linejoin: miter; stroke-linecap: square"/>
   </g>
   <g id="patch_22">
    <path d="M 0 0 
L 368.64 0 
" style="fill: none; stroke: #000000; stroke-width: 0.8; stroke-linejoin: miter; stroke-linecap: square"/>
   </g>
   <g id="text_17">
    <!-- A -->
    <g style="fill: #00ff00" transform="translate(252.962525 151.812438) scale(0.1 -0.1)">
     <defs>
      <path id="DejaVuSans-41" d="M 2188 4044 
L 1331 1722 
L 3047 1722 
L 2188 4044 
z
M 1831 4666 
L 2547 4666 
L 4325 0 
L 3669 0 
L 3244 1197 
L 1141 1197 
L 716 0 
L 50 0 
L 1831 4666 
z
" transform="scale(0.015625)"/>
     </defs>
     <use xlink:href="#DejaVuSans-41"/>
    </g>
   </g>
   <g id="text_18">
    <!-- B -->
    <g style="fill: #00ff00" transform="translate(155.662941 104.059294) scale(0.1 -0.1)">
     <defs>
      <path id="DejaVuSans-42" d="M 1259 2228 
L 1259 519 
L 2272 519 
Q 2781 519 3026 730 
Q 3272 941 3272 1375 
Q 3272 1813 3026 2020 
Q 2781 2228 2272 2228 
L 1259 2228 
z
M 1259 4147 
L 1259 2741 
L 2194 2741 
Q 2656 2741 2882 2914 
Q 3109 3088 3109 3444 
Q 3109 3797 2882 3972 
Q 2656 4147 2194 4147 
L 1259 4147 
z
M 628 4666 
L 2241 4666 
Q 2963 4666 3353 4366 
Q 3744 4066 3744 3513 
Q 3744 3084 3544 2831 
Q 3344 2578 2956 2516 
Q 3422 2416 3680 2098 
Q 3938 1781 3938 1306 
Q 3938 681 3513 340 
Q 3088 0 2303 0 
L 628 0 
L 628 4666 
z
" transform="scale(0.015625)"/>
     </defs>
     <use xlink:href="#DejaVuSans-42"/>
    </g>
   </g>
   <g id="text_19">
    <!-- C -->
    <g style="fill: #00ff00" transform="translate(191.565313 346.432556) scale(0.1 -0.1)">
     <defs>
      <path id="DejaVuSans-43" d="M 4122 4306 
L 4122 3641 
Q 3803 3938 3442 4084 
Q 3081 4231 2675 4231 
Q 1875 4231 1450 3742 
Q 1025 3253 1025 2328 
Q 1025 1406 1450 917 
Q 1875 428 2675 428 
Q 3081 428 3442 575 
Q 3803 722 4122 1019 
L 4122 359 
Q 3791 134 3420 21 
Q 3050 -91 2638 -91 
Q 1578 -91 968 557 
Q 359 1206 359 2328 
Q 359 3453 968 4101 
Q 1578 4750 2638 4750 
Q 3056 4750 3426 4639 
Q 3797 4528 4122 4306 
z
" transform="scale(0.015625)"/>
     </defs>
     <use xlink:href="#DejaVuSans-43"/>
    </g>
   </g>
   <g id="text_20">
    <!-- P -->
    <g style="fill: #00ff00" transform="translate(162.688414 151.487548) scale(0.1 -0.1)">
     <defs>
      <path id="DejaVuSans-50" d="M 1259 4147 
L 1259 2394 
L 2053 2394 
Q 2494 2394 2734 2622 
Q 2975 2850 2975 3272 
Q 2975 3691 2734 3919 
Q 2494 4147 2053 4147 
L 1259 4147 
z
M 628 4666 
L 2053 4666 
Q 2838 4666 3239 4311 
Q 3641 3956 3641 3272 
Q 3641 2581 3239 2228 
Q 2838 1875 2053 1875 
L 1259 1875 
L 1259 0 
L 628 0 
L 628 4666 
z
" transform="scale(0.015625)"/>
     </defs>
     <use xlink:href="#DejaVuSans-50"/>
    </g>
   </g>
   <g id="text_21">
    <!-- Q -->
    <g style="fill: #00ff00" transform="translate(166.659134 178.293477) scale(0.1 -0.1)">
     <defs>
      <path id="DejaVuSans-51" d="M 2522 4238 
Q 1834 4238 1429 3725 
Q 1025 3213 1025 2328 
Q 1025 1447 1429 934 
Q 1834 422 2522 422 
Q 3209 422 3611 934 
Q 4013 1447 4013 2328 
Q 4013 3213 3611 3725 
Q 3209 4238 2522 4238 
z
M 3406 84 
L 4238 -825 
L 3475 -825 
L 2784 -78 
Q 2681 -84 2626 -87 
Q 2572 -91 2522 -91 
Q 1538 -91 948 567 
Q 359 1225 359 2328 
Q 359 3434 948 4092 
Q 1538 4750 2522 4750 
Q 3503 4750 4090 4092 
Q 4678 3434 4678 2328 
Q 4678 1516 4351 937 
Q 4025 359 3406 84 
z
" transform="scale(0.015625)"/>
     </defs>
     <use xlink:href="#DejaVuSans-51"/>
    </g>
   </g>
   <g id="text_22">
    <!-- M -->
    <g style="fill: #00ff00" transform="translate(72.414302 151.162659) scale(0.1 -0.1)">
     <defs>
      <path id="DejaVuSans-4d" d="M 628 4666 
L 1569 4666 
L 2759 1491 
L 3956 4666 
L 4897 4666 
L 4897 0 
L 4281 0 
L 4281 4097 
L 3078 897 
L 2444 897 
L 1241 4097 
L 1241 0 
L 628 0 
L 628 4666 
z
" transform="scale(0.015625)"/>
     </defs>
     <use xlink:href="#DejaVuSans-4d"/>
    </g>
   </g>
   <g id="text_23">
    <!-- N -->
    <g style="fill: #00ff00" transform="translate(80.355743 204.774516) scale(0.1 -0.1)">
     <defs>
      <path id="DejaVuSans-4e" d="M 628 4666 
L 1478 4666 
L 3547 763 
L 3547 4666 
L 4159 4666 
L 4159 0 
L 3309 0 
L 1241 3903 
L 1241 0 
L 628 0 
L 628 4666 
z
" transform="scale(0.015625)"/>
     </defs>
     <use xlink:href="#DejaVuSans-4e"/>
    </g>
   </g>
   <g id="text_24">
    <!-- X -->
    <g style="fill: #00ff00" transform="translate(48.770094 164.540917) scale(0.1 -0.1)">
     <defs>
      <path id="DejaVuSans-58" d="M 403 4666 
L 1081 4666 
L 2241 2931 
L 3406 4666 
L 4084 4666 
L 2584 2425 
L 4184 0 
L 3506 0 
L 2194 1984 
L 872 0 
L 191 0 
L 1856 2491 
L 403 4666 
z
" transform="scale(0.015625)"/>
     </defs>
     <use xlink:href="#DejaVuSans-58"/>
    </g>
   </g>
   <g id="text_25">
    <!-- O -->
    <g style="fill: #00ff00" transform="translate(155.216992 227.971064) scale(0.1 -0.1)">
     <defs>
      <path id="DejaVuSans-4f" d="M 2522 4238 
Q 1834 4238 1429 3725 
Q 1025 3213 1025 2328 
Q 1025 1447 1429 934 
Q 1834 422 2522 422 
Q 3209 422 3611 934 
Q 4013 1447 4013 2328 
Q 4013 3213 3611 3725 
Q 3209 4238 2522 4238 
z
M 2522 4750 
Q 3503 4750 4090 4092 
Q 4678 3434 4678 2328 
Q 4678 1225 4090 567 
Q 3503 -91 2522 -91 
Q 1538 -91 948 565 
Q 359 1222 359 2328 
Q 359 3434 948 4092 
Q 1538 4750 2522 4750 
z
" transform="scale(0.015625)"/>
     </defs>
     <use xlink:href="#DejaVuSans-4f"/>
    </g>
   </g>
  </g>
 </g>
 <defs>
  <clipPath id="pdbcc6b1a84">
   <rect x="0" y="0" width="368.64" height="368.64"/>
  </clipPath>
 </defs>
</svg>
