<?xml version="1.0" encoding="utf-8" standalone="no"?>
<!DOCTYPE svg PUBLIC "-//W3C//DTD SVG 1.1//EN"
  "http://www.w3.org/Graphics/SVG/1.1/DTD/svg11.dtd">
<svg xmlns:xlink="http://www.w3.org/1999/xlink" width="368.64pt" height="368.64pt" viewBox="0 0 368.64 368.64" xmlns="http://www.w3.org/2000/svg" version="1.1">
 <metadata>
  <rdf:RDF xmlns:dc="http://purl.org/dc/elements/1.1/" xmlns:cc="http://creativecommons.org/ns#" xmlns:rdf="http://www.w3.org/1999/02/22-rdf-syntax-ns#">
   <cc:Work>
    <dc:type rdf:resource="http://purl.org/dc/dcmitype/StillImage"/>
    <dc:date>2024-08-27T11:00:22.997873</dc:date>
    <dc:format>image/svg+xml</dc:format>
    <dc:creator>
     <cc:Agent>
      <dc:title>Matplotlib v3.9.2, https://matplotlib.org/</dc:title>
     </cc:Agent>
    </dc:creator>
   </cc:Work>
  </rdf:RDF>
 </metadata>
 <defs>
  <style type="text/css">*{stroke-linejoin: round; stroke-linecap: butt}</style>
 </defs>
 <g id="figure_1">
  <g id="patch_1">
   <path d="M 0 368.64 
L 368.64 368.64 
L 368.64 0 
L 0 0 
z
" style="fill: #ffffff"/>
  </g>
  <g id="axes_1">
   <g id="patch_2">
    <path d="M 0 368.64 
L 368.64 368.64 
L 368.64 0 
L 0 0 
z
"/>
   </g>
   <g id="patch_3">
    <path d="M 190.327178 219.680158 
L 10.799023 250.147075 
L 118.509875 351.883636 
z
" clip-path="url(#pb164d774c3)" style="fill: #1f77b4"/>
   </g>
   <g id="patch_4">
    <path d="M 87.64785 237.105406 
C 85.518348 224.557186 80.34751 212.719438 72.588732 202.630138 
C 64.829954 192.540839 54.716838 184.503755 43.136137 179.223606 
L 39.902426 186.315953 
C 50.325056 191.068087 59.426861 198.301462 66.409761 207.381832 
C 73.392661 216.462202 78.046416 227.116175 79.962968 238.409573 
z
" clip-path="url(#pb164d774c3)" style="fill: #3cb44b; opacity: 0.5; stroke: #3cb44b; stroke-linejoin: miter"/>
   </g>
   <g id="patch_5">
    <path d="M 133.590656 294.744341 
C 142.781011 285.93923 149.676408 275.015707 153.672234 262.931586 
C 157.66806 250.847466 158.644009 237.966574 156.514507 225.418354 
L 148.829624 226.722521 
C 150.746176 238.015919 149.867822 249.608722 146.271578 260.48443 
C 142.675335 271.360139 136.469478 281.191309 128.198159 289.115909 
z
" clip-path="url(#pb164d774c3)" style="fill: #3cb44b; opacity: 0.5; stroke: #3cb44b; stroke-linejoin: miter"/>
   </g>
   <g id="patch_6">
    <path d="M 175.165595 247.590062 
C 161.403684 240.114136 146.297177 235.435511 130.71885 233.824493 
C 115.140523 232.213476 99.396277 233.701699 84.395734 238.203182 
L 87.807148 249.571228 
C 101.307637 245.519893 115.477458 244.180492 129.497953 245.630408 
C 143.518447 247.080324 157.114303 251.291086 169.500023 258.019419 
z
" clip-path="url(#pb164d774c3)" style="fill: #ffe119; opacity: 0.5; stroke: #ffe119; stroke-linejoin: miter"/>
   </g>
   <g id="patch_7">
    <path d="M 357.840977 87.794459 
C 353.452797 72.760379 346.132001 58.742462 336.301544 46.550588 
C 326.471088 34.358714 314.324007 24.232289 300.562095 16.756364 
L 294.896524 27.185721 
C 307.282244 33.914054 318.214617 43.027837 327.062027 54.000523 
C 335.909438 64.97321 342.498155 77.589335 346.447517 91.120007 
z
" clip-path="url(#pb164d774c3)" style="fill: #ffe119; opacity: 0.5; stroke: #ffe119; stroke-linejoin: miter"/>
   </g>
   <g id="PathCollection_1">
    <defs>
     <path id="m5fd020d2cb" d="M 0 1.118034 
C 0.296506 1.118034 0.580908 1.000231 0.790569 0.790569 
C 1.000231 0.580908 1.118034 0.296506 1.118034 0 
C 1.118034 -0.296506 1.000231 -0.580908 0.790569 -0.790569 
C 0.580908 -1.000231 0.296506 -1.118034 0 -1.118034 
C -0.296506 -1.118034 -0.580908 -1.000231 -0.790569 -0.790569 
C -1.000231 -0.580908 -1.118034 -0.296506 -1.118034 0 
C -1.118034 0.296506 -1.000231 0.580908 -0.790569 0.790569 
C -0.580908 1.000231 -0.296506 1.118034 0 1.118034 
z
" style="stroke: #ffffff"/>
    </defs>
    <g clip-path="url(#pb164d774c3)">
     <use xlink:href="#m5fd020d2cb" x="190.327178" y="219.680158" style="fill: #ffffff; stroke: #ffffff"/>
    </g>
   </g>
   <g id="PathCollection_2">
    <g clip-path="url(#pb164d774c3)">
     <use xlink:href="#m5fd020d2cb" x="10.799023" y="250.147075" style="fill: #ffffff; stroke: #ffffff"/>
    </g>
   </g>
   <g id="PathCollection_3">
    <g clip-path="url(#pb164d774c3)">
     <use xlink:href="#m5fd020d2cb" x="118.509875" y="351.883636" style="fill: #ffffff; stroke: #ffffff"/>
    </g>
   </g>
   <g id="PathCollection_4">
    <g clip-path="url(#pb164d774c3)">
     <use xlink:href="#m5fd020d2cb" x="104.603278" y="258.720606" style="fill: #ffffff; stroke: #ffffff"/>
    </g>
   </g>
   <g id="PathCollection_5">
    <g clip-path="url(#pb164d774c3)">
     <use xlink:href="#m5fd020d2cb" x="79.66568" y="238.460024" style="fill: #ffffff; stroke: #ffffff"/>
    </g>
   </g>
   <g id="PathCollection_6">
    <g clip-path="url(#pb164d774c3)">
     <use xlink:href="#m5fd020d2cb" x="243.906376" y="121.049938" style="fill: #ffffff; stroke: #ffffff"/>
    </g>
   </g>
   <g id="PathCollection_7">
    <g clip-path="url(#pb164d774c3)">
     <use xlink:href="#m5fd020d2cb" x="36.615102" y="193.525886" style="fill: #ffffff; stroke: #ffffff"/>
    </g>
   </g>
   <g id="PathCollection_8">
    <g clip-path="url(#pb164d774c3)">
     <use xlink:href="#m5fd020d2cb" x="64.917175" y="173.293696" style="fill: #ffffff; stroke: #ffffff"/>
    </g>
   </g>
   <g id="matplotlib.axis_1">
    <g id="xtick_1">
     <g id="line2d_1">
      <defs>
       <path id="mcaaf90a882" d="M 0 0 
L 0 3.5 
" style="stroke: #000000; stroke-width: 0.8"/>
      </defs>
      <g>
       <use xlink:href="#mcaaf90a882" x="11.403153" y="368.64" style="stroke: #000000; stroke-width: 0.8"/>
      </g>
     </g>
     <g id="text_1">
      <!-- 0.25 -->
      <g transform="translate(0.270341 383.238437) scale(0.1 -0.1)">
       <defs>
        <path id="DejaVuSans-30" d="M 2034 4250 
Q 1547 4250 1301 3770 
Q 1056 3291 1056 2328 
Q 1056 1369 1301 889 
Q 1547 409 2034 409 
Q 2525 409 2770 889 
Q 3016 1369 3016 2328 
Q 3016 3291 2770 3770 
Q 2525 4250 2034 4250 
z
M 2034 4750 
Q 2819 4750 3233 4129 
Q 3647 3509 3647 2328 
Q 3647 1150 3233 529 
Q 2819 -91 2034 -91 
Q 1250 -91 836 529 
Q 422 1150 422 2328 
Q 422 3509 836 4129 
Q 1250 4750 2034 4750 
z
" transform="scale(0.015625)"/>
        <path id="DejaVuSans-2e" d="M 684 794 
L 1344 794 
L 1344 0 
L 684 0 
L 684 794 
z
" transform="scale(0.015625)"/>
        <path id="DejaVuSans-32" d="M 1228 531 
L 3431 531 
L 3431 0 
L 469 0 
L 469 531 
Q 828 903 1448 1529 
Q 2069 2156 2228 2338 
Q 2531 2678 2651 2914 
Q 2772 3150 2772 3378 
Q 2772 3750 2511 3984 
Q 2250 4219 1831 4219 
Q 1534 4219 1204 4116 
Q 875 4013 500 3803 
L 500 4441 
Q 881 4594 1212 4672 
Q 1544 4750 1819 4750 
Q 2544 4750 2975 4387 
Q 3406 4025 3406 3419 
Q 3406 3131 3298 2873 
Q 3191 2616 2906 2266 
Q 2828 2175 2409 1742 
Q 1991 1309 1228 531 
z
" transform="scale(0.015625)"/>
        <path id="DejaVuSans-35" d="M 691 4666 
L 3169 4666 
L 3169 4134 
L 1269 4134 
L 1269 2991 
Q 1406 3038 1543 3061 
Q 1681 3084 1819 3084 
Q 2600 3084 3056 2656 
Q 3513 2228 3513 1497 
Q 3513 744 3044 326 
Q 2575 -91 1722 -91 
Q 1428 -91 1123 -41 
Q 819 9 494 109 
L 494 744 
Q 775 591 1075 516 
Q 1375 441 1709 441 
Q 2250 441 2565 725 
Q 2881 1009 2881 1497 
Q 2881 1984 2565 2268 
Q 2250 2553 1709 2553 
Q 1456 2553 1204 2497 
Q 953 2441 691 2322 
L 691 4666 
z
" transform="scale(0.015625)"/>
       </defs>
       <use xlink:href="#DejaVuSans-30"/>
       <use xlink:href="#DejaVuSans-2e" x="63.623047"/>
       <use xlink:href="#DejaVuSans-32" x="95.410156"/>
       <use xlink:href="#DejaVuSans-35" x="159.033203"/>
      </g>
     </g>
    </g>
    <g id="xtick_2">
     <g id="line2d_2">
      <g>
       <use xlink:href="#mcaaf90a882" x="52.402129" y="368.64" style="stroke: #000000; stroke-width: 0.8"/>
      </g>
     </g>
     <g id="text_2">
      <!-- 0.50 -->
      <g transform="translate(41.269316 383.238437) scale(0.1 -0.1)">
       <use xlink:href="#DejaVuSans-30"/>
       <use xlink:href="#DejaVuSans-2e" x="63.623047"/>
       <use xlink:href="#DejaVuSans-35" x="95.410156"/>
       <use xlink:href="#DejaVuSans-30" x="159.033203"/>
      </g>
     </g>
    </g>
    <g id="xtick_3">
     <g id="line2d_3">
      <g>
       <use xlink:href="#mcaaf90a882" x="93.401105" y="368.64" style="stroke: #000000; stroke-width: 0.8"/>
      </g>
     </g>
     <g id="text_3">
      <!-- 0.75 -->
      <g transform="translate(82.268292 383.238437) scale(0.1 -0.1)">
       <defs>
        <path id="DejaVuSans-37" d="M 525 4666 
L 3525 4666 
L 3525 4397 
L 1831 0 
L 1172 0 
L 2766 4134 
L 525 4134 
L 525 4666 
z
" transform="scale(0.015625)"/>
       </defs>
       <use xlink:href="#DejaVuSans-30"/>
       <use xlink:href="#DejaVuSans-2e" x="63.623047"/>
       <use xlink:href="#DejaVuSans-37" x="95.410156"/>
       <use xlink:href="#DejaVuSans-35" x="159.033203"/>
      </g>
     </g>
    </g>
    <g id="xtick_4">
     <g id="line2d_4">
      <g>
       <use xlink:href="#mcaaf90a882" x="134.40008" y="368.64" style="stroke: #000000; stroke-width: 0.8"/>
      </g>
     </g>
     <g id="text_4">
      <!-- 1.00 -->
      <g transform="translate(123.267268 383.238437) scale(0.1 -0.1)">
       <defs>
        <path id="DejaVuSans-31" d="M 794 531 
L 1825 531 
L 1825 4091 
L 703 3866 
L 703 4441 
L 1819 4666 
L 2450 4666 
L 2450 531 
L 3481 531 
L 3481 0 
L 794 0 
L 794 531 
z
" transform="scale(0.015625)"/>
       </defs>
       <use xlink:href="#DejaVuSans-31"/>
       <use xlink:href="#DejaVuSans-2e" x="63.623047"/>
       <use xlink:href="#DejaVuSans-30" x="95.410156"/>
       <use xlink:href="#DejaVuSans-30" x="159.033203"/>
      </g>
     </g>
    </g>
    <g id="xtick_5">
     <g id="line2d_5">
      <g>
       <use xlink:href="#mcaaf90a882" x="175.399056" y="368.64" style="stroke: #000000; stroke-width: 0.8"/>
      </g>
     </g>
     <g id="text_5">
      <!-- 1.25 -->
      <g transform="translate(164.266243 383.238437) scale(0.1 -0.1)">
       <use xlink:href="#DejaVuSans-31"/>
       <use xlink:href="#DejaVuSans-2e" x="63.623047"/>
       <use xlink:href="#DejaVuSans-32" x="95.410156"/>
       <use xlink:href="#DejaVuSans-35" x="159.033203"/>
      </g>
     </g>
    </g>
    <g id="xtick_6">
     <g id="line2d_6">
      <g>
       <use xlink:href="#mcaaf90a882" x="216.398032" y="368.64" style="stroke: #000000; stroke-width: 0.8"/>
      </g>
     </g>
     <g id="text_6">
      <!-- 1.50 -->
      <g transform="translate(205.265219 383.238437) scale(0.1 -0.1)">
       <use xlink:href="#DejaVuSans-31"/>
       <use xlink:href="#DejaVuSans-2e" x="63.623047"/>
       <use xlink:href="#DejaVuSans-35" x="95.410156"/>
       <use xlink:href="#DejaVuSans-30" x="159.033203"/>
      </g>
     </g>
    </g>
    <g id="xtick_7">
     <g id="line2d_7">
      <g>
       <use xlink:href="#mcaaf90a882" x="257.397007" y="368.64" style="stroke: #000000; stroke-width: 0.8"/>
      </g>
     </g>
     <g id="text_7">
      <!-- 1.75 -->
      <g transform="translate(246.264195 383.238437) scale(0.1 -0.1)">
       <use xlink:href="#DejaVuSans-31"/>
       <use xlink:href="#DejaVuSans-2e" x="63.623047"/>
       <use xlink:href="#DejaVuSans-37" x="95.410156"/>
       <use xlink:href="#DejaVuSans-35" x="159.033203"/>
      </g>
     </g>
    </g>
    <g id="xtick_8">
     <g id="line2d_8">
      <g>
       <use xlink:href="#mcaaf90a882" x="298.395983" y="368.64" style="stroke: #000000; stroke-width: 0.8"/>
      </g>
     </g>
     <g id="text_8">
      <!-- 2.00 -->
      <g transform="translate(287.26317 383.238437) scale(0.1 -0.1)">
       <use xlink:href="#DejaVuSans-32"/>
       <use xlink:href="#DejaVuSans-2e" x="63.623047"/>
       <use xlink:href="#DejaVuSans-30" x="95.410156"/>
       <use xlink:href="#DejaVuSans-30" x="159.033203"/>
      </g>
     </g>
    </g>
    <g id="xtick_9">
     <g id="line2d_9">
      <g>
       <use xlink:href="#mcaaf90a882" x="339.394958" y="368.64" style="stroke: #000000; stroke-width: 0.8"/>
      </g>
     </g>
     <g id="text_9">
      <!-- 2.25 -->
      <g transform="translate(328.262146 383.238437) scale(0.1 -0.1)">
       <use xlink:href="#DejaVuSans-32"/>
       <use xlink:href="#DejaVuSans-2e" x="63.623047"/>
       <use xlink:href="#DejaVuSans-32" x="95.410156"/>
       <use xlink:href="#DejaVuSans-35" x="159.033203"/>
      </g>
     </g>
    </g>
   </g>
   <g id="matplotlib.axis_2">
    <g id="ytick_1">
     <g id="line2d_10">
      <defs>
       <path id="m0ce1b7194c" d="M 0 0 
L -3.5 0 
" style="stroke: #000000; stroke-width: 0.8"/>
      </defs>
      <g>
       <use xlink:href="#m0ce1b7194c" x="0" y="350.169652" style="stroke: #000000; stroke-width: 0.8"/>
      </g>
     </g>
     <g id="text_10">
      <!-- 0.50 -->
      <g transform="translate(-29.265625 353.96887) scale(0.1 -0.1)">
       <use xlink:href="#DejaVuSans-30"/>
       <use xlink:href="#DejaVuSans-2e" x="63.623047"/>
       <use xlink:href="#DejaVuSans-35" x="95.410156"/>
       <use xlink:href="#DejaVuSans-30" x="159.033203"/>
      </g>
     </g>
    </g>
    <g id="ytick_2">
     <g id="line2d_11">
      <g>
       <use xlink:href="#m0ce1b7194c" x="0" y="309.170676" style="stroke: #000000; stroke-width: 0.8"/>
      </g>
     </g>
     <g id="text_11">
      <!-- 0.75 -->
      <g transform="translate(-29.265625 312.969895) scale(0.1 -0.1)">
       <use xlink:href="#DejaVuSans-30"/>
       <use xlink:href="#DejaVuSans-2e" x="63.623047"/>
       <use xlink:href="#DejaVuSans-37" x="95.410156"/>
       <use xlink:href="#DejaVuSans-35" x="159.033203"/>
      </g>
     </g>
    </g>
    <g id="ytick_3">
     <g id="line2d_12">
      <g>
       <use xlink:href="#m0ce1b7194c" x="0" y="268.1717" style="stroke: #000000; stroke-width: 0.8"/>
      </g>
     </g>
     <g id="text_12">
      <!-- 1.00 -->
      <g transform="translate(-29.265625 271.970919) scale(0.1 -0.1)">
       <use xlink:href="#DejaVuSans-31"/>
       <use xlink:href="#DejaVuSans-2e" x="63.623047"/>
       <use xlink:href="#DejaVuSans-30" x="95.410156"/>
       <use xlink:href="#DejaVuSans-30" x="159.033203"/>
      </g>
     </g>
    </g>
    <g id="ytick_4">
     <g id="line2d_13">
      <g>
       <use xlink:href="#m0ce1b7194c" x="0" y="227.172725" style="stroke: #000000; stroke-width: 0.8"/>
      </g>
     </g>
     <g id="text_13">
      <!-- 1.25 -->
      <g transform="translate(-29.265625 230.971943) scale(0.1 -0.1)">
       <use xlink:href="#DejaVuSans-31"/>
       <use xlink:href="#DejaVuSans-2e" x="63.623047"/>
       <use xlink:href="#DejaVuSans-32" x="95.410156"/>
       <use xlink:href="#DejaVuSans-35" x="159.033203"/>
      </g>
     </g>
    </g>
    <g id="ytick_5">
     <g id="line2d_14">
      <g>
       <use xlink:href="#m0ce1b7194c" x="0" y="186.173749" style="stroke: #000000; stroke-width: 0.8"/>
      </g>
     </g>
     <g id="text_14">
      <!-- 1.50 -->
      <g transform="translate(-29.265625 189.972968) scale(0.1 -0.1)">
       <use xlink:href="#DejaVuSans-31"/>
       <use xlink:href="#DejaVuSans-2e" x="63.623047"/>
       <use xlink:href="#DejaVuSans-35" x="95.410156"/>
       <use xlink:href="#DejaVuSans-30" x="159.033203"/>
      </g>
     </g>
    </g>
    <g id="ytick_6">
     <g id="line2d_15">
      <g>
       <use xlink:href="#m0ce1b7194c" x="0" y="145.174773" style="stroke: #000000; stroke-width: 0.8"/>
      </g>
     </g>
     <g id="text_15">
      <!-- 1.75 -->
      <g transform="translate(-29.265625 148.973992) scale(0.1 -0.1)">
       <use xlink:href="#DejaVuSans-31"/>
       <use xlink:href="#DejaVuSans-2e" x="63.623047"/>
       <use xlink:href="#DejaVuSans-37" x="95.410156"/>
       <use xlink:href="#DejaVuSans-35" x="159.033203"/>
      </g>
     </g>
    </g>
    <g id="ytick_7">
     <g id="line2d_16">
      <g>
       <use xlink:href="#m0ce1b7194c" x="0" y="104.175798" style="stroke: #000000; stroke-width: 0.8"/>
      </g>
     </g>
     <g id="text_16">
      <!-- 2.00 -->
      <g transform="translate(-29.265625 107.975017) scale(0.1 -0.1)">
       <use xlink:href="#DejaVuSans-32"/>
       <use xlink:href="#DejaVuSans-2e" x="63.623047"/>
       <use xlink:href="#DejaVuSans-30" x="95.410156"/>
       <use xlink:href="#DejaVuSans-30" x="159.033203"/>
      </g>
     </g>
    </g>
    <g id="ytick_8">
     <g id="line2d_17">
      <g>
       <use xlink:href="#m0ce1b7194c" x="0" y="63.176822" style="stroke: #000000; stroke-width: 0.8"/>
      </g>
     </g>
     <g id="text_17">
      <!-- 2.25 -->
      <g transform="translate(-29.265625 66.976041) scale(0.1 -0.1)">
       <use xlink:href="#DejaVuSans-32"/>
       <use xlink:href="#DejaVuSans-2e" x="63.623047"/>
       <use xlink:href="#DejaVuSans-32" x="95.410156"/>
       <use xlink:href="#DejaVuSans-35" x="159.033203"/>
      </g>
     </g>
    </g>
    <g id="ytick_9">
     <g id="line2d_18">
      <g>
       <use xlink:href="#m0ce1b7194c" x="0" y="22.177847" style="stroke: #000000; stroke-width: 0.8"/>
      </g>
     </g>
     <g id="text_18">
      <!-- 2.50 -->
      <g transform="translate(-29.265625 25.977065) scale(0.1 -0.1)">
       <use xlink:href="#DejaVuSans-32"/>
       <use xlink:href="#DejaVuSans-2e" x="63.623047"/>
       <use xlink:href="#DejaVuSans-35" x="95.410156"/>
       <use xlink:href="#DejaVuSans-30" x="159.033203"/>
      </g>
     </g>
    </g>
   </g>
   <g id="line2d_19">
    <path d="M 190.327178 219.680158 
L 104.603278 258.720606 
" clip-path="url(#pb164d774c3)" style="fill: none; stroke: #ffffff; stroke-opacity: 0.9; stroke-width: 0.4; stroke-linecap: square"/>
   </g>
   <g id="line2d_20">
    <path d="M 10.799023 250.147075 
L 104.603278 258.720606 
" clip-path="url(#pb164d774c3)" style="fill: none; stroke: #ffffff; stroke-opacity: 0.9; stroke-width: 0.4; stroke-linecap: square"/>
   </g>
   <g id="line2d_21">
    <path d="M 10.799023 250.147075 
L 104.603278 258.720606 
" clip-path="url(#pb164d774c3)" style="fill: none; stroke: #ffffff; stroke-opacity: 0.9; stroke-width: 0.4; stroke-linecap: square"/>
   </g>
   <g id="line2d_22">
    <path d="M 118.509875 351.883636 
L 104.603278 258.720606 
" clip-path="url(#pb164d774c3)" style="fill: none; stroke: #ffffff; stroke-opacity: 0.9; stroke-width: 0.4; stroke-linecap: square"/>
   </g>
   <g id="line2d_23">
    <path d="M 0 251.979729 
L 368.64 189.419489 
" clip-path="url(#pb164d774c3)" style="fill: none; stroke-dasharray: 1.48,0.64; stroke-dashoffset: 0; stroke: #ffffff; stroke-width: 0.4"/>
   </g>
   <g id="line2d_24">
    <path d="M 109.407264 368.64 
L 309.664706 0 
" clip-path="url(#pb164d774c3)" style="fill: none; stroke-dasharray: 1.48,0.64; stroke-dashoffset: 0; stroke: #ffffff; stroke-width: 0.4"/>
   </g>
   <g id="line2d_25">
    <path d="M 190.327178 219.680158 
L 79.66568 238.460024 
" clip-path="url(#pb164d774c3)" style="fill: none; stroke: #ffffff; stroke-opacity: 0.9; stroke-width: 0.4; stroke-linecap: square"/>
   </g>
   <g id="line2d_26">
    <path d="M 190.327178 219.680158 
L 243.906376 121.049938 
" clip-path="url(#pb164d774c3)" style="fill: none; stroke: #ffffff; stroke-opacity: 0.9; stroke-width: 0.4; stroke-linecap: square"/>
   </g>
   <g id="line2d_27">
    <path d="M 10.799023 250.147075 
L 36.615102 193.525886 
" clip-path="url(#pb164d774c3)" style="fill: none; stroke: #ffffff; stroke-opacity: 0.9; stroke-width: 0.4; stroke-linecap: square"/>
   </g>
   <g id="line2d_28">
    <path d="M 79.66568 238.460024 
L 36.615102 193.525886 
" clip-path="url(#pb164d774c3)" style="fill: none; stroke: #ffffff; stroke-opacity: 0.9; stroke-width: 0.4; stroke-linecap: square"/>
   </g>
   <g id="line2d_29">
    <path d="M 0 251.979729 
L 368.64 189.419489 
" clip-path="url(#pb164d774c3)" style="fill: none; stroke-dasharray: 0.4,0.66; stroke-dashoffset: 0; stroke: #ffffff; stroke-opacity: 0.9; stroke-width: 0.4"/>
   </g>
   <g id="line2d_30">
    <path d="M 0 273.832064 
L 124.852024 0 
" clip-path="url(#pb164d774c3)" style="fill: none; stroke-dasharray: 0.4,0.66; stroke-dashoffset: 0; stroke: #ffffff; stroke-opacity: 0.9; stroke-width: 0.4"/>
   </g>
   <g id="line2d_31">
    <path d="M 0 155.30879 
L 204.388738 368.64 
" clip-path="url(#pb164d774c3)" style="fill: none; stroke-dasharray: 0.4,0.66; stroke-dashoffset: 0; stroke: #ffffff; stroke-opacity: 0.9; stroke-width: 0.4"/>
   </g>
   <g id="line2d_32">
    <path d="M 0 251.979729 
L 368.64 189.419489 
" clip-path="url(#pb164d774c3)" style="fill: none; stroke-dasharray: 0.4,0.66; stroke-dashoffset: 0; stroke: #ffffff; stroke-opacity: 0.9; stroke-width: 0.4"/>
   </g>
   <g id="line2d_33">
    <path d="M 190.327178 219.680158 
L 104.603278 258.720606 
" clip-path="url(#pb164d774c3)" style="fill: none; stroke: #ffffff; stroke-opacity: 0.9; stroke-width: 0.4; stroke-linecap: square"/>
   </g>
   <g id="line2d_34">
    <path d="M 36.615102 193.525886 
L 104.603278 258.720606 
" clip-path="url(#pb164d774c3)" style="fill: none; stroke: #ffffff; stroke-opacity: 0.9; stroke-width: 0.4; stroke-linecap: square"/>
   </g>
   <g id="line2d_35">
    <path d="M 118.509875 351.883636 
L 64.917175 173.293696 
" clip-path="url(#pb164d774c3)" style="fill: none; stroke: #ffffff; stroke-opacity: 0.9; stroke-width: 0.4; stroke-linecap: square"/>
   </g>
   <g id="line2d_36">
    <path d="M 243.906376 121.049938 
L 64.917175 173.293696 
" clip-path="url(#pb164d774c3)" style="fill: none; stroke: #ffffff; stroke-opacity: 0.9; stroke-width: 0.4; stroke-linecap: square"/>
   </g>
   <g id="line2d_37">
    <path d="M 109.407264 368.64 
L 309.664706 0 
" clip-path="url(#pb164d774c3)" style="fill: none; stroke-dasharray: 0.4,0.66; stroke-dashoffset: 0; stroke: #ffffff; stroke-opacity: 0.9; stroke-width: 0.4"/>
   </g>
   <g id="line2d_38">
    <path d="M 12.913814 0 
L 123.538259 368.64 
" clip-path="url(#pb164d774c3)" style="fill: none; stroke-dasharray: 0.4,0.66; stroke-dashoffset: 0; stroke: #ffffff; stroke-opacity: 0.9; stroke-width: 0.4"/>
   </g>
   <g id="line2d_39">
    <path d="M 0 192.241863 
L 368.64 84.642416 
" clip-path="url(#pb164d774c3)" style="fill: none; stroke-dasharray: 0.4,0.66; stroke-dashoffset: 0; stroke: #ffffff; stroke-opacity: 0.9; stroke-width: 0.4"/>
   </g>
   <g id="line2d_40">
    <path d="M 109.407264 368.64 
L 309.664706 0 
" clip-path="url(#pb164d774c3)" style="fill: none; stroke-dasharray: 0.4,0.66; stroke-dashoffset: 0; stroke: #ffffff; stroke-opacity: 0.9; stroke-width: 0.4"/>
   </g>
   <g id="line2d_41">
    <path d="M 190.327178 219.680158 
L 104.603278 258.720606 
" clip-path="url(#pb164d774c3)" style="fill: none; stroke: #ffffff; stroke-opacity: 0.9; stroke-width: 0.4; stroke-linecap: square"/>
   </g>
   <g id="line2d_42">
    <path d="M 64.917175 173.293696 
L 104.603278 258.720606 
" clip-path="url(#pb164d774c3)" style="fill: none; stroke: #ffffff; stroke-opacity: 0.9; stroke-width: 0.4; stroke-linecap: square"/>
   </g>
   <g id="patch_8">
    <path d="M 0 368.64 
L 0 0 
" style="fill: none; stroke: #000000; stroke-width: 0.8; stroke-linejoin: miter; stroke-linecap: square"/>
   </g>
   <g id="patch_9">
    <path d="M 368.64 368.64 
L 368.64 0 
" style="fill: none; stroke: #000000; stroke-width: 0.8; stroke-linejoin: miter; stroke-linecap: square"/>
   </g>
   <g id="patch_10">
    <path d="M 0 368.64 
L 368.64 368.64 
" style="fill: none; stroke: #000000; stroke-width: 0.8; stroke-linejoin: miter; stroke-linecap: square"/>
   </g>
   <g id="patch_11">
    <path d="M 0 0 
L 368.64 0 
" style="fill: none; stroke: #000000; stroke-width: 0.8; stroke-linejoin: miter; stroke-linecap: square"/>
   </g>
   <g id="text_19">
    <!-- A -->
    <g style="fill: #00ff00" transform="translate(190.327178 219.680158) scale(0.1 -0.1)">
     <defs>
      <path id="DejaVuSans-41" d="M 2188 4044 
L 1331 1722 
L 3047 1722 
L 2188 4044 
z
M 1831 4666 
L 2547 4666 
L 4325 0 
L 3669 0 
L 3244 1197 
L 1141 1197 
L 716 0 
L 50 0 
L 1831 4666 
z
" transform="scale(0.015625)"/>
     </defs>
     <use xlink:href="#DejaVuSans-41"/>
    </g>
   </g>
   <g id="text_20">
    <!-- B -->
    <g style="fill: #00ff00" transform="translate(10.799023 250.147075) scale(0.1 -0.1)">
     <defs>
      <path id="DejaVuSans-42" d="M 1259 2228 
L 1259 519 
L 2272 519 
Q 2781 519 3026 730 
Q 3272 941 3272 1375 
Q 3272 1813 3026 2020 
Q 2781 2228 2272 2228 
L 1259 2228 
z
M 1259 4147 
L 1259 2741 
L 2194 2741 
Q 2656 2741 2882 2914 
Q 3109 3088 3109 3444 
Q 3109 3797 2882 3972 
Q 2656 4147 2194 4147 
L 1259 4147 
z
M 628 4666 
L 2241 4666 
Q 2963 4666 3353 4366 
Q 3744 4066 3744 3513 
Q 3744 3084 3544 2831 
Q 3344 2578 2956 2516 
Q 3422 2416 3680 2098 
Q 3938 1781 3938 1306 
Q 3938 681 3513 340 
Q 3088 0 2303 0 
L 628 0 
L 628 4666 
z
" transform="scale(0.015625)"/>
     </defs>
     <use xlink:href="#DejaVuSans-42"/>
    </g>
   </g>
   <g id="text_21">
    <!-- C -->
    <g style="fill: #00ff00" transform="translate(118.509875 351.883636) scale(0.1 -0.1)">
     <defs>
      <path id="DejaVuSans-43" d="M 4122 4306 
L 4122 3641 
Q 3803 3938 3442 4084 
Q 3081 4231 2675 4231 
Q 1875 4231 1450 3742 
Q 1025 3253 1025 2328 
Q 1025 1406 1450 917 
Q 1875 428 2675 428 
Q 3081 428 3442 575 
Q 3803 722 4122 1019 
L 4122 359 
Q 3791 134 3420 21 
Q 3050 -91 2638 -91 
Q 1578 -91 968 557 
Q 359 1206 359 2328 
Q 359 3453 968 4101 
Q 1578 4750 2638 4750 
Q 3056 4750 3426 4639 
Q 3797 4528 4122 4306 
z
" transform="scale(0.015625)"/>
     </defs>
     <use xlink:href="#DejaVuSans-43"/>
    </g>
   </g>
   <g id="text_22">
    <!-- O -->
    <g style="fill: #00ff00" transform="translate(104.603278 258.720606) scale(0.1 -0.1)">
     <defs>
      <path id="DejaVuSans-4f" d="M 2522 4238 
Q 1834 4238 1429 3725 
Q 1025 3213 1025 2328 
Q 1025 1447 1429 934 
Q 1834 422 2522 422 
Q 3209 422 3611 934 
Q 4013 1447 4013 2328 
Q 4013 3213 3611 3725 
Q 3209 4238 2522 4238 
z
M 2522 4750 
Q 3503 4750 4090 4092 
Q 4678 3434 4678 2328 
Q 4678 1225 4090 567 
Q 3503 -91 2522 -91 
Q 1538 -91 948 565 
Q 359 1222 359 2328 
Q 359 3434 948 4092 
Q 1538 4750 2522 4750 
z
" transform="scale(0.015625)"/>
     </defs>
     <use xlink:href="#DejaVuSans-4f"/>
    </g>
   </g>
   <g id="text_23">
    <!-- D -->
    <g style="fill: #00ff00" transform="translate(79.66568 238.460024) scale(0.1 -0.1)">
     <defs>
      <path id="DejaVuSans-44" d="M 1259 4147 
L 1259 519 
L 2022 519 
Q 2988 519 3436 956 
Q 3884 1394 3884 2338 
Q 3884 3275 3436 3711 
Q 2988 4147 2022 4147 
L 1259 4147 
z
M 628 4666 
L 1925 4666 
Q 3281 4666 3915 4102 
Q 4550 3538 4550 2338 
Q 4550 1131 3912 565 
Q 3275 0 1925 0 
L 628 0 
L 628 4666 
z
" transform="scale(0.015625)"/>
     </defs>
     <use xlink:href="#DejaVuSans-44"/>
    </g>
   </g>
   <g id="text_24">
    <!-- E -->
    <g style="fill: #00ff00" transform="translate(243.906376 121.049938) scale(0.1 -0.1)">
     <defs>
      <path id="DejaVuSans-45" d="M 628 4666 
L 3578 4666 
L 3578 4134 
L 1259 4134 
L 1259 2753 
L 3481 2753 
L 3481 2222 
L 1259 2222 
L 1259 531 
L 3634 531 
L 3634 0 
L 628 0 
L 628 4666 
z
" transform="scale(0.015625)"/>
     </defs>
     <use xlink:href="#DejaVuSans-45"/>
    </g>
   </g>
   <g id="text_25">
    <!-- F -->
    <g style="fill: #00ff00" transform="translate(36.615102 193.525886) scale(0.1 -0.1)">
     <defs>
      <path id="DejaVuSans-46" d="M 628 4666 
L 3309 4666 
L 3309 4134 
L 1259 4134 
L 1259 2759 
L 3109 2759 
L 3109 2228 
L 1259 2228 
L 1259 0 
L 628 0 
L 628 4666 
z
" transform="scale(0.015625)"/>
     </defs>
     <use xlink:href="#DejaVuSans-46"/>
    </g>
   </g>
   <g id="text_26">
    <!-- G -->
    <g style="fill: #00ff00" transform="translate(64.917175 173.293696) scale(0.1 -0.1)">
     <defs>
      <path id="DejaVuSans-47" d="M 3809 666 
L 3809 1919 
L 2778 1919 
L 2778 2438 
L 4434 2438 
L 4434 434 
Q 4069 175 3628 42 
Q 3188 -91 2688 -91 
Q 1594 -91 976 548 
Q 359 1188 359 2328 
Q 359 3472 976 4111 
Q 1594 4750 2688 4750 
Q 3144 4750 3555 4637 
Q 3966 4525 4313 4306 
L 4313 3634 
Q 3963 3931 3569 4081 
Q 3175 4231 2741 4231 
Q 1884 4231 1454 3753 
Q 1025 3275 1025 2328 
Q 1025 1384 1454 906 
Q 1884 428 2741 428 
Q 3075 428 3337 486 
Q 3600 544 3809 666 
z
" transform="scale(0.015625)"/>
     </defs>
     <use xlink:href="#DejaVuSans-47"/>
    </g>
   </g>
  </g>
 </g>
 <defs>
  <clipPath id="pb164d774c3">
   <rect x="0" y="0" width="368.64" height="368.64"/>
  </clipPath>
 </defs>
</svg>
