<?xml version="1.0" encoding="utf-8" standalone="no"?>
<!DOCTYPE svg PUBLIC "-//W3C//DTD SVG 1.1//EN"
  "http://www.w3.org/Graphics/SVG/1.1/DTD/svg11.dtd">
<svg xmlns:xlink="http://www.w3.org/1999/xlink" width="368.64pt" height="368.64pt" viewBox="0 0 368.64 368.64" xmlns="http://www.w3.org/2000/svg" version="1.1">
 <metadata>
  <rdf:RDF xmlns:dc="http://purl.org/dc/elements/1.1/" xmlns:cc="http://creativecommons.org/ns#" xmlns:rdf="http://www.w3.org/1999/02/22-rdf-syntax-ns#">
   <cc:Work>
    <dc:type rdf:resource="http://purl.org/dc/dcmitype/StillImage"/>
    <dc:date>2024-08-26T21:08:39.268164</dc:date>
    <dc:format>image/svg+xml</dc:format>
    <dc:creator>
     <cc:Agent>
      <dc:title>Matplotlib v3.9.2, https://matplotlib.org/</dc:title>
     </cc:Agent>
    </dc:creator>
   </cc:Work>
  </rdf:RDF>
 </metadata>
 <defs>
  <style type="text/css">*{stroke-linejoin: round; stroke-linecap: butt}</style>
 </defs>
 <g id="figure_1">
  <g id="patch_1">
   <path d="M 0 368.64 
L 368.64 368.64 
L 368.64 0 
L 0 0 
z
" style="fill: #ffffff"/>
  </g>
  <g id="axes_1">
   <g id="patch_2">
    <path d="M 0 368.64 
L 368.64 368.64 
L 368.64 0 
L 0 0 
z
"/>
   </g>
   <g id="patch_3">
    <path d="M 261.350385 157.118733 
L 121.022846 135.165982 
L 301.611894 238.385665 
z
" clip-path="url(#pd031c4f1e2)" style="fill: #1f77b4"/>
   </g>
   <g id="patch_4">
    <path d="M 306.135992 130.225404 
C 304.865773 128.110102 303.447285 126.087447 301.891183 124.172635 
C 300.335082 122.257822 298.645274 120.455659 296.834454 118.779685 
L 293.286047 122.61359 
C 294.915785 124.121967 296.436612 125.743913 297.837103 127.467244 
C 299.237595 129.190576 300.514234 131.010965 301.657431 132.914737 
z
" clip-path="url(#pd031c4f1e2)" style="fill: #3cb44b; opacity: 0.5; stroke: #3cb44b; stroke-linejoin: miter"/>
   </g>
   <g id="patch_5">
    <path d="M 102.215989 269.70862 
C 101.587618 267.322596 100.790992 264.984087 99.832095 262.710658 
C 98.873198 260.43723 97.754438 258.234591 96.484219 256.119289 
L 92.005659 258.808622 
C 93.148855 260.712394 94.15574 262.694769 95.018747 264.740854 
C 95.881754 266.78694 96.598718 268.891599 97.164252 271.03902 
z
" clip-path="url(#pd031c4f1e2)" style="fill: #3cb44b; opacity: 0.5; stroke: #3cb44b; stroke-linejoin: miter"/>
   </g>
   <g id="patch_6">
    <path d="M 112.871648 246.278795 
C 109.243334 240.236544 104.73974 234.765066 99.507747 230.042809 
C 94.275754 225.320552 88.372864 221.399415 81.991593 218.407283 
L 78.962295 224.867817 
C 84.705439 227.560736 90.018039 231.089758 94.726833 235.33979 
C 99.435627 239.589822 103.488861 244.514151 106.754344 249.952178 
z
" clip-path="url(#pd031c4f1e2)" style="fill: #ffe119; opacity: 0.5; stroke: #ffe119; stroke-linejoin: miter"/>
   </g>
   <g id="patch_7">
    <path d="M 117.000757 311.772729 
C 119.841483 305.322633 121.710953 298.487101 122.548199 291.489066 
C 123.385444 284.491032 123.181261 277.407408 121.942311 270.469219 
L 114.917941 271.723559 
C 116.032997 277.967929 116.216761 284.34319 115.46324 290.641421 
C 114.709719 296.939653 113.027196 303.091631 110.470542 308.896718 
z
" clip-path="url(#pd031c4f1e2)" style="fill: #ffe119; opacity: 0.5; stroke: #ffe119; stroke-linejoin: miter"/>
   </g>
   <g id="patch_8">
    <path d="M 145.026495 83.9738 
C 137.532754 80.460038 129.358072 78.634209 121.081441 78.625631 
C 112.804811 78.617054 104.626362 80.425935 97.125353 83.924158 
L 99.515103 89.04834 
C 106.26601 85.89994 113.626614 84.271946 121.075582 84.279666 
C 128.524549 84.287386 135.881763 85.930632 142.626131 89.093018 
z
" clip-path="url(#pd031c4f1e2)" style="fill: #4363d8; opacity: 0.5; stroke: #4363d8; stroke-linejoin: miter"/>
   </g>
   <g id="patch_9">
    <path d="M 106.374723 268.613397 
C 104.2669 260.609663 100.427127 253.165522 95.127366 246.808226 
C 89.827604 240.45093 83.196003 235.334198 75.702261 231.820436 
L 73.301896 236.939655 
C 80.046264 240.10204 86.014705 244.707099 90.784491 250.428665 
C 95.554276 256.150232 99.010072 262.849958 100.907112 270.053319 
z
" clip-path="url(#pd031c4f1e2)" style="fill: #4363d8; opacity: 0.5; stroke: #4363d8; stroke-linejoin: miter"/>
   </g>
   <g id="patch_10">
    <path d="M 262.237674 157.25754 
C 262.260441 157.11201 262.247058 156.96309 262.198708 156.823951 
C 262.150359 156.684812 262.068513 156.559681 261.960409 156.459627 
L 261.899407 156.525538 
C 261.9967 156.615586 262.070362 156.728204 262.113876 156.853429 
C 262.15739 156.978654 262.169435 157.112682 262.148945 157.243659 
z
" clip-path="url(#pd031c4f1e2)" style="fill: #f58231; opacity: 0.5; stroke: #f58231; stroke-linejoin: miter"/>
   </g>
   <g id="patch_11">
    <path d="M 120.643261 134.352062 
C 120.509765 134.41432 120.393614 134.508476 120.305081 134.626201 
C 120.216548 134.743927 120.158323 134.881645 120.135557 135.027175 
L 120.224286 135.041055 
C 120.244776 134.910078 120.297178 134.786132 120.376857 134.680179 
C 120.456537 134.574227 120.561073 134.489486 120.68122 134.433454 
z
" clip-path="url(#pd031c4f1e2)" style="fill: #f58231; opacity: 0.5; stroke: #f58231; stroke-linejoin: miter"/>
   </g>
   <g id="patch_12">
    <path d="M 198.381224 147.267877 
C 201.000345 130.52579 198.114956 113.377492 190.161095 98.414425 
C 182.207235 83.451358 169.606816 71.467241 154.264009 64.273108 
L 150.939893 71.362396 
C 164.748419 77.837115 176.088796 88.62282 183.247271 102.089581 
C 190.405745 115.556341 193.002595 130.989809 190.645386 146.057688 
z
" clip-path="url(#pd031c4f1e2)" style="fill: #911eb4; opacity: 0.5; stroke: #911eb4; stroke-linejoin: miter"/>
   </g>
   <g id="patch_13">
    <path d="M 139.329071 59.036772 
C 122.853003 55.074895 105.527765 56.566782 89.971538 63.286981 
C 74.415311 70.00718 61.453278 81.599217 53.044256 96.311308 
L 59.842115 100.196775 
C 67.410235 86.955893 79.076065 76.523061 93.076669 70.474881 
C 107.077273 64.426702 122.669988 63.084003 137.498448 66.649693 
z
" clip-path="url(#pd031c4f1e2)" style="fill: #911eb4; opacity: 0.5; stroke: #911eb4; stroke-linejoin: miter"/>
   </g>
   <g id="patch_14">
    <path d="M 113.203189 118.398805 
C 111.480723 119.202107 109.89228 120.266052 108.493853 121.553136 
C 107.095426 122.840221 105.903643 124.335141 104.960515 125.9852 
L 106.566748 126.903278 
C 107.415563 125.418225 108.488168 124.072797 109.746752 122.914421 
C 111.005336 121.756045 112.434935 120.798494 113.985155 120.075523 
z
" clip-path="url(#pd031c4f1e2)" style="fill: #46f0f0; opacity: 0.5; stroke: #46f0f0; stroke-linejoin: miter"/>
   </g>
   <g id="patch_15">
    <path d="M 317.674225 247.566448 
C 318.617353 245.916389 319.300612 244.130811 319.699916 242.272656 
C 320.099221 240.414501 320.209823 238.505863 320.027825 236.614022 
L 318.186232 236.791187 
C 318.35003 238.493843 318.250488 240.211617 317.891114 241.883957 
C 317.53174 243.556296 316.916807 245.163317 316.067992 246.648369 
z
" clip-path="url(#pd031c4f1e2)" style="fill: #46f0f0; opacity: 0.5; stroke: #46f0f0; stroke-linejoin: miter"/>
   </g>
   <g id="patch_16">
    <path d="M 351.883636 233.54944 
C 351.818506 232.872419 351.739705 232.196782 351.647283 231.522943 
C 351.554861 230.849104 351.448837 230.177201 351.329274 229.507645 
L 346.357536 230.395447 
C 346.465143 230.998048 346.560565 231.60276 346.643744 232.209215 
C 346.726924 232.81567 346.797845 233.423743 346.856462 234.033063 
z
" clip-path="url(#pd031c4f1e2)" style="fill: #f032e6; opacity: 0.5; stroke: #f032e6; stroke-linejoin: miter"/>
   </g>
   <g id="patch_17">
    <path d="M 101.415992 274.134598 
C 101.29643 273.465042 101.163354 272.79797 101.016846 272.133789 
C 100.870338 271.469608 100.710428 270.808455 100.537214 270.150734 
L 95.653354 271.436922 
C 95.809247 272.028871 95.953166 272.623909 96.085023 273.221672 
C 96.21688 273.819434 96.336648 274.4198 96.444254 275.0224 
z
" clip-path="url(#pd031c4f1e2)" style="fill: #f032e6; opacity: 0.5; stroke: #f032e6; stroke-linejoin: miter"/>
   </g>
   <g id="patch_18">
    <path d="M 201.873946 308.529684 
C 215.451539 302.197544 226.381124 291.290589 232.741393 277.72615 
C 239.101662 264.16171 240.496728 248.784088 236.681353 234.296509 
L 230.498055 235.924911 
C 233.931893 248.963732 232.676333 262.803592 226.952091 275.011587 
C 221.227849 287.219583 211.391223 297.035842 199.171389 302.734769 
z
" clip-path="url(#pd031c4f1e2)" style="fill: #bcf60c; opacity: 0.5; stroke: #bcf60c; stroke-linejoin: miter"/>
   </g>
   <g id="patch_19">
    <path d="M 97.186481 234.293119 
C 82.620136 230.790459 67.276104 232.516189 53.851705 239.166945 
C 40.427306 245.817702 29.758127 256.979515 23.719697 270.690256 
L 29.57144 273.267457 
C 35.006027 260.927791 44.608288 250.882158 56.690247 244.896478 
C 68.772206 238.910797 82.581835 237.35764 95.691546 240.510034 
z
" clip-path="url(#pd031c4f1e2)" style="fill: #bcf60c; opacity: 0.5; stroke: #bcf60c; stroke-linejoin: miter"/>
   </g>
   <g id="patch_20">
    <path d="M 99.726473 298.326511 
C 121.730403 298.326511 142.836071 289.584257 158.3952 274.025129 
C 173.954328 258.466001 182.696582 237.360332 182.696582 215.356402 
C 182.696582 193.352472 173.954328 172.246803 158.3952 156.687675 
C 142.836071 141.128547 121.730403 132.386293 99.726473 132.386293 
C 77.722543 132.386293 56.616874 141.128547 41.057746 156.687675 
C 25.498618 172.246803 16.756364 193.352472 16.756364 215.356402 
C 16.756364 237.360332 25.498618 258.466001 41.057746 274.025129 
C 56.616874 289.584257 77.722543 298.326511 99.726473 298.326511 
L 99.726473 298.326511 
z
" clip-path="url(#pd031c4f1e2)" style="fill: none; stroke: #00ffff; stroke-width: 0.8; stroke-linejoin: miter"/>
   </g>
   <g id="patch_21">
    <path d="M 93.681106 301.502381 
C 98.5076 290.543438 98.856276 278.118806 94.65198 266.90643 
C 90.447685 255.694053 82.015857 246.56184 71.173852 241.478101 
L 69.226328 245.631552 
C 78.984133 250.206918 86.572777 258.42591 90.356643 268.517049 
C 94.140509 278.608188 93.826701 289.790356 89.482857 299.653405 
z
" clip-path="url(#pd031c4f1e2)" style="fill: #fabebe; opacity: 0.5; stroke: #fabebe; stroke-linejoin: miter"/>
   </g>
   <g id="patch_22">
    <path d="M 215.954085 230.21581 
C 210.638161 219.485739 201.326576 211.252426 190.026304 207.29044 
C 178.726032 203.328453 166.311784 203.944475 155.459265 209.005732 
L 157.398176 213.163211 
C 167.165443 208.60808 178.338266 208.053661 188.508511 211.619449 
C 198.678756 215.185236 207.059182 222.595218 211.843514 232.252282 
z
" clip-path="url(#pd031c4f1e2)" style="fill: #fabebe; opacity: 0.5; stroke: #fabebe; stroke-linejoin: miter"/>
   </g>
   <g id="patch_23">
    <path d="M 195.888653 240.156688 
C 195.255711 238.879108 194.507719 237.661828 193.653951 236.519941 
C 192.800183 235.378054 191.844182 234.316299 190.797802 233.347839 
L 189.202859 235.071108 
C 190.144601 235.942721 191.005002 236.898301 191.773393 237.926 
C 192.541784 238.953698 193.214977 240.04925 193.784625 241.199071 
z
" clip-path="url(#pd031c4f1e2)" style="fill: #008080; opacity: 0.5; stroke: #008080; stroke-linejoin: miter"/>
   </g>
   <g id="patch_24">
    <path d="M 198.221306 248.332011 
C 198.084775 246.912792 197.819263 245.508952 197.428062 244.137898 
C 197.036861 242.766845 196.521596 241.434267 195.888653 240.156688 
L 193.784625 241.199071 
C 194.354274 242.348893 194.818013 243.548213 195.170093 244.782161 
C 195.522174 246.016109 195.761135 247.279565 195.884013 248.556863 
z
" clip-path="url(#pd031c4f1e2)" style="fill: #008080; opacity: 0.5; stroke: #008080; stroke-linejoin: miter"/>
   </g>
   <g id="PathCollection_1">
    <defs>
     <path id="m67c2f5fdbc" d="M 0 1.118034 
C 0.296506 1.118034 0.580908 1.000231 0.790569 0.790569 
C 1.000231 0.580908 1.118034 0.296506 1.118034 0 
C 1.118034 -0.296506 1.000231 -0.580908 0.790569 -0.790569 
C 0.580908 -1.000231 0.296506 -1.118034 0 -1.118034 
C -0.296506 -1.118034 -0.580908 -1.000231 -0.790569 -0.790569 
C -1.000231 -0.580908 -1.118034 -0.296506 -1.118034 0 
C -1.118034 0.296506 -1.000231 0.580908 -0.790569 0.790569 
C -0.580908 1.000231 -0.296506 1.118034 0 1.118034 
z
" style="stroke: #ffffff"/>
    </defs>
    <g clip-path="url(#pd031c4f1e2)">
     <use xlink:href="#m67c2f5fdbc" x="261.350385" y="157.118733" style="fill: #ffffff; stroke: #ffffff"/>
    </g>
   </g>
   <g id="PathCollection_2">
    <g clip-path="url(#pd031c4f1e2)">
     <use xlink:href="#m67c2f5fdbc" x="121.022846" y="135.165982" style="fill: #ffffff; stroke: #ffffff"/>
    </g>
   </g>
   <g id="PathCollection_3">
    <g clip-path="url(#pd031c4f1e2)">
     <use xlink:href="#m67c2f5fdbc" x="301.611894" y="238.385665" style="fill: #ffffff; stroke: #ffffff"/>
    </g>
   </g>
   <g id="PathCollection_4">
    <g clip-path="url(#pd031c4f1e2)">
     <use xlink:href="#m67c2f5fdbc" x="174.848374" y="250.580526" style="fill: #ffffff; stroke: #ffffff"/>
    </g>
   </g>
   <g id="PathCollection_5">
    <g clip-path="url(#pd031c4f1e2)">
     <use xlink:href="#m67c2f5fdbc" x="51.698612" y="283.012618" style="fill: #ffffff; stroke: #ffffff"/>
    </g>
   </g>
   <g id="PathCollection_6">
    <g clip-path="url(#pd031c4f1e2)">
     <use xlink:href="#m67c2f5fdbc" x="82.237128" y="296.46227" style="fill: #ffffff; stroke: #ffffff"/>
    </g>
   </g>
   <g id="matplotlib.axis_1">
    <g id="xtick_1">
     <g id="line2d_1">
      <defs>
       <path id="m76b1367356" d="M 0 0 
L 0 3.5 
" style="stroke: #000000; stroke-width: 0.8"/>
      </defs>
      <g>
       <use xlink:href="#m76b1367356" x="31.873541" y="368.64" style="stroke: #000000; stroke-width: 0.8"/>
      </g>
     </g>
     <g id="text_1">
      <!-- −3.0 -->
      <g transform="translate(19.732135 383.238437) scale(0.1 -0.1)">
       <defs>
        <path id="DejaVuSans-2212" d="M 678 2272 
L 4684 2272 
L 4684 1741 
L 678 1741 
L 678 2272 
z
" transform="scale(0.015625)"/>
        <path id="DejaVuSans-33" d="M 2597 2516 
Q 3050 2419 3304 2112 
Q 3559 1806 3559 1356 
Q 3559 666 3084 287 
Q 2609 -91 1734 -91 
Q 1441 -91 1130 -33 
Q 819 25 488 141 
L 488 750 
Q 750 597 1062 519 
Q 1375 441 1716 441 
Q 2309 441 2620 675 
Q 2931 909 2931 1356 
Q 2931 1769 2642 2001 
Q 2353 2234 1838 2234 
L 1294 2234 
L 1294 2753 
L 1863 2753 
Q 2328 2753 2575 2939 
Q 2822 3125 2822 3475 
Q 2822 3834 2567 4026 
Q 2313 4219 1838 4219 
Q 1578 4219 1281 4162 
Q 984 4106 628 3988 
L 628 4550 
Q 988 4650 1302 4700 
Q 1616 4750 1894 4750 
Q 2613 4750 3031 4423 
Q 3450 4097 3450 3541 
Q 3450 3153 3228 2886 
Q 3006 2619 2597 2516 
z
" transform="scale(0.015625)"/>
        <path id="DejaVuSans-2e" d="M 684 794 
L 1344 794 
L 1344 0 
L 684 0 
L 684 794 
z
" transform="scale(0.015625)"/>
        <path id="DejaVuSans-30" d="M 2034 4250 
Q 1547 4250 1301 3770 
Q 1056 3291 1056 2328 
Q 1056 1369 1301 889 
Q 1547 409 2034 409 
Q 2525 409 2770 889 
Q 3016 1369 3016 2328 
Q 3016 3291 2770 3770 
Q 2525 4250 2034 4250 
z
M 2034 4750 
Q 2819 4750 3233 4129 
Q 3647 3509 3647 2328 
Q 3647 1150 3233 529 
Q 2819 -91 2034 -91 
Q 1250 -91 836 529 
Q 422 1150 422 2328 
Q 422 3509 836 4129 
Q 1250 4750 2034 4750 
z
" transform="scale(0.015625)"/>
       </defs>
       <use xlink:href="#DejaVuSans-2212"/>
       <use xlink:href="#DejaVuSans-33" x="83.789062"/>
       <use xlink:href="#DejaVuSans-2e" x="147.412109"/>
       <use xlink:href="#DejaVuSans-30" x="179.199219"/>
      </g>
     </g>
    </g>
    <g id="xtick_2">
     <g id="line2d_2">
      <g>
       <use xlink:href="#m76b1367356" x="76.6625" y="368.64" style="stroke: #000000; stroke-width: 0.8"/>
      </g>
     </g>
     <g id="text_2">
      <!-- −2.5 -->
      <g transform="translate(64.521093 383.238437) scale(0.1 -0.1)">
       <defs>
        <path id="DejaVuSans-32" d="M 1228 531 
L 3431 531 
L 3431 0 
L 469 0 
L 469 531 
Q 828 903 1448 1529 
Q 2069 2156 2228 2338 
Q 2531 2678 2651 2914 
Q 2772 3150 2772 3378 
Q 2772 3750 2511 3984 
Q 2250 4219 1831 4219 
Q 1534 4219 1204 4116 
Q 875 4013 500 3803 
L 500 4441 
Q 881 4594 1212 4672 
Q 1544 4750 1819 4750 
Q 2544 4750 2975 4387 
Q 3406 4025 3406 3419 
Q 3406 3131 3298 2873 
Q 3191 2616 2906 2266 
Q 2828 2175 2409 1742 
Q 1991 1309 1228 531 
z
" transform="scale(0.015625)"/>
        <path id="DejaVuSans-35" d="M 691 4666 
L 3169 4666 
L 3169 4134 
L 1269 4134 
L 1269 2991 
Q 1406 3038 1543 3061 
Q 1681 3084 1819 3084 
Q 2600 3084 3056 2656 
Q 3513 2228 3513 1497 
Q 3513 744 3044 326 
Q 2575 -91 1722 -91 
Q 1428 -91 1123 -41 
Q 819 9 494 109 
L 494 744 
Q 775 591 1075 516 
Q 1375 441 1709 441 
Q 2250 441 2565 725 
Q 2881 1009 2881 1497 
Q 2881 1984 2565 2268 
Q 2250 2553 1709 2553 
Q 1456 2553 1204 2497 
Q 953 2441 691 2322 
L 691 4666 
z
" transform="scale(0.015625)"/>
       </defs>
       <use xlink:href="#DejaVuSans-2212"/>
       <use xlink:href="#DejaVuSans-32" x="83.789062"/>
       <use xlink:href="#DejaVuSans-2e" x="147.412109"/>
       <use xlink:href="#DejaVuSans-35" x="179.199219"/>
      </g>
     </g>
    </g>
    <g id="xtick_3">
     <g id="line2d_3">
      <g>
       <use xlink:href="#m76b1367356" x="121.451458" y="368.64" style="stroke: #000000; stroke-width: 0.8"/>
      </g>
     </g>
     <g id="text_3">
      <!-- −2.0 -->
      <g transform="translate(109.310052 383.238437) scale(0.1 -0.1)">
       <use xlink:href="#DejaVuSans-2212"/>
       <use xlink:href="#DejaVuSans-32" x="83.789062"/>
       <use xlink:href="#DejaVuSans-2e" x="147.412109"/>
       <use xlink:href="#DejaVuSans-30" x="179.199219"/>
      </g>
     </g>
    </g>
    <g id="xtick_4">
     <g id="line2d_4">
      <g>
       <use xlink:href="#m76b1367356" x="166.240416" y="368.64" style="stroke: #000000; stroke-width: 0.8"/>
      </g>
     </g>
     <g id="text_4">
      <!-- −1.5 -->
      <g transform="translate(154.09901 383.238437) scale(0.1 -0.1)">
       <defs>
        <path id="DejaVuSans-31" d="M 794 531 
L 1825 531 
L 1825 4091 
L 703 3866 
L 703 4441 
L 1819 4666 
L 2450 4666 
L 2450 531 
L 3481 531 
L 3481 0 
L 794 0 
L 794 531 
z
" transform="scale(0.015625)"/>
       </defs>
       <use xlink:href="#DejaVuSans-2212"/>
       <use xlink:href="#DejaVuSans-31" x="83.789062"/>
       <use xlink:href="#DejaVuSans-2e" x="147.412109"/>
       <use xlink:href="#DejaVuSans-35" x="179.199219"/>
      </g>
     </g>
    </g>
    <g id="xtick_5">
     <g id="line2d_5">
      <g>
       <use xlink:href="#m76b1367356" x="211.029375" y="368.64" style="stroke: #000000; stroke-width: 0.8"/>
      </g>
     </g>
     <g id="text_5">
      <!-- −1.0 -->
      <g transform="translate(198.887969 383.238437) scale(0.1 -0.1)">
       <use xlink:href="#DejaVuSans-2212"/>
       <use xlink:href="#DejaVuSans-31" x="83.789062"/>
       <use xlink:href="#DejaVuSans-2e" x="147.412109"/>
       <use xlink:href="#DejaVuSans-30" x="179.199219"/>
      </g>
     </g>
    </g>
    <g id="xtick_6">
     <g id="line2d_6">
      <g>
       <use xlink:href="#m76b1367356" x="255.818333" y="368.64" style="stroke: #000000; stroke-width: 0.8"/>
      </g>
     </g>
     <g id="text_6">
      <!-- −0.5 -->
      <g transform="translate(243.676927 383.238437) scale(0.1 -0.1)">
       <use xlink:href="#DejaVuSans-2212"/>
       <use xlink:href="#DejaVuSans-30" x="83.789062"/>
       <use xlink:href="#DejaVuSans-2e" x="147.412109"/>
       <use xlink:href="#DejaVuSans-35" x="179.199219"/>
      </g>
     </g>
    </g>
    <g id="xtick_7">
     <g id="line2d_7">
      <g>
       <use xlink:href="#m76b1367356" x="300.607292" y="368.64" style="stroke: #000000; stroke-width: 0.8"/>
      </g>
     </g>
     <g id="text_7">
      <!-- 0.0 -->
      <g transform="translate(292.655729 383.238437) scale(0.1 -0.1)">
       <use xlink:href="#DejaVuSans-30"/>
       <use xlink:href="#DejaVuSans-2e" x="63.623047"/>
       <use xlink:href="#DejaVuSans-30" x="95.410156"/>
      </g>
     </g>
    </g>
    <g id="xtick_8">
     <g id="line2d_8">
      <g>
       <use xlink:href="#m76b1367356" x="345.39625" y="368.64" style="stroke: #000000; stroke-width: 0.8"/>
      </g>
     </g>
     <g id="text_8">
      <!-- 0.5 -->
      <g transform="translate(337.444687 383.238437) scale(0.1 -0.1)">
       <use xlink:href="#DejaVuSans-30"/>
       <use xlink:href="#DejaVuSans-2e" x="63.623047"/>
       <use xlink:href="#DejaVuSans-35" x="95.410156"/>
      </g>
     </g>
    </g>
   </g>
   <g id="matplotlib.axis_2">
    <g id="ytick_1">
     <g id="line2d_9">
      <defs>
       <path id="ma7d53f64ae" d="M 0 0 
L -3.5 0 
" style="stroke: #000000; stroke-width: 0.8"/>
      </defs>
      <g>
       <use xlink:href="#ma7d53f64ae" x="0" y="331.136058" style="stroke: #000000; stroke-width: 0.8"/>
      </g>
     </g>
     <g id="text_9">
      <!-- −2.0 -->
      <g transform="translate(-31.282813 334.935277) scale(0.1 -0.1)">
       <use xlink:href="#DejaVuSans-2212"/>
       <use xlink:href="#DejaVuSans-32" x="83.789062"/>
       <use xlink:href="#DejaVuSans-2e" x="147.412109"/>
       <use xlink:href="#DejaVuSans-30" x="179.199219"/>
      </g>
     </g>
    </g>
    <g id="ytick_2">
     <g id="line2d_10">
      <g>
       <use xlink:href="#ma7d53f64ae" x="0" y="286.347099" style="stroke: #000000; stroke-width: 0.8"/>
      </g>
     </g>
     <g id="text_10">
      <!-- −1.5 -->
      <g transform="translate(-31.282813 290.146318) scale(0.1 -0.1)">
       <use xlink:href="#DejaVuSans-2212"/>
       <use xlink:href="#DejaVuSans-31" x="83.789062"/>
       <use xlink:href="#DejaVuSans-2e" x="147.412109"/>
       <use xlink:href="#DejaVuSans-35" x="179.199219"/>
      </g>
     </g>
    </g>
    <g id="ytick_3">
     <g id="line2d_11">
      <g>
       <use xlink:href="#ma7d53f64ae" x="0" y="241.558141" style="stroke: #000000; stroke-width: 0.8"/>
      </g>
     </g>
     <g id="text_11">
      <!-- −1.0 -->
      <g transform="translate(-31.282813 245.35736) scale(0.1 -0.1)">
       <use xlink:href="#DejaVuSans-2212"/>
       <use xlink:href="#DejaVuSans-31" x="83.789062"/>
       <use xlink:href="#DejaVuSans-2e" x="147.412109"/>
       <use xlink:href="#DejaVuSans-30" x="179.199219"/>
      </g>
     </g>
    </g>
    <g id="ytick_4">
     <g id="line2d_12">
      <g>
       <use xlink:href="#ma7d53f64ae" x="0" y="196.769183" style="stroke: #000000; stroke-width: 0.8"/>
      </g>
     </g>
     <g id="text_12">
      <!-- −0.5 -->
      <g transform="translate(-31.282813 200.568401) scale(0.1 -0.1)">
       <use xlink:href="#DejaVuSans-2212"/>
       <use xlink:href="#DejaVuSans-30" x="83.789062"/>
       <use xlink:href="#DejaVuSans-2e" x="147.412109"/>
       <use xlink:href="#DejaVuSans-35" x="179.199219"/>
      </g>
     </g>
    </g>
    <g id="ytick_5">
     <g id="line2d_13">
      <g>
       <use xlink:href="#ma7d53f64ae" x="0" y="151.980224" style="stroke: #000000; stroke-width: 0.8"/>
      </g>
     </g>
     <g id="text_13">
      <!-- 0.0 -->
      <g transform="translate(-22.903125 155.779443) scale(0.1 -0.1)">
       <use xlink:href="#DejaVuSans-30"/>
       <use xlink:href="#DejaVuSans-2e" x="63.623047"/>
       <use xlink:href="#DejaVuSans-30" x="95.410156"/>
      </g>
     </g>
    </g>
    <g id="ytick_6">
     <g id="line2d_14">
      <g>
       <use xlink:href="#ma7d53f64ae" x="0" y="107.191266" style="stroke: #000000; stroke-width: 0.8"/>
      </g>
     </g>
     <g id="text_14">
      <!-- 0.5 -->
      <g transform="translate(-22.903125 110.990485) scale(0.1 -0.1)">
       <use xlink:href="#DejaVuSans-30"/>
       <use xlink:href="#DejaVuSans-2e" x="63.623047"/>
       <use xlink:href="#DejaVuSans-35" x="95.410156"/>
      </g>
     </g>
    </g>
    <g id="ytick_7">
     <g id="line2d_15">
      <g>
       <use xlink:href="#ma7d53f64ae" x="0" y="62.402307" style="stroke: #000000; stroke-width: 0.8"/>
      </g>
     </g>
     <g id="text_15">
      <!-- 1.0 -->
      <g transform="translate(-22.903125 66.201526) scale(0.1 -0.1)">
       <use xlink:href="#DejaVuSans-31"/>
       <use xlink:href="#DejaVuSans-2e" x="63.623047"/>
       <use xlink:href="#DejaVuSans-30" x="95.410156"/>
      </g>
     </g>
    </g>
    <g id="ytick_8">
     <g id="line2d_16">
      <g>
       <use xlink:href="#ma7d53f64ae" x="0" y="17.613349" style="stroke: #000000; stroke-width: 0.8"/>
      </g>
     </g>
     <g id="text_16">
      <!-- 1.5 -->
      <g transform="translate(-22.903125 21.412568) scale(0.1 -0.1)">
       <use xlink:href="#DejaVuSans-31"/>
       <use xlink:href="#DejaVuSans-2e" x="63.623047"/>
       <use xlink:href="#DejaVuSans-35" x="95.410156"/>
      </g>
     </g>
    </g>
   </g>
   <g id="line2d_17">
    <path d="M 261.350385 157.118733 
L 174.848374 250.580526 
" clip-path="url(#pd031c4f1e2)" style="fill: none; stroke: #ffffff; stroke-opacity: 0.9; stroke-width: 0.4; stroke-linecap: square"/>
   </g>
   <g id="line2d_18">
    <path d="M 51.698612 283.012618 
L 174.848374 250.580526 
" clip-path="url(#pd031c4f1e2)" style="fill: none; stroke: #ffffff; stroke-opacity: 0.9; stroke-width: 0.4; stroke-linecap: square"/>
   </g>
   <g id="line2d_19">
    <path d="M 0 314.057141 
L 368.64 92.692345 
" clip-path="url(#pd031c4f1e2)" style="fill: none; stroke-dasharray: 0.4,0.66; stroke-dashoffset: 0; stroke: #ffffff; stroke-opacity: 0.9; stroke-width: 0.4"/>
   </g>
   <g id="line2d_20">
    <path d="M 65.580389 368.64 
L 368.64 41.196805 
" clip-path="url(#pd031c4f1e2)" style="fill: none; stroke-dasharray: 0.4,0.66; stroke-dashoffset: 0; stroke: #ffffff; stroke-opacity: 0.9; stroke-width: 0.4"/>
   </g>
   <g id="line2d_21">
    <path d="M 0 296.627701 
L 368.64 199.544554 
" clip-path="url(#pd031c4f1e2)" style="fill: none; stroke-dasharray: 0.4,0.66; stroke-dashoffset: 0; stroke: #ffffff; stroke-opacity: 0.9; stroke-width: 0.4"/>
   </g>
   <g id="line2d_22">
    <path d="M 0 314.057141 
L 368.64 92.692345 
" clip-path="url(#pd031c4f1e2)" style="fill: none; stroke-dasharray: 0.4,0.66; stroke-dashoffset: 0; stroke: #ffffff; stroke-opacity: 0.9; stroke-width: 0.4"/>
   </g>
   <g id="line2d_23">
    <path d="M 0 314.057141 
L 368.64 92.692345 
" clip-path="url(#pd031c4f1e2)" style="fill: none; stroke-dasharray: 0.4,0.66; stroke-dashoffset: 0; stroke: #ffffff; stroke-opacity: 0.9; stroke-width: 0.4"/>
   </g>
   <g id="line2d_24">
    <path d="M 11.548543 368.64 
L 184.401212 0 
" clip-path="url(#pd031c4f1e2)" style="fill: none; stroke-dasharray: 0.4,0.66; stroke-dashoffset: 0; stroke: #ffffff; stroke-opacity: 0.9; stroke-width: 0.4"/>
   </g>
   <g id="line2d_25">
    <path d="M 0 260.243721 
L 246.122468 368.64 
" clip-path="url(#pd031c4f1e2)" style="fill: none; stroke-dasharray: 0.4,0.66; stroke-dashoffset: 0; stroke: #ffffff; stroke-opacity: 0.9; stroke-width: 0.4"/>
   </g>
   <g id="line2d_26">
    <path d="M 0 292.244427 
L 368.64 226.416473 
" clip-path="url(#pd031c4f1e2)" style="fill: none; stroke-dasharray: 0.4,0.66; stroke-dashoffset: 0; stroke: #ffffff; stroke-opacity: 0.9; stroke-width: 0.4"/>
   </g>
   <g id="line2d_27">
    <path d="M 261.350385 157.118733 
L 174.848374 250.580526 
" clip-path="url(#pd031c4f1e2)" style="fill: none; stroke: #ffffff; stroke-opacity: 0.9; stroke-width: 0.4; stroke-linecap: square"/>
   </g>
   <g id="line2d_28">
    <path d="M 121.022846 135.165982 
L 174.848374 250.580526 
" clip-path="url(#pd031c4f1e2)" style="fill: none; stroke: #ffffff; stroke-opacity: 0.9; stroke-width: 0.4; stroke-linecap: square"/>
   </g>
   <g id="line2d_29">
    <path d="M 121.022846 135.165982 
L 174.848374 250.580526 
" clip-path="url(#pd031c4f1e2)" style="fill: none; stroke: #ffffff; stroke-opacity: 0.9; stroke-width: 0.4; stroke-linecap: square"/>
   </g>
   <g id="line2d_30">
    <path d="M 51.698612 283.012618 
L 174.848374 250.580526 
" clip-path="url(#pd031c4f1e2)" style="fill: none; stroke: #ffffff; stroke-opacity: 0.9; stroke-width: 0.4; stroke-linecap: square"/>
   </g>
   <g id="line2d_31">
    <path d="M 11.548543 368.64 
L 184.401212 0 
" clip-path="url(#pd031c4f1e2)" style="fill: none; stroke-dasharray: 0.4,0.66; stroke-dashoffset: 0; stroke: #ffffff; stroke-opacity: 0.9; stroke-width: 0.4"/>
   </g>
   <g id="line2d_32">
    <path d="M 57.985901 0 
L 229.90741 368.64 
" clip-path="url(#pd031c4f1e2)" style="fill: none; stroke-dasharray: 0.4,0.66; stroke-dashoffset: 0; stroke: #ffffff; stroke-opacity: 0.9; stroke-width: 0.4"/>
   </g>
   <g id="line2d_33">
    <path d="M 0 296.627701 
L 368.64 199.544554 
" clip-path="url(#pd031c4f1e2)" style="fill: none; stroke-dasharray: 0.4,0.66; stroke-dashoffset: 0; stroke: #ffffff; stroke-opacity: 0.9; stroke-width: 0.4"/>
   </g>
   <g id="line2d_34">
    <path d="M 11.548543 368.64 
L 184.401212 0 
" clip-path="url(#pd031c4f1e2)" style="fill: none; stroke-dasharray: 0.4,0.66; stroke-dashoffset: 0; stroke: #ffffff; stroke-opacity: 0.9; stroke-width: 0.4"/>
   </g>
   <g id="line2d_35">
    <path d="M 0 116.233244 
L 368.64 173.903053 
" clip-path="url(#pd031c4f1e2)" style="fill: none; stroke-dasharray: 0.4,0.66; stroke-dashoffset: 0; stroke: #ffffff; stroke-opacity: 0.9; stroke-width: 0.4"/>
   </g>
   <g id="line2d_36">
    <path d="M 65.580389 368.64 
L 368.64 41.196805 
" clip-path="url(#pd031c4f1e2)" style="fill: none; stroke-dasharray: 0.4,0.66; stroke-dashoffset: 0; stroke: #ffffff; stroke-opacity: 0.9; stroke-width: 0.4"/>
   </g>
   <g id="line2d_37">
    <path d="M 57.985901 0 
L 229.90741 368.64 
" clip-path="url(#pd031c4f1e2)" style="fill: none; stroke-dasharray: 0.4,0.66; stroke-dashoffset: 0; stroke: #ffffff; stroke-opacity: 0.9; stroke-width: 0.4"/>
   </g>
   <g id="line2d_38">
    <path d="M 0 116.233244 
L 368.64 173.903053 
" clip-path="url(#pd031c4f1e2)" style="fill: none; stroke-dasharray: 0.4,0.66; stroke-dashoffset: 0; stroke: #ffffff; stroke-opacity: 0.9; stroke-width: 0.4"/>
   </g>
   <g id="line2d_39">
    <path d="M 0 116.233244 
L 368.64 173.903053 
" clip-path="url(#pd031c4f1e2)" style="fill: none; stroke-dasharray: 0.4,0.66; stroke-dashoffset: 0; stroke: #ffffff; stroke-opacity: 0.9; stroke-width: 0.4"/>
   </g>
   <g id="line2d_40">
    <path d="M 11.548543 368.64 
L 184.401212 0 
" clip-path="url(#pd031c4f1e2)" style="fill: none; stroke-dasharray: 0.4,0.66; stroke-dashoffset: 0; stroke: #ffffff; stroke-opacity: 0.9; stroke-width: 0.4"/>
   </g>
   <g id="line2d_41">
    <path d="M 64.881086 368.64 
L 153.525204 0 
" clip-path="url(#pd031c4f1e2)" style="fill: none; stroke-dasharray: 0.4,0.66; stroke-dashoffset: 0; stroke: #ffffff; stroke-opacity: 0.9; stroke-width: 0.4"/>
   </g>
   <g id="line2d_42">
    <path d="M 0 65.992684 
L 368.64 276.697069 
" clip-path="url(#pd031c4f1e2)" style="fill: none; stroke-dasharray: 0.4,0.66; stroke-dashoffset: 0; stroke: #ffffff; stroke-opacity: 0.9; stroke-width: 0.4"/>
   </g>
   <g id="line2d_43">
    <path d="M 121.022846 135.165982 
L 174.848374 250.580526 
" clip-path="url(#pd031c4f1e2)" style="fill: none; stroke: #ffffff; stroke-opacity: 0.9; stroke-width: 0.4; stroke-linecap: square"/>
   </g>
   <g id="line2d_44">
    <path d="M 301.611894 238.385665 
L 174.848374 250.580526 
" clip-path="url(#pd031c4f1e2)" style="fill: none; stroke: #ffffff; stroke-opacity: 0.9; stroke-width: 0.4; stroke-linecap: square"/>
   </g>
   <g id="line2d_45">
    <path d="M 0 65.992684 
L 368.64 276.697069 
" clip-path="url(#pd031c4f1e2)" style="fill: none; stroke-dasharray: 0.4,0.66; stroke-dashoffset: 0; stroke: #ffffff; stroke-opacity: 0.9; stroke-width: 0.4"/>
   </g>
   <g id="line2d_46">
    <path d="M 57.985901 0 
L 229.90741 368.64 
" clip-path="url(#pd031c4f1e2)" style="fill: none; stroke-dasharray: 0.4,0.66; stroke-dashoffset: 0; stroke: #ffffff; stroke-opacity: 0.9; stroke-width: 0.4"/>
   </g>
   <g id="line2d_47">
    <path d="M 0 267.40123 
L 368.64 231.937451 
" clip-path="url(#pd031c4f1e2)" style="fill: none; stroke-dasharray: 0.4,0.66; stroke-dashoffset: 0; stroke: #ffffff; stroke-opacity: 0.9; stroke-width: 0.4"/>
   </g>
   <g id="line2d_48">
    <path d="M 0 65.992684 
L 368.64 276.697069 
" clip-path="url(#pd031c4f1e2)" style="fill: none; stroke-dasharray: 0.4,0.66; stroke-dashoffset: 0; stroke: #ffffff; stroke-opacity: 0.9; stroke-width: 0.4"/>
   </g>
   <g id="line2d_49">
    <path d="M 301.611894 238.385665 
L 174.848374 250.580526 
" clip-path="url(#pd031c4f1e2)" style="fill: none; stroke: #ffffff; stroke-opacity: 0.9; stroke-width: 0.4; stroke-linecap: square"/>
   </g>
   <g id="line2d_50">
    <path d="M 51.698612 283.012618 
L 174.848374 250.580526 
" clip-path="url(#pd031c4f1e2)" style="fill: none; stroke: #ffffff; stroke-opacity: 0.9; stroke-width: 0.4; stroke-linecap: square"/>
   </g>
   <g id="line2d_51">
    <path d="M 0 292.244427 
L 368.64 226.416473 
" clip-path="url(#pd031c4f1e2)" style="fill: none; stroke-dasharray: 0.4,0.66; stroke-dashoffset: 0; stroke: #ffffff; stroke-opacity: 0.9; stroke-width: 0.4"/>
   </g>
   <g id="line2d_52">
    <path d="M 0 267.40123 
L 368.64 231.937451 
" clip-path="url(#pd031c4f1e2)" style="fill: none; stroke-dasharray: 0.4,0.66; stroke-dashoffset: 0; stroke: #ffffff; stroke-opacity: 0.9; stroke-width: 0.4"/>
   </g>
   <g id="line2d_53">
    <path d="M 0 296.627701 
L 368.64 199.544554 
" clip-path="url(#pd031c4f1e2)" style="fill: none; stroke-dasharray: 0.4,0.66; stroke-dashoffset: 0; stroke: #ffffff; stroke-opacity: 0.9; stroke-width: 0.4"/>
   </g>
   <g id="line2d_54">
    <path d="M 0 292.244427 
L 368.64 226.416473 
" clip-path="url(#pd031c4f1e2)" style="fill: none; stroke-dasharray: 0.4,0.66; stroke-dashoffset: 0; stroke: #ffffff; stroke-opacity: 0.9; stroke-width: 0.4"/>
   </g>
   <g id="line2d_55">
    <path d="M 57.985901 0 
L 229.90741 368.64 
" clip-path="url(#pd031c4f1e2)" style="fill: none; stroke-dasharray: 0.4,0.66; stroke-dashoffset: 0; stroke: #ffffff; stroke-opacity: 0.9; stroke-width: 0.4"/>
   </g>
   <g id="line2d_56">
    <path d="M 0 296.627701 
L 368.64 199.544554 
" clip-path="url(#pd031c4f1e2)" style="fill: none; stroke-dasharray: 0.4,0.66; stroke-dashoffset: 0; stroke: #ffffff; stroke-opacity: 0.9; stroke-width: 0.4"/>
   </g>
   <g id="line2d_57">
    <path d="M 64.881086 368.64 
L 153.525204 0 
" clip-path="url(#pd031c4f1e2)" style="fill: none; stroke-dasharray: 0.4,0.66; stroke-dashoffset: 0; stroke: #ffffff; stroke-opacity: 0.9; stroke-width: 0.4"/>
   </g>
   <g id="line2d_58">
    <path d="M 0 260.243721 
L 246.122468 368.64 
" clip-path="url(#pd031c4f1e2)" style="fill: none; stroke-dasharray: 0.4,0.66; stroke-dashoffset: 0; stroke: #ffffff; stroke-opacity: 0.9; stroke-width: 0.4"/>
   </g>
   <g id="line2d_59">
    <path d="M 11.548543 368.64 
L 184.401212 0 
" clip-path="url(#pd031c4f1e2)" style="fill: none; stroke-dasharray: 0.4,0.66; stroke-dashoffset: 0; stroke: #ffffff; stroke-opacity: 0.9; stroke-width: 0.4"/>
   </g>
   <g id="line2d_60">
    <path d="M 0 260.243721 
L 246.122468 368.64 
" clip-path="url(#pd031c4f1e2)" style="fill: none; stroke-dasharray: 0.4,0.66; stroke-dashoffset: 0; stroke: #ffffff; stroke-opacity: 0.9; stroke-width: 0.4"/>
   </g>
   <g id="line2d_61">
    <path d="M 57.985901 0 
L 229.90741 368.64 
" clip-path="url(#pd031c4f1e2)" style="fill: none; stroke-dasharray: 0.4,0.66; stroke-dashoffset: 0; stroke: #ffffff; stroke-opacity: 0.9; stroke-width: 0.4"/>
   </g>
   <g id="line2d_62">
    <path d="M 0 337.204437 
L 368.64 154.571693 
" clip-path="url(#pd031c4f1e2)" style="fill: none; stroke-dasharray: 0.4,0.66; stroke-dashoffset: 0; stroke: #ffffff; stroke-opacity: 0.9; stroke-width: 0.4"/>
   </g>
   <g id="line2d_63">
    <path d="M 65.580389 368.64 
L 368.64 41.196805 
" clip-path="url(#pd031c4f1e2)" style="fill: none; stroke-dasharray: 0.4,0.66; stroke-dashoffset: 0; stroke: #ffffff; stroke-opacity: 0.9; stroke-width: 0.4"/>
   </g>
   <g id="line2d_64">
    <path d="M 0 337.204437 
L 368.64 154.571693 
" clip-path="url(#pd031c4f1e2)" style="fill: none; stroke-dasharray: 0.4,0.66; stroke-dashoffset: 0; stroke: #ffffff; stroke-opacity: 0.9; stroke-width: 0.4"/>
   </g>
   <g id="line2d_65">
    <path d="M 0 337.204437 
L 368.64 154.571693 
" clip-path="url(#pd031c4f1e2)" style="fill: none; stroke-dasharray: 0.4,0.66; stroke-dashoffset: 0; stroke: #ffffff; stroke-opacity: 0.9; stroke-width: 0.4"/>
   </g>
   <g id="line2d_66">
    <path d="M 0 267.40123 
L 368.64 231.937451 
" clip-path="url(#pd031c4f1e2)" style="fill: none; stroke-dasharray: 0.4,0.66; stroke-dashoffset: 0; stroke: #ffffff; stroke-opacity: 0.9; stroke-width: 0.4"/>
   </g>
   <g id="line2d_67">
    <path d="M 261.350385 157.118733 
L 174.848374 250.580526 
" clip-path="url(#pd031c4f1e2)" style="fill: none; stroke-dasharray: 1.48,0.64; stroke-dashoffset: 0; stroke: #ffffff; stroke-opacity: 0.9; stroke-width: 0.4"/>
   </g>
   <g id="line2d_68">
    <path d="M 174.848374 250.580526 
L 82.237128 296.46227 
" clip-path="url(#pd031c4f1e2)" style="fill: none; stroke-dasharray: 1.48,0.64; stroke-dashoffset: 0; stroke: #ffffff; stroke-opacity: 0.9; stroke-width: 0.4"/>
   </g>
   <g id="line2d_69">
    <path d="M 261.350385 157.118733 
L 82.237128 296.46227 
" clip-path="url(#pd031c4f1e2)" style="fill: none; stroke-dasharray: 1.48,0.64; stroke-dashoffset: 0; stroke: #ffffff; stroke-opacity: 0.9; stroke-width: 0.4"/>
   </g>
   <g id="line2d_70">
    <path d="M 301.611894 238.385665 
L 174.848374 250.580526 
" clip-path="url(#pd031c4f1e2)" style="fill: none; stroke-dasharray: 1.48,0.64; stroke-dashoffset: 0; stroke: #ffffff; stroke-opacity: 0.9; stroke-width: 0.4"/>
   </g>
   <g id="line2d_71">
    <path d="M 174.848374 250.580526 
L 82.237128 296.46227 
" clip-path="url(#pd031c4f1e2)" style="fill: none; stroke-dasharray: 1.48,0.64; stroke-dashoffset: 0; stroke: #ffffff; stroke-opacity: 0.9; stroke-width: 0.4"/>
   </g>
   <g id="line2d_72">
    <path d="M 301.611894 238.385665 
L 82.237128 296.46227 
" clip-path="url(#pd031c4f1e2)" style="fill: none; stroke-dasharray: 1.48,0.64; stroke-dashoffset: 0; stroke: #ffffff; stroke-opacity: 0.9; stroke-width: 0.4"/>
   </g>
   <g id="line2d_73">
    <path d="M 261.350385 157.118733 
L 82.237128 296.46227 
" clip-path="url(#pd031c4f1e2)" style="fill: none; stroke: #ffffff; stroke-opacity: 0.9; stroke-width: 0.4; stroke-linecap: square"/>
   </g>
   <g id="line2d_74">
    <path d="M 301.611894 238.385665 
L 82.237128 296.46227 
" clip-path="url(#pd031c4f1e2)" style="fill: none; stroke: #ffffff; stroke-opacity: 0.9; stroke-width: 0.4; stroke-linecap: square"/>
   </g>
   <g id="patch_25">
    <path d="M 0 368.64 
L 0 0 
" style="fill: none; stroke: #000000; stroke-width: 0.8; stroke-linejoin: miter; stroke-linecap: square"/>
   </g>
   <g id="patch_26">
    <path d="M 368.64 368.64 
L 368.64 0 
" style="fill: none; stroke: #000000; stroke-width: 0.8; stroke-linejoin: miter; stroke-linecap: square"/>
   </g>
   <g id="patch_27">
    <path d="M 0 368.64 
L 368.64 368.64 
" style="fill: none; stroke: #000000; stroke-width: 0.8; stroke-linejoin: miter; stroke-linecap: square"/>
   </g>
   <g id="patch_28">
    <path d="M 0 0 
L 368.64 0 
" style="fill: none; stroke: #000000; stroke-width: 0.8; stroke-linejoin: miter; stroke-linecap: square"/>
   </g>
   <g id="text_17">
    <!-- A -->
    <g style="fill: #00ff00" transform="translate(261.350385 157.118733) scale(0.1 -0.1)">
     <defs>
      <path id="DejaVuSans-41" d="M 2188 4044 
L 1331 1722 
L 3047 1722 
L 2188 4044 
z
M 1831 4666 
L 2547 4666 
L 4325 0 
L 3669 0 
L 3244 1197 
L 1141 1197 
L 716 0 
L 50 0 
L 1831 4666 
z
" transform="scale(0.015625)"/>
     </defs>
     <use xlink:href="#DejaVuSans-41"/>
    </g>
   </g>
   <g id="text_18">
    <!-- B -->
    <g style="fill: #00ff00" transform="translate(121.022846 135.165982) scale(0.1 -0.1)">
     <defs>
      <path id="DejaVuSans-42" d="M 1259 2228 
L 1259 519 
L 2272 519 
Q 2781 519 3026 730 
Q 3272 941 3272 1375 
Q 3272 1813 3026 2020 
Q 2781 2228 2272 2228 
L 1259 2228 
z
M 1259 4147 
L 1259 2741 
L 2194 2741 
Q 2656 2741 2882 2914 
Q 3109 3088 3109 3444 
Q 3109 3797 2882 3972 
Q 2656 4147 2194 4147 
L 1259 4147 
z
M 628 4666 
L 2241 4666 
Q 2963 4666 3353 4366 
Q 3744 4066 3744 3513 
Q 3744 3084 3544 2831 
Q 3344 2578 2956 2516 
Q 3422 2416 3680 2098 
Q 3938 1781 3938 1306 
Q 3938 681 3513 340 
Q 3088 0 2303 0 
L 628 0 
L 628 4666 
z
" transform="scale(0.015625)"/>
     </defs>
     <use xlink:href="#DejaVuSans-42"/>
    </g>
   </g>
   <g id="text_19">
    <!-- C -->
    <g style="fill: #00ff00" transform="translate(301.611894 238.385665) scale(0.1 -0.1)">
     <defs>
      <path id="DejaVuSans-43" d="M 4122 4306 
L 4122 3641 
Q 3803 3938 3442 4084 
Q 3081 4231 2675 4231 
Q 1875 4231 1450 3742 
Q 1025 3253 1025 2328 
Q 1025 1406 1450 917 
Q 1875 428 2675 428 
Q 3081 428 3442 575 
Q 3803 722 4122 1019 
L 4122 359 
Q 3791 134 3420 21 
Q 3050 -91 2638 -91 
Q 1578 -91 968 557 
Q 359 1206 359 2328 
Q 359 3453 968 4101 
Q 1578 4750 2638 4750 
Q 3056 4750 3426 4639 
Q 3797 4528 4122 4306 
z
" transform="scale(0.015625)"/>
     </defs>
     <use xlink:href="#DejaVuSans-43"/>
    </g>
   </g>
   <g id="text_20">
    <!-- O -->
    <g style="fill: #00ff00" transform="translate(174.848374 250.580526) scale(0.1 -0.1)">
     <defs>
      <path id="DejaVuSans-4f" d="M 2522 4238 
Q 1834 4238 1429 3725 
Q 1025 3213 1025 2328 
Q 1025 1447 1429 934 
Q 1834 422 2522 422 
Q 3209 422 3611 934 
Q 4013 1447 4013 2328 
Q 4013 3213 3611 3725 
Q 3209 4238 2522 4238 
z
M 2522 4750 
Q 3503 4750 4090 4092 
Q 4678 3434 4678 2328 
Q 4678 1225 4090 567 
Q 3503 -91 2522 -91 
Q 1538 -91 948 565 
Q 359 1222 359 2328 
Q 359 3434 948 4092 
Q 1538 4750 2522 4750 
z
" transform="scale(0.015625)"/>
     </defs>
     <use xlink:href="#DejaVuSans-4f"/>
    </g>
   </g>
   <g id="text_21">
    <!-- D -->
    <g style="fill: #00ff00" transform="translate(51.698612 283.012618) scale(0.1 -0.1)">
     <defs>
      <path id="DejaVuSans-44" d="M 1259 4147 
L 1259 519 
L 2022 519 
Q 2988 519 3436 956 
Q 3884 1394 3884 2338 
Q 3884 3275 3436 3711 
Q 2988 4147 2022 4147 
L 1259 4147 
z
M 628 4666 
L 1925 4666 
Q 3281 4666 3915 4102 
Q 4550 3538 4550 2338 
Q 4550 1131 3912 565 
Q 3275 0 1925 0 
L 628 0 
L 628 4666 
z
" transform="scale(0.015625)"/>
     </defs>
     <use xlink:href="#DejaVuSans-44"/>
    </g>
   </g>
   <g id="text_22">
    <!-- P -->
    <g style="fill: #00ff00" transform="translate(82.237128 296.46227) scale(0.1 -0.1)">
     <defs>
      <path id="DejaVuSans-50" d="M 1259 4147 
L 1259 2394 
L 2053 2394 
Q 2494 2394 2734 2622 
Q 2975 2850 2975 3272 
Q 2975 3691 2734 3919 
Q 2494 4147 2053 4147 
L 1259 4147 
z
M 628 4666 
L 2053 4666 
Q 2838 4666 3239 4311 
Q 3641 3956 3641 3272 
Q 3641 2581 3239 2228 
Q 2838 1875 2053 1875 
L 1259 1875 
L 1259 0 
L 628 0 
L 628 4666 
z
" transform="scale(0.015625)"/>
     </defs>
     <use xlink:href="#DejaVuSans-50"/>
    </g>
   </g>
  </g>
 </g>
 <defs>
  <clipPath id="pd031c4f1e2">
   <rect x="0" y="0" width="368.64" height="368.64"/>
  </clipPath>
 </defs>
</svg>
